<svg x="0" y="0" width="300" height="300" version="1.1" xmlns="http://www.w3.org/2000/svg" xmlns:xlink="http://www.w3.org/1999/xlink"><g fill="none" stroke="none" stroke-width="1" stroke-linecap="butt" stroke-linejoin="miter" stroke-miterlimit="10" stroke-dasharray="" stroke-dashoffset="0" font-family="sans-serif" font-weight="normal" font-size="12" text-anchor="start" mix-blend-mode="normal"><path d="M0,300l0,-300l300,0l0,300z" fill="#702ab7"></path><path d="M245,150l-1.39366,32.23125l-12.44123,31.18188l-28.33512,17.93791l-29.12164,13.73794l-31.81383,-2.44287l-35.0086,4.18971l-27.81375,-20.77503l-20.01577,-27.70521l-2.88679,-33.4943l-5.63519,-32.39974l5.00665,-34.82097l26.87674,-22.69819l26.94615,-20.67488l33.10234,-12.00441l33.4156,11.14433l33.95174,7.88556l16.83537,30.93278l14.63242,28.10861" fill="#db8003"></path><path d="M243,150l6.27945,34.18466l-20.47838,27.38149l-26.51573,18.94623l-30.99622,4.87365l-28.95883,2.27911l-31.37701,0.03523l-22.33313,-21.87853l-31.32964,-16.52732l-6.05934,-33.65107l1.27287,-32.83462l3.91166,-34.68346l33.36255,-15.0084l21.53937,-24.24695l31.35795,-13.61424l30.35932,18.77683l32.8844,3.06364l21.54835,24.5277l5.27427,31.49158" fill="#680fb2"></path><path d="M237,150l8.49738,32.88238l-21.42437,24.9898l-17.97519,28.51089l-32.38947,8.70591l-32.16245,1.5419l-33.43977,-2.5357l-29.03396,-18.0344l-14.71809,-30.52204l-11.14754,-30.20816l-1.68732,-32.6954l18.89038,-26.75286l22.71429,-19.04963l21.7103,-19.67813l27.98088,-19.90366l33.58446,4.22466l25.0462,22.25298l26.82053,17.29358l15.88832,28.38519" fill="#c768f0"></path><path d="M244,150l1.49738,32.88238l-27.72845,20.0645l-15.48358,27.56549l-31.23814,3.90335l-28.45544,0.26082l-27.16438,-7.02519l-32.94522,-5.24735l-21.65987,-24.98739l-6.62806,-32.24248l5.20346,-31.14978l19.75812,-23.29395l7.27679,-31.32918l30.74599,-6.72365l25.98528,-20.43887l30.38867,9.86203l28.45241,10.79876l12.68454,28.35348l16.15033,22.48057" fill="#a5c71b"></path><path d="M234,150l6.76978,31.25454l-17.48478,26.00197l-21.54429,22.41719l-30.93543,3.77173l-29.08508,11.19306l-27.51303,-14.2465l-19.44904,-21.15235l-20.69163,-18.8651l-4.06926,-27.70336l-8.62994,-28.29953l13.4154,-26.06529l15.66467,-24.44626l22.8239,-20.38757l30.10186,-8.24113l28.8853,11.69896l29.18731,6.79816l23.62599,19.70084l1.01278,31.84925" fill="#5c22c9"></path><path d="M243,150l-7.90333,29.30113l-18.90377,22.41443l-22.62178,15.37808l-24.94314,7.61913l-26.38485,13.94856l-28.4427,-7.35578l-25.18029,-15.48371l-20.73427,-22.16098l-6.77782,-29.58175l9.12252,-28.1446l1.92827,-29.08255l15.61201,-25.96441l29.40773,-8.20994l26.68285,-10.46323l27.10291,9.54564l26.56705,7.7718l17.95672,21.11936l9.64535,24.93649" fill="#827fe1"></path><path d="M241,150l-9.6854,27.99886l-23.0018,17.56009l-9.83992,29.08273l-26.45798,13.65523l-28.98735,-8.60134l-29.63384,2.52352l-24.77355,-16.39726l-6.60711,-29.67252l-17.94192,-22.53951l-0.7342,-28.89084l8.82193,-27.86702l27.65636,-12.58781l16.58192,-23.42756l27.88285,-2.63683l29.27256,-6.099l26.21564,14.11491l14.12267,25.63914l18.85108,21.26072" fill="#fc0476"></path><path d="M221,150l12.20563,28.65l-26.46886,15.67763l-13.71029,21.92735l-22.2212,17.19046l-27.95205,-1.75747l-24.57869,-10.43142l-26.9264,-8.36013l-4.03742,-29.56394l-18.30116,-20.50485l3.19063,-26.54583l15.70181,-20.70328l11.24407,-22.05752l17.64178,-21.76391l28.39895,9.41099l23.70699,-1.68067l21.3681,10.82188l22.03168,12.74913l21.3994,19.74808" fill="#14dc5a"></path><path d="M235,150l-22.59577,21.4875l5.3647,31.45939l-26.921,9.95341l-20.76841,17.63425l-27.13913,0.15723l-21.81869,-15.83004l-25.68157,-6.35343l-3.71467,-27.52317l-16.78977,-19.0961l3.17335,-24.56534l11.54221,-20.77555l16.18614,-15.59569l14.46705,-20.91081l24.74286,-0.86868l22.29359,6.11002l21.80263,6.6844l15.16371,17.10921l25.58153,14.96599" fill="#03d2a2"></path><path d="M226,150l-12.65026,21.81307l-4.24894,24.36154l-22.60999,10.01632l-17.13706,21.43273l-25.89043,-2.90906l-21.12141,-12.59351l-26.21978,-4.34415l-9.69436,-23.97499l-16.43053,-21.13076l7.12698,-25.52116l2.9062,-25.9348l16.43913,-20.66682l24.22561,-9.58628l24.91018,6.19133l23.02963,-6.70012l21.62692,9.85595l11.64942,20.57273l20.36899,15.63268" fill="#49c949"></path><path d="M228,150l-16.54129,21.16193l-9.45,19.47173l-11.16078,22.26664l-24.63916,2.10952l-22.74545,9.70479l-22.74836,-8.93933l-17.09085,-16.04322l-16.31339,-16.39957l-3.48584,-22.85137l4.13223,-21.42094l-0.05511,-23.48165l14.58973,-18.3418l17.42198,-18.11559l25.34286,3.04452l20.27258,9.87881l20.2592,4.89714l12.12978,16.9495l18.65583,14.47771" fill="#6f5a79"></path><path d="M225,150l-5.03163,24.09204l-17.17165,17.15728l-20.11838,9.07092l-17.19534,11.77869l-21.75821,9.62709l-21.78961,-8.69138l-12.17307,-19.88477l-10.97306,-15.92052l-23.85335,-15.34033l6.12777,-24.04439l15.58474,-17.41801l7.85092,-20.96046l20.88482,-7.45796l19.94238,-8.84499l22.79102,-0.77802l14.87505,18.70159l27.70392,3.17528l7.77977,23.48872" fill="#e4ef6e"></path><path d="M210,150l-0.43233,20.51079l-6.77095,20.73853l-19.0291,10.74826l-19.25231,6.22017l-20.18044,6.53491l-21.58623,-3.54511l-15.71454,-15.13226l-16.19159,-14.62069l3.84694,-22.69426l-5.74753,-19.52652l13.82862,-15.41353l0.39032,-25.84042l24.9582,0.47187l17.76531,-7.30801l20.16241,-1.03112l14.14964,15.11937l28.90261,0.23372l6.52387,23.21214" fill="#16b7c3"></path><path d="M216,150l-14.942,17.58068l0.1627,22.43732l-18.54236,10.30224l-18.64687,5.95692l-19.95806,11.46409l-22.54497,-3.79306l-14.49433,-17.8729l-19.72338,-12.7428l8.36642,-24.72859l-8.70484,-19.71738l2.67894,-22.33838l22.87745,-8.16425l15.9811,-9.01166l17.79312,-2.24313l20.26151,-8.94836l22.01989,4.61566l7.73655,22.29832l6.93831,17.60032" fill="#82e00c"></path><path d="M210,150l4.29526,22.13863l-20.16666,12.33841l-16.89665,7.45649l-14.16817,10.46244l-17.33441,-3.58243l-22.98072,12.39401l-8.89456,-22.4458l-17.71389,-10.12398l-5.4015,-19.2517l3.12726,-19.28401l5.4061,-18.22101l15.26402,-11.26772l15.1459,-8.47958l15.78385,-16.97541l20.06331,6.88611l19.70001,5.72618l5.50126,21.5368l14.43087,12.76958" fill="#2adb10"></path><path d="M207,150l4.45871,21.16193l-14.17806,15.77776l-11.87911,17.5739l-20.40238,5.64475l-20.66428,4.59432l-15.07845,-18.16184l-16.08434,-7.09772l-6.43652,-16.48899l-9.08305,-14.71308l-11.66502,-19.57816l20.28152,-12.95335l12.28185,-10.68733l7.22381,-22.14349l20.94678,10.18579l17.25478,-5.27448l16.22019,7.39197l16.12444,9.86276l14.54676,15.12818" fill="#69df81"></path><path d="M202,150l0.94904,18.23182l-17.48856,9.47295l-9.31781,12.55142l-14.04658,8.2586l-17.23828,10.2607l-19.26201,-3.96276l-13.10571,-14.58827l-2.22273,-19.09823l-2.73796,-14.39954l-1.84575,-14.54085l-8.16083,-21.27441l19.02065,-8.06866l13.52924,-9.78851l16.71849,1.0578l14.59684,3.38721l22.72273,-8.07056l5.02237,21.08236l8.41969,14.03809" fill="#888748"></path></g></svg>