<svg x="0" y="0" width="300" height="300" version="1.1" xmlns="http://www.w3.org/2000/svg" xmlns:xlink="http://www.w3.org/1999/xlink"><g fill="none" stroke="none" stroke-width="1" stroke-linecap="butt" stroke-linejoin="miter" stroke-miterlimit="10" stroke-dasharray="" stroke-dashoffset="0" font-family="sans-serif" font-weight="normal" font-size="12" text-anchor="start" mix-blend-mode="normal"><path d="M0,300l0,-300l300,0l0,300z" fill="#df3e67"></path><path d="M243,150l-8.95382,37.41977l-12.44921,42.09673l-42.24036,10.83387l-40.64569,17.058l-38.71093,-20.80582l-29.28367,-28.99959l-28.31257,-34.73267l12.71592,-43.03772l16.40567,-36.84774l28.47465,-29.58737l39.12904,-16.82774l41.46364,9.27568l33.64386,22.81269l22.55028,32.70192" fill="#dd105e"></path><path d="M242,150l-2.47255,39.86019l-29.3057,27.02284l-31.48317,21.56522l-39.8186,16.97106l-38.41998,-19.68281l-33.82875,-25.19463l-12.52971,-40.16654l3.91259,-39.91904l15.89828,-35.70811l25.5476,-32.21675l40.98791,-3.03293l39.48674,-1.75099l34.93102,20.16743l20.9676,33.8518" fill="#c3691d"></path><path d="M252,150l-20.69445,36.19956l-21.75292,29.94033l-29.88699,25.16154l-38.86414,-3.7835l-36.3015,-8.70962l-24.07546,-28.25878l-34.10818,-28.51089l15.65036,-40.75069l2.27748,-43.59318l36.7558,-22.56525l37.91998,-20.54883l38.58253,20.77529l40.07968,9.5864l22.85881,34.7907" fill="#628c14"></path><path d="M236,150l5.35455,40.67366l-33.80931,23.23679l-30.04272,20.73357l-37.95536,14.80816l-35.54715,-19.77785l-38.13777,-18.54467l-10.74255,-40.96223l2.93444,-39.71113l22.37041,-31.00583l22.07546,-31.72288l37.04715,-17.17978l38.88241,11.95499l37.81437,13.92586l17.80225,36.15157" fill="#056cbb"></path><path d="M242,150l-16.17573,33.75914l-18.27904,30.15131l-28.49763,25.48886l-38.2461,-1.88139l-39.8015,-2.64744l-27.0476,-29.61868l-12.96383,-36.33185l-1.9563,-38.25575l23.81932,-29.45039l20.64841,-31.75419l37.09244,-8.96661l37.52811,2.96083l32.77034,18.91996l19.50112,31.83335" fill="#97aaa4"></path><path d="M232,150l2.04618,37.41977l-21.14791,32.43584l-33.54166,20.49476l-37.92795,-8.79957l-40.92867,4.18572l-29.78367,-28.13356l-8.74962,-38.8909l9.78148,-35.34499l4.63126,-36.85552l28.62055,-24.45383l35.90602,-8.58112l34.74239,7.58571l33.90421,12.7978l24.49356,28.72012" fill="#195dcb"></path><path d="M242,150l-18.91636,32.53893l-20.89145,25.42636l-23.45361,30.48296l-37.20539,-7.89198l-40.03319,3.44819l-19.45743,-34.6305l-24.96659,-29.62235l4.89074,-38.46366l21.69389,-29.48634l23.33939,-26.27979l32.96527,-20.99592l40.00938,3.22162l32.92363,22.39687l15.66663,34.87626" fill="#92be68"></path><path d="M237,150l-0.21318,38.63998l-32.58724,21.55475l-27.62412,21.59613l-36.61019,13.68324l-31.96527,-22.72797l-23.53038,-25.13553l-26.4155,-28.06691l6.84703,-37.63202l7.43321,-38.33907l29.66563,-26.71105l39.63772,3.57669l36.17381,-6.03333l29.7337,21.68463l16.45195,30.96479" fill="#47d7e3"></path><path d="M230,150l-2.34864,34.57261l-24.12092,24.87897l-25.4099,27.09456l-37.84169,5.94439l-27.27885,-28.40466l-24.48529,-19.4142l-28.50429,-25.5438l-0.97815,-38.46366l26.24637,-27.68703l25.72136,-20.52716l30.32414,-14.99534l34.63329,2.65657l31.5878,15.97829l13.71131,32.185" fill="#f19c4b"></path><path d="M233,150l-2.608,35.79282l-27.53068,22.91562l-29.68504,12.6208l-32.16572,14.19964l-28.51055,-20.57698l-33.6935,-13.2268l-7.05831,-35.09217l2.93444,-32.64214l10.59601,-31.01362l25.72136,-20.52716l30.84678,-10.02273l33.49261,-0.41393l31.53671,14.81932l8.89917,33.88227" fill="#1742f7"></path><path d="M220,150l5.82427,33.75914l-22.29382,25.69244l-27.88204,19.4861l-33.48805,-4.34855l-36.16037,1.62109l-28.00251,-23.89735l-14.07448,-34.01666l4.89074,-35.5529l13.22882,-32.11729l31.45743,-13.84589l27.92867,-18.33094l32.98368,6.41733l35.80941,8.25043l11.94834,34.75084" fill="#3a680b"></path><path d="M220,150l7.65136,34.57261l-22.78265,26.36526l-27.98423,21.80404l-34.09694,-14.11991l-32.78754,0.66002l-27.95743,-19.90807l-18.11956,-31.07773l17.60666,-32.85005l4.55799,-31.88122l25.91234,-19.3829l29.74225,-12.7493l31.43402,7.23799l31.69244,10.39136l9.07947,32.46631" fill="#d2b46d"></path><path d="M233,150l-6.26218,34.16588l-30.56781,17.11111l-20.5216,27.6607l-32.65182,-12.30472l-26.49659,-8.60926l-24.74922,-15.70316l-25.87147,-24.44013l9.78148,-33.68169l13.66294,-28.28261l20.67627,-25.19814l32.26489,-4.31259l29.67531,6.06961l30.92111,8.81657l22.96296,24.9493" fill="#d776e1"></path><path d="M230,150l-4.17573,33.75914l-28.316,19.00414l-23.71396,20.46807l-31.94753,4.34136l-33.34678,-5.6926l-15.94021,-30.14736l-15.92086,-26.13938l0,-31.18675l10.25774,-30.25387l29.60333,-12.17645l24.92867,-23.52709l32.98368,6.41733l27.77984,17.16817l9.01536,30.71394" fill="#ed2f9e"></path><path d="M228,150l-7.657,31.31872l-24.17299,19.95827l-22.99374,20.05225l-29.76157,-8.67436l-32.91471,5.76113l-13.0861,-30.20997l-27.622,-21.15728l4.89074,-33.05796l25.15831,-20.43349l13.65905,-26.77717l28.03319,-17.33642l33.18817,4.47175l17.43387,29.2664l32.7555,13.46572" fill="#59d9db"></path><path d="M214,150l4.51591,30.50525l-15.65459,28.20319l-34.01128,-0.69399l-25.95797,9.61304l-23.89206,-13.93391l-19.96807,-16.6631l-14.56782,-23.10039l-0.97815,-28.06808l11.50088,-25.8314l22.01316,-17.18828l25.16037,-17.43147l28.54377,10.86836l22.12022,16.15952l13.81546,22.3436" fill="#ee47f6"></path><path d="M220,150l0.343,31.31872l-28.8569,14.75626l-23.56311,9.0863l-24.29922,5.50456l-26.62376,-3.50816l-20.39512,-18.36385l-16.05336,-24.0321l-3.91259,-30.35511l19.15693,-23.78824l17.70414,-23.83824l28.45131,-13.35833l29.9889,9.05317l26.2372,14.01859l12.1166,26.66181" fill="#cce5e8"></path><path d="M221,150l-18.01436,23.59073l-2.80084,32.14514l-27.31754,14.64232l-29.87066,-3.74522l-25.49659,-10.34132l-22.51316,-16.32225l-17.36977,-24.58393l8.80333,-28.89973l10.18447,-25.27957l20.89512,-17.49782l25.81018,-7.35775l29.8661,-7.67984l27.67765,14.85023l14.92135,27.19397" fill="#eba6e6"></path><path d="M206,150l1.55336,25.62441l-20.75118,15.24856l-15.17099,25.70099l-27.27573,-12.86977l-27.85546,4.31952l-21.51316,-18.0543l-5.632,-27.07887l2.93444,-25.15731l4.31559,-26.52704l24.89512,-10.56962l22.54188,-7.3243l22.64504,5.3307l22.12266,8.25465l21.48443,16.25778" fill="#26b1e9"></path><path d="M210,150l3.94818,28.47157l-19.11643,21.31914l-25.98171,8.22374l-25.85344,8.61852l-19.99659,-19.8676l-22.35004,-10.91047l-6.40438,-24.00393l-14.67221,-26.82061l15.41347,-24.99976l29.01316,-5.06392l20.14641,-10.65991l22.54051,4.33617l28.14483,1.56635l7.24034,26.60671" fill="#7b3194"></path><path d="M219,150l-22.40918,20.74357l-9.78863,20.1294l-15.78903,23.79888l-26.65769,-10.96766l-22.85546,-4.34073l-15.18692,-17.62304l-21.84897,-17.81032l14.67221,-24.74149l3.94069,-23.28014l16.42299,-18.736l25.16905,2.10693l24.18099,-7.29383l16.61389,18.62777l10.21335,19.04984" fill="#742521"></path><path d="M203,150l0.89918,23.99746l-17.097,16.8755l-20.7333,8.58197l-21.81795,5.24377l-25.25093,-1.00513l-22.39512,-14.89975l-9.20632,-25.48748l-3.91259,-27.44434l22.82712,-17.60241l11.68692,-23.68522l25.41471,-7.22925l23.58123,10.34677l25.82842,4.74684l4.68,26.41096" fill="#a96118"></path><path d="M205,150l0.72627,24.81094l-23.608,10.86002l-17.59447,9.0287l-19.33211,1.04835l-22.69169,1.88339l-10.5238,-20.00549l-20.66506,-15.15121l8.80333,-23.0782l2.96254,-23.48805l21.92299,-9.20973l20.19169,-2.44674l21.18621,-4.65799l25.77733,3.58787l9.91686,23.63414" fill="#255fc3"></path><path d="M209,150l-2.36018,25.21767l-21.84503,13.42586l-20.88903,4.15401l-18.60955,1.95594l-18.29622,-4.91632l-27.15905,-3.39448l-10.4861,-23.55216l17.60666,-22.03864l-0.64842,-22.59229l19.18692,-10.69484l18.95999,-10.27442l21.60889,3.25472l22.74069,6.35254l5.95415,23.1723" fill="#6abdbf"></path><path d="M194,150l11.72627,24.81094l-23.608,10.86002l-14.19528,19.49033l-24.29922,5.50456l-20.12376,-14.76649l-19.61397,-12.39559l0.14103,-23.73191l-14.67221,-22.66237l22.62135,-14.73538l10.5238,-20.00549l21.12376,-13.03444l24.29922,5.50456l16.20268,17.26089l21.60061,13.08945" fill="#8fbde2"></path></g></svg>