<svg x="0" y="0" width="300" height="300" version="1.1" xmlns="http://www.w3.org/2000/svg" xmlns:xlink="http://www.w3.org/1999/xlink"><g fill="none" stroke="none" stroke-width="1" stroke-linecap="butt" stroke-linejoin="miter" stroke-miterlimit="10" stroke-dasharray="" stroke-dashoffset="0" font-family="sans-serif" font-weight="normal" font-size="12" text-anchor="start" mix-blend-mode="normal"><path d="M0,300l0,-300l300,0l0,300z" fill="#fff24f"></path><path d="M244,150l-5.55174,28.73858l-4.31049,32.39109l-23.59589,22.19908l-29.64018,11.7769l-30.9017,-2.10565l-32.44678,6.86093l-26.91953,-18.15022l-15.06325,-27.63447l-21.62714,-22.86553l-8.94329,-31.21072l11.79646,-30.28367l13.91987,-27.31929l26.38299,-15.20857l20.76291,-26.09835l32.13777,-10.09012l31.51973,11.99224l23.1443,21.76918l33.51882,11.16999l-2.58777,36.25706" fill="#480ef8"></path><path d="M251,150l-18.25808,26.88448l-3.45825,30.71848l-22.85628,20.06268l-25.52568,17.44002l-30.9017,4.89435l-28.42956,-12.5028l-30.93675,-5.78648l-23.15342,-21.75662l-6.87958,-30.9065l1.39931,-29.0476l-9.95882,-31.82875l26.76533,-19.89635l14.17833,-26.74955l27.34954,-12.82678l29.66563,-4.69857l28.42956,8.5028l25.05889,13.87665l26.60422,15.42981l13.11086,27.90707" fill="#a910b4"></path><path d="M239,150l-8.1602,26.26644l-6.41024,27.8098l-14.47547,28.44349l-33.68765,-1.67993l-26.26644,10.1602l-26.88448,-8.25808l-28.36734,-6.69432l-13.51463,-26.08585l-24.43709,-19.67808l-0.79646,-30.28367l-3.00776,-31.51973l20.15115,-24.31987l21.6048,-20.208l25.27717,-16.20488l29.97465,6.25248l30.28367,-7.20354l28.49486,12.30184l24.55023,20.35982l12.72796,29.33116" fill="#bd0c70"></path><path d="M240,150l5.10565,30.9017l-14.20395,27.87683l-21.53539,22.93219l-30.31871,7.6886l-29.0476,-0.39931l-25.33939,-11.01337l-31.67578,0.48801l-23.07751,-20.28391l1.15499,-32.54233l-3.06231,-25.64841l-8.35037,-29.35661l14.30277,-25.8952l22.55914,-18.36873l25.67693,-11.97454l27.81153,-15.40491l26.26644,20.1602l31.9243,0.74712l21.90194,21.90194l6.45346,30.07019" fill="#4adefa"></path><path d="M245,150l-5.60069,29.0476l-12.5427,26.792l-21.6048,20.208l-28.36734,6.69432l-26.88448,4.25808l-29.66563,4.30143l-16.18162,-28.1981l-33.43642,-5.50037l-9.16459,-28.86437l3.44826,-28.73858l10.81759,-24.10333l-4.29224,-32.91184l20.87169,-22.2685l29.48241,-7.26248l28.12055,-1.45386l25.33939,10.01337l23.44678,10.83822l22.40732,15.42331l14.40159,23.91357" fill="#b428d0"></path><path d="M244,150l-8.40491,27.81153l-23.30078,17.44793l-7.04249,30.78813l-26.82225,11.4496l-28.42956,-12.4972l-27.50251,9.64403l-18.34474,-21.5407l-18.06509,-16.66829l-26.43803,-17.07842l0.35037,-29.35661l3.45386,-28.12055l11.30756,-26.54348l24.10126,-15.72045l23.01677,-16.16166l28.12055,0.54614l26.26644,5.1602l18.40523,19.35451l23.28575,12.11133l20.49083,20.63538" fill="#3225c4"></path><path d="M231,150l5.54614,28.12055l-21.82478,18.90227l-17.69854,17.69854l-22.30146,11.36316l-24.72136,-1.08452l-25.95743,4.88875l-27.53103,-6.2682l-16.087,-23.07101l-3.65589,-26.75522l-7.76865,-23.79431l-6.4972,-28.42956l26.01191,-16.24212l8.58462,-28.13985l26.01619,-9.93039l26.88448,-3.25808l22.86726,15.62182l21.80442,8.89289l28.13985,8.58462l2.32194,28.48833" fill="#1ca617"></path><path d="M233,150l-13.57287,22.55824l-5.51478,23.87679l-15.12617,20.71338l-26.53695,1.32766l-22.24922,14.52393l-23.48529,-10.7197l-26.47645,-3.51385l-6.66944,-27.62148l-20.40439,-16.11459l2.03558,-25.03038l6.52393,-22.24922l12.6539,-18.30796l4.09707,-30.63631l28.23981,-1.0868l23.48529,0.2803l23.48529,-0.2803l20.01082,12.41304l14.75311,17.54672l7.37368,20.99837" fill="#aba85c"></path><path d="M219,150l-4.32816,21.01316l1.66755,27.18524l-17.55322,18.95002l-24.06482,8.93611l-24.72136,-8.08452l-24.10333,6.18241l-18.21721,-15.93318l-24.82787,-9.46305l1.52551,-27.464l-14.3771,-21.32217l7.7197,-23.48529l4.32287,-25.88867l22.11018,-13.72936l20.19884,-15.83437l25.64841,7.93769l20.70414,7.27921l22.79197,3.85353l24.46132,10.4933l13.83343,22.7985" fill="#b07b05"></path><path d="M225,150l-0.81759,24.10333l-9.46105,22.91949l-16.52297,19.31657l-26.87622,-0.71649l-21.32217,11.3771l-21.32217,-11.3771l-25.11286,-1.71056l-13.43222,-20.41623l-1.00036,-23.71902l-3.13238,-19.77709l-4.47607,-22.24922l9.41783,-20.6591l18.50106,-12.91385l16.76287,-17.40918l23.79431,6.23135l25.33939,-10.98663l18.7445,17.31036l14.16533,18.35574l14.03107,18.83525" fill="#7309ed"></path><path d="M219,150l-0.52393,22.24922l-14.27193,17.13239l-17.76145,10.77744l-12.95739,22.12124l-23.48529,1.7197l-23.79431,-0.76865l-15.5873,-19.02721l-9.96842,-18.34924l-11.51758,-16.07781l-18.13238,-19.77709l20.98555,-18.85004l7.04638,-18.18043l12.76203,-15.55563l18.73797,-7.33046l19.46807,-6.08344l22.24922,-2.47607l20.07131,10.22685l11.07458,19.4554l7.4725,19.01674" fill="#3635ae"></path><path d="M210,150l11.32924,23.17627l-9.84395,21.4954l-27.39375,2.25131l-11.5333,22.50414l-22.55824,-8.42713l-21.01316,3.67184l-14.25396,-16.13082l-25.40916,-4.45713l3.61288,-25.54287l-1.93661,-18.54102l-5.67184,-21.01316l8.84967,-19.54403l16.44056,-13.64696l17.75042,-12.36982l21.63119,5.57396l21.94021,-6.52501l21.5559,7.65776l9.09,21.66122l8.28151,18.42895" fill="#b98f30"></path><path d="M216,150l-6.08344,19.46807l-6.52144,19.32576l-10.4868,20.26441l-24.05829,-1.04379l-18.85004,8.98555l-16.68692,-15.64295l-26.80919,8.51021l-4.23589,-25.18793l-21.69512,-12.12109l-1.57287,-22.55824l1.57287,-22.55824l16.84102,-15.6478l17.31899,-10.33498l17.65315,-5.6692l17.61397,-4.78978l20.70414,-4.72079l13.97519,15.98878l24.37891,4.82368l7.51572,21.27713" fill="#87573c"></path><path d="M207,150l10.52501,21.94021l-24.64711,9.21241l-11.1375,12.5343l-11.96332,17.1807l-19.77709,-3.86762l-21.01316,7.67184l-19.54403,-8.84967l-9.60187,-19.37949l-11.65962,-16.35658l-1.18133,-20.0861l11.64295,-16.68692l5.24308,-16.81684l16.13692,-7.75611l8.96389,-23.41198l21.01316,-1.32816l18.85004,7.98555l19.356,5.42834l15.9981,13.20449l10.4677,18.36846" fill="#7b0409"></path><path d="M207,150l-4.69189,16.99593l-7.81217,15.33225l-9.22882,16.21283l-20.12528,-1.93925l-15.14183,15.39823l-17.92299,-6.83872l-21.45863,-0.95714l-3.49629,-23.05152l-10.38126,-13.84767l5.25916,-17.30495l-15.72079,-20.70414l24.88797,-7.50955l6.50463,-16.28224l11.62405,-19.22485l20.70414,14.72079l14.83282,3.34929l16.3198,2.77281l18.19742,7.023l2.00702,19.16798" fill="#ec06c5"></path><path d="M202,150l9.81867,20.0861l-22.17684,8.71537l-6.72586,16.50347l-17.46512,2.24787l-15.45085,4.44717l-14.21478,-8.2514l-23.40347,8.02849l0.40347,-24.73897l-8.43593,-12.20531l-10.34929,-14.83282l-1.06339,-18.54102l6.90434,-17.90167l20.76979,-4.00816l9.30316,-21.36782l20.0861,2.81867l15.45085,11.44717l20.40405,-1.79721l15.11317,12.31957l0.38898,20.34355" fill="#2faaf4"></path><path d="M198,150l-1.39823,15.14183l-4.53289,15.423l-5.6262,19.59422l-20.99184,-2.60623l-15.45085,10.44717l-13.90576,-15.20246l-13.72014,-4.77374l-22.53315,-1.58111l8.31257,-22.84594l-9.15351,-13.59675l3.44717,-15.45085l10.33804,-11.58727l0.7721,-23.12093l20.06478,-0.24694l16.3779,-3.594l16.06888,4.54506l19.78602,0.1049l9.45005,16.43406l-1.55635,18.70119" fill="#cf72ba"></path></g></svg>