<svg x="0" y="0" width="300" height="300" version="1.1" xmlns="http://www.w3.org/2000/svg" xmlns:xlink="http://www.w3.org/1999/xlink"><g fill="none" stroke="none" stroke-width="1" stroke-linecap="butt" stroke-linejoin="miter" stroke-miterlimit="10" stroke-dasharray="" stroke-dashoffset="0" font-family="sans-serif" font-weight="normal" font-size="12" text-anchor="start" mix-blend-mode="normal"><path d="M0,300l0,-300l300,0l0,300z" fill="#fb54b0"></path><path d="M253,150l-26.56296,59.71916l-54.66407,27.60745l-58.78601,-4.19398l-45.98404,-39.00231l-6.62043,-59.93231l28.05749,-52.56734l54.58437,-31.38708l60.09897,20.99784l37.22704,49.40195" fill="#507a64"></path><path d="M245,150l-28.01909,52.33123l-43.03065,43.72805l-63.40372,-7.44537l-36.48004,-48.23935l-12.6992,-56.00289l28.41094,-51.2547l53.10659,-34.8685l56.32414,28.79623l28.77766,47.61591" fill="#f97229"></path><path d="M238,150l-24.17113,49.86858l-44.47512,27.75508l-49.859,-9.10775l-36.59877,-32.83607l-8.72618,-49.05075l16.9467,-52.02583l52.32638,-28.37428l47.93738,32.42224l32.80213,37.24545" fill="#dcc1e6"></path><path d="M218,150l-12.05124,43.71196l-39.98192,20.32755l-43.2182,-2.83197l-31.02319,-30.22242l-24.44931,-45.57157l33.20819,-40.40627l44.42344,-17.82946l44.79492,13.96051l35.43077,34.44933" fill="#22d78e"></path><path d="M209,150l-4.62726,42.48064l-39.85743,15.7371l-40.54646,0.24917l-29.59455,-28.8902l-10.35642,-41.21114l14.45906,-45.58772l47.40742,-1.63413l38.78559,7.45595l21.44237,33.16833" fill="#73a6d5"></path><path d="M201,150l4.16075,43.0963l-41.85505,10.26996l-34.04927,-6.77545l-26.05265,-21.70883l-18.20109,-36.34277l27.526,-30.15533l32.93714,-23.22555l34.73059,20.07363l35.42648,23.44586" fill="#27a1da"></path><path d="M201,150l-2.14333,38.17101l-37.72826,6.46259l-30.65177,-0.78342l-34.33644,-15.21242l-3.25905,-38.70936l18.30927,-33.03081l35.11248,-9.76849l33.89351,8.10287l24.0138,27.15406" fill="#83a36a"></path></g></svg>