<svg x="0" y="0" width="300" height="300" version="1.1" xmlns="http://www.w3.org/2000/svg" xmlns:xlink="http://www.w3.org/1999/xlink"><g fill="none" stroke="none" stroke-width="1" stroke-linecap="butt" stroke-linejoin="miter" stroke-miterlimit="10" stroke-dasharray="" stroke-dashoffset="0" font-family="sans-serif" font-weight="normal" font-size="12" text-anchor="start" mix-blend-mode="normal"><path d="M0,300l0,-300l300,0l0,300z" fill="#680ec3"></path><path d="M249,150l-2.53138,10.13926l-5.5009,9.19653l-5.37264,8.47574l1.19173,10.82845l-4.51441,8.86002l-1.37071,11.27853l-2.12835,12.14932l-9.18377,6.35922l-11.98663,1.9966l-4.10295,13.38105l-12.82634,-1.31017l-7.91786,9.45744l-13.00419,-7.88797l-9.61235,3.5446l-10.13926,-6.46862l-10.97549,14.4248l-7.94448,-15.41337l-13.83584,11.80056l-4.66397,-16.76581l-17.08023,10.35059l1.01154,-20.77622l-11.41721,-1.5355l-2.72051,-11.19416l-5.99437,-7.40243l-12.98199,-3.48846l4.38345,-13.3937l-22.39713,-2.61443l3.86701,-12.57697l3.28606,-11.17111l0.46315,-10.24379l-5.43576,-10.76643l6.57729,-9.60891l3.60598,-9.5993l9.11985,-7.03839l-0.0058,-10.98697l7.89986,-6.66403l1.66724,-11.5799l3.98175,-11.04313l7.87213,-7.65972l8.71745,-6.85191l12.32634,0.44415l8.84491,-6.60428l11.66132,3.0785l10.55082,3.3843l9.61662,-3.50399l9.82568,1.51494l10.34176,-1.39526l10.73427,-0.22533l6.11134,11.97301l7.98697,5.19035l16.71745,-7.0045l3.18822,12.86174l2.72051,11.19416l15.70257,0.349l2.40776,11.04188l2.87739,10.04655l8.39386,7.93372l3.74144,10.10483l-9.25319,11.79829" fill="#da5296"></path><path d="M249,150l-13.47112,8.98945l15.22032,12.42546l-5.64355,9.4868l-1.01047,10.99217l-18.75097,1.60613l-4.15071,8.2251l3.12099,15.18796l-7.40142,7.40142l-11.66125,1.73311l-12.75181,-2.43544l-4.67349,11.34757l-8.46989,5.39064l-7.94171,10.39883l-11.69376,-8.25867l-9.72115,5.50946l-8.78039,-14.46016l-9.10001,0.58085l-13.02129,10.98496l-4.07765,-16.54074l-14.52065,7.17161l-1.63732,-15.35204l-8.41531,-4.24459l-5.10098,-7.92553l-4.92186,-7.66483l-10.09888,-4.54953l-8.93957,-6.54655l-5.54069,-8.86077l-6.59461,-9.17778l0.30249,-10.85753l-0.55329,-10.55737l13.48207,-9.1985l-3.4498,-10.13728l1.56841,-9.71181l7.18022,-7.5587l-3.51742,-12.8937l16.97007,-0.46175l1.88341,-10.26001l-2.70655,-17.06531l9.0477,-6.04169l15.04188,4.52044l4.4196,-13.45978l10.79674,-0.93545l8.86876,-7.54566l11.69376,8.25867l9.72115,3.49054l10.76643,-13.43576l8.36144,12.44618l11.46481,-4.16502l8.86077,5.54069l6.04655,9.8056l13.27853,-2.09339l0.7741,14.76181l6.58727,6.58727l4.24459,8.41531l2.36166,9.13732l9.47296,5.3937l11.9355,6.01362l-2.20872,11.04898l11.4844,8.67274" fill="#5ad57b"></path><path d="M246,150l-15.44373,8.46681l-0.34817,8.58195l-6.02569,7.05457l15.34505,15.75687l-13.31722,4.13981l-5.82576,7.13732l-4.24459,8.41531l-6.58727,6.58727l-4.30081,9.90771l-11.25181,0.16264l-9.02065,2.35467l-7.78586,5.12806l-9.521,-0.55043l-8.68305,2.38634l-8.98945,6.47112l-9.09398,-5.4766l-10.24181,4.44432l-7.85771,-7.27475l-9.4128,-1.47388l-8.3937,-4.2768l-6.13732,-7.55781l-3.06226,-10.18975l-13.4266,0.69615l2.90482,-13.86806l-14.08695,-1.52282l6.63822,-13.36781l-11.52288,-4.9387l3.48487,-10.14474l-13.27695,-7.22308l13.48506,-9.82568l1.43277,-8.25775l-13.37864,-11.28595l13.00818,-6.10471l-1.45431,-10.14441l0.71766,-10.20718l14.95298,-1.02282l2.29719,-9.18415l4.87893,-7.70348l1.11785,-13.75518l13.42738,3.18745l5.98697,-8.65445l9.51052,-1.51139l10.66167,5.41407l7.95593,-5.30441l8.88492,5.53436l8.67586,-3.54532l10.03619,-5.48797l6.31832,10.99771l12.79613,-7.92415l8.67349,4.41937l5.81289,8.53785l10.58539,2.1469l1.01218,12.31038l4.04697,8.17127l11.71691,3.37396l4.37184,8.58023l1.5489,9.60824l-1.47439,9.93112l3.39723,8.6819" fill="#cc9cfb"></path><path d="M241,150l-13.42729,8.15322l12.41687,10.97466l-2.49238,9.30169l-7.1052,7.36326l-16.30612,1.20718l-5.83666,5.32054l-2.51336,7.86426l-5.55107,5.55107l-3.16198,8.9855l-7.02282,4.56067l-4.61391,10.19642l-8.19259,4.21452l-11.1843,-8.37561l-7.85598,2.25534l-8.15322,8.42729l-9.1985,1.51793l-7.43443,-9.26612l-11.48761,8.29433l-6.04533,-9.80832l-3.33412,-11.78591l-14.81289,7.05061l-1.88669,-11.80778l-8.96773,-3.31863l-4.79012,-7.50214l-3.05666,-8.37396l2.49817,-10.49475l-0.91122,-7.94701l-8.82468,-5.92531l5.65171,-9.00236l-17.3999,-7.63058l5.46564,-8.88492l-0.56448,-9.2034l15.67172,-4.46992l-2.74297,-9.57395l-5.7722,-12.86781l5.93977,-7.31289l17.75294,3.46635l-5.97218,-18.0365l14.96229,4.58873l-0.74054,-17.38003l9.3937,-2.54475l8.17673,-5.27811l12.62827,13.15798l8.17071,1.73912l7.63058,-13.3999l8.78039,2.46016l7.22881,8.22247l8.09413,1.13496l11.28276,-5.29605l10.61391,-0.19588l3.96175,10.90789l1.56131,11.54429l11.64425,0.34605l-4.10907,13.96778l18.88405,-2.09168l-10.33992,14.90149l9.43321,5.06814l11.97585,6.11041l-5.47159,10.13957" fill="#525c7d"></path><path d="M233,150l-2.44373,8.46681l-7.1952,7.12657l7.47873,10.67307l-10.4968,5.05228l2.40313,10.68128l-19.35101,-3.20617l5.31332,14.06749l-1.83234,10.30599l-7.50214,4.79012l-6.37396,6.52076l-13.30823,-7.78937l-5.27943,8.44465l-9.02688,-2.75054l-6.7096,10.16239l-8.67586,-8.54532l-7.63058,-1.3999l-8.58653,3.69541l-8.19523,-1.16205l-4.46596,-10.27174l-10.6217,3.55428l-8.69839,-2.07661l0.69012,-13.57611l-8.22759,-2.57849l-2.51336,-7.86426l-13.63088,-0.82054l5.19129,-11.80823l-1.78725,-7.44255l-6.8413,-6.24002l-3.24986,-7.75145l11.56723,-8.25775l-12.56175,-8.36228l3.26624,-7.85483l12.57473,-4.48703l-9.36285,-11.83479l1.20353,-8.96107l3.92268,-7.87396l4.04697,-8.17127l17.74044,6.26824l6.7884,-2.92715l5.38161,-4.68559l6.74864,-2.31782l5.00213,-7.26852l4.36882,-15.64462l8.89096,-1.40819l8.98945,3.52888l7.10794,14.37251l7.44588,-0.84284l10.16754,-7.61419l7.41084,3.91443l9.36781,0.28998l2.58389,11.20383l11.45395,-1.00475l-2.77456,14.17275l14.38513,-1.2779l3.86567,7.78618l-9.80654,13.74864l8.21958,4.69311l14.69357,4.67784l-5.55346,9.62266" fill="#d38041"></path><path d="M212,150l9.60558,7.52605l-2.1571,7.23568l-2.87452,6.86946l6.50968,10.90774l-10.72981,3.46107l-9.76772,2.20604l-5.76798,3.94919l-6.00116,3.17661l6.20585,19.38953l-13.52282,-6.69766l-5.02843,5.92448l-6.53136,3.57683l-8.01012,-1.98912l-7.0312,0.10256l-6.89888,5.36155l-6.79435,-6.35608l-7.96738,4.80456l-3.77929,-12.38509l-7.89686,2.31706l-7.06212,-1.35675l-5.88161,-3.81956l-12.14144,3.01801l-7.18538,-4.36083l-6.01292,-5.8385l3.23356,-11.52282l3.93444,-9.87559l-1.41214,-6.46535l-8.52668,-4.81315l6.82635,-7.96967l-8.33416,-6.37624l-8.57271,-8.15322l0.29905,-8.2718l12.60182,-4.58813l-8.41179,-11.52578l17.65801,0.53893l-9.29573,-15.02282l10.47179,-1.82371l9.41782,-0.94417l1.33564,-10.07655l7.49611,-2.48657l7.52843,-1.59435l5.29529,-7.38106l7.5829,-2.03183l7.64921,-2.22259l7.94416,0.58366l7.10794,7.37251l5.36677,8.93863l6.06632,1.62547l8.3036,-3.23061l10.15538,-3.79188l7.67168,2.60059l3.50572,7.97886l-1.35928,11.3512l11.4311,-0.16531l-6.2877,12.32054l17.46793,-0.91198l-11.41501,12.06195l17.30292,2.84084l-8.6844,9.00579" fill="#f20ba6"></path><path d="M221,150l-3.37251,7.10794l-8.93863,5.36677l5.03193,8.22944l1.14094,8.17416l-15.49828,-0.3783l6.45872,12.05718l-9.00405,1.59805l-9.34681,-0.53912l0.14694,10.16098l-4.11826,6.24661l-8.28233,-1.38388l-3.27747,10.88519l-10.50506,-13.72689l-3.90909,17.80746l-7.52605,-2.60558l-6.68982,-5.3506l-6.40861,-2.0261l-4.51553,-7.41308l-8.01044,3.34314l-8.87559,2.20239l2.7596,-16.06884l-11.08396,3.87435l-9.93892,-0.053l-7.10397,-4.01216l-4.21862,-6.49611l12.01379,-13.81601l-17.35503,-0.62575l1.93494,-8.21233l5.83183,-7.86514l7.66036,-6.48076l-0.6987,-5.74907l-3.99015,-6.72564l1.62547,-6.06632l2.25066,-5.86318l8.04736,-2.5958l-5.82073,-11.20604l8.74056,-1.27266l6.37423,-2.1374l-5.43701,-17.44213l14.90832,10.56082l1.96885,-9.96949l7.79914,2.35457l3.05445,-15.29244l9.53302,17.70059l5.64454,-11.29582l5.85359,9.30677l9.53187,-16.6897l2.84654,16.27059l7.39241,-1.44103l10.37559,-4.80047l-2.49624,16.23986l15.34277,-8.1356l6.14618,4.73391l-9.68777,16.59969l4.0585,4.41597l15.49828,-0.3783l-1.14094,8.17416l8.66214,5.31867l-7.739,8.59112" fill="#b7d743"></path><path d="M216,150l-10.30677,5.85359l-2.87326,5.37364l3.29236,7.00477l-6.78088,3.73178l-6.03018,3.03622l1.19466,7.32819l-7.33869,1.12834l-1.69332,5.93015l0.97876,10.77238l-11.44269,-6.85778l-1.81601,8.77082l-6.49707,-0.71504l-2.96475,13.20069l-8.49575,-14.83165l-5.22642,3.27391l-6.16718,5.67679l-5.68379,-2.92238l-6.38104,0.35792l-9.42609,6.00876l-0.84191,-12.75764l-7.94269,0.79561l-7.71993,-1.1115l4.0328,-12.91451l-4.36611,-3.80486l-4.86751,-3.82819l4.59972,-8.5699l-1.83804,-4.78826l-6.2182,-3.9146l-6.85134,-4.95552l4.67131,-6.27171l5.27391,-5.22642l-2.11573,-5.7929l-9.02579,-8.75777l16.10389,-0.15301l-2.00164,-7.0699l0.6514,-6.50376l-4.41988,-11.99712l5.7021,-4.28982l5.45014,-4.41344l5.38161,-4.68559l7.96885,0.42282l9.96226,9.01197l4.84165,-3.36503l5.06005,-5.85682l6.16718,-3.32321l5.12189,13.26843l6.93698,-8.00099l8.64526,-6.98823l4.51353,7.08097l-0.71767,14.20457l14.88161,-11.76889l-6.59421,17.79004l14.77387,-6.41026l5.02484,4.61832l-0.62458,8.20604l2.8512,5.5958l4.15278,5.24514l4.61409,5.64479l-3.90828,7.24255" fill="#95f2eb"></path><path d="M198,150l10.67679,6.16718l-3.90053,5.47588l2.28713,6.89796l-1.33712,6.26992l-7.22885,3.18906l-7.23756,1.97705l-7.81835,0.13383l4.69893,12.24838l-5.22447,2.9457l-8.91597,-3.73573l-2.03622,7.76224l-6.20391,-0.82757l-4.11681,6.27238l-5.89399,-0.07756l-5.74907,7.3013l-6.48076,-0.33964l-5.99394,-2.9715l-5.44828,-3.52758l-1.19364,-12.22464l-1.88338,-6.56357l-13.67933,11.35894l2.56106,-12.06105l-5.03897,-2.21442l-4.91164,-2.8917l-0.36636,-6.06483l-12.37748,-0.0958l11.06413,-10.18942l-4.18063,-4.02711l-0.80234,-5.06578l-12.26843,-5.12189l11.27391,-5.22642l-1.13758,-5.58498l-0.49338,-5.87551l10.24751,-1.61623l-5.65583,-8.69685l12.78666,2.31302l-1.69224,-7.43129l6.89834,0.16304l-7.08228,-17.39481l11.8549,7.78082l1.62948,-8.67578l5.6836,-1.11205l7.5388,8.31856l3.81716,-7.68212l5.33095,-3.27938l4.49472,11.23556l5.90086,-6.14294l6.90937,-4.35178l6.69251,-0.64002l6.50254,1.07163l-0.52295,11.56768l0.13383,7.81835l5.56007,1.32325l0.73481,5.66793l11.22563,-1.04966l9.00842,2.28233l-16.69544,12.23896l6.02856,3.20686l12.70385,3.60467" fill="#0620c9"></path></g></svg>