<svg x="0" y="0" width="300" height="300" version="1.1" xmlns="http://www.w3.org/2000/svg" xmlns:xlink="http://www.w3.org/1999/xlink"><g fill="none" stroke="none" stroke-width="1" stroke-linecap="butt" stroke-linejoin="miter" stroke-miterlimit="10" stroke-dasharray="" stroke-dashoffset="0" font-family="sans-serif" font-weight="normal" font-size="12" text-anchor="start" mix-blend-mode="normal"><path d="M0,300l0,-300l300,0l0,300z" fill="#da7239"></path><path d="M248,150l-7.13267,14.39197l-2.41907,14.34661l-8.25767,12.12056l7.99227,23.20945l-22.42192,1.69234l-12.27247,7.85962l-4.91147,21.71715l-17.05725,1.67007l-15.40698,4.72413l-16.11275,0.2681l-15.79988,-2.24348l-14.17477,-7.50404l-14.97041,-4.04284l-15.00904,-5.68991l-14.29212,-8.27352l-9.08254,-13.70433l-3.98989,-16.05081l-1.12962,-15.75249l-1.43138,-14.50304l-16.12036,-14.23554l2.29272,-16.42562l11.45479,-13.54903l4.93384,-14.51642l-0.86421,-19.57752l24.54324,0.42898l4.2733,-18.07111l9.88135,-15.40899l18.27425,1.063l16.66231,4.20169l14.54841,-15.14498l15.48701,9.21885l16.95977,-2.07979l8.41236,19.67035l23.20945,-7.99227l5.22787,18.88639l10.79622,11.10572l5.44394,14.60765l1.00952,15.46254l3.3335,13.88501" fill="#6a8e14"></path><path d="M247,150l5.71959,16.26918l-12.36922,13.08743l-3.92274,14.68046l-16.04315,7.10024l3.15463,22.40179l-14.76058,7.36259l-13.83347,7.30795l-14.04336,6.89601l-16.04043,-1.27526l-14.86127,12.16961l-13.76623,-19.08343l-14.0453,-1.32149l-18.94949,6.17859l-4.96408,-20.58018l-23.93532,4.46693l0.42185,-20.9964l-10.29805,-11.08094l-9.56903,-12.68139l-2.67549,-15.41469l0.78115,-15.48701l-2.75652,-15.79988l-0.10441,-16.6469l19.67035,-8.41236l5.76102,-13.2171l7.25442,-13.0989l8.39662,-13.72656l10.20154,-14.436l15.82118,-5.47429l17.11235,2.04316l15.64345,6.76883l15.33058,-4.79346l14.64407,4.54098l14.97041,4.04284l12.07011,9.735l10.86708,10.5924l10.5924,10.86708l-0.06607,17.06401l21.45236,7.50438l-8.99361,18.05481" fill="#2f42ed"></path><path d="M252,150l-13.10805,14.0791l-8.05215,12.18734l-0.64922,14.5927l-12.23316,8.51482l1.33904,19.9225l-13.45687,7.56015l-12.7105,7.78901l-13.77248,5.70475l-14.80821,1.50465l-14.54841,10.14498l-14.23554,-12.12036l-16.35715,4.27496l-11.62843,-11.29099l-14.20627,-5.19798l-3.67669,-17.56156l-13.51647,-6.61562l-13.69809,-8.99739l-6.83596,-13.89839l1.31189,-15.88784l1.8427,-14.70484l7.04649,-13.29693l-8.29897,-16.67772l16.51693,-8.61454l-6.78418,-21.3649l9.68773,-12.8779l16.9924,-4.02462l15.88843,-1.55196l8.12241,-19.55025l18.37539,13.01762l13.45336,-0.0588l15.01771,-9.81808l12.79382,9.22299l17.13353,-2.61456l10.30675,12.16205l18.28729,2.50849l-4.77266,23.57736l12.31515,8.64861l-0.24179,15.04669l12.99059,11.40517" fill="#9cb867"></path><path d="M240,150l2.8427,14.70484l-5.3455,13.72472l-1.06957,15.60751l-9.57102,11.80252l-16.04543,4.97158l-10.84944,7.95526l-5.01669,19.4432l-17.75156,-4.51667l-13.42726,3.2236l-13.76623,6.08343l-14.0791,-4.10805l-13.42341,-4.24792l-14.26461,-2.67143l-11.13355,-9.16107l-10.73894,-9.17192l-9.17192,-10.73894l-11.83409,-9.77158l-1.90052,-15.00855l-2.34581,-14.04144l-9.10805,-14.0791l11.08343,-13.76623l3.2236,-13.42726l7.95742,-11.3957l2.92403,-14.31148l6.34349,-13.56736l12.39179,-7.96153l12.76311,-6.65203l13.50161,-4.51349l12.48095,-11.19837l15.33058,-2.20654l13.45336,14.0588l15.28522,-3.50706l17.11446,-1.5434l11.74991,10.70799l1.79401,19.8867l20.69571,1.20623l-6.13914,20.50953l22.10317,6.4705l-16.05395,18.53952" fill="#45f285"></path><path d="M238,150l-0.09574,13.92267l4.34822,16.05198l-21.86297,5.8906l4.04005,18.21099l-12.91127,7.44205l-12.14433,6.43914l-11.23876,6.88712l-11.55974,6.94631l-13.1221,3.15034l-13.45336,12.0588l-13.45336,-12.0588l-16.8303,8.26234l-6.94356,-20.141l-9.20781,-9.15019l-9.4264,-8.05091l-14.52304,-4.72412l-3.56906,-13.45611l-18.29894,-7.70656l9.28666,-16.83415l-2.03418,-13.1405l0.0588,-13.45336l1.24822,-13.74013l6.17541,-12.30368l12.79621,-7.52565l3.91018,-13.78836l12.02501,-6.33723l10.65097,-7.69614l9.0876,-14.55476l13.87345,-6.40646l15.17414,11.80577l13.76623,-2.91657l15.59038,-3.4338l14.68046,3.92274l8.86359,13.6161l3.66787,16.24299l18.67004,1.90451l3.16999,14.71286l11.94179,10.59455l2.49233,14.65177" fill="#19aedf"></path><path d="M227,150l6.95351,13.29693l0.69052,14.20558l-3.56244,13.81062l-14.7422,6.88526l-6.94242,11.19858l-11.78636,6.13341l-11.74536,4.85914l-9.28979,11.40134l-13.1221,3.15034l-13.45336,7.0588l-12.67119,-11.99724l-11.74115,-4.86929l-9.63694,-8.30798l-12.97353,-2.10413l-10.95994,-6.7386l-9.97467,-8.60879l-10.45115,-9.4228l5.17722,-16.15686l-2.82065,-11.74885l-13.948,-12.04545l8.02187,-12.98406l-1.71484,-14.20943l8.84843,-10.94171l-2.01207,-17.7044l20.28807,-0.72894l11.30908,-5.72577l3.03835,-20.5693l14.40959,-2.73148l13.88886,-2.30918l13.92267,10.90426l13.6098,-8.92889l14.51075,-0.61726l7.7447,16.15663l14.68428,0.81405l6.01901,13.00692l9.77085,8.37015l8.50515,10.06319l9.79948,10.63269l6.2233,13.11054" fill="#a079e9"></path><path d="M230,150l1.97813,12.98406l-11.59995,9.8832l-0.87967,12.544l-11.24929,6.90928l5.39039,21.31907l-17.79236,-0.53628l-8.16604,10.85022l-12.95985,2.13098l-12.51947,0.95517l-12.20189,14.96031l-13.92267,-4.09574l-11.10771,-10.86868l-16.73675,4.93702l-5.84348,-16.44222l-16.73611,-1.18366l-1.18366,-16.73611l-11.09618,-8.56742l-8.01747,-11.54067l12.54278,-16.0828l-12.89875,-11.41972l2.03418,-13.1405l1.17496,-13.43497l8.72833,-10.65176l9.95921,-8.62003l7.24189,-10.01419l12.95311,-3.1968l3.86514,-17.56832l11.54067,-8.01747l13.73628,-2.27254l13.76623,8.91657l11.41972,5.89875l13.61066,-4.93433l14.01281,0.40902l5.04071,15.95029l16.72729,-0.13491l4.71919,13.20058l2.18612,13.10733l6.46591,10.39995l2.85728,11.90144" fill="#8e922b"></path><path d="M230,150l6.91657,13.76623l-9.881,11.26414l-7.53707,10.38088l-7.2042,9.84821l-9.96841,7.06644l-8.82979,7.54136l-3.54494,18.54132l-12.75767,5.2844l-16.24308,-14.55479l-10.95041,12.86182l-11.73258,-7.92337l-15.76993,10.5674l-11.99466,-7.12646l-2.82336,-19.26834l-20.61197,4.68328l0.63819,-17.67304l-15.22326,-5.76229l6.18833,-16.3209l0.21568,-11.91299l-13.88644,-11.26328l8.948,-12.04545l10.4291,-9.27672l-1.20259,-12.72711l0.4861,-14.1491l16.13481,-2.00619l0.83062,-17.75285l13.50871,-2.43209l9.5988,-10.45029l12.50021,-6.07677l13.76623,4.91657l13.92267,-5.90426l7.70852,21.33031l12.87209,-1.14254l17.80961,-4.28602l7.79119,11.89844l0.5722,16.02018l14.16827,5.94869l8.84843,10.94171l-10.60404,15.61735" fill="#48fbd5"></path><path d="M227,150l-3.91106,11.57615l5.84875,14.07226l-3.20214,12.94078l-20.7224,1.3802l5.79803,20.84179l-21.42957,-6.60704l-8.51026,6.38431l-6.45901,14.54502l-11.42828,6.84467l-12.98406,-2.97813l-12.35832,-0.97262l-14.21714,3.76348l-4.74988,-20.31141l-11.58298,-2.42121l-9.41758,-6.73234l-4.30529,-11.18093l-9.30329,-7.54967l3.16475,-13.20018l-21.18378,-7.09819l12.95351,-13.29693l-10.97813,-12.98406l19.2084,-7.41106l1.29028,-10.93022l-0.81486,-13.93412l12.08973,-4.94512l10.23518,-4.80857l8.19006,-7.3573l5.51289,-18.46935l14.06456,3.80011l12.20189,0.03969l11.73258,2.92337l14.53386,-6.76318l10.0528,9.55928l6.0013,13.0313l9.29826,6.63043l9.8665,6.94712l8.01322,9.26042l-4.82667,14.3981l4.46634,10.06274" fill="#867d7d"></path><path d="M230,150l1.97813,12.98406l-19.2084,7.41106l-3.07229,10.02224l7.45097,18.36881l-22.60068,-4.23845l-7.51726,6.42034l-6.15912,9.62037l-5.22294,18.34925l-14.22869,-6.83644l-11.41972,9.89875l-10.32467,-16.81257l-14.08767,9.94603l-7.36699,-12.76301l-11.12899,-3.31222l-12.24601,-3.90391l-3.09489,-12.83379l-2.33922,-11.44918l-3.13234,-10.16722l-16.28197,-8.03295l1.00276,-12.67119l4.92337,-11.73258l1.79633,-11.75271l11.69185,-7.38606l0.72119,-12.62475l11.784,-4.58715l7.52608,-7.73891l7.41588,-9.2213l11.2011,-2.48154l11.9284,4.31296l10.01181,-0.78795l10.95041,-5.13818l14.698,-9.79951l4.76895,19.24025l16.60546,-5.02392l-1.76799,19.46653l8.9493,5.87322l8.16632,7.60228l3.25244,10.45716l0.55222,10.84106" fill="#4d2c9c"></path><path d="M211,150l11.10125,11.41972l-15.03786,7.1213l11.54411,16.41625l-7.12221,9.71441l-12.69492,4.11869l-8.23319,7.0318l-5.14592,13.67634l-14.08909,-3.87561l-10.52819,2.5276l-10.79398,10.8495l-9.69894,-17.76332l-13.47734,10.09256l-5.87912,-14.30482l-11.50179,-1.20224l-9.6474,-5.61759l-11.28071,-5.5329l0.89685,-13.80033l-3.13234,-10.16722l-1.46664,-10.37946l5.18743,-10.32467l-7.16281,-10.63754l-2.26432,-11.9207l12.40271,-6.49715l-0.41579,-12.67736l15.0138,-0.69365l1.28144,-14.20478l9.81962,-4.84826l7.84005,-10.80085l10.97053,-6.73477l12.51476,1.01507l10.63754,10.83719l9.13954,6.29519l12.45624,-2.39385l7.73607,8.24831l10.94229,4.10147l13.80967,3.88887l-3.24191,15.69748l-0.61183,11.54826l11.23363,8.35737" fill="#763715"></path><path d="M209,150l3.22437,9.85537l8.15382,13.01189l-13.35376,6.18813l-2.82028,10.32622l-9.65641,5.16612l-0.46383,16.12855l-16.39047,-6.32488l-6.06223,12.22256l-12.08869,-6.32497l-9.5425,2.75101l-11.88902,12.06431l-11.59627,-2.78402l-4.20813,-17.9289l-10.51262,-1.76529l-7.04879,-7.33127l-3.28619,-9.98772l-6.70138,-7.1197l-11.33155,-6.51622l3.3619,-11.61938l0.21205,-10.01181l2.75101,-9.5425l-4.42285,-11.47065l13.88447,-4.8643l-9.8889,-18.20644l13.30012,-3.29226l2.70448,-14.10914l14.25432,1.78785l9.71322,-4.02335l8.97155,-10.35584l11.73258,12.07663l10.16824,-2.19974l10.22688,1.43001l12.74618,-2.27375l11.53037,3.55818l6.94712,9.8665l4.20338,11.06161l8.3303,7.86987l5.27466,10.12908l-1.27663,11.76426" fill="#871641"></path><path d="M205,150l16.11356,11.26328l-18.80545,5.73265l2.04329,10.69749l-8.23743,5.81034l1.26219,13.87239l-3.88005,12.4911l-13.07875,-0.16982l-9.40421,4.97441l-12.56569,-11.33667l-8.44746,10.66483l-11.26328,7.11356l-8.82282,-9.29489l-6.24534,-10.1403l-14.22573,4.14379l0.9592,-16.22419l-19.46026,3.31034l7.37986,-16.57687l-10.1403,-6.24534l-8.3072,-8.97926l3.12587,-11.10685l8.72639,-9.22963l-11.15351,-13.32861l17.74875,-3.77321l7.18244,-5.99674l3.48374,-8.684l2.21837,-12.38293l7.01449,-8.97534l9.22109,-7.05667l13.48504,12.1412l9.0732,0.28592l10.48111,-9.17512l12.07713,-3.25201l5.58917,14.18472l13.58534,-2.1978l0.69365,15.0138l14.20478,1.28144l1.28423,11.63559l9.60959,7.56918l-11.22678,13.02344" fill="#8a24c3"></path><path d="M202,150l7.2613,9.38607l7.31266,12.24512l-13.11356,5.60824l-7.34642,6.26433l-1.56624,11.04397l-7.51726,6.42034l-5.70513,10.51138l-13.09334,-5.36712l-7.43802,12.03816l-10.79398,-6.1505l-8.91676,-5.70176l-12.71443,10.27572l-8.33218,-7.76753l-4.71596,-11.07443l-12.69682,-0.35585l4.49825,-16.22354l-11.4735,-3.4592l-2.71199,-9.1524l-13.06248,-7.43417l15.12587,-11.10685l-10.18743,-10.32467l10.02615,-7.59831l-0.08113,-10.22443l6.70138,-7.1197l5.40751,-7.8664l11.9809,0.25561l6.63713,-5.23645l6.90152,-6.09587l8.38434,-4.06339l9.22963,7.27361l9.69894,-10.23668l11.31422,-3.43517l4.8643,13.88447l11.7408,-0.98972l-1.55581,15.71464l11.66956,1.38312l8.40141,6.07793l-2.87425,11.29645l16.86671,6.1981" fill="#401f23"></path><path d="M215,150l0.18743,10.32467l-9.0751,7.90733l4.47611,12.63935l-19.32858,-0.89431l-0.95478,10.32804l-4.45019,9.04495l-14.06336,-6.58172l-0.77839,21.90353l-11.00135,-1.45979l-10.01181,-11.21205l-10.32467,13.18743l-7.59831,-10.02615l-11.5864,2.75415l-8.10887,-6.13834l1.55581,-15.71464l-8.43349,-3.73426l-15.2015,-1.91083l13.09567,-15.27553l-15.6226,-5.28646l3.22437,-9.85537l10.60327,-7.66529l-0.10715,-8.09458l-3.1745,-10.57158l8.80048,-4.82117l-5.20536,-16.93064l8.11386,-6.92989l10.46001,-2.90227l10.96836,0.85203l8.21634,-8.12404l10.32467,15.18743l8.91676,-6.29824l12.09639,-8.37361l3.04834,17.4485l10.61783,-0.50866l2.09022,10.96245l17.43459,-2.61206l4.60229,9.41824l-11.2536,14.51252l6.77003,6.84695" fill="#fe769e"></path><path d="M202,150l-3.60327,7.66529l10.56878,11.49376l-1.05008,10.35033l-14.22851,2.23102l-11.16001,0.78651l-0.19872,11.96902l-10.99064,-2.61863l-1.25145,19.94137l-10.85647,-3.54506l-9.22963,3.72639l-8.6039,-7.67714l-9.01007,-0.11264l-4.63157,-10.5509l-13.02158,4.8817l1.32599,-14.59989l-12.17284,-0.43737l4.23666,-12.16621l-6.62658,-5.57769l-11.74511,-6.21736l9.24899,-9.5425l-6.28592,-9.0732l10.68415,-6.06863l-2.40359,-9.82764l7.74549,-5.00757l2.36899,-8.91383l8.91383,-2.36899l9.09348,0.27357l1.10648,-19.88132l11.01676,5.55707l8.76033,0.31055l7.97816,4.62789l9.32679,-2.88706l8.11852,3.3628l5.72915,7.01846l1.37429,10.35099l7.92394,3.13765l4.99048,6.23575l5.91572,6.4666l6.91656,7.45728" fill="#6893b6"></path><path d="M208,150l-4.66483,8.44746l-4.83129,7.31241l-3.06255,7.39365l-0.9454,9.17467l-3.48374,8.684l-7.50843,5.10178l-13.52818,-6.90968l-3.59768,11.20171l-7.3047,6.87993l-9.0732,-0.28592l-6.72668,-14.5294l-10.26925,9.83751l-2.52566,-13.99483l-11.04324,3.7556l-9.74025,-1.7638l-4.19085,-7.9769l-8.07345,-5.54275l3.11445,-10.71656l-2.89254,-7.77786l-6.65252,-8.29103l0.72639,-9.22963l5.01445,-8.07532l14.94588,-2.21664l-11.03676,-16.33331l17.53023,4.0351l4.78168,-5.39498l-0.20131,-16.24561l9.00743,-2.65194l8.53307,-5.12434l9.69894,8.23668l7.35242,6.57865l11.49762,-11.5931l7.02742,7.22708l7.6263,4.6734l8.21554,4.39467l0.34958,11.15447l6.04547,6.04935l2.29164,8.13759l-2.99696,8.86905" fill="#8c7d25"></path></g></svg>