<svg x="0" y="0" width="300" height="300" version="1.1" xmlns="http://www.w3.org/2000/svg" xmlns:xlink="http://www.w3.org/1999/xlink"><g fill="none" stroke="none" stroke-width="1" stroke-linecap="butt" stroke-linejoin="miter" stroke-miterlimit="10" stroke-dasharray="" stroke-dashoffset="0" font-family="sans-serif" font-weight="normal" font-size="12" text-anchor="start" mix-blend-mode="normal"><path d="M0,300l0,-300l300,0l0,300z" fill="#584247"></path><path d="M254,150l-21.78091,36.6063l-14.6369,38.45133l-36.98951,19.09697l-41.25459,7.28664l-38.8381,-15.70472l-25.73858,-31.07249l-21.59803,-34.08077l6.84703,-39.71113l11.51493,-37.88729l30.97465,-25.25724l37.88338,-9.2236l43.29947,-12.16915l28.54629,34.55269l32.77958,26.81186" fill="#b071d0"></path><path d="M248,150l-3.90482,41.89387l-32.53517,26.47545l-29.11323,31.49161l-42.89963,-0.40874l-39.54715,-12.84965l-26.85661,-30.76294l-23.89259,-34.42469l0.97815,-42.6219l19.67837,-36.98375l32.59268,-24.08167l36.41998,-23.14691l43.5268,5.55839l29.11323,31.49161l32.53517,26.47545" fill="#5ade67"></path><path d="M241,150l1.26809,41.0804l-31.37721,26.54578l-33.69739,16.06679l-36.81011,7.80304l-38.38338,-8.35758l-33.71072,-23.77213l-5.34442,-40.86217l-2.93444,-37.63202l19.6051,-32.00944l25.88448,-25.93894l33.8381,-24.36497l38.47343,15.84615l41.10892,9.05117l15.12573,39.12415" fill="#6c5a88"></path><path d="M239,150l-9.52155,35.38609l-19.2567,31.49695l-34.26433,13.00571l-35.15593,7.62918l-33.8015,-13.03974l-29.81153,-21.57751l-23.04694,-32.52533l0,-40.75069l17.38382,-36.63982l31.47465,-24.39122l36.54715,-18.0458l38.26438,13.8571l27.72631,23.91407l22.11352,27.10841" fill="#2f223c"></path><path d="M243,150l-19.91636,32.53893l-13.53101,33.60096l-33.90421,12.7978l-34.21974,2.6131l-36.92867,-2.74248l-28.12055,-25.31985l-9.522,-35.81596l-10.75962,-37.63202l21.89966,-32.35337l28.50251,-23.03132l33.98791,-15.15728l39.79576,-2.70205l27.26157,29.29308l28.32804,25.67721" fill="#520988"></path><path d="M239,150l-4.95382,37.41977l-21.14791,32.43584l-34.46871,17.64159l-37.62807,0.02073l-32.8015,-14.77179l-28.38448,-21.60882l-7.86733,-34.50438l2.93444,-32.64214l4.12387,-35.7159l33.1935,-14.09283l28.8015,-21.7l35.15593,7.62918l24.8965,23.40974l20.40262,24.75355" fill="#431293"></path><path d="M235,150l-12.82991,32.13219l-11.94834,34.75084l-35.19138,10.15254l-34.43794,12.47139l-32.09244,-17.62686l-30.50251,-19.56722l-13.09633,-34.22457l-4.89074,-37.21619l30.12232,-24.36823l13.86726,-36.17823l36.48791,-10.82716l35.1605,11.5638l28.55117,18.74296l17.05697,28.46927" fill="#6b9a90"></path><path d="M220,150l6.73782,34.16588l-28.56041,19.34055l-21.91096,27.33338l-34.83778,0.71099l-33.42867,-8.80466l-29.1935,-21.02103l3.70131,-37.3792l-5.86889,-29.93928l11.06676,-29.66609l25.29431,-18.82642l28.11508,-20.44848l33.9153,7.49878l21.80877,25.01544l17.10904,23.54857" fill="#bf576d"></path><path d="M236,150l-7.43509,34.97935l-29.71838,19.27022l-26.59731,14.2265l-30.19339,7.10759l-31.55584,-7.16766l-22.79431,-23.15654l-21.82639,-27.37906l10.75962,-33.47378l6.21266,-33.1928l27.14841,-20.49586l32.99659,2.64907l31.10673,-7.54944l32.10365,11.75824l5.91412,34.76607" fill="#b02605"></path><path d="M215,150l6.25655,31.72546l-22.41001,22.52411l-26.90633,13.27544l-28.83909,-1.88657l-26.10112,-8.48077l-19.5861,-18.95164l-23.70941,-21.98893l6.84703,-30.97884l3.10909,-33.43666l33.33939,-8.95929l24.95131,-19.42051l33.38809,-1.40845l25.51453,21.50763l13.09426,28.00744" fill="#2b8a68"></path><path d="M212,150l1.03464,28.06483l-14.85723,25.4416l-26.2372,14.01859l-28.42097,-5.86466l-30.01924,1.5595l-27.41234,-16.78482l-8.47058,-31.04957l-0.97815,-30.97884l17.5389,-24.96381l17.82217,-25.26075l30.78754,-2.80408l31.31579,-5.5604l24.74321,19.93284l14.1881,26.18474" fill="#a479c7"></path><path d="M219,150l0.42945,30.91198l-25.93597,17.39243l-20.62623,22.07377l-28.92991,-12.69591l-28.43735,2.07348l-26.98529,-15.08407l1.81829,-31.98907l-9.78148,-27.44434l7.15417,-30.49773l27.29431,-15.36231l28.51924,-1.03858l25.94884,1.7438l24.02542,11.61215l24.10887,18.2059" fill="#fc2124"></path><path d="M221,150l-21.66855,21.96378l-12.52927,18.90919l-19.18821,13.33726l-24.19926,8.44466l-29.91471,0.56498l-22.55824,-20.31153l4.28197,-31.26527l-14.67221,-26.40478l10.39024,-28.14659l31.55824,-4.72307l21.43735,-10.05087l28.00286,-9.84274l27.57546,12.5323l0.72934,32.6222" fill="#6d9dcd"></path><path d="M221,150l-10.706,26.84462l-21.48443,16.25778l-21.81364,9.20571l-22.84953,3.38512l-21.64641,-8.06183l-25.89512,-8.83757l-12.14077,-24.86374l-0.97815,-28.06808l9.07383,-27.59476l30.94021,-4.16659l19.49659,-20.73362l28.94361,-0.89205l18.20763,22.93632l24.71389,15.71039" fill="#8d61a3"></path><path d="M208,150l-10.49564,21.15031l-2.00348,29.38354l-24.48773,14.13799l-26.76222,-9.97314l-23.75093,-3.60321l-23.0861,-12.88946l-5.1246,-25.93925l9.78148,-22.45446l-2.22982,-26.25501l20.65905,-14.65281l24.06452,-0.61964l24.90355,-8.20142l26.03281,9.38271l2.00348,29.38354" fill="#2bb90b"></path><path d="M213,150l-21.89045,18.30315l2.38394,30.00126l-27.11559,2.10158l-22.85867,11.25436l-20.01924,-15.76101l-10.71478,-18.86122l-16.58334,-15.60298l-5.86889,-24.11776l7.88992,-24.93564l22.27709,-13.47724l23.22829,-8.57581l22.03157,11.16743l21.04232,7.63092l11.61573,19.31592" fill="#0996b1"></path><path d="M193,150l9.07209,23.18399l-19.28469,13.23011l-15.48245,16.84507l-22.42685,-4.52759l-24.37811,2.36393l-19.85004,-15.2406l0.44266,-25.45932l7.82518,-19.12788l4.67643,-17.71805l13.40576,-13.38683l17.66905,-10.88345l21.39984,1.26568l25.41721,3.37996l-3.11719,28.99204" fill="#2a2822"></path></g></svg>