<svg x="0" y="0" width="300" height="300" version="1.1" xmlns="http://www.w3.org/2000/svg" xmlns:xlink="http://www.w3.org/1999/xlink"><g fill="none" stroke="none" stroke-width="1" stroke-linecap="butt" stroke-linejoin="miter" stroke-miterlimit="10" stroke-dasharray="" stroke-dashoffset="0" font-family="sans-serif" font-weight="normal" font-size="12" text-anchor="start" mix-blend-mode="normal"><path d="M0,300l0,-300l300,0l0,300z" fill="#708e80"></path><path d="M258,150l-14.16961,14.86127l-3.48002,14.49534l4.09632,18.76638l-12.73598,11.24332l-8.17161,14.17279l-14.17279,8.17161l-16.6912,2.0439l-13.31849,6.59576l-14.80821,1.50465l-14.54841,6.14498l-16.89492,8.67034l-14.00678,-11.56469l-11.77341,-11.35104l-20.8057,3.61922l-12.17962,-11.71341l-4.43226,-17.46969l-8.11696,-13.24568l-16.40657,-10.95319l6.83507,-18.50486l5.78115,-15.48701l3.10805,-14.0791l-8.11581,-17.44063l15.03516,-10.24739l7.54304,-12.30912l5.84021,-14.51311l14.51311,-5.84021l6.86123,-18.23512l14.76823,-7.19626l17.27264,4.05517l15.17414,-7.19423l17.05136,-4.65803l11.06919,21.11189l16.37052,-0.7725l16.05081,3.98989l12.99722,9.78965l12.2167,11.23387l-2.00119,19.63013l20.8616,8.68324l-2.88432,17.87912" fill="#fba5d9"></path><path d="M251,150l0.7319,16.11275l-10.43047,13.55288l-9.32883,12.10149l-1.0709,17.0114l-10.89813,11.22505l-18.27847,1.18992l-7.68802,15.23414l-13.4444,7.72696l-16.82645,-7.23802l-13.76623,2.08343l-16.11275,12.7319l-12.93485,-12.33259l-17.71342,2.37436l-6.13965,-18.96214l-17.1029,-2.80796l-12.51616,-10.04948l-6.58092,-14.55505l6.35874,-18.51457l-0.2239,-13.74398l-4.03418,-13.1405l-6.83039,-14.86127l0.62685,-15.42239l3.21188,-15.56938l9.89898,-12.3377l19.2815,-2.62044l0.85709,-21.70855l17.27899,-1.23488l11.46439,-12.30209l15.41084,-3.69981l15.79988,1.75652l15.79988,-1.75652l12.9387,11.30827l9.39662,13.60371l16.52883,-0.39403l17.46086,3.11369l8.77681,13.34637l-5.16614,20.18933l18.41904,7.99651l-3.28727,16.20071" fill="#94320c"></path><path d="M243,150l-4.10805,14.0791l-14.70954,10.02422l-2.01088,12.6699l-3.40508,13.18852l-5.83394,12.97076l-11.2074,8.26099l-12.68192,5.43307l-14.93986,-2.44415l-10.8064,9.7711l-13.29693,6.04649l-15.17414,5.80577l-8.92918,-21.62336l-16.30183,5.11717l-16.02223,-1.63395l-10.04065,-11.19759l-0.68037,-17.68186l-20.17023,-4.29511l-0.17856,-16.06151l-0.40706,-14.5069l-8.09574,-13.92267l8.09574,-13.92267l10.86868,-11.10771l-5.82803,-17.19074l5.19798,-14.20627l9.07627,-12.16197l21.56654,3.868l2.98574,-21.70627l14.37145,-4.87379l14.96079,-1.54128l14.70484,7.8427l12.67119,4.99724l13.28624,0.11401l17.62566,-5.64788l4.02752,20.00625l12.49347,5.4263l13.51647,6.61562l4.78803,13.53729l-4.22617,15.84784l13.72185,10.18066" fill="#31768b"></path><path d="M233,150l-0.03418,13.1405l-12.58764,9.72676l8.03039,17.08391l-9.64213,10.01058l-9.36947,9.43522l-10.02301,8.56046l-16.68665,-3.80496l-7.96596,11.93205l-12.51947,0.95517l-12.20189,-0.03969l-11.57615,-3.91106l-15.61735,10.60404l-11.84969,-7.06641l-13.85749,-3.81503l-2.25366,-17.6572l-9.56703,-8.13151l-15.46923,-6.16368l2.20395,-15.51975l-5.96687,-12.04246l-4.04649,-13.29693l4.04649,-13.29693l15.47744,-8.95229l-5.47747,-15.43199l12.46825,-6.99047l7.03807,-9.77554l0.95876,-19.17332l20.34715,8.57707l6.56584,-16.74738l14.99931,8.70192l11.57615,-12.91106l13.29693,2.04649l13.27853,2.16265l6.56584,16.74738l17.99601,-5.341l0.48148,18.76568l12.29355,5.18376l16.27824,5.57589l-1.2529,15.21073l-3.87338,13.75939" fill="#a67d17"></path><path d="M226,150l-7.8495,10.79398l-0.62548,11.14623l-0.69952,12.10908l-11.81233,5.92011l-8.34411,6.69965l-6.69965,8.34411l-3.19617,17.15837l-12.6699,2.01088l-10.96283,8.78341l-13.1405,-6.96582l-11.10685,-5.87413l-12.68746,3.10548l-12.52493,-1.95083l-10.70358,-6.55916l-8.13151,-9.56703l-9.56703,-8.13151l-7.45017,-10.24959l7.49969,-15.76007l-0.51559,-10.68848l-2.81257,-10.32467l0.83719,-10.63754l-12.72594,-15.31988l14.84527,-7.18388l-1.29592,-15.05708l15.42771,-2.7133l2.12551,-16.23672l15.64487,2.10493l12.12815,0.37163l8.81127,-12.36785l12.20189,10.03969l13.45336,-17.9412l7.25077,21.22041l17.43106,-11.12376l4.77312,15.78631l4.46783,11.68209l14.91815,2.11669l12.55024,7.12426l-5.41742,15.57696l-0.28894,11.60783" fill="#5130e5"></path><path d="M218,150l11.01507,12.51476l-14.34322,8.4984l-9.42944,7.13426l2.1978,13.58534l-10.77116,4.93629l-2.58515,14.00723l-15.93648,-5.43387l-3.42605,20.84212l-15.33529,-16.82322l-9.38607,16.7387l-10.48111,-9.82488l-12.07713,3.25201l-11.94504,-1.71063l-6.0539,-11.89432l-6.81897,-8.44602l-14.10914,-2.70448l-3.55818,-11.53037l-5.33471,-10.27405l2.22769,-12.07328l2.1505,-10.79398l-12.02738,-12.35832l20.96399,-6.1827l-2.63405,-11.87634l3.87526,-10.13982l0.66784,-14.59715l17.53607,3.37724l9.92484,-2.57431l4.20813,-17.9289l11.59627,-2.78402l11.88902,-0.93569l10.79398,7.8495l8.67409,8.23393l14.12723,-6.01792l2.2596,16.58445l10.10704,3.3881l3.3881,10.10704l17.47545,1.80561l-7.85999,14.89023l8.1973,8.52151" fill="#8310f3"></path><path d="M221,150l-17.66483,8.44746l14.18984,13.49275l-10.5006,7.11519l-0.39323,12.08958l-7.84082,7.6454l-5.88204,10.26787l-11.12899,3.31222l-9.22109,7.05667l-11.76426,-1.27663l-10.79398,4.8495l-10.32467,-7.81257l-8.52536,-7.17298l-9.75136,-1.88104l-10.78021,-1.92927l-5.16612,-9.65641l-4.80231,-8.69283l-14.80243,-3.16758l3.28485,-12.91023l5.55707,-11.01676l-10.68945,-8.76033l1.80026,-10.16824l-4.27633,-12.08098l12.34266,-6.35218l3.54731,-9.60464l9.45259,-4.92747l1.40076,-14.30669l8.59145,-7.60327l15.83635,11.78431l8.70106,-1.06369l8.6039,-1.67714l11.26328,-15.11356l8.82282,9.29489l13.0552,-3.2248l5.65252,11.64835l0.80415,13.79714l19.46026,-3.31034l3.31222,11.12899l3.25244,10.45716l-6.3616,11.9361" fill="#31e70c"></path><path d="M211,150l3.19974,10.16824l-10.94058,7.13671l-7.81783,5.84856l-0.9454,9.17467l-10.55481,1.61294l4.26492,18.64498l-8.24267,6.22033l-9.56825,3.9633l-11.94766,-9.43456l-8.44746,3.66483l-7.50885,-9.59096l-10.72315,8.70329l-8.55344,-3.54295l-4.36718,-9.69148l-14.80932,3.08404l-9.05121,-5.99254l6.0078,-14.99992l-5.20486,-7.35551l1.86274,-9.32294l4.34748,-8.29103l-19.16281,-10.63754l6.29519,-9.13954l14.53528,-3.83042l-5.44475,-14.01075l5.10804,-9.05079l13.16529,0.55508l6.26433,-7.34642l12.0976,6.85862l4.50429,-20.56104l10.63754,0.16281l10.32467,1.81257l7.28929,10.97721l5.99354,7.87788l14.01075,-5.44475l-2.97002,17.12886l7.42065,4.0834l6.93648,5.59536l11.86226,5.19239l-13.45858,12.26823" fill="#477146"></path><path d="M193,150l8.35979,8.13459l-7.61119,6.08019l11.4938,13.93263l-14.79155,1.24185l-0.85287,10.20872l-3.74308,9.75206l-9.06946,3.21935l-8.86245,2.59189l-10.88343,-10.7153l-7.03955,7.55402l-8.29103,0.34748l-9.94098,3.76485l-8.55344,-3.54295l-2.01604,-12.92755l-7.96808,-2.87228l1.1728,-10.907l-8.06257,-3.61702l-15.30618,-3.08648l11.55646,-11.6502l-13.59096,-7.50885l10.62789,-7.97816l4.72139,-6.85466l6.44643,-5.14277l1.98951,-7.06254l-0.26188,-10.43854l12.20189,2.68893l-1.51067,-17.78165l11.02557,4.0655l6.53023,-9.76973l9.22963,5.27361l8.44746,-0.33517l7.93044,2.92918l8.59158,1.40064l8.53428,2.89139l0.43737,12.17284l12.17284,0.43737l9.12844,5.35635l2.77204,9.29737l-3.69159,10.24614" fill="#4374b9"></path></g></svg>