<svg x="0" y="0" width="300" height="300" version="1.1" xmlns="http://www.w3.org/2000/svg" xmlns:xlink="http://www.w3.org/1999/xlink"><g fill="none" stroke="none" stroke-width="1" stroke-linecap="butt" stroke-linejoin="miter" stroke-miterlimit="10" stroke-dasharray="" stroke-dashoffset="0" font-family="sans-serif" font-weight="normal" font-size="12" text-anchor="start" mix-blend-mode="normal"><path d="M0,300l0,-300l300,0l0,300z" fill="#0de275"></path><path d="M248,150l-5.27112,24.84663l-8.72442,23.65337l-8.34404,27.16043l-25.16043,11.80814l-23.84164,12.02179l-26.65836,-8.49036l-24.58781,0.76295l-21.91219,-11.22259l-23.50357,-10.53679l-22.66115,-16.50357l-10.68935,-25.80636l-3.64594,-27.69364l19.10075,-23.55253l0.43068,-26.94747l23.12185,-13.84672l10.84672,-28.318l29.68865,3.79954l23.81135,-14.13482l24.84663,10.27112l22.65337,10.45647l16.13961,18.6328l31.62318,8.63961l-7.36354,31.44747" fill="#9e5c67"></path><path d="M244,150l4.52443,26.39954l-24.04625,16.60046l-10.83857,20.63961l-19.13961,13.43665l-21.4651,8.89114l-23.0349,18.0326l-25.10545,-10.30519l-18.89455,-17.48457l-25.29646,-6.91377l-14.708,-20.79646l-3.89479,-24.94747l-2.10075,-23.55253l-0.79703,-24.32899l5.92654,-24.67101l18.40245,-17.46804l22.96804,-8.87617l17.35928,-22.2143l26.14072,12.55851l23.55253,-2.89925l28.44747,-2.16739l17.29646,20.77018l19.90415,17.79646l-1.30137,27.94747" fill="#e435f5"></path><path d="M240,150l-7.8963,21.99962l0.16872,25.50038l-14.39016,20.38225l-21.38225,12.65811l-22.68865,8.32481l-23.81135,-5.86518l-25.10545,10.69481l-22.39455,-11.42239l-10.48276,-24.28966l-25.15568,-9.98276l-9.59044,-23.15337l-1.27112,-24.84663l8.99853,-22.77608l6.19316,-22.72392l21.53266,-11.77565l11.77565,-21.53266l23.24156,-4.26131l22.25844,-13.93038l22.51726,12.96445l25.48274,0.89711l22.71068,12.42776l5.49956,26.71068l5.89346,22.00038" fill="#0595a3"></path><path d="M234,150l-7.69186,20.4467l-5.29406,20.5533l-10.2029,19.81118l-22.81118,5.00675l-16.51802,14.35391l-21.48198,-5.17184l-20.18789,0.34221l-19.31211,-6.92621l-25.55382,-3.36218l-5.96026,-24.05382l-17.85109,-17.18865l4.86518,-23.81135l11.55556,-19.41143l4.89446,-19.58857l8.15301,-20.39697l21.39697,-6.42096l15.48274,-18.21762l22.51726,-5.96445l21.22316,10.79408l21.27684,5.59376l18.31118,12.80098l11.93495,18.81118l18.05089,17.67101" fill="#c3ae05"></path><path d="M236,150l-2.93038,22.25844l-17.25169,15.74156l-9.24939,18.56854l-21.06854,4.91926l-15.82975,11.92256l-19.67025,-3.41036l-22.25844,13.06962l-21.74156,-6.85939l-18.2254,-13.98484l-7.92266,-21.7254l-9.05786,-19.27684l-10.79408,-21.22316l12.72593,-20.70552l13.18819,-16.29448l2.56759,-24.51829l20.51829,-9.49579l17.9651,-14.95332l23.0349,-1.0326l23.29371,0.06668l16.70629,17.65129l18.68986,10.59217l14.9223,16.18986l0.76413,22.57093" fill="#c43cdd"></path><path d="M226,150l-11.28297,17.34088l-5.8273,16.65912l0.50724,25.39697l-17.89697,12.48314l-23.38267,-4.2653l-18.11733,14.38519l-17.34088,-17.28297l-21.15912,1.96693l-12.41169,-15.77227l-17.50432,-11.41169l-3.0625,-20.34739l-13.52149,-19.15261l9.65779,-20.18789l17.31851,-13.31211l8.52623,-15.99747l10.49747,-18.05251l17.00038,-14.55371l21.99962,17.1037l17.08206,1.2489l20.41794,-1.2008l21.89697,5.55494l5.55494,21.89697l9.42438,17.57093" fill="#180850"></path><path d="M210,150l10.51259,18.89379l-2.9626,20.10621l-25.12357,3.42641l-12.42641,9.53512l-10.58857,20.48291l-19.41143,0.55556l-17.85851,-6.35112l-14.14149,-11.22326l-10.42641,-12.99922l-18.19537,-7.42641l-9.89081,-16.10621l10.51259,-18.89379l2.04445,-15.52914l5.99403,-14.47086l7.4138,-14.54773l10.04773,-15.20803l15.08857,-12.68868l19.41143,1.44444l18.37615,2.41927l13.12385,14.02113l21.53301,1.52659l6.72274,18.53301l12.68868,15.08857" fill="#a9fa8b"></path><path d="M216,150l-3.21482,16.82324l-8.22558,14.67676l-6.47634,16.58326l-18.08326,3.87826l-12.91794,11.78958l-17.08206,-3.7511l-18.89379,10.51259l-12.10621,-16.81901l-10.7193,-11.97427l-9.3762,-12.2193l-3.96227,-14.74731l-18.94223,-14.75269l16.04445,-15.52914l-5.2643,-20.97086l12.30817,-14.41169l14.41169,-12.30817l19.93558,1.4006l16.56442,1.81925l15.0115,3.9763l18.9885,-2.86603l4.89087,19.99885l11.3386,9.89087l21.24904,9.84739" fill="#538f73"></path><path d="M208,150l-5.84001,13.97623l-7.12667,12.02377l-2.60691,16.42641l-13.92641,6.93704l-15.55905,-1.06716l-12.94095,16.70371l-15.0115,-8.9763l-10.4885,-11.8564l-12.68377,-5.98353l-10.31366,-10.18377l-12.3559,-11.6944l-8.14667,-16.3056l17.80593,-13.71741l2.69665,-14.28259l2.53548,-17.96194l18.96194,-0.80343l10.43558,-15.05388l16.56442,8.81925l13.19977,3.73778l14.80023,0.76479l8.06245,12.43498l13.301,7.56245l13.42173,11.67676" fill="#1be4d4"></path><path d="M198,150l9.95555,15.52914l-4.26197,15.47086l-15.50981,7.18377l-8.68377,12.91173l-16.55905,-2.79921l-12.94095,4.70371l-16.82324,9.78518l-14.17676,-9.0916l-3.64823,-19.04534l-14.71522,-6.14823l-12.4558,-11.93558l8.81925,-16.56442l-1.09185,-14.49387l2.99635,-15.00613l17.86148,-3.73402l5.23402,-15.2634l12.9885,-7.52628l15.0115,-6.9763l15.52914,5.04445l9.47086,14.65428l18.84062,-0.53935l3.79078,16.34062l-3.19881,15.59432" fill="#0262ac"></path></g></svg>