<svg x="0" y="0" width="300" height="300" version="1.1" xmlns="http://www.w3.org/2000/svg" xmlns:xlink="http://www.w3.org/1999/xlink"><g fill="none" stroke="none" stroke-width="1" stroke-linecap="butt" stroke-linejoin="miter" stroke-miterlimit="10" stroke-dasharray="" stroke-dashoffset="0" font-family="sans-serif" font-weight="normal" font-size="12" text-anchor="start" mix-blend-mode="normal"><path d="M0,300l0,-300l300,0l0,300z" fill="#21e294"></path><path d="M244,150l9.43028,10.87096l-11.4844,8.67274l-6.35079,8.26783l11.24073,15.30255l-6.76918,8.88592l-14.82806,2.66403l-3.15353,10.24164l-5.17199,9.40881l-12.24903,0.9241l-7.16403,7.03383l-3.16571,17.30404l-13.43259,-4.4708l-8.65515,9.55614l-11.58465,-3.22056l-10.6619,-7.44123l-11.08002,11.41932l-8.04786,-15.42974l-10.53776,1.31185l-6.94067,-9.08233l-8.8937,-3.41078l-17.98081,8.56552l-5.43965,-10.82992l0.55113,-14.9839l-13.34139,-2.19371l1.17035,-12.86631l-8.98709,-6.63981l-2.72503,-9.88554l1.28476,-10.63886l-18.42968,-7.83766l14.39741,-11.49813l-5.44671,-10.55737l2.63195,-10.23379l0.807,-10.72856l12.96158,-5.90004l-5.15443,-14.08023l9.10793,-6.69074l1.31933,-12.7371l11.86029,-3.38664l9.31011,-4.96918l11.10295,-1.2567l7.86002,-6.24646l6.81123,-11.172l11.86923,4.05665l10.02932,-0.57741l9.9302,-15.52042l9.51209,19.49851l9.40787,1.49006l11.05468,-3.24105l8.66533,5.46566l12.86002,-2.4138l10.21745,4.25383l5.19561,10.6323l14.83287,0.71012l-4.0803,17.17698l0.27665,11.42738l10.67162,5.54655l-1.11671,11.02389l15.2083,6.59884l-13.19853,12.42317" fill="#faf25f"></path><path d="M240,150l-0.49303,9.40756l3.41705,10.34405l-6.37788,8.36894l-7.98123,6.8588l-6.6848,6.52065l-4.7317,7.28618l-5.46739,6.75166l-2.1284,10.60205l-7.23974,5.86262l-0.81289,17.1981l-11.23307,1.24038l-12.14638,-3.89486l-10.24014,-2.42545l-7.74114,12.34793l-10.13926,-1.46862l-10.13926,1.46862l-7.74114,-12.34793l-11.78523,7.18073l-11.00803,0.05312l-9.82634,-3.88598l-9.4541,-4.94883l2.40886,-18.60928l-7.10837,-5.69609l-17.86613,1.73973l-5.81486,-8.9541l10.68323,-16.42739l-18.40534,-3.3619l5.08898,-11.87493l8.42241,-10.65992l-10.45468,-8.67586l7.47112,-8.98945l-2.5044,-9.7226l8.14454,-7.24538l-8.72516,-13.49603l14.13572,-3.54655l4.90272,-7.54953l3.43557,-9.00309l1.90335,-11.78928l4.87023,-10.36881l13.86631,2.9024l9.30044,-2.49723l4.67983,-15.70222l13.2235,10.93078l8.67961,-5.41903l9.61662,-0.50399l9.9302,-2.47958l10.23723,-0.40074l8.26213,7.38312l10.21042,0.71038l11.86002,-0.68175l-1.71382,20.32016l14.1121,-2.7072l9.18677,4.94994l0.72648,12.005l1.66666,9.90067l8.65445,5.98697l9.11985,7.03839l-3.24105,11.05468l-5.47159,10.13957" fill="#187648"></path><path d="M237,150l-5.4492,8.57133l0.6136,8.89325l1.52857,9.72891l-6.95515,6.97238l-9.18784,4.83412l6.87958,15.07624l-4.57395,8.82203l-11.64125,1.75532l-4.13812,9.77596l-12.57624,-2.54945l-8.1476,3.03062l-4.30481,14.48859l-9.91972,0.59027l-9.92937,-2.47165l-9.1985,6.48207l-9.61662,-2.50399l-7.43214,-11.28791l-11.68982,8.24015l-5.83403,-10.79689l-11.42739,2.02297l-4.54953,-10.09888l-5.65744,-7.1513l-14.39179,1.14324l3.45035,-14.78123l-12.52593,-2.78618l10.24488,-15.08802l-3.8019,-7.11768l-19.69267,-4.0427l6.40062,-10.65763l9.5234,-9.09398l-18.4741,-10.03473l13.3097,-7.42985l-1.52857,-9.72891l10.60934,-5.34544l-3.99262,-11.96107l8.30982,-5.46175l2.62656,-9.59088l11.94031,-0.64211l7.17676,-4.52663l0.52282,-15.819l14.36781,8.37027l8.33789,-1.06126l5.29017,-13.82378l9.51469,1.52625l8.98945,-3.47112l8.04869,12.42181l10.45545,-10.47695l4.98115,14.77484l13.52774,-10.85234l1.98697,15.58266l10.37396,-0.40745l2.81823,9.99213l16.17714,-3.59472l0.39712,11.59827l10.04187,4.46175l1.58369,9.70718l0.4478,9.52638l4.25904,8.17813l9.38074,8.15811" fill="#0723bd"></path><path d="M224,150l-2.39442,7.52605l2.73364,8.27524l4.59847,9.84712l-6.7676,6.48378l-11.54831,2.86781l-3.99059,6.14497l0.59096,10.37809l0.99221,13.13054l-7.07705,5.73088l-15.13732,-8.03065l-6.71496,3.42144l-1.78253,18.86876l-12.11705,-12.26111l-6.91866,8.17335l-8.46681,2.44373l-9.09398,3.5234l-6.70731,-12.18419l-7.37499,-3.00998l-12.61655,9.06276l-6.20718,-7.64587l-6.19839,-6.40674l-1.9864,-10.60353l-15.95509,3.81676l-5.05361,-7.82752l6.24159,-14.2251l-0.82337,-8.21496l-10.30925,-4.56368l5.65789,-9.75172l-0.18443,-7.54812l-3.38895,-7.42152l-8.54532,-8.67586l9.18425,-6.91751l-4.62556,-9.74602l-1.49182,-10.04669l15.39257,-1.61391l4.21862,-6.49611l3.38825,-7.35782l0.94117,-10.82709l4.40052,-8.70346l11.13732,1.10245l11.52843,5.33385l5.60431,-6.43l5.19476,-12.76436l9.20569,2.58627l8.46681,7.55627l8.25775,-5.56723l9.83057,-6.53161l6.32403,9.96538l6.49964,5.70401l7.58802,2.7455l10.87396,-1.27347l-3.20395,16.68043l16.25415,-4.92998l4.72425,7.42079l4.7317,7.28618l3.94416,7.74086l-10.20137,12.43697l5.78188,6.14462l8.15698,6.81528" fill="#b31974"></path><path d="M222,150l-10.33964,6.48076l15.6133,9.94426l-6.89548,6.44223l-0.94873,8.04473l-5.34357,6.08802l-11.49978,1.20604l-2.7954,6.62571l-2.95156,7.18839l-3.93082,7.0381l-8.40832,0.69751l-1.55433,14.24143l-13.16858,-13.12957l-5.01536,8.58086l-6.71304,7.12971l-8.04869,-12.57819l-8.57133,17.5508l-6.60622,-10.14602l-8.30774,0.87552l-2.13912,-14.72693l-14.87559,12.59469l3.46953,-19.17999l-14.49259,6.25408l-1.98337,-9.04475l-4.7428,-5.85687l-4.10461,-6.32054l2.97337,-9.56212l-13.8509,-2.64357l-3.06416,-7.5772l0.71185,-8.27295l13.58366,-7.94416l-12.58914,-7.83963l1.22807,-7.75374l0.12972,-8.20093l11.11026,-3.86378l2.36534,-6.84191l7.97867,-3.11826l-4.70192,-13.23567l8.3016,-2.6525l9.97136,0.92032l2.70604,-8.9017l2.1476,-13.42292l12.33925,10.23888l6.66725,-2.82034l6.29721,-9.086l8.04869,-1.42181l7.63058,5.3999l5.25995,11.95495l8.43165,-4.97775l11.6235,-8.37428l8.05433,2.9831l5.43503,7.10174l7.09541,4.46076l5.17799,6.59027l5.2039,6.42628l1.03956,8.93503l0.82337,8.21496l-5.85871,9.81697l8.55377,4.91425l-6.80997,8.07305" fill="#8ffc25"></path><path d="M222,150l-7.35608,6.79435l1.87011,7.34364l-12.30382,3.47597l-3.96522,4.75655l11.2428,13.12948l-14.56482,-1.40846l5.8403,13.41673l-9.93892,0.053l-3.44275,6.64287l-2.38161,9.88174l-11.78233,-7.44606l-2.35041,13.73836l-7.27388,2.98289l-8.79903,-8.71715l-6.79435,-1.64392l-6.37624,-2.33416l-7.55385,4.87005l-3.06585,-13.22778l-6.59479,0.67753l-5.90927,-1.89014l-8.70604,1.49061l-2.61093,-7.25427l-4.51487,-4.51487l0.8359,-8.48878l-8.33161,-1.82819l-3.81227,-5.28233l-1.37463,-6.36764l-6.54329,-5.12787l-0.08618,-6.92782l-1.35608,-6.79435l-6.6001,-7.63058l15.86754,-4.4283l-9.8414,-9.57231l3.53932,-6.43364l-1.05124,-8.93517l14.73584,1.1451l5.50449,-3.62381l2.35945,-6.59627l4.45563,-4.89309l6.53047,-1.85948l2.02843,-11.12063l9.00349,4.03162l7.6171,4.16215l4.74303,-11.87308l7.10794,-1.37251l6.16718,10.32321l8.17873,-8.81539l8.83037,-3.83705l3.26161,11.94878l1.56212,10.88303l6.09154,1.57444l12.7476,-5.09715l0.72213,9.19578l11.49697,-0.08396l5.89366,5.40832l-6.485,11.46885l4.30282,5.63602l-4.08087,7.92042l-1.00659,6.41205" fill="#8f31fa"></path><path d="M202,150l9.66036,6.48076l-3.94965,5.78603l2.20585,7.20128l-14.23929,0.86876l8.88233,11.16317l-15.72678,-3.28631l7.98531,13.94154l-4.6629,4.6629l-9.82704,-2.32219l-6.32819,0.53739l1.65809,17.08777l-7.26297,0.64864l-8.12833,-5.05902l-6.62225,-4.00653l-5.64454,13.29582l-5.33095,-16.27938l-8.18331,12.85898l-2.24561,-15.07571l-4.57697,-2.82661l-12.16317,10.61438l4.28631,-17.45884l-11.26501,5.01273l0.09203,-8.38162l-14.00845,3.3299l5.76372,-11.29383l-3.52715,-4.72275l4.55678,-7.63542l-3.28376,-4.53834l-15.75292,-3.70462l4.63845,-6.89888l-4.63845,-6.89888l2.05885,-6.61538l8.41832,-4.40873l2.17564,-5.66774l-1.57396,-7.90927l-0.45356,-8.4694l11.91076,1.15982l10.98413,3.13862l-2.56106,-12.06105l1.17933,-10.2917l6.65538,-2.2703l7.68556,1.3285l6.06062,-2.65779l6.40861,-2.0261l6.68982,12.6494l5.12189,2.26843l9.0161,-17.78246l5.02106,7.54853l0.77104,14.20178l4.0699,3.19451l11.26712,-6.9718l1.53507,7.66805l1.84135,6.07817l11.51552,-1.64789l3.53452,5.44269l2.94624,5.78233l8.03202,4.20452l-10.87373,9.57801l5.8732,5.16344" fill="#753de7"></path><path d="M194,150l9.70418,5.64454l-7.73125,4.12731l0.62883,5.36998l-5.49222,3.16132l-5.6025,2.19685l9.79791,12.41597l-2.20255,5.8936l-10.315,-2.39548l-3.39814,4.03675l-3.88926,3.71645l-3.94296,4.25061l-8.26931,-7.52248l-0.81303,17.79343l-6.09847,1.97698l-6.37624,-7.66584l-6.37624,7.66584l-2.97979,-16.64919l-5.78581,2.58513l-8.44889,6.38387l3.09073,-17.47859l-3.5992,-2.33734l-16.04864,11.41899l-2.95456,-5.77911l4.26958,-10.59588l-5.33448,-2.71369l3.05775,-7.19685l-10.24751,-1.61623l11.253,-8.16254l-7.633,-3.50701l-4.26295,-5.01737l-3.69323,-5.85359l-2.01748,-6.4132l8.25577,-3.80209l0.12348,-5.8949l-2.63007,-8.03622l5.84756,-3.50376l9.69987,0.71636l8.97974,2.31846l0.39623,-6.74584l0.03812,-9.55059l6.66317,1.0881l6.74008,3.83079l1.74578,-13.90793l6.41549,4.03927l5.43548,0.71514l4.28567,10.2246l6.10992,-8.13198l4.43723,3.25667l7.5377,-4.59429l6.62948,0.01553l-0.78631,11.39666l5.91197,0.93243l0.80215,6.45125l11.18616,-2.05462l-9.7409,12.50376l10.21775,0.25643l0.01095,5.60174l-1.60698,5.57789l11.69296,3.60582" fill="#5eed51"></path></g></svg>