<svg x="0" y="0" width="300" height="300" version="1.1" xmlns="http://www.w3.org/2000/svg" xmlns:xlink="http://www.w3.org/1999/xlink"><g fill="none" stroke="none" stroke-width="1" stroke-linecap="butt" stroke-linejoin="miter" stroke-miterlimit="10" stroke-dasharray="" stroke-dashoffset="0" font-family="sans-serif" font-weight="normal" font-size="12" text-anchor="start" mix-blend-mode="normal"><path d="M0,300l0,-300l300,0l0,300z" fill="#198a4f"></path><path d="M251,150l-11.1689,24.07017l-9.29074,22.42983l-11.951,22.08936l-20.58936,14.54908l-19.52991,23.1134l-28.47009,-0.25184l-25.36427,-11.33927l-29.13573,-0.26396l-17.62489,-22.27188l-22.27188,-17.62489l-5.09359,-27.84164l5.49036,-26.65836l-3.55851,-26.14072l10.95597,-23.85928l14.47765,-22.12489l22.12489,-14.47765l21.78872,-18.68337l28.21128,11.28592l28.47009,-12.25184l19.52991,23.1134l22.00357,13.13487l23.52717,16.00357l0.16406,28.89455" fill="#f3dc0e"></path><path d="M243,150l-6.06668,23.29371l-3.79489,24.70629l-25.15568,9.98276l-15.98276,14.76338l-18.44747,15.15312l-23.55253,12.10075l-21.99962,-17.8963l-20.50038,-8.49154l-21.84672,-9.26544l-23.12185,-13.84672l-2.36254,-26.42983l-10.1689,-24.07017l7.27112,-24.84663l18.25069,-18.15337l2.35329,-29.12489l21.12489,-16.2097l24.85928,-9.22392l26.14072,6.55851l22.51726,6.96445l28.48274,-4.29904l19.00357,18.33102l7.07269,25.50357l3.09558,23.01802" fill="#cf8e61"></path><path d="M231,150l-7.58964,19.67025l-2.39628,21.32975l-13.03133,16.98276l-17.48276,12.1653l-21.34739,1.33045l-19.15261,12.52149l-21.22316,-4.79408l-21.77684,-4.72773l-17.81118,-13.667l-11.06893,-19.31118l-10.22359,-19.50038l-1.8963,-21.99962l-3.89925,-23.55253l20.34927,-15.44747l11.68855,-16.86144l9.86144,-23.8129l26.84739,8.19583l19.15261,-17.52149l22.51726,4.96445l15.48274,18.21762l15.74012,12.07782l27.66627,6.74012l-2.20047,25.77684" fill="#d7e9cf"></path><path d="M219,150l-2.35112,17.85851l-9.49121,15.14149l-8.36731,15.79037l-13.79037,11.83141l-12.74156,22.44784l-22.25844,-12.06962l-17.85851,-4.35112l-22.14149,2.63315l-20.10408,-9.17796l-10.04398,-19.60408l-12.92156,-18.24156l6.06962,-22.25844l8.41927,-18.37615l2.7628,-19.62385l7.12807,-20.68986l16.68986,-14.05627l19.74156,-10.32349l22.25844,2.06962l18.63497,11.45334l16.86503,8.05886l14.70458,11.28322l11.28322,14.70458l17.71811,14.27684" fill="#420556"></path><path d="M218,150l-3.28297,17.34088l-4.09525,17.65912l-12.53852,13.08326l-11.08326,16.00262l-21.47086,-6.13033l-15.52914,9.04445l-17.08206,-3.2489l-19.41794,-0.53125l-11.58326,-15.13659l-7.34236,-16.08326l-18.95066,-12.07093l3.37629,-19.92907l13.04445,-15.52914l-2.66623,-19.47086l14.65984,-10.96194l10.96194,-14.65984l19.21204,1.7003l15.78796,-16.07852l19.92907,0.62371l16.57093,11.15643l7.34062,19.37923l15.91513,9.34062l5.9272,16.9003" fill="#05e9af"></path><path d="M220,150l-15.90815,14.49387l-10.79058,10.50613l1.24646,19.54773l-11.54773,12.60995l-16.43558,4.66158l-16.56442,-0.81925l-13.19977,-11.73778l-19.80023,7.89546l-8.7193,-15.43838l-6.77812,-13.7193l-15.25368,-10.91794l7.7511,-17.08206l-9.68296,-17.5997l5.9272,-16.9003l20.15777,-5.09798l8.59798,-14.0956l13.65912,-11.02346l17.34088,14.71703l16.56442,-11.81925l12.43558,11.58978l9.18377,12.04571l5.1175,13.18377l6.92687,11.54141" fill="#e03623"></path><path d="M194,150l7.19407,13.71741l-9.62485,10.28259l-1.26413,16.30509l-11.30509,9.92439l-15.80023,-0.96726l-13.19977,-0.26222l-14.23505,4.12592l-13.26495,-5.49452l-12.09798,-8.03342l-6.30137,-13.09798l0.50083,-14.3355l-13.60149,-12.1645l2.9763,-15.0115l15.3205,-8.4885l5.34785,-11.85534l13.35534,-2.74978l8.54141,-12.12303l13.45859,-7.77186l15.0115,1.9763l9.4885,13.58845l15.80509,2.13016l5.59426,13.80509l1.43102,13.81787" fill="#f2cfef"></path></g></svg>