<svg x="0" y="0" width="300" height="300" version="1.1" xmlns="http://www.w3.org/2000/svg" xmlns:xlink="http://www.w3.org/1999/xlink"><g fill="none" stroke="none" stroke-width="1" stroke-linecap="butt" stroke-linejoin="miter" stroke-miterlimit="10" stroke-dasharray="" stroke-dashoffset="0" font-family="sans-serif" font-weight="normal" font-size="12" text-anchor="start" mix-blend-mode="normal"><path d="M0,300l0,-300l300,0l0,300z" fill="#6a9ec4"></path><path d="M247,150l-13.97161,53.91926l-38.28736,46.57074l-59.75874,-5.67192l-48.5497,-24.21932l-38.82073,-43.16394l12.98883,-56.48242l23.94999,-51.77558l54.26478,-25.59066l57.94557,14.64017l47.63575,37.27367" fill="#117e62"></path><path d="M253,150l-21.64895,52.82999l-41.08412,37.61101l-56.69255,13.26628l-48.48005,-31.62223l-33.61877,-45.68551l-4.18967,-59.77338l39.15274,-45.11791l53.21304,-19.96593l57.10934,6.684l45.9037,38.27367" fill="#af0065"></path><path d="M243,150l-14.16497,51.19607l-41.41526,32.85011l-53.68896,18.67341l-49.97475,-29.14825l-23.58717,-49.50117l6.13813,-51.26367l25.7955,-44.30393l48.17633,-20.99311l52.39625,8.73592l35.26718,38.75461" fill="#fabd5d"></path><path d="M244,150l-20.19699,47.92824l-35.16303,38.85858l-51.93691,-2.83331l-52.27787,-11.12532l-23.29038,-49.01684l-3.38731,-53.786l28.69112,-48.51709l54.04927,-12.00975l49.00926,12.98392l49.70344,26.01757" fill="#946009"></path><path d="M234,150l-6.00364,50.65143l-41.39006,31.56766l-50.84183,7.66055l-46.65535,-22.25346l-37.63355,-41.22664l20.5378,-51.73894l14.42527,-53.15235l54.25833,-10.02071l50.16218,8.32186l41.41327,32.69059" fill="#c7f211"></path><path d="M237,150l-11.51965,49.01751l-38.46732,34.11512l-49.68423,-3.12988l-44.20491,-16.83545l-35.85278,-38.32068l9.03591,-52.04012l20.76093,-50.5211l54.46523,-2.84168l48.87196,1.25669l42.73328,31.29958" fill="#c43dd7"></path><path d="M242,150l-21.55167,45.74968l-33.02856,38.2965l-50.7167,-0.09267l-43.57917,-20.7862l-25.22759,-41.16769l3.166,-47.64803l18.52293,-48.9576l50.79814,-16.89l45.93586,20.21549l48.55125,22.28052" fill="#67bafc"></path><path d="M226,150l-3.87433,46.83896l-35.11263,36.29368l-49.52779,-4.11757l-49.04526,-10.64574l-13.7822,-48.18144l-10.25287,-47.99942l33.36149,-36.69159l43.55773,-18.0422l49.989,1.46372l25.37082,42.58159" fill="#73eeed"></path><path d="M235,150l-17.90635,43.57112l-34.96145,28.59897l-44.95982,8.82035l-50.07065,-11.13483l-19.20542,-47.85599l6.01917,-46.72098l19.44569,-45.22178l46.91769,-22.5474l48.76433,15.86398l31.9709,35.62656" fill="#323e55"></path><path d="M230,150l-15.42237,41.93721l-28.78481,38.45479l-49.08975,3.56151l-36.21874,-28.96079l-31.6221,-33.25192l12.6617,-43.99002l18.75976,-39.14531l41.04045,-21.15079l41.36318,18.39285l44.38894,19.65247" fill="#c5a770"></path><path d="M236,150l-11.35832,48.47287l-42.91622,22.78367l-44.86595,11.70927l-39.72082,-24.25738l-29.24238,-36.70882l-0.63822,-48.8841l37.43085,-29.07003l37.3669,-19.62915l46.07937,0.73912l25.95068,37.84455" fill="#3d4249"></path><path d="M223,150l-10.09971,40.84793l-30.36136,32.23571l-43.17648,-5.92083l-47.57682,-2.50921l-11.3323,-46.01863l3.92376,-39.95714l15.90659,-40.07236l41.56309,-16.17818l45.83443,3.61917l27.27069,36.45354" fill="#413826"></path><path d="M223,150l-12.61572,39.21401l-30.28577,28.38835l-42.92614,13.38808l-44.71761,-17.07999l-9.10365,-46.05194l-4.68036,-41.03479l20.35429,-39.77255l42.82173,-14.62388l41.29453,12.52923l34.40868,26.04348" fill="#f0e728"></path><path d="M226,150l-9.74503,43.02648l-32.90257,31.88424l-45.24142,0.15359l-34.95012,-23.04418l-18.84381,-34.42044l1.01111,-38.61285l16.21417,-38.82708l41.34973,-7.78725l38.43328,6.14804l32.76054,24.47945" fill="#76c1aa"></path><path d="M215,150l-9.64774,35.94618l-27.28743,27.08846l-40.26672,14.00505l-34.63725,-25.01955l-31.40085,-31.0558l2.15547,-45.6857l36.43734,-24.23884l31.38944,-29.60703l40.03708,16.19677l21.91424,31.37046" fill="#21f0e3"></path><path d="M216,150l-14.8411,33.22298l-23.09408,29.81166l-38.23307,1.16511l-40.01656,-8.46388l-17.43001,-37.61853l7.69825,-37.5854l15.23481,-35.70929l36.31947,-24.38439l42.86556,11.84526l18.32427,37.2165" fill="#0e609d"></path><path d="M214,150l-4.45439,38.66937l-28.63363,30.76008l-41.54953,-2.26665l-32.85595,-18.85839l-23.15539,-30.4459l9.58549,-36.39953l11.75232,-37.41349l37.68049,-16.64559l41.67987,5.77461l23.10839,33.82549" fill="#ae51e6"></path><path d="M210,150l1.22295,39.75865l-37.63223,13.22699l-32.35106,2.32491l-30.04925,-12.20815l-28.80523,-24.98507l8.6493,-37.27639l12.3958,-38.34975l40.19347,-3.15703l37.70158,-0.81361l23.23426,29.97945" fill="#f262a7"></path><path d="M205,150l-4.67977,32.67834l-20.62846,34.01048l-39.86002,-2.48908l-38.67829,-9.95017l-11.04087,-38.20279l7.57929,-33.04272l8.25568,-37.40428l38.19883,-1.29301l34.455,-0.44018l24.22615,25.63341" fill="#1599b8"></path><path d="M222,150l-19.16375,34.31226l-27.21184,23.2411l-33.759,-6.19357l-37.36629,-0.82595l-9.55689,-35.78116l-7.71196,-35.14781l21.23458,-30.89651l34.42721,-16.33586l32.5314,17.73112l36.06434,14.39637" fill="#154107"></path><path d="M202,150l5.0296,37.03545l-30.99845,21.43145l-36.19939,5.73283l-31.31786,-18.12476l-7.77612,-32.87521l-13.50751,-33.59489l19.97594,-32.4508l36.10396,-10.80348l33.02127,11.97102l23.032,23.17838" fill="#eaa9d9"></path><path d="M213,150l-11.8411,33.22298l-24.31429,27.07102l-35.44851,-5.97114l-28.86742,-12.70675l-15.65461,-27.38106l-8.69275,-34.32115l26.57673,-23.43407l28.13401,-24.10732l32.98539,16.84012l19.15586,24.78737" fill="#9b3a33"></path><path d="M196,150l2.64289,31.58906l-25.05217,21.39657l-32.19462,1.33722l-33.55133,-7.50473l-11.93662,-32.32426l5.58796,-30.25373l18.92582,-20.76599l23.20182,-24.13998l28.62177,17.00652l30.58202,13.15932" fill="#6c8c2c"></path><path d="M203,150l-16.0985,23.96412l-11.2771,33.58925l-35.47978,4.671l-28.28507,-19.86511l-19.81511,-26.83011l9.45167,-31.28901l16.40854,-23.87458l25.92816,-19.04235l28.41271,15.01747l21.92176,18.15932" fill="#5d5e96"></path><path d="M192,150l7.48156,32.1337l-30.36494,10.80293l-28.50269,16.32466l-22.7322,-23.59035l-20.04173,-21.69472l-3.00128,-31.89921l18.6607,-27.15148l31.7968,0.32098l31.03523,-6.92489l17.83585,26.17838" fill="#7ab9a2"></path></g></svg>