<svg x="0" y="0" width="300" height="300" version="1.1" xmlns="http://www.w3.org/2000/svg" xmlns:xlink="http://www.w3.org/1999/xlink"><g fill="none" stroke="none" stroke-width="1" stroke-linecap="butt" stroke-linejoin="miter" stroke-miterlimit="10" stroke-dasharray="" stroke-dashoffset="0" font-family="sans-serif" font-weight="normal" font-size="12" text-anchor="start" mix-blend-mode="normal"><path d="M0,300l0,-300l300,0l0,300z" fill="#af7e38"></path><path d="M251,150l-5.50006,38.58448l-29.32068,25.32409l-27.94602,21.9647l-34.84799,11.06764l-38.27131,-1.09226l-38.04918,-14.84586l-14.24779,-38.48078l-11.57582,-35.61611l-3.95526,-40.27973l27.64175,-29.61935l29.06414,-23.53568l34.51008,-22.86854l39.06187,13.27124l29.69278,22.84117l20.68577,28.285l24.05532,30.66517" fill="#c30d95"></path><path d="M251,150l-11.99035,35.96223l-22.83039,27.94634l-31.60665,13.74279l-30.97797,25.28589l-38.82272,-6.14892l-24.99368,-29.90531l-29.65765,-23.04592l-7.88187,-37.00098l16.92147,-33.10258l9.59767,-33.5128l29.92864,-17.92014l31.27877,-17.77471l36.49592,3.19298l24.63872,26.87623l37.23469,14.40489l12.67275,36.80434" fill="#b38348"></path><path d="M245,150l-11.55345,33.71459l-22.30266,25.33137l-25.35106,21.34604l-32.51227,13.55074l-35.77247,-4.67194l-24.38419,-26.10349l-20.42019,-25.46739l-5.50153,-31.91013l5.76224,-30.82016l14.21993,-27.67821l22.44109,-23.22491l31.07152,-12.57896l31.35402,11.61151l25.35495,16.22411l30.53635,15.67683l2.26943,33.72698" fill="#19c327"></path><path d="M224,150l-5.38839,27.72089l-9.62574,29.2411l-24.81999,19.77583l-31.72291,-6.78046l-29.80458,5.21805l-27.5071,-14.23753l-20.62999,-24.1147l-10.29181,-30.82412l7.80387,-31.33845l12.10681,-29.94034l32.54734,-7.40954l25.17926,-14.88343l29.65293,2.5943l25.29056,15.0896l29.41996,15.88882l-4.91093,33.97954" fill="#673398"></path><path d="M231,150l-4.97092,30.71774l-31.43001,12.35108l-12.06014,30.01482l-30.37516,-11.12141l-28.84134,11.33379l-16.14679,-25.73476l-24.58519,-14.68343l-3.41749,-27.92513l-1.45325,-28.438l24.0195,-17.01033l14.45885,-23.07661l25.43968,-15.98952l26.00307,18.041l32.22779,-2.30812l9.02115,29.82887l18.35118,23.1445" fill="#e1648c"></path><path d="M210,150l2.12132,25.09864l-15.36423,20.05415l-17.06531,21.53602l-27.6327,-7.72476l-26.68452,8.69381l-17.52978,-20.83974l-21.65915,-15.69377l4.9581,-27.00872l-2.96239,-24.20174l15.85601,-18.48115l15.44702,-18.82434l23.19866,-12.22494l23.30396,13.86335l17.87441,12.41259l14.63604,15.34059l19.83107,18.39706" fill="#d27332"></path><path d="M206,150l-5.93207,20.22876l-15.53962,13.11485l-11.75106,17.81494l-21.06718,-2.1884l-18.46906,-2.92521l-28.07276,3.74576l-1.00675,-27.43377l-4.03971,-18.8691l1.37432,-19.24769l7.90353,-18.30788l18.06572,-8.31374l16.26293,-17.28983l22.25867,3.91814l16.02743,14.77662l13.01892,14.97656l13.3925,17.78879" fill="#aba1a0"></path><path d="M196,150l8.70385,22.10179l-10.82412,20.27237l-21.50921,7.87084l-20.31145,8.71906l-16.76594,-18.55728l-23.43358,1.95247l-15.7872,-16.05699l4.04944,-22.81445l10.88489,-16.15752l6.81945,-14.32738l9.63923,-15.3844l17.30821,-7.34461l16.80319,9.3531l14.28101,7.27654l11.38131,11.59645l23.16726,13.01044" fill="#4d2cb9"></path></g></svg>