<svg x="0" y="0" width="300" height="300" version="1.1" xmlns="http://www.w3.org/2000/svg" xmlns:xlink="http://www.w3.org/1999/xlink"><g fill="none" stroke="none" stroke-width="1" stroke-linecap="butt" stroke-linejoin="miter" stroke-miterlimit="10" stroke-dasharray="" stroke-dashoffset="0" font-family="sans-serif" font-weight="normal" font-size="12" text-anchor="start" mix-blend-mode="normal"><path d="M0,300l0,-300l300,0l0,300z" fill="#7d1ded"></path><path d="M257,150l-18.29298,59.83364l-51.99557,31.03038l-57.71053,7.92889l-57.40896,-23.07515l-23.02716,-57.832l7.34002,-59.77964l35.80406,-51.39142l61.74617,-5.6544l50.03341,25.31915l37.66173,40.44459" fill="#312ad0"></path><path d="M235,150l-6.24143,53.12333l-40.9233,40.52224l-57.37896,-1.69969l-54.5483,-20.39606l-22.41916,-54.53229l7.89725,-56.47098l34.56214,-47.04745l57.29742,-6.44244l54.3573,13.65968l40.12508,43.71357" fill="#916377"></path><path d="M241,150l-24.67699,44.73543l-34.10684,35.00238l-51.34404,10.25177l-49.92875,-23.30238l-27.45454,-49.66968l9.72434,-55.6575l43.33344,-30.89996l46.62923,-21.40462l52.66374,14.08795l28.73274,46.0748" fill="#65d035"></path><path d="M223,150l-10.82218,41.93947l-32.20929,32.23524l-46.39355,3.09895l-39.68348,-23.09031l-31.53939,-38.72867l7.25589,-51.24751l34.81894,-37.13931l48.22542,-3.02157l50.8361,2.33316l28.2648,43.86479" fill="#31c988"></path><path d="M222,150l-0.70277,48.09059l-41.3287,26.08412l-46.39355,3.09895l-39.68348,-23.09031l-19.72169,-40.81244l3.66011,-45.5031l34.54582,-28.07922l40.41623,-19.73985l42.4675,17.65696l26.15717,36.30078" fill="#3c3f24"></path><path d="M228,150l-23.28352,36.90673l-31.49087,20.57867l-39.65063,19.78826l-40.40282,-22.39565l-19.98716,-41.33345l11.03973,-42.8296l25.50141,-35.16662l42.99602,-13.50083l41.94952,16.46719l20.16711,37.8859" fill="#73eb22"></path><path d="M223,150l-18.28352,36.90673l-31.49087,20.57867l-34.86866,-2.70913l-27.92063,-16.57006l-30.35766,-25.87719l13.28153,-37.54669l25.37458,-24.81717l33.6035,-16.92435l29.98992,22.46325l33.45029,20.55452" fill="#4e7c2c"></path><path d="M201,150l-10.37716,27.40045l-19.64487,24.52184l-34.07641,9.701l-23.58789,-26.19572l-24.37175,-24.66139l-1.06301,-38.42428l30.85585,-22.37675l32.97531,1.06469l37.67154,-5.23399l16.99995,33.68293" fill="#a7cffb"></path><path d="M200,150l-11.86427,25.72287l-22.40225,13.21885l-25.92115,8.98751l-24.34064,-14.58563l-22.59054,-23.27201l14.18221,-29.18822l11.6714,-30.91822l33.39411,-10.928l26.08482,22.13002l29.10756,17.96959" fill="#01d6e5"></path></g></svg>