<svg x="0" y="0" width="300" height="300" version="1.1" xmlns="http://www.w3.org/2000/svg" xmlns:xlink="http://www.w3.org/1999/xlink"><g fill="none" stroke="none" stroke-width="1" stroke-linecap="butt" stroke-linejoin="miter" stroke-miterlimit="10" stroke-dasharray="" stroke-dashoffset="0" font-family="sans-serif" font-weight="normal" font-size="12" text-anchor="start" mix-blend-mode="normal"><path d="M0,300l0,-300l300,0l0,300z" fill="#14d651"></path><path d="M252,150l-6.78216,18.50847l-2.49945,18.95219l-13.04468,14.28005l-14.93312,10.77855l-3.94148,24.31086l-17.27828,10.91925l-21.70057,-3.23547l-18.01621,14.4197l-18.66532,-15.10321l-20.3668,2.95795l-16.27573,-11.07161l-16.07838,-10.6591l-10.68409,-16.07976l-16.10709,-12.9489l2.61042,-21.44116l-10.98614,-17.40289l1.50939,-19.61559l9.93828,-17.23496l9.96179,-15.42166l-2.15921,-24.97655l25.60137,-1.43358l9.54191,-19.44617l17.36417,-10.4247l20.85214,4.89968l18.94199,-4.14704l19.86355,0.64445l21.27267,1.9605l13.47418,16.84561l17.34079,10.96679l6.71464,19.69832l-0.48086,20.54773l16.99044,15.33909" fill="#103a93"></path><path d="M238,150l10.16272,19.0809l-12.8618,15.38291l-7.30455,16.18762l-3.90436,20.89838l-15.5872,12.0037l-23.11871,-4.07505l-16.4902,2.36863l-15.61534,12.09565l-17.98539,-1.10003l-16.07697,-8.27037l-19.69192,-0.56994l-17.10846,-8.94477l-9.08682,-17.28339l0.27152,-20.51269l-3.77435,-15.77957l-3.62354,-15.62244l-12.4816,-17.68087l1.17133,-19.08037l17.2645,-12.24636l5.06693,-17.91677l13.61811,-11.9869l18.31209,-3.76472l14.82294,-8.29468l16.50899,-5.39037l17.09464,3.83255l17.77609,-1.76714l14.13854,10.91851l16.52802,5.80859l13.40809,11.35155l2.44683,18.85743l20.78071,9.59432l-7.49777,19.93679" fill="#34ffa0"></path><path d="M226,150l8.41994,16.40957l-5.60931,15.43199l-2.49161,17.72059l-16.61382,8.09449l-12.09836,10.33297l-11.40728,13.31593l-16.62882,3.46465l-16.67408,-1.82076l-15.56785,-2.94668l-14.00638,-6.70673l-19.67586,3.84903l-11.19181,-13.2346l-4.74834,-16.96888l-11.40754,-10.99514l-8.40258,-13.94682l0.30344,-16.27959l-2.56617,-16.07893l0.67345,-16.8346l1.47872,-18.37861l17.10047,-9.06484l5.95766,-18.41477l15.96473,-8.17946l19.50928,3.77049l15.11077,-4.09011l16.50251,-9.10292l16.87619,4.14016l18.32174,1.86793l5.50816,22.39277l17.02248,5.17571l7.95243,14.57714l3.92036,15.80341l15.55268,13.61432" fill="#cd16f4"></path><path d="M232,150l-13.2861,13.35663l11.95109,19.23414l-16.92603,8.80179l-11.22716,9.31749l-4.33138,18.09871l-11.98086,12.49677l-19.32823,-8.22779l-14.39346,-2.12101l-15.77479,12.99676l-12.01256,-14.41626l-18.98378,4.17913l-4.55326,-19.46682l-7.05795,-12.12252l-12.40386,-8.81084l-1.23831,-14.68124l-11.25603,-12.9847l0.40645,-15.52169l5.26277,-14.54093l14.7847,-9.03952l-0.16875,-17.32836l8.91324,-12.94575l12.63813,-9.55868l14.99166,-5.13234l16.23937,4.82237l15.49197,-15.06671l14.8454,9.83787l11.44702,11.99797l10.27834,10.08872l11.52088,8.18841l8.23737,11.54837l16.2832,9.32671l2.81344,15.98275" fill="#0d973d"></path><path d="M215,150l3.7139,13.35663l-6.59258,11.74201l4.97233,18.47248l-21.77524,0.19235l-1.15302,19.31123l-15.69382,0.87347l-12.27509,6.20646l-13.40452,9.79662l-13.11663,-14.76384l-12.24865,-3.16772l-18.11468,5.6965l-3.47461,-18.66866l-10.14459,-8.12414l-16.69751,-6.2921l9.18548,-18.0669l-11.00292,-11.4722l-7.57406,-14.96364l20.47968,-9.59665l2.19166,-12.52936l5.63388,-11.71212l6.15063,-13.0221l15.42474,-0.65994l9.75726,-10.50604l13.4414,-1.7189l12.89496,5.86007l12.88974,-0.64807l9.67971,9.16213l13.10191,2.44568l14.59919,4.24835l10.83545,10.04837l0.44786,15.38466l13.07989,11.84232" fill="#7c20f5"></path><path d="M225,150l-6.2861,13.35663l-2.88385,13.24044l-14.67115,6.62591l1.3529,17.48708l-11.2143,8.26889l-17.30004,-5.07977l-10.5004,4.56302l-11.57759,-3.49571l-10.99267,2.31943l-10.42195,-3.72344l-13.98233,2.1534l-9.34688,-8.15461l-9.88558,-7.84148l-3.91408,-12.10241l1.56625,-12.8647l-3.79851,-10.63705l-2.68158,-11.67153l6.37658,-10.36709l-1.689,-13.58964l3.22717,-13.48251l15.86389,-1.63363l6.30463,-12.52873l14.20466,2.73551l9.93294,-13.19455l12.72065,7.85246l11.41022,3.12711l15.41945,-4.6245l10.24732,8.88872l-0.21691,17.63344l18.35804,1.73931l0.83693,13.83807l-5.01343,13.22906" fill="#e9c0e8"></path><path d="M203,150l0.00787,10.30369l10.04063,15.16956l-19.43763,2.84798l3.86556,17.52622l-17.65045,-3.25155l-4.6083,14.04391l-10.59585,6.69424l-12.84194,-12.36512l-9.75803,-0.59683l-11.85901,4.13007l-15.18542,3.7852l-9.14003,-9.23982l-8.54732,-9.32777l-4.81288,-11.66404l-1.39866,-12.26779l8.04571,-12.23038l1.24846,-9.65105l-8.38714,-12.75657l3.78803,-11.20816l14.39211,-3.36676l7.73897,-6.20949l6.74388,-8.04473l5.76256,-16.39325l13.42172,5.39563l10.87359,4.88228l11.28056,-1.95866l13.97641,-3.05325l6.97632,11.52579l-0.71363,15.78981l11.40534,3.99083l0.59005,10.89602l6.2433,8.94946" fill="#82e4de"></path><path d="M211,150l-10.93701,9.73126l5.56804,12.74514l-11.18149,6.38947l-6.32453,7.95102l-6.57831,8.23647l-13.24356,-3.94382l-6.15579,11.50644l-10.61178,-8.64279l-9.8266,8.37429l-6.41584,-11.9407l-16.71046,11.88042l-8.06138,-8.44166l4.33874,-17.36568l-8.90095,-4.99967l3.47202,-10.60979l-5.31906,-7.6616l-14.65737,-10.64283l3.48192,-11.10699l10.70855,-7.15389l10.35076,-4.51611l2.02079,-11.75486l8.63184,-5.71329l9.56339,-3.96129l10.87523,4.89793l9.96787,-11.03676l6.79737,16.44504l15.38702,-12.12614l1.081,17.2119l3.37737,8.69402l15.93359,0.05448l-6.02858,13.175l3.94951,7.92304" fill="#4cea8c"></path></g></svg>