<svg x="0" y="0" width="300" height="300" version="1.1" xmlns="http://www.w3.org/2000/svg" xmlns:xlink="http://www.w3.org/1999/xlink"><g fill="none" stroke="none" stroke-width="1" stroke-linecap="butt" stroke-linejoin="miter" stroke-miterlimit="10" stroke-dasharray="" stroke-dashoffset="0" font-family="sans-serif" font-weight="normal" font-size="12" text-anchor="start" mix-blend-mode="normal"><path d="M0,300l0,-300l300,0l0,300z" fill="#0dff1b"></path><path d="M247,150l-13.55345,33.71459l-8.63521,38.52988l-38.20504,9.97462l-33.18615,15.72121l-39.67429,1.66712l-33.33545,-22.32036l-13.09947,-36.95692l-9.08684,-33.91255l-9.0361,-39.1734l30.3359,-26.38066l19.30369,-37.10483l41.2422,1.76171l37.2183,-0.68533l39.819,9.27174l23.82557,33.39317l5.12334,39.00021" fill="#8c9be5"></path><path d="M255,150l-15.06317,36.33684l-26.63493,24.7931l-24.66192,25.65688l-35.01043,17.14983l-33.3853,-22.18339l-28.45861,-17.09966l-22.6771,-25.2002l-5.89661,-33.38459l-13.07286,-38.5156l30.15089,-26.04689l24.1713,-27.15224l34.77231,-16.78984l39.70835,1.50328l33.85555,20.55538l22.07302,31.3771l21.08819,34.10848" fill="#9d500d"></path><path d="M238,150l1.93683,36.33684l-22.31889,28.96105l-28.97796,21.48893l-35.39433,6.15653l-38.81575,4.78469l-20.63688,-35.30387l-36.36882,-17.27194l-6.18305,-38.24634l6.50636,-36.88054l21.01035,-29.8046l24.76445,-27.63256l37.27918,-0.10612l37.58915,-11.49203l33.79116,19.42087l10.56432,37.58909l27.27094,27.94352" fill="#fd0a72"></path><path d="M233,150l1.37373,34.0892l-25.38787,22.87279l-18.3122,34.39256l-37.18371,8.58454l-31.5356,-22.88429l-30.16871,-12.4012l-26.27228,-23.44671l-1.30387,-35.20783l3.04859,-32.88354l10.73374,-33.53756l25.06102,-27.87272l36.49431,-11.15743l32.77947,21.58999l35.54555,3.78919l15.73998,31.57301l8.58009,30.94863" fill="#83a5af"></path><path d="M229,150l5.37373,34.0892l-16.03645,31.90335l-30.10404,19.88073l-35.37149,-3.92323l-32.61751,-0.19679l-32.47339,-12.64079l-15.96594,-30.97418l-8.59299,-32.06948l4.99721,-32.64427l17.44313,-27.4187l18.33952,-32.5347l35.86895,-9.93976l36.87608,3.22624l31.13536,19.16937l14.00793,32.57301l13.28295,29.53111" fill="#c057a3"></path><path d="M225,150l6.59218,32.96538l-21.16764,25.38592l-24.22498,22.95424l-33.4076,-1.35428l-35.28387,9.31953l-21.70767,-29.07607l-20.40033,-23.80993l-12.18817,-30.31599l0.24193,-34.18936l26.02863,-22.65967l20.14296,-25.15327l30.96699,-13.57348l33.93929,3.95468l33.34045,11.47928l17.47203,30.57301l12.78965,31.11359" fill="#ab0404"></path><path d="M224,150l-2.60684,28.84471l-10.96861,29.5066l-25.85193,19.30006l-32.05985,-5.69522l-32.26852,9.79712l-30.466,-14.87022l-22.4673,-26.55289l-2.10389,-34.40085l-1.7532,-34.04985l28.32677,-20.73131l15.96694,-30.61343l34.72639,7.85971l31.78214,-12.98545l24.99683,21.55017l19.16309,23.54086l5.8541,29.06202" fill="#c7cc26"></path><path d="M234,150l-6.11656,31.46695l-21.0556,23.41106l-22.25523,22.77335l-31.92025,-1.69766l-33.09215,7.67894l-16.39935,-31.61251l-22.368,-18.26556l-2.61747,-28.73211l2.39749,-27.58071l14.27193,-23.72247l13.37223,-32.30163l34.36145,7.97128l26.71614,3.32274l35.49926,-2.84464l18.81829,27.63296l13.53143,30.25277" fill="#a76d1f"></path><path d="M224,150l-3.53403,28.4701l-20.83153,19.46133l-16.28204,26.9793l-30.73494,0.04358l-27.92695,-5.41706l-23.53704,-15.28768l-28.44975,-16.54965l-8.49422,-31.70086l4.9507,-32.2655l26.45065,-19.37148l14.48407,-29.41263l32.90168,8.41758l27.40057,-4.5004l21.46782,17.54863l17.89077,19.08473l5.60194,25.31458" fill="#bbceb1"></path><path d="M219,150l-4.09713,26.22246l-6.63635,30.04487l-26.9478,14.07567l-28.63146,6.61009l-28.68079,-5.53645l-20.17648,-20.13965l-11.35281,-23.22124l-24.27743,-22.33572l8.5689,-29.51434l16.54406,-23.77197l25.70217,-10.70826l22.51832,-22.28173l29.69088,6.53912l20.6409,20.43242l23.95295,15.58473l-3.43104,29.23209" fill="#63206b"></path><path d="M220,150l-11.58742,23.60022l-10.21682,22.9419l-20.53767,15.57898l-24.93593,15.83139l-28.37367,-7.47554l-24.53328,-14.74108l-11.83199,-25.48825l2.16295,-26.06222l1.8394,-23.03543l-0.20493,-30.00182l21.13112,-20.901l29.03956,-6.82533l28.99713,3.5223l23.99485,15.5311l12.21439,24.52479l19.09296,22.28367" fill="#c44703"></path><path d="M221,150l-16.29615,22.10179l-3.63072,27.21896l-27.88914,2.75135l-21.09002,7.89136l-21.93114,-5.46128l-31.68589,2.71998l-16.78529,-23.90594l-1.52114,-28.43325l4.20658,-26.20513l15.83001,-20.45902l20.21618,-13.8445l22.5733,-11.00727l23.81729,7.996l21.35713,9.7803l12.92449,19.35667l15.25246,20.1754" fill="#be55bb"></path><path d="M210,150l-4.36897,22.4764l-7.43526,24.06572l-19.31746,18.31962l-26.57493,1.09807l-25.90276,-1.121l-14.54105,-22.47954l-28.37031,-9.91979l-4.31629,-27.48676l17.56788,-22.25766l9.59463,-19.33394l15.96571,-15.45501l20.48636,-16.5281l22.92379,13.83009l25.53799,1.9952l8.98015,23.79672l22.0601,18.84036" fill="#5b0b95"></path><path d="M214,150l-11.15052,21.35258l-3.93437,25.88419l-20.44354,16.71141l-26.238,0.01283l-21.3867,-11.33823l-23.0021,-5.80466l-9.07603,-21.83097l-15.60553,-20.31347l0.26284,-26.30487l19.84525,-17.57885l14.33517,-21.71334l26.0173,0.25755l22.91448,2.99013l20.40145,10.39506l11.55773,19.28065l2.00625,20.90217" fill="#5c56fc"></path><path d="M206,150l-9.64081,18.73033l0.39789,26.42246l-24.38657,5.09221l-20.38124,6.72028l-22.16846,-1.52341l-21.30691,-9.36689l-9.74516,-21.08782l0.35549,-21.42958l2.37188,-19.31745l-0.52296,-25.37854l20.38908,-12.7214l23.51587,5.12823l19.73067,-2.2153l16.17429,11.54633l20.31243,9.90054l9.31085,21.01044" fill="#13b61c"></path><path d="M197,150l7.70385,22.10179l-11.54346,19.57771l-18.34945,14.04677l-22.78676,2.2384l-17.41508,-15.6785l-20.07302,-2.89949l-11.27337,-16.59138l-14.11412,-18.54015l3.78802,-22.79616l21.0593,-11.67l7.8358,-22.76584l23.0464,4.24528l22.76269,-12.78918l14.37361,20.54419l15.617,13.47656l-2.07907,21.09804" fill="#a365cd"></path><path d="M197,150l9.55822,22.851l-16.99453,15.35521l-15.56623,15.69297l-22.14779,-0.93147l-22.02886,2.47415l-18.63039,-12.33946l-16.91566,-15.92339l0.85921,-23.34241l0.6558,-21.45057l17.44009,-13.23984l16.58286,-7.11294l15.4835,-6.78674l16.83182,2.45797l14.3454,8.41105l17.69385,8.38446l12.27798,17.56713" fill="#72e8fb"></path></g></svg>