<svg x="0" y="0" width="300" height="300" version="1.1" xmlns="http://www.w3.org/2000/svg" xmlns:xlink="http://www.w3.org/1999/xlink"><g fill="none" stroke="none" stroke-width="1" stroke-linecap="butt" stroke-linejoin="miter" stroke-miterlimit="10" stroke-dasharray="" stroke-dashoffset="0" font-family="sans-serif" font-weight="normal" font-size="12" text-anchor="start" mix-blend-mode="normal"><path d="M0,300l0,-300l300,0l0,300z" fill="#17bd58"></path><path d="M246,150l0.05671,31.21072l-19.20009,24.62888l-12.20024,33.15227l-32.20959,10.86906l-32.44678,-3.86093l-33.06482,5.76305l-21.59921,-26.52447l-23.0016,-18.8112l-18.39108,-25.21667l-3.94329,-31.21072l12.5028,-28.42956l6.5955,-30.34896l18.00868,-27.78629l32.91837,-5.68766l29.97465,-2.74752l29.97465,2.74752l32.33059,6.49668l16.16941,28.74063l10.92466,27.96757" fill="#876a5a"></path><path d="M243,150l-4.55174,28.73858l-8.35557,29.45216l-20.72637,23.51998l-26.91953,18.15022l-32.44678,-5.86093l-29.35661,-3.64963l-30.0097,-8.63965l-22.34441,-22.34441l-10.54177,-29.39166l-7.74752,-29.97465l16.30703,-27.1935l4.40931,-30.40946l25.79521,-16.01759l22.27774,-22.43616l31.21072,4.05671l30.28367,-1.20354l30.846,9.06577l22.19908,23.59589l15.58113,28.40411" fill="#dff6ca"></path><path d="M235,150l-3.20914,26.57546l-12.2154,23.97407l-19.02593,19.02593l-20.8839,21.72596l-29.66563,2.69857l-29.35661,-3.64963l-25.30741,-15.11179l-15.72045,-24.10126l-17.11272,-22.70775l-8.5028,-28.42956l-2.90988,-32.13777l22.86228,-23.11405l26.08585,-13.51463l22.15022,-16.82864l27.81153,-2.40491l31.82875,-9.95882l18.133,29.19238l30.13094,10.5757l15.01297,27.28904" fill="#34e776"></path><path d="M243,150l-2.64963,29.35661l-24.81999,18.25399l-13.21749,24.39191l-21.10217,24.0542l-31.21072,-11.05671l-27.81153,0.59509l-26.8525,-10.35651l-14.10242,-25.27683l-27.29026,-18.75103l7.05671,-31.21072l9.11125,-25.95743l-0.20394,-32.23331l29.54315,-11.38472l24.90112,-9.36223l25.64841,-11.06231l29.35661,-0.35037l18.25399,24.81999l31.67306,7.92742l7.26248,29.48241" fill="#06c6a9"></path><path d="M237,150l-0.45386,28.12055l-16.16166,23.01677l-15.13266,24.91028l-25.8952,14.30277l-29.35661,-2.35037l-30.28367,5.20354l-19.67808,-24.43709l-13.14158,-22.91919l-22.49176,-18.03572l-11.40491,-27.81153l19.01337,-25.33939l-1.29703,-32.26356l24.61964,-17.63563l27.77955,-7.50334l26.88448,-7.25808l24.72136,13.91548l28.7671,2.46397l20.94111,19.5443l0.7039,29.6639" fill="#49d42f"></path><path d="M225,150l0.13346,24.41234l-6.36702,25.5494l-18.8047,18.8047l-20.60513,21.58392l-29.35661,4.64963l-28.73858,-6.55174l-25.92545,-13.20968l-17.33848,-22.92569l-7.88623,-26.35546l-0.11125,-25.95743l7.7197,-23.48529l4.32287,-25.88867l13.2934,-25.86462l27.47053,-8.45439l27.1935,-7.30703l23.48529,18.7197l26.47645,3.51385l22.84978,15.86577l6.12616,27.25226" fill="#a3cdd4"></path><path d="M238,150l-11.91548,24.72136l-6.50906,25.82817l-16.67479,22.262l-26.94325,7.07722l-25.95743,12.11125l-28.12055,-5.45386l-17.7267,-23.44282l-21.30116,-14.31715l-18.44668,-20.97465l5.59509,-27.81153l6.76865,-23.79431l10.93704,-21.46516l8.21807,-29.1701l30.28193,1.19821l23.79431,-18.76865l23.48529,19.7197l30.00317,-1.34025l12.85094,25.42216l6.89196,24.40408" fill="#69cd49"></path><path d="M231,150l0.79086,26.57546l-12.2154,23.97407l-26.66714,8.50871l-21.27713,7.51572l-21.63119,14.42604l-25.64841,-2.06231l-26.07669,-7.7442l-19.46839,-19.46839l2.71743,-29.47588l-16.52393,-22.24922l17.47499,-21.94021l-0.43241,-27.43375l22.11018,-13.72936l22.36196,-9.17697l23.48529,-5.7197l24.72136,1.91548l19.36253,15.40825l22.2555,12.47788l13.54935,22.24096" fill="#b6cbee"></path><path d="M232,150l-8.76865,23.79431l-14.17311,19.11401l-16.14992,16.14992l-18.18696,17.02628l-24.72136,-4.08452l-21.01316,-7.32816l-21.89517,-5.6136l-16.14992,-16.14992l-15.12417,-18.805l8.18241,-24.10333l-11.03558,-25.03038l20.40439,-16.11459l17.24958,-13.05917l18.67747,-9.51665l20.70414,-22.27921l20.70414,22.27921l28.66982,-4.23664l15.3474,20.93461l1.8526,25.39163" fill="#28cf3d"></path><path d="M229,150l-10.52393,22.24922l-17.508,14.78125l-11.58646,17.17367l-15.27829,19.97827l-24.10333,0.81759l-25.03038,2.03558l-14.35124,-22.83144l-18.86761,-11.8836l-19.73741,-16.98114l8.98663,-25.33939l-4.23135,-23.79431l7.70098,-23.8163l23.79762,-9.8296l16.70238,-19.59537l25.03038,8.03558l24.72136,-7.08452l19.95032,14.59923l17.62263,16.22583l2.37753,24.24631" fill="#7507de"></path><path d="M219,150l-0.52393,22.24922l-12.6539,18.30796l-14.6772,16.07401l-21.98591,2.33431l-19.15905,14.0345l-22.55824,-3.57287l-13.29666,-20.07709l-21.58531,-7.61728l-18.64431,-17.01139l13.08452,-24.72136l-10.23135,-23.79431l10.12803,-22.05294l20.195,-13.21099l23.44025,-0.85832l19.46807,-20.08344l19.77709,19.13238l19.60452,6.66348l16.44056,13.64696l11.70284,18.61698" fill="#6bd974"></path><path d="M219,150l-12.88767,18.232l3.75492,25.26411l-18.72229,13.13508l-21.05886,5.18748l-20.0861,2.18133l-21.63119,2.57396l-17.75042,-12.36982l-11.58646,-17.17367l-10.8506,-16.94437l-5.18133,-20.0861l4.23027,-20.39512l15.03773,-14.28421l8.93818,-18.71579l17.16264,-13.17883l21.63119,-3.42604l19.77709,9.13238l21.95567,3.42741l14.89844,16.29524l8.04065,20.13181" fill="#c6772f"></path><path d="M219,150l-15.74084,17.30495l2.56301,23.25223l-22.31841,5.55679l-14.65372,11.90048l-18.85004,13.98555l-20.39512,-9.23027l-16.04756,-12.61068l-22.61555,-7.25073l-9.41783,-20.6591l14.47607,-22.24922l-3.06339,-18.54102l11.75844,-14.37495l10.62562,-14.81603l15.52028,-11.2335l19.15905,-9.0345l20.70414,4.27921l18.67747,9.51665l18.86761,11.8836l12.12896,19.45328" fill="#93606e"></path><path d="M207,150l-4.69189,16.99593l4.32308,24.14903l-20.77629,8.20507l-18.85897,2.95807l-16.99593,-1.30811l-18.54102,6.06339l-18.48945,-6.09532l-18.7917,-10.41089l6.36723,-24.4883l-19.54506,-16.06888l6.23027,-20.39512l19.08281,-11.34528l2.54195,-24.89079l23.84002,3.37202l17.30495,-5.74084l16.68692,7.64295l13.29013,10.09719l14.51889,8.93168l10.66534,14.4052" fill="#cab6d3"></path><path d="M204,150l-3.594,16.3779l-5.10104,16.53807l-8.27448,18.0521l-16.01732,13.70377l-21.01316,3.32816l-19.15905,-9.0345l-11.40578,-16.89662l-24.44832,-2.09949l-4.9034,-20.50133l6.91656,-19.46807l-5.01445,-18.85004l3.00129,-21.11936l15.04376,-15.04376l19.57428,-7.75657l20.39512,-2.23027l16.06888,15.54506l15.67152,5.76802l23.27275,3.71752l6.80552,19.88329" fill="#4252bc"></path><path d="M203,150l3.11233,18.232l-12.42542,13.5084l-5.48088,20.8457l-19.04699,6.3794l-19.15905,-4.9655l-18.232,2.11233l-17.03511,-7.57131l-15.70096,-11.51055l-5.14426,-18.79847l-8.88767,-18.232l4.13238,-19.77709l22.0348,-8.4366l2.97792,-21.13634l16.69585,-9.61547l19.15905,12.9655l15.45085,-1.55283l11.58727,10.33804l13.41273,7.82552l12.80832,12.08431" fill="#be4b6a"></path><path d="M206,150l-10.34929,14.83282l-3.58183,15.73202l-15.03076,6.64995l-14.05941,2.72959l-12.97871,19.05563l-12.97871,-19.05563l-16.41055,0.50648l-7.0165,-14.00051l-22.55974,-7.29128l12.9655,-19.15905l-5.35705,-16.68692l14.95129,-9.76342l9.95543,-9.95543l12.54457,-6.39178l13.90576,-2.20246l13.28773,4.10457l20.80381,-6.02756l8.78636,15.77037l-0.08036,17.24685" fill="#30ba09"></path></g></svg>