<svg x="0" y="0" width="300" height="300" version="1.1" xmlns="http://www.w3.org/2000/svg" xmlns:xlink="http://www.w3.org/1999/xlink"><g fill="none" stroke="none" stroke-width="1" stroke-linecap="butt" stroke-linejoin="miter" stroke-miterlimit="10" stroke-dasharray="" stroke-dashoffset="0" font-family="sans-serif" font-weight="normal" font-size="12" text-anchor="start" mix-blend-mode="normal"><path d="M0,300l0,-300l300,0l0,300z" fill="#7de0c7"></path><path d="M257,150l-5.55877,10.6619l-8.51721,9.08971l-1.6226,9.91402l-3.60106,9.38109l-1.96385,10.45328l-11.30695,4.57624l5.08693,17.52073l-15.94909,-0.99822l-7.14002,7.06687l-4.42738,12.40101l-8.07244,8.59627l-15.18898,-10.21465l-7.11576,13.27909l-11.2745,-3.26968l-10.34832,-6.45767l-10.55737,8.44671l-8.77841,-9.47898l-13.111,8.89321l-11.07404,-2.11157l-8.97918,-6.8167l-11.56859,-2.74982l-1.50621,-15.35466l-13.19855,-1.90035l-10.21852,-6.27147l10.18356,-19.15638l-19.8546,-1.57244l10.21465,-15.18898l-19.14798,-5.86829l12.12213,-12.83555l4.4741,-10.03473l-13.4248,-10.97549l15.41337,-7.94448l-7.99633,-12.59977l4.73967,-9.56067l5.66555,-8.9196l8.12789,-7.01517l7.13275,-7.22137l11.12015,-2.6465l2.6188,-12.40063l11.60295,-0.39067l6.54655,-8.93957l11.02389,1.11671l6.80675,-14.23015l12.21525,12.22038l9.40756,-8.49303l10.24379,0.53685l9.92364,2.58283l8.88016,5.481l7.5587,7.18022l9.3937,2.54475l7.48846,6.05379l8.07156,5.25122l18.69963,-3.89678l-6.63909,18.77765l4.32174,8.48846l16.1529,3.10613l1.01047,10.99217l-4.13792,11.56591l8.48446,8.88294" fill="#e506d6"></path><path d="M233,150l-0.45468,8.67586l7.44426,10.45201l4.16502,11.46481l-13.76259,5.20014l0.14836,10.70718l-2.06571,10.51517l-14.56419,0.53006l4.34087,18.25554l-10.06058,4.29191l-15.19074,-5.6145l-5.58023,9.568l-7.13611,9.15736l-10.32414,0.69863l-10.3429,-2.40616l-9.61662,5.50399l-10.24379,0.46315l-7.01288,-16.27689l-13.027,12.01729l-6.32263,-10.98445l-5.8937,-8.60693l-10.98846,0.00839l-4.7259,-8.96695l-8.66867,-4.43185l-14.01867,-1.44323l7.28954,-16.27853l-14.0882,-3.45328l-2.65001,-9.6901l-8.44254,-8.35753l4.31333,-11.06888l6.47958,-9.9302l-2.50149,-9.51209l0.51191,-9.61579l8.19872,-7.44759l-9.56369,-14.0982l14.27828,-3.82634l1.83768,-10.16403l8.35555,-5.55773l10.00693,-2.94556l6.32657,-6.40815l2.04953,-14.429l13.52065,5.43955l5.0047,-13.68757l11.88633,7.15364l7.53094,-15.34787l10.55737,6.44671l9.09398,7.4766l11.69719,-11.29136l4.85724,18.87707l14.61852,-11.50331l1.23307,18.56089l14.3396,-4.97651l8.39694,5.51471l11.56423,3.09058l-6.22531,17.70179l7.5008,6.04953l4.22928,8.30044l8.09377,7.15196l8.41545,8.25643l0.64291,10.44285" fill="#47366c"></path><path d="M243,150l-8.46564,8.88492l-5.30441,7.95593l10.16936,12.20675l-16.31568,3.49133l-7.26571,5.46107l6.18458,14.31289l-13.29407,0.54843l-1.16321,11.04914l-2.29342,12.13714l-11.75181,-0.70339l-5.26676,10.52906l-10.1127,0.67287l-10.03223,-1.4473l-10.14415,-9.51518l-7.94416,16.41634l-9.72115,0.49054l-7.95135,-9.34799l-9.521,0.55043l-4.12523,-13.34997l-16.18128,11.92941l1.65275,-19.16909l-11.69798,0.80713l-0.42006,-11.71827l-5.13803,-6.34494l-19.16909,1.65275l7.36169,-14.1476l-1.17379,-8.63105l-11.94876,-6.00931l8.47153,-10.34978l-11.43825,-8.36228l12.43277,-8.25775l-0.66273,-8.5831l-1.60985,-9.4256l-5.03347,-11.9668l6.19894,-7.76676l13.33494,-2.19839l7.63095,-4.66293l0.49408,-11.79228l13.54268,3.16831l4.67168,-7.79674l6.24086,-6.54224l8.41975,-2.16236l5.58778,-14.93739l10.13499,1.42801l9.61662,0.49601l9.1985,3.48207l10.76102,-6.38424l6.61594,12.11131l6.77694,6.88013l8.6476,2.16459l2.67168,11.26084l6.85138,4.26314l12.3874,-0.32308l-2.42516,12.87355l20.78712,-2.82832l-9.18878,14.96107l6.80511,6.5815l12.05713,6.41373l-12.38412,11.18142" fill="#ad5666"></path><path d="M234,150l-7.42181,8.04869l-9.086,6.29721l1.93494,8.21233l0.91587,8.76048l-10.58725,3.18128l9.01069,15.46175l-16.74631,-3.1226l2.84857,14.09873l-13.72374,-4.30669l-3.14497,9.18674l-4.24086,10.00634l-10.58287,-4.49503l-5.71169,10.83516l-9.52042,-6.58073l-7.94416,10.41634l-8.04869,-9.42181l-6.50513,-8.10785l-12.63968,15.22264l-4.12523,-13.34997l-11.68128,4.13518l2.44282,-18.65601l-13.6424,4.37256l-10.45402,-1.98037l8.02241,-17.0694l-12.65084,-1.14497l1.67967,-9.90149l-5.62899,-6.3042l4.76102,-9.24049l-15.06951,-5.77343l-5.46016,-8.78039l14.41086,-7.83963l-5.61896,-9.20912l1.27041,-8.59965l0.37278,-9.33094l12.74698,-3.02065l8.37772,-3.73275l6.16321,-4.43726l0.42307,-10.30899l8.53339,-1.77022l4.32054,-7.56871l3.02065,-12.74698l7.47684,-6.07912l10.03793,2.47963l8.68419,-1.37544l8.78039,11.53984l9.09398,-14.5234l7.95478,6.3153l6.43653,7.92781l10.68059,-4.45752l1.83412,14.38399l8.08389,1.67755l3.42438,7.91299l17.14533,-5.45108l1.68579,10.01597l-0.52146,10.19839l-0.04266,8.71496l10.30925,4.56368l-4.67975,9.54381l1.19532,7.54698" fill="#9a2531"></path><path d="M225,150l3.56723,8.25775l-0.31542,8.37519l-10.7268,5.30727l-0.83619,7.75157l-6.06704,5.30823l-8.84469,2.61826l1.72934,10.55915l-8.00555,2.35644l0.93415,13.37849l-10.93503,-2.42454l-4.58802,7.94165l-6.80866,4.75295l-10.17324,-8.64652l-5.88139,11.0423l-8.04869,2.42181l-7.10794,-11.37251l-7.23797,-0.1353l-9.4484,5.73917l-4.67726,-9.28317l-6.02843,-4.19243l-10.17168,1.72954l-8.85877,-2.03371l-7.40743,-4.58288l-1.35643,-9.60925l-8.71977,-4.25946l14.37426,-15.78233l-5.17886,-5.13157l-9.5861,-4.90855l-8.15698,-6.81528l13.56175,-8.36228l-5.60558,-7.52605l8.02598,-5.98821l0.80986,-6.88086l-3.91909,-9.29665l6.93307,-4.80823l-4.96561,-12.52282l10.47179,-1.82371l12.09434,2.02841l2.77362,-7.38601l5.38161,-4.68559l0.6476,-16.021l11.10318,6.43466l5.8242,-8.79759l7.85369,-4.27713l8.57133,15.5508l6.79435,1.35608l6.71991,1.06433l10.89808,-11.55387l8.12659,2.04983l5.46107,7.26571l1.38161,11.61379l8.12666,1.44086l10.45702,0.5711l-2.95214,12.22279l3.87657,5.9694l4.14491,5.93517l7.34355,5.19757l-2.886,8.52135l-4.83731,7.76061" fill="#a0f235"></path><path d="M224,150l-17.31225,5.95812l-1.91148,5.68493l10.84663,9.67912l-11.72372,2.67529l1.52644,8.00254l-10.92969,0.32819l8.26735,15.18008l-2.57849,8.22759l-6.1009,4.94041l-7.58389,2.54358l-11.68906,-7.49358l-5.03385,5.14134l-6.88656,-0.22247l-6.82787,-2.96288l-6.06265,3.31773l-7.00341,5.63297l-7.55041,1.83737l-6.45934,-3.79849l-6.2382,-3.4643l-2.24864,-10.11205l-12.82054,7.15372l-1.84208,-9.20167l-11.57324,1.13724l11.23993,-17.85661l-10.92969,-0.32819l5.18063,-9.62948l-8.7205,-3.21146l0.27665,-6.68435l-10.92768,-5.15771l-5.38347,-7.31699l10.35608,-6.79435l2.04248,-6.512l-4.92357,-8.63386l3.57683,-6.53136l5.92448,-5.02843l-0.22552,-8.82054l6.22909,-4.5186l10.53404,0.76416l7.39455,-0.84801l-1.40846,-14.56482l11.90927,8.50217l3.50462,-8.83304l7.19558,1.17352l6.82787,2.96288l6.06265,0.68227l6.06265,-0.68227l9.32281,-14.70065l1.61047,20.07481l9.03521,-6.1588l8.96885,-2.15487l3.79383,7.22666l-1.99164,12.52216l12.98852,-3.95879l6.03147,4.27457l4.79961,5.55718l4.23995,6.1217l-1.14094,8.17416l-5.03193,8.22944l1.97698,6.09847" fill="#193345"></path><path d="M204,150l5.67131,6.27171l-6.85134,4.95552l9.94976,9.16789l-10.69764,2.78887l-8.77082,1.81601l8.47582,12.61826l-12.39041,-2.15433l-3.92275,3.92275l-6.07466,1.06417l-2.88926,5.4485l-4.12948,4.34565l-6.91967,-2.69217l-4.43153,4.289l-4.01591,14.79114l-7.00341,-12.63297l-5.43548,-2.28486l-7.66296,9.90816l-7.29669,1.14643l0.46503,-18.006l-7.5699,2.86767l-7.17933,0.10061l-2.79198,-6.11589l-0.42907,-7.49045l-17.11277,5.84374l6.51573,-11.9694l-11.79658,-1.15538l4.18167,-8.61262l-1.59837,-5.96521l5.00105,-6.72678l-9.29034,-5.54001l-4.63297,-7.00341l1.09708,-6.92668l6.57039,-5.22897l-0.41495,-7.27883l4.82085,-5.06212l6.8276,-3.17933l-2.80185,-10.82155l18.41558,9.82993l-0.20992,-8.82498l8.32819,2.92672l1.62948,-8.67578l1.66638,-13.47579l8.02153,4.05378l7.66525,11.92995l5.01737,-6.26295l5.95812,-2.68775l4.22955,8.75852l4.95416,1.32746l9.26237,-8.21096l5.5958,2.8512l8.20604,-0.62458l-0.0656,10.22685l7.93453,0.87316l-7.24216,13.27241l18.32486,-4.78631l-4.17204,9.40927l-4.48175,7.83086l12.14127,2.86934l1.01521,6.40976" fill="#d9fd9f"></path><path d="M198,150l6.6987,5.74907l-6.76947,4.43861l6.28099,7.4263l-4.87877,4.34981l-11.22634,0.03622l0.7277,6.21369l-5.3913,1.89719l-0.65412,6.30322l-7.51263,-1.62637l5.22523,18.03982l-11.79011,-10.80446l-1.71395,10.28502l-7.01617,-5.35702l-3.81258,11.72571l-6.16718,-5.67679l-4.3902,-11.23008l-8.08451,16.91894l-0.195,-19.69554l-8.48061,8.51105l-1.34969,-8.53322l-6.88926,1.47971l-9.42031,2.65155l-3.54968,-4.96196l-0.51865,-6.98783l3.90676,-8.65262l-5.79258,-2.5699l-5.64227,-3.55219l6.38935,-7.02187l-10.68206,-3.60696l13.6987,-5.74907l-6.73705,-5.01737l-4.10477,-6.00195l-0.46629,-5.97662l14.85274,0.31973l-5.84591,-8.3238l-3.62172,-9.09154l7.53631,-1.37238l1.91536,-6.15219l13.37212,8.44641l1.5992,-5.80145l3.79011,-3.05195l5.11314,0.1766l2.57743,-9.99534l4.95667,-5.84045l6.06265,13.68227l5.33095,-6.72062l7.14375,-7.96824l2.97615,11.13603l7.3264,-3.60572l1.72275,8.7233l4.30148,2.79341l3.31679,3.97088l-0.16304,6.89834l3.64152,2.91006l1.64234,4.36255l17.57364,-2.9042l-6.30885,8.64433l7.25053,3.9089l-2.05023,6.20643" fill="#738cbe"></path></g></svg>