<svg x="0" y="0" width="300" height="300" version="1.1" xmlns="http://www.w3.org/2000/svg" xmlns:xlink="http://www.w3.org/1999/xlink"><g fill="none" stroke="none" stroke-width="1" stroke-linecap="butt" stroke-linejoin="miter" stroke-miterlimit="10" stroke-dasharray="" stroke-dashoffset="0" font-family="sans-serif" font-weight="normal" font-size="12" text-anchor="start" mix-blend-mode="normal"><path d="M0,300l0,-300l300,0l0,300z" fill="#d89064"></path><path d="M245,150l-4.6783,11.09011l11.55935,14.31169l-1.98795,12.94357l-11.59835,8.60179l-1.46464,13.85195l-9.54305,8.79048l-11.68116,5.88137l-6.33146,12.40702l-15.23737,-1.45035l-10.17708,6.60194l-11.13994,5.38181l-12.05815,3.02986l-12.54676,6.54232l-13.42418,0.94594l-11.60814,-8.4732l-9.79427,-9.59227l-16.1328,4.46953l-3.58314,-17.66792l-15.86444,-0.14214l-3.54657,-13.88752l-10.54467,-7.53815l0.99763,-14.45256l-8.2209,-9.41401l-9.09916,-10.40052l9.0632,-13.63809l1.69835,-11.40339l0.08894,-11.33765l-4.27115,-13.01533l13.28073,-7.60207l-1.15903,-13.3342l0.94637,-14.08876l16.15949,-2.01447l2.70792,-14.66566l12.78851,-2.99178l7.02725,-12.90165l10.69207,-8.50284l15.556,10.41058l10.87218,-10.49208l12.3836,5.88097l11.36765,4.30896l14.20245,-6.85526l13.63527,0.83554l5.6244,16.43123l12.22312,3.55614l14.18572,3.22155l7.16161,11.10742l5.61626,11.69616l-1.44504,14.51724l8.88642,9.51718l11.74207,10.42824l-8.4659,13.8677" fill="#0a25c3"></path><path d="M248,150l-1.72302,11.82133l0.7526,12.37086l-0.87079,12.71971l-6.09813,10.9742l-8.14545,9.47154l-5.37129,11.56281l-15.53043,1.26754l-8.44936,7.74154l-12.61297,0.47904l-8.48531,8.04315l-9.42065,9.03655l-13.26481,-11.94843l-10.26385,1.44721l-12.85137,17.01056l-9.47652,-13.13244l-12.52549,1.07166l-7.29603,-11.22106l-16.32123,3.80396l-0.74376,-17.42925l-7.4801,-7.88238l-17.36644,-1.65492l3.75414,-15.66141l-0.46986,-11.56734l-3.81687,-10.0282l-2.58434,-10.53937l5.71189,-10.65352l-18.78246,-13.21609l3.68321,-12.00226l21.64679,-4.31567l4.52179,-9.06932l3.19745,-10.25609l6.81943,-7.98453l3.96575,-11.75681l5.43547,-12.45933l13.58113,0.57645l12.30542,1.58946l8.83022,-9.50047l11.67642,4.50326l10.67438,-1.09133l10.32818,3.18593l9.91785,3.40756l14.60186,-7.32801l12.56539,2.04001l8.93164,8.56083l0.5678,16.49477l14.91875,1.79913l10.13685,7.70032l-4.35481,15.41255l14.36769,7.07676l-14.84774,15.11674l4.1431,9.91191" fill="#87468d"></path><path d="M238,150l-8.59631,9.74955l13.7447,13.47495l-17.52838,5.8033l-1.45242,10.40781l-2.90137,10.46554l-14.78722,0.95278l-2.68217,11.03226l-4.58786,11.06912l-10.61978,2.78025l-10.20152,2.25893l-8.14208,9.69882l-10.7335,2.80819l-11.03045,-3.51474l-11.56391,6.09845l-8.91735,-10.9815l-13.58801,5.97877l-5.62119,-13.73979l-8.75293,-5.57623l-6.64412,-8.06409l-7.74187,-6.7082l0.60877,-12.60159l-12.65853,-4.13102l-8.69918,-7.96041l9.77931,-13.29193l-10.35538,-8.51381l-4.27243,-10.63635l3.0286,-10.62528l0.40302,-11.04113l16.55518,-4.8882l-1.05571,-11.30443l8.72051,-5.94157l-2.44701,-15.57768l10.61903,-4.3153l9.07842,-5.24954l12.50153,2.29839l5.03909,-14.85833l11.28375,1.20572l9.5919,-11.33027l11.28477,5.89056l9.06031,11.07822l13.76473,-12.09283l9.93683,5.84646l5.32839,12.9013l12.04571,1.01193l1.77467,13.56441l9.62436,4.85298l13.52366,3.81702l-2.97874,13.73266l-3.10235,11.65326l20.90608,5.8424l-7.66077,12.117" fill="#7656b4"></path><path d="M231,150l5.35152,10.60263l-1.93579,10.44457l-9.72929,7.62223l0.36411,11.23565l-12.79499,3.68673l-0.57453,11.94603l-9.85236,4.08422l-3.17888,12.50421l-10.51458,2.71828l-10.08955,2.21025l-9.37471,3.81792l-10.93583,-7.2781l-9.02658,0.39411l-9.42485,2.26191l-8.95392,-2.84028l-11.4221,3.5459l-10.11647,-2.61358l-1.69951,-15.28443l-15.74354,3.83818l-7.22796,-7.61668l-7.92319,-7.3515l10.88743,-17.24225l-13.67142,-4.31496l-0.68666,-9.946l-8.39908,-8.92963l7.72026,-10.21755l7.82661,-8.38469l-5.8138,-10.6685l-3.22374,-11.82753l9.88139,-6.39712l6.98846,-6.94157l4.74639,-8.6311l12.23612,-0.38184l4.50728,-9.34519l6.14909,-9.01754l12.09646,4.89011l8.24757,-4.19491l9.1487,-0.1977l8.87783,2.91704l10.34965,-8.86673l9.32423,3.26505l9.1492,3.42074l5.57389,9.65326l11.1401,0.38952l4.4872,9.30074l7.72472,5.71852l11.39438,4.24336l-6.1704,14.08646l5.99034,7.47153l-4.72743,10.23853l2.95096,8.26587" fill="#7035a3"></path><path d="M213,150l6.47823,8.53085l5.23454,10.09713l-16.83078,3.59083l-2.25629,7.3579l4.1724,12.29437l-13.72312,-0.38498l1.81733,13.6077l-9.86719,1.28076l-9.87771,-1.13215l-0.44378,20.8727l-10.3824,-1.08861l-9.06348,3.54073l-9.51432,-6.5782l-9.7381,6.24214l-5.31092,-17.37785l-9.16765,2.19518l-9.43304,-0.07588l-9.1776,-2.29634l-10.47597,-2.16798l-1.36138,-11.5848l-4.46304,-7.70948l-0.73371,-9.40477l-1.28623,-8.32174l-4.10981,-7.3495l-3.21959,-8.03709l-0.22373,-8.54387l-1.1562,-8.82032l-1.94233,-9.68516l2.17702,-9.13786l1.59684,-9.9137l3.79392,-9.34883l12.97631,-1.36123l7.20074,-5.24445l3.44745,-11.04129l14.39343,8.08579l4.60293,-11.46818l8.55658,-3.24386l8.86967,-4.18796l9.41854,1.91415l8.35149,5.97449l10.47597,-4.67042l5.25984,11.55713l8.50287,2.17576l7.75992,4.1221l13.65513,-1.24598l4.27009,9.3455l-0.5368,11.55452l1.31859,9.01791l10.60083,5.55221l-10.60777,11.39914l1.88322,7.71165" fill="#b0919e"></path><path d="M217,150l0.49314,8.28712l2.36815,9.13126l-11.04573,5.1588l6.52256,12.16371l-7.17833,5.98303l-9.11224,3.43869l-1.81131,10.17647l-14.24387,-5.42587l-3.93699,8.1112l-7.1661,3.11591l-5.91776,9.03995l-9.80435,-10.50348l-7.38885,11.31255l-8.10293,-3.64138l-4.91045,-13.22204l-9.36517,5.28666l-11.30608,4.56004l-6.23868,-6.34143l-0.45693,-12.01861l-8.95703,-2.18859l1.91604,-10.83492l-17.86787,0.8504l2.2155,-10.30083l-9.06581,-6.54526l1.63505,-9.31816l4.76683,-8.61348l6.7102,-7.20424l-6.07807,-9.47648l6.49424,-6.37855l12.20142,-2.10248l-8.27309,-14.62705l12.7441,0.44755l-1.52136,-13.49786l14.47635,6.83862l4.8483,-6.03973l7.12509,-1.73387l4.87537,-12.60157l9.03173,6.86493l8.09309,-10.05236l7.17165,9.85844l8.64907,-2.02953l6.84898,4.69196l5.49448,6.23608l11.16394,-2.01638l3.57274,8.49171l12.43176,0.49444l-11.09944,17.33248l7.7249,4.0312l6.43354,5.80677l7.76154,6.67514l-4.0118,8.87485" fill="#115191"></path><path d="M209,150l4.52295,7.79964l-2.39432,7.44144l-6.98097,5.54426l-4.7026,5.50507l-8.48746,2.38841l9.57625,16.82206l-9.85819,1.29111l-13.8344,-6.99819l-0.05582,12.77558l-3.52807,11.32971l-11.33496,-12.25748l-4.81447,15.98588l-8.25979,-1.63754l-7.75522,-2.61279l-4.29269,-14.11494l-11.14966,11.00473l-5.70877,-6.04053l-5.20892,-5.6854l-1.5608,-9.04792l0.05778,-8.63929l-15.22744,2.91381l-6.42404,-5.2735l5.47257,-10.26231l1.10722,-7.2125l-1.95269,-6.31291l-14.16406,-7.07958l2.77115,-7.95151l15.20182,-4.00847l4.88087,-4.81268l0.07142,-6.85417l-2.08617,-9.50709l6.11713,-4.08844l3.24315,-7.03323l4.90423,-5.95022l8.34314,0.01313l8.44298,3.11091l6.91005,2.33683l4.69442,-16.72599l7.34289,8.91947l8.75595,-11.0575l7.6621,2.86601l7.54809,2.82211l-2.12279,19.14997l14.06485,-8.50065l7.88237,2.97563l6.91568,4.80407l-11.58353,16.62811l4.58962,4.4933l3.13703,5.54024l15.26946,3.74255l-12.06995,8.68697" fill="#d0201e"></path><path d="M205,150l0.58258,6.82468l1.66486,7.44871l-16.16991,1.4948l-0.46195,5.8275l7.71438,12.24532l-4.48443,5.6377l-3.82594,6.55858l-9.82318,-1.26926l-4.77295,5.12834l-4.90226,6.48519l-9.49861,-8.63742l-6.42335,-3.98517l-5.52423,9.23296l-4.78112,-12.39094l-7.23486,7.6953l-3.16713,-8.42739l-9.58683,6.48594l-4.28214,-5.09498l-9.57886,1.15865l-4.87467,-5.13683l2.49705,-10.04973l0.589,-7.06688l-2.14933,-5.18894l2.41166,-6.24384l-12.71231,-4.02588l2.82558,-6.48628l-2.36624,-6.66759l2.3883,-6.16132l-2.44241,-8.05363l11.82006,-1.33759l-3.953,-10.30346l9.55523,-0.42946l5.13029,-3.34723l6.46041,-0.93006l2.82275,-7.21148l7.95678,4.37521l2.91144,-13.12464l6.77894,-0.89246l6.7325,1.93759l4.64073,11.57926l6.2746,-2.59959l6.18863,0.1826l8.397,-2.38047l-0.00667,10.89571l7.74202,0.18605l-3.754,10.82033l17.40726,-4.63009l-8.60616,11.56906l-0.94475,6.02354l10.0604,3.42355l0.70491,6.18692" fill="#dabb35"></path></g></svg>