<svg x="0" y="0" width="300" height="300" version="1.1" xmlns="http://www.w3.org/2000/svg" xmlns:xlink="http://www.w3.org/1999/xlink"><g fill="none" stroke="none" stroke-width="1" stroke-linecap="butt" stroke-linejoin="miter" stroke-miterlimit="10" stroke-dasharray="" stroke-dashoffset="0" font-family="sans-serif" font-weight="normal" font-size="12" text-anchor="start" mix-blend-mode="normal"><path d="M0,300l0,-300l300,0l0,300z" fill="#12bf57"></path><path d="M252,150l-14.08814,40.99397l-21.06194,38.67465l-38.37982,26.58322l-44.44573,-15.64953l-40.23486,-10.32541l-28.66,-31.2769l-11.7604,-40.54589l6.42039,-41.28804l24.44956,-32.927l34.6371,-19.7511l40.36234,-20.08461l42.76149,15.53l34.01096,29.84112l3.60654,44.42354" fill="#baf3f6"></path><path d="M242,150l-2.27553,41.83921l-32.51637,26.33875l-32.10265,25.51685l-42.47027,4.78597l-40.5664,-15.74642l-16.54696,-39.73436l-13.18695,-35.33029l-0.66597,-39.8196l26.81282,-29.3684l29.02638,-27.75251l40.68455,-4.3715l39.80736,10.50386l33.09605,26.35437l12.46068,40.28749" fill="#4ccdc1"></path><path d="M238,150l-8.24491,37.19041l-30.90323,21.02897l-26.07578,26.7821l-35.62604,-12.1257l-34.1833,-5.70531l-31.77504,-21.67047l-7.86063,-37.91745l9.61414,-35.6282l17.65783,-31.35132l33.40344,-12.01967l32.70452,-5.29035l37.78901,-0.36927l14.47895,35.77876l31.62337,25.32187" fill="#b13a28"></path><path d="M218,150l1.7857,32.54161l-25.43335,20.31546l-25.45855,17.65552l-30.35457,-5.51527l-30.98388,-4.38006l-28.56943,-19.61725l-0.71194,-34.72479l2.18876,-31.5847l19.33267,-24.89509l22.84297,-24.97083l33.02673,10.42275l33.83488,-3.66335l21.11725,25.97135l21.12179,28.03186" fill="#1ecd3b"></path><path d="M222,150l-6.74584,30.42851l-17.68788,26.25877l-31.77832,2.23419l-26.90145,4.10622l-25.59541,-10.60197l-19.58276,-19.92573l-9.4572,-26.74772l15.00545,-24.22137l6.19567,-26.07864l26.07864,-6.19567l23.43697,-6.0397l30.03212,-3.83868l19.06403,22.76573l7.97885,26.91621" fill="#9dc4d3"></path><path d="M196,150l11.09739,26.62495l-19.17292,18.57167l-21.36005,16.62263l-27.50425,0.22364l-22.3276,-14.53207l-10.03384,-22.51082l-15.47422,-19.85781l8.03209,-23.61128l18.21649,-14.05782l11.66368,-24.79434l26.00542,-1.45424l18.85781,17.20627l13.68099,15.1847l25.3467,15.27103" fill="#22edfb"></path></g></svg>