<svg x="0" y="0" width="300" height="300" version="1.1" xmlns="http://www.w3.org/2000/svg" xmlns:xlink="http://www.w3.org/1999/xlink"><g fill="none" stroke="none" stroke-width="1" stroke-linecap="butt" stroke-linejoin="miter" stroke-miterlimit="10" stroke-dasharray="" stroke-dashoffset="0" font-family="sans-serif" font-weight="normal" font-size="12" text-anchor="start" mix-blend-mode="normal"><path d="M0,300l0,-300l300,0l0,300z" fill="#7e3bb7"></path><path d="M253,150l-20.25887,64.64445l-59.51663,28.50393l-62.27122,-5.44803l-58.07752,-36.05849l3.5675,-68.13845l27.31281,-57.07476l59.33804,-25.1875l61.1476,18.3422l49.42345,46.73379" fill="#ae421e"></path><path d="M242,150l-26.59511,51.0999l-44.11577,34.28612l-57.08195,-4.99402l-44.55541,-37.67009l-7.29966,-58.1766l20.0657,-59.60294l61.65289,-9.73532l57.93424,7.69245l27.88381,51.14307" fill="#9f2d66"></path><path d="M226,150l-9.8071,51.71556l-46.35531,27.84869l-58.88431,8.13611l-37.76972,-46.85634l-6.89222,-55.60412l30.84734,-43.94835l47.55983,-17.10643l56.74724,-0.45659l35.1004,48.15091" fill="#8d8e05"></path><path d="M236,150l-19.8071,51.71556l-44.66185,34.64076l-51.22282,-19.6675l-32.9975,-33.35634l-9.20169,-46.0088l15.01486,-50.49099l51.50485,-13.64512l51.22507,8.83135l28.32859,43.87776" fill="#4e5abf"></path><path d="M216,150l-2.17113,49.86858l-47.37818,16.11153l-44.51552,-2.94547l-42.57098,-25.47691l6.6233,-48.84486l13.82771,-44.44873l45.72038,-8.10824l41.93034,8.29858l26.25486,34.84138" fill="#2a5aaf"></path><path d="M209,150l-7.7793,40.018l-34.77001,25.96211l-46.14246,0.70871l-20.63624,-39.92894l-20.57815,-39.26255l28.0818,-35.0586l38.29019,-17.28039l35.84897,18.41556l29.55281,26.64902" fill="#51bb6b"></path><path d="M201,150l-9.23543,32.63006l-25.31388,33.35005l-38.00773,-17.5622l-31.41981,-20.24962l-13.00526,-39.80272l21.8195,-37.41313l39.55869,-16.79167l42.62904,9.46467l12.38088,39.99665" fill="#528fc6"></path><path d="M205,150l-10.8714,34.47704l-32.27443,13.06745l-36.66511,8.18178l-25.51708,-28.96639l2.07243,-35.26864l15.46818,-27.90534l29.5786,-9.47385l36.20118,-3.02527l17.41361,32.53532" fill="#1c3457"></path></g></svg>