<svg x="0" y="0" width="300" height="300" version="1.1" xmlns="http://www.w3.org/2000/svg" xmlns:xlink="http://www.w3.org/1999/xlink"><g fill="none" stroke="none" stroke-width="1" stroke-linecap="butt" stroke-linejoin="miter" stroke-miterlimit="10" stroke-dasharray="" stroke-dashoffset="0" font-family="sans-serif" font-weight="normal" font-size="12" text-anchor="start" mix-blend-mode="normal"><path d="M0,300l0,-300l300,0l0,300z" fill="#6e3de5"></path><path d="M254,150l-20.97161,53.91926l-46.42209,28.29983l-51.46757,11.6113l-56.7357,-14.3139l-19.20005,-55.18751l0.44666,-53.6856l21.75445,-55.3523l57.93402,-16.73232l56.06095,12.34058l35.14131,42.60065" fill="#41b670"></path><path d="M245,150l-19.51965,49.01751l-36.0269,39.5964l-53.21969,-1.69734l-49.13204,-17.06096l-27.89875,-45.52662l0.44666,-53.6856l35.5995,-38.25508l45.34331,-21.89527l55.2606,-0.48469l26.02707,48.49166" fill="#368376"></path><path d="M239,150l-28.61572,39.21401l-27.84535,33.86963l-43.80221,-1.97008l-42.26717,-11.66197l-28.57325,-37.45197l10.77446,-45.17589l19.72497,-40.54969l43.97369,-8.87413l43.94982,1.31958l33.82882,30.78052" fill="#9c6c2e"></path><path d="M230,150l-26.32508,34.8569l-19.91577,40.96737l-44.70955,-6.68609l-40.57264,-11.91603l-18.98953,-38.32836l7.74286,-39.28891l18.08798,-34.78224l36.00589,-27.36795l39.54722,21.95687l37.54465,21.08844" fill="#1a2031"></path><path d="M207,150l-9.19578,31.04442l-18.11245,35.64439l-38.29567,-12.36596l-38.90438,-1.55958l-10.44728,-37.23414l-2.91207,-35.30623l17.44451,-33.84598l35.688,-19.97155l38.60646,13.00618l25.4203,28.08844" fill="#403572"></path><path d="M205,150l-2.16375,34.31226l-34.12636,7.71083l-28.72169,21.18896l-27.45951,-21.59594l-21.45016,-25.82815l1.85808,-34.32898l18.67485,-28.86488l33.47571,0.66337l26.25039,4.86522l30.62397,11.87731" fill="#6ff233"></path></g></svg>