<svg x="0" y="0" width="300" height="300" version="1.1" xmlns="http://www.w3.org/2000/svg" xmlns:xlink="http://www.w3.org/1999/xlink"><g fill="none" stroke="none" stroke-width="1" stroke-linecap="butt" stroke-linejoin="miter" stroke-miterlimit="10" stroke-dasharray="" stroke-dashoffset="0" font-family="sans-serif" font-weight="normal" font-size="12" text-anchor="start" mix-blend-mode="normal"><path d="M0,300l0,-300l300,0l0,300z" fill="#011d95"></path><path d="M254,150l-6.81891,18.89009l2.95477,21.56742l-15.43013,14.55103l-15.64911,11.67866l-13.99328,11.95139l-17.23683,6.32113l-14.4316,16.37476l-19.73046,3.60155l-18.36929,-12.09333l-18.12909,-2.63221l-21.7601,0.64924l-18.3412,-9.85695l-8.52559,-19.61765l-8.41858,-17.54802l1.01423,-20.02576l-18.87174,-16.27765l18.40776,-18.50194l-15.28706,-23.02363l25.90044,-9.641l-2.48494,-24.50262l24.56188,-1.80765l9.69168,-18.35162l15.95576,-13.07354l20.64308,2.91064l18.71527,2.82298l17.8186,4.31483l17.39754,5.78323l22.90835,0.43146l14.26249,14.90685l13.64284,15.69832l0.15509,21.94318l7.44575,18.22199" fill="#b49338"></path><path d="M246,150l-12.56169,16.21876l-2.77332,16.37201l4.04073,22.41777l-22.12316,5.42674l-4.65134,22.29908l-18.07103,6.7931l-20.0645,-3.78289l-16.41044,11.19634l-19.18513,2.81561l-15.32395,-14.24449l-14.19952,-10.08131l-20.92058,-1.85938l-16.81416,-10.98258l-5.02372,-19.62839l-3.68114,-18.37256l-8.99102,-17.54241l16.38755,-17.4043l-4.08183,-18.37969l1.86091,-19.25757l16.11126,-11.14031l10.06133,-15.46955l12.99813,-14.57169l22.8574,8.84811l14.73355,-13.15546l18.45409,-5.13822l19.48659,0.57458l11.38216,20.53113l12.83405,10.53665l21.63031,2.68713l3.11472,19.79378l14.63904,12.91989l11.27258,17.10611" fill="#3c0424"></path><path d="M234,150l8.27296,17.93605l-4.19049,17.65158l-9.24743,15.60844l-21.28785,4.3766l-4.20458,20.60847l-14.29589,11.51922l-19.02607,-0.98143l-17.29848,-8.76645l-16.48839,8.96409l-17.69962,-0.46485l-9.22215,-18.7355l-21.54114,1.39625l-12.04396,-13.14367l-3.02319,-18.26888l-14.46667,-13.11211l11.95783,-19.00729l-0.59111,-15.45193l-11.85624,-20.10323l10.03823,-15.59746l11.73816,-13.56436l13.83725,-10.80668l16.73375,-5.10741l15.63823,-4.32275l15.17288,-7.15011l16.67653,-0.14553l13.91716,11.69053l17.54347,-1.64815l9.59407,14.37371l23.06015,-0.07276l2.78077,19.32561l13.45504,12.72216l2.18117,17.61309" fill="#53aa65"></path><path d="M237,150l-4.54332,16.02796l-6.42761,14.68979l-2.22607,17.21049l-20.57186,3.47648l-7.34503,14.12744l-14.97413,3.89729l-11.56619,14.36637l-16.37933,1.15239l-17.35843,5.91911l-12.62762,-16.63161l-12.1233,-9.091l-10.37277,-10.152l-19.96562,-2.63481l-12.30897,-12.46613l12.2436,-21.2568l-5.27064,-13.40324l-8.55657,-15.46876l4.43619,-15.41139l2.84578,-16.53003l14.80836,-9.24457l14.08453,-6.86294l5.41606,-20.29639l20.43983,8.77209l13.71256,-2.78985l14.95166,-11.08026l16.65937,0.05059l9.16086,18.58629l11.18632,8.3067l16.80385,3.59599l13.34671,10.14078l-3.56429,18.58239l17.21996,12.03121" fill="#512c43"></path><path d="M230,150l-2.45145,15.07391l-7.08257,13.39619l-7.56568,12.37783l-15.42387,4.99952l-9.04681,9.03573l-8.73785,11.80563l-10.57094,16.13264l-16.64298,-11.86471l-13.42828,-1.81856l-14.01706,-0.54062l-11.08519,-8.59585l-12.79387,-5.75214l-13.44704,-7.308l-12.30634,-10.55677l6.01917,-18.00865l2.74151,-13.77222l-15.54956,-14.59721l9.10849,-13.49201l1.4361,-15.78429l11.85877,-10.22507l10.52775,-10.34559l9.02206,-14.32736l19.84671,10.09518l11.95833,-8.52768l13.90579,0.87408l12.19249,7.32148l19.21351,-9.54901l15.26568,6.18462l11.95814,11.34785l-7.74735,23.42108l10.91966,9.55909l3.22196,13.42044" fill="#a8682b"></path><path d="M227,150l-12.21261,12.59339l-0.81171,13.25446l2.27929,17.17863l-13.74317,7.68358l-7.77284,13.1838l-12.20003,9.18978l-19.04187,-14.62143l-11.40309,1.50125l-12.57508,6.21167l-16.19646,7.12091l-4.22471,-21.86599l-10.58381,-5.35506l-6.43203,-9.96608l-12.30107,-6.73803l-6.42968,-11.51235l2.80478,-13.3941l-2.65649,-12.62966l1.82875,-12.84791l7.82156,-10.49947l3.22717,-13.48251l14.60525,-3.18792l9.44116,-7.44265l7.9412,-15.14085l15.3638,11.09524l12.9827,-17.03568l13.41053,6.53489l13.92776,3.34661l12.74098,6.93667l0.00172,19.21316l21.62401,1.17566l-4.12074,17.36137l-3.88891,13.64908" fill="#57e2d2"></path><path d="M220,150l-12.084,11.25773l-5.99371,9.72024l-4.11807,10.06646l-6.08251,9.24576l-10.74858,3.94402l-7.3824,8.75143l-9.64376,7.42531l-11.7832,1.55129l-11.54984,-2.70093l-13.52928,3.69811l-10.56213,-7.24353l-7.33949,-10.38404l-11.89298,-5.61204l2.37748,-15.17101l-12.45271,-7.72555l-9.03943,-11.80077l2.34638,-13.55332l7.65956,-11.55525l4.09377,-11.91133l7.16597,-10.42655l11.54107,-5.75907l4.74644,-16.27212l14.97489,1.33906l12.39765,-2.52233l12.04107,6.86296l10.56914,3.98357l12.43608,-0.45049l15.56455,-0.70636l11.38183,8.05645l-2.26625,17.39231l3.90356,10.96591l6.64604,10.62701" fill="#437a18"></path><path d="M214,150l-3.13911,11.83016l-8.93859,9.14781l-5.79541,8.97718l-6.56319,8.25106l-3.42837,13.40037l-13.7648,-1.36158l-8.87345,8.2172l-11.61249,-4.4951l-10.95777,3.31882l-12.81609,2.8544l-3.86261,-17.28196l-10.38115,-2.72854l-17.37553,0.19179l-0.41906,-14.01934l-1.13013,-11.54958l-5.79363,-10.49754l3.28373,-11.32357l-7.10417,-13.94473l5.1977,-11.9539l8.14916,-10.09972l11.04847,-6.67057l15.86398,3.82407l8.62445,-5.72718l10.56165,1.91436l10.89155,-15.02656l9.77057,10.922l12.25773,-0.52074l2.47399,15.73887l16.62458,-2.06313l0.8394,13.17566l7.20868,8.61705l4.57601,10.53257" fill="#b8a76b"></path><path d="M203,150l3.93438,11.06692l-3.15771,10.66026l-18.5525,1.14766l-5.01189,6.30081l5.34947,21.61178l-17.66533,-10.59143l-4.39935,18.2662l-11.61249,-4.4951l-9.86273,-3.595l-13.22709,7.88884l-4.54665,-15.40258l-3.02071,-10.90314l-18.34688,3.55186l2.17979,-13.58853l-4.32251,-8.71879l-7.59893,-9.22365l4.2562,-10.43519l-4.45844,-12.08194l13.33241,-5.69946l1.59854,-11.11284l8.14914,-6.61256l12.85708,2.23324l7.38475,-5.21368l8.30599,-6.76882l9.88042,0.90921l9.61256,1.78158l7.28005,7.14704l10.06118,1.68876l14.63855,0.16895l5.92424,10.0196l-0.90352,12.41932l10.33862,8.95195" fill="#69cc8c"></path></g></svg>