<svg x="0" y="0" width="300" height="300" version="1.1" xmlns="http://www.w3.org/2000/svg" xmlns:xlink="http://www.w3.org/1999/xlink"><g fill="none" stroke="none" stroke-width="1" stroke-linecap="butt" stroke-linejoin="miter" stroke-miterlimit="10" stroke-dasharray="" stroke-dashoffset="0" font-family="sans-serif" font-weight="normal" font-size="12" text-anchor="start" mix-blend-mode="normal"><path d="M0,300l0,-300l300,0l0,300z" fill="#adc1e4"></path><path d="M241,150l-11.40961,44.11768l-28.18822,38.14299l-46.01157,20.59818l-44.84401,-21.96738l-49.01502,-18.94521l-8.99472,-51.70247l-1.95138,-52.44275l44.00499,-28.72201l39.76609,-27.84787l47.1093,12.31711l39.47685,24.78217l27.85021,40.67047" fill="#e2b7c2"></path><path d="M239,150l-6.78575,45.5721l-37.17112,26.51198l-40.12356,21.78709l-44.81135,-12.08092l-27.27869,-34.75699l-32.28172,-36.58042l21.20928,-43.66499l16.67677,-45.58893l46.23557,-17.99238l45.42835,14.10051l32.54312,28.24005l24.41424,35.94876" fill="#42212b"></path><path d="M237,150l-10.03347,42.66325l-37.75251,20.09231l-35.34116,11.14303l-39.81929,-0.19747l-22.21336,-32.97718l-24.38552,-32.04806l12.58695,-38.37143l23.1681,-30.19325l34.74482,-16.16318l41.11717,-3.82187l36.58802,22.79674l20.41726,38.78091" fill="#f9251e"></path><path d="M217,150l-2.27814,35.87591l-31.33694,17.55112l-29.77373,15.47841l-30.79019,-13.18021l-35.07654,-12.13342l-6.36646,-36.37935l-0.41585,-36.5173l24.09458,-28.21995l34.93148,-5.68727l36.34736,-9.14428l32.5318,21.18373l11.55928,36.20296" fill="#d3d26f"></path><path d="M217,150l-7.52586,32.96705l-22.37979,26.39631l-34.05886,-1.44285l-33.72147,4.99507l-20.10145,-27.35384l-5.90032,-29.60362l-1.30406,-30.57418l18.58947,-25.81663l31.42418,0.06058l25.42119,2.44778l27.08484,9.21684l20.02988,24.98531" fill="#7fc843"></path></g></svg>