<svg x="0" y="0" width="300" height="300" version="1.1" xmlns="http://www.w3.org/2000/svg" xmlns:xlink="http://www.w3.org/1999/xlink"><g fill="none" stroke="none" stroke-width="1" stroke-linecap="butt" stroke-linejoin="miter" stroke-miterlimit="10" stroke-dasharray="" stroke-dashoffset="0" font-family="sans-serif" font-weight="normal" font-size="12" text-anchor="start" mix-blend-mode="normal"><path d="M0,300l0,-300l300,0l0,300z" fill="#80f87f"></path><path d="M252,150l7.58142,9.58713l-8.14622,8.29863l-12.57002,5.92559l7.92316,11.41672l-0.71971,9.56946l-10.33211,4.70246l-7.91707,4.98976l-5.81127,5.93227l0.11671,11.70286l-6.56056,6.01164l-13.94246,-4.41285l1.87812,18.94103l-14.61912,-9.2844l-6.38897,5.89048l-7.9041,2.49215l-5.48651,16.5659l-11.08297,-16.67894l-8.01833,7.35009l-8.2798,-4.3615l-7.86948,-3.05138l-10.25026,6.93731l-8.14449,-3.61548l-5.6047,-8.80971l-11.35127,3.10138l-11.59341,0.90611l-0.54257,-14.26833l-10.61024,-1.59219l-3.89032,-8.68188l-2.95952,-8.78027l-7.23854,-5.78407l-5.92142,-7.0477l5.9249,-11.80241l-10.19333,-5.75035l-5.86519,-7.99284l-0.21082,-9.25535l0.60044,-9.15135l-4.58522,-9.49998l14.04368,-7.17025l4.71044,-7.39995l3.37938,-7.39568l-13.24214,-15.02216l19.15349,-0.01199l-4.65145,-13.15195l0.92692,-11.05469l12.14,-1.41825l8.48892,-3.71351l11.44052,1.29556l-0.30454,-16.38983l10.23817,0.30189l9.08587,-0.51941l9.10578,1.31908l7.92089,-1.75602l7.17224,-11.02093l8.97704,10.60805l8.97704,-10.60805l6.65129,13.97536l7.9242,0.73345l7.22928,3.32691l10.21216,-3.33952l5.50603,7.37149l14.2991,-6.28975l8.62196,4.09732l-2.95302,16.26476l15.49872,-2.31024l-3.32816,13.71494l14.89215,1.06334l5.25681,7.93461l-0.11982,10.15328l2.75449,8.73612l-8.85028,10.85307l10.03613,7.34589" fill="#52cc70"></path><path d="M240,150l3.6423,8.19264l3.85367,8.99853l-12.49449,5.58491l-6.06729,5.95362l0.82091,8.46071l4.24938,11.30959l-2.08926,8.85764l-10.67307,2.4216l-4.06699,7.3959l-2.89638,9.4293l-13.80403,-4.51906l-5.47473,5.85691l-4.00603,9.96957l-11.23822,-6.1586l-3.87385,14.83932l-11.99005,-17.80796l-5.78637,13.86149l-8.10548,-5.64611l-7.05962,-6.30823l-9.08967,10.89535l-6.88561,-5.61972l-4.66874,-9.8523l-10.33201,5.4526l-5.96436,-5.35747l-11.63691,3.24751l-6.71348,-5.15144l1.53921,-13.49513l-14.26117,2.182l-0.28963,-10.22415l-2.5803,-7.76903l-6.34434,-5.6965l2.53337,-9.54775l-10.97562,-4.90912l-1.81266,-8.1764l2.89163,-8.6519l-2.35009,-8.01833l1.35389,-8.10548l4.01341,-7.52285l-2.16433,-8.70065l1.52623,-8.16292l5.89048,-6.38897l8.03611,-4.61912l-6.57099,-13.85764l12.9712,-0.49324l1.76886,-9.32426l13.82377,3.59346l-1.71197,-15.05691l6.56334,-5.36587l7.92865,-3.00108l8.07944,-2.26525l7.12765,-5.38993l9.56228,5.04323l8.4809,5.93715l7.32108,2.68035l6.97246,1.30442l8.82952,-9.92193l7.75055,1.71826l6.54524,5.2063l10.05096,-3.40629l1.85127,13.35311l5.03327,5.57567l15.95992,-7.90189l3.47485,8.60432l-0.58822,11.1883l13.57793,-0.35718l7.14479,5.63691l2.21562,8.58341l-0.48706,9.2667l3.43185,7.56208l-1.16064,8.61218l9.01716,7.26006" fill="#0fba65"></path><path d="M240,150l-8.31203,7.14677l-9.797,5.52955l5.3831,8.02921l3.5395,8.70821l-12.84048,2.28264l-2.15515,6.30363l-8.47729,2.15035l-2.18544,6.13036l-1.41508,7.45941l0.89683,11.37366l-7.60368,2.05669l-12.03327,-6.54869l-0.3453,13.69546l-8.31915,-1.96091l-8.21822,-4.74152l-4.22548,11.16981l-7.26802,-3.07382l-6.62384,-4.7108l-6.1009,-1.26637l-6.05447,-0.79709l-8.80897,9.30345l-8.10737,1.63388l-3.04728,-10.99448l-5.88101,-3.06146l-9.60684,2.17169l-3.81616,-6.70606l-1.61,-8.25055l-10.54868,0.31836l-5.22708,-5.17095l-1.33929,-7.68042l5.8002,-10.4941l-19.28479,0.4339l14.08598,-11.80482l-5.29873,-5.43771l4.11557,-7.0092l-9.27018,-6.18806l-0.69177,-7.05962l10.77042,-5.26941l-9.28457,-8.89414l1.21143,-7.16451l3.67725,-6.26703l4.16918,-5.8453l3.79674,-5.95969l5.06776,-4.96332l-2.35605,-12.2166l8.35988,-2.24021l7.09931,-2.92895l7.68042,-1.33929l10.07149,4.8939l5.11902,-4.28309l3.56869,-11.60052l7.6753,1.36834l7.09304,0.07385l6.97246,-6.30442l6.1009,16.26637l8.83284,-14.95984l3.70123,15.14681l5.64846,2.82848l6.99032,-0.3486l8.72625,-2.21526l2.44466,8.66478l3.83605,5.46205l12.40915,-3.53466l-2.00257,11.12358l12.94063,-1.18771l3.98424,6.254l-2.01384,9.11316l-5.81983,9.44543l21.15484,0.6477l-9.13351,9.57551l5.88054,6.39712" fill="#a2f1e4"></path><path d="M216,150l2.73743,6.01375l-2.75531,5.62068l-6.09472,4.41235l2.13231,6.52655l5.95337,9.12304l-9.08336,2.30363l-3.18739,5.0032l5.58122,12.41981l-10.37187,-0.51132l-7.84492,0.41329l0.52504,10.93058l-13.09181,-9.42801l-2.18458,7.89507l-0.95381,14.45279l-6.65609,2.09866l-9.76569,-15.23118l-5.44902,0.71738l-5.49081,15.23973l-6.18806,-7.27018l-5.09907,-6.71732l-6.31256,1.67045l-9.07788,7.61307l0.47524,-17.10494l-5.29767,-1.63148l-9.7975,4.41935l0.1591,-9.9521l-12.60171,4.71327l-2.94717,-6.17383l-3.92996,-5.12163l8.65573,-12.44466l-17.82418,2.54161l9.64537,-10.65232l-3.61078,-4.80723l1.70822,-6.14222l-1.71357,-5.36187l0.75646,-5.57797l2.23212,-5.3165l-2.25982,-5.79698l-10.38267,-8.55676l16.08911,-1.19298l-6.1203,-8.72005l-3.24241,-8.91672l1.97094,-6.81254l4.96154,-4.8249l15.20374,5.58971l-0.44741,-9.07538l-0.31741,-11.0899l9.81254,3.22521l4.22625,-5.57897l9.72648,7.86614l2.65348,-11.31195l5.69653,-4.3328l6.74774,1.12698l6.44952,-0.28159l6.1009,4.26637l6.57541,-2.15734l4.66456,7.17394l9.3367,-8.57899l-0.47524,17.10494l8.29767,-3.56467l1.63532,8.14917l10.14539,-3.54862l9.58073,-0.70624l3.89003,5.724l3.32324,5.97205l1.01117,7.16539l6.60613,4.03578l-6.79291,9.70685l2.74978,5.39886l12.13574,3.96666l-4.07002,7.35517" fill="#3f39d6"></path><path d="M212,150l7.73363,6.1009l-20.49324,2.58151l2.91961,5.29382l8.92003,8.25508l-0.3574,6.08411l-9.62712,1.18458l-1.12722,5.48816l-0.17539,6.79303l-5.95227,2.05943l-11.05845,-4.77235l-1.23546,5.9851l3.4533,15.56842l-12.60123,-12.58747l-1.19352,10.22663l-5.67611,-0.30539l-5.45755,-0.8367l-5.27803,-2.32814l-4.79357,-4.79071l-5.83943,16.74504l-3.88486,-11.59581l-5.28721,0.87446l-8.24587,7.8754l-1.67711,-10.42694l-6.56552,1.08744l-5.20889,-2.13387l-7.64345,0.43134l-0.19538,-8.30934l-2.18098,-5.33768l-2.42041,-4.79546l-3.67843,-3.91459l-7.89507,-2.18458l-2.23678,-5.40007l-1.75762,-5.57447l15.47664,-8.65847l-4.55413,-3.976l-6.20549,-4.70641l10.19027,-4.35779l-0.41546,-4.49827l-0.00295,-4.60253l-13.67096,-9.79878l12.23955,-0.83187l-2.03403,-6.91076l1.26784,-5.70889l5.69702,-2.50115l-2.76876,-10.28743l15.42973,8.89712l2.52104,-4.45301l3.5467,-3.44406l0.95243,-9.50628l5.15828,-2.13663l6.10133,1.21885l5.71637,1.80263l4.92941,-1.65664l5.14219,-6.22451l4.44494,14.19407l4.93206,-2.37369l5.6345,-2.84408l5.85172,-1.29755l8.72005,-6.1203l1.41672,9.74797l-0.02687,9.45936l4.38019,2.10177l4.95177,1.82736l7.18967,0.45225l-5.718,10.60043l13.64887,-2.7476l-3.76608,7.91076l-3.73522,6.64621l19.69048,-0.67431l-8.52634,7.69844l-5.29395,5.71248" fill="#3481b4"></path></g></svg>