<svg x="0" y="0" width="300" height="300" version="1.1" xmlns="http://www.w3.org/2000/svg" xmlns:xlink="http://www.w3.org/1999/xlink"><g fill="none" stroke="none" stroke-width="1" stroke-linecap="butt" stroke-linejoin="miter" stroke-miterlimit="10" stroke-dasharray="" stroke-dashoffset="0" font-family="sans-serif" font-weight="normal" font-size="12" text-anchor="start" mix-blend-mode="normal"><path d="M0,300l0,-300l300,0l0,300z" fill="#8753fc"></path><path d="M257,150l-9.95373,13.63896l4.84747,15.5786l-12.36628,10.64263l-8.11484,11.01206l-0.97795,16.62045l-12.85248,7.56493l-15.57725,2.04287l-10.35968,8.28494l-11.36159,7.8181l-13.61344,1.33801l-12.93598,12.39327l-14.39615,-5.49359l-12.07875,-10.23344l-10.97394,-7.76125l-12.28541,-3.77221l-15.56615,-0.87326l-6.05179,-13.50319l-18.13786,-2.99265l-9.60254,-11.60231l2.32877,-16.84293l3.03999,-14.73212l-4.77901,-12.50101l3.99026,-12.9747l-9.97087,-15.06707l15.23717,-9.70893l-10.72926,-20.04857l17.76664,-5.84277l10.13737,-8.97738l2.4615,-18.32461l20.87578,6.37486l4.16788,-23.12075l14.70455,-3.7289l15.57019,4.34523l14.32652,-7.4875l12.72743,14.37747l14.40512,-1.54892l10.30519,10.61901l9.67967,9.04422l18.70303,-1.84464l14.67531,6.58042l3.93211,15.59503l-0.49664,16.06489l4.58076,12.58553l12.68729,11.70884" fill="#ba02c0"></path><path d="M249,150l-12.84668,12.10806l0.36023,12.6993l-1.55383,13.01915l-1.00297,14.6355l-19.60903,1.53215l-3.45685,13.63202l-10.56352,6.9872l-12.62744,2.68291l-12.66954,-0.26071l-9.92299,8.6427l-11.86174,7.26507l-12.13057,-8.40899l-12.40421,0.85166l-11.30165,-4.72103l-13.40923,-0.99066l-5.0999,-14.26944l-17.95672,1.28231l-10.22704,-9.08425l-4.59636,-13.00316l4.00615,-15.52809l-3.26867,-11.39922l-5.64065,-11.46417l6.98295,-11.92836l-7.21118,-13.19993l-3.07845,-14.59801l7.32691,-11.5513l6.28832,-11.9459l18.05011,-1.33613l0.70538,-18.08574l12.21916,-5.83537l10.41395,-9.51879l13.37771,-3.29778l13.9872,2.59844l12.9668,-0.45281l13.77187,-3.56781l9.55794,14.7203l14.63143,-2.69578l8.56128,10.7023l11.12272,6.15816l2.6908,14.27481l15.28678,4.06888l11.57253,9.01556l-13.54006,18.21594l17.17453,8.82954" fill="#0c833c"></path><path d="M239,150l-18.69097,9.88129l13.32073,14.09916l-1.41068,12.62585l-8.43891,9.49668l-14.02872,4.03446l-6.22102,9.31415l-8.79502,6.87142l-11.8576,1.08655l-6.92041,12.47919l-11.19733,3.81991l-11.65404,5.23712l-10.42305,-19.32925l-9.85946,-0.72554l-11.66825,2.50216l-10.15529,-3.84318l-12.0999,-2.14509l-9.32464,-7.05359l2.98434,-16.61855l-7.89792,-6.99186l-14.53575,-5.66918l0.64392,-12.23087l3.41509,-11.53935l-4.98782,-10.95177l10.37606,-9.31937l-1.9297,-11.36591l7.01821,-8.40534l0.61676,-12.28192l2.1388,-13.41246l11.48266,-4.96961l9.5999,-6.47522l11.53147,-2.2946l10.61478,-3.44895l11.93223,7.0126l10.03898,-4.34326l11.96898,-7.76954l12.60705,-0.96912l6.99945,13.58704l7.74652,7.92812l10.25272,4.21252l3.72906,11.0418l19.55504,-0.23932l6.74281,10.55652l-1.47311,13.45276l-2.51481,12.15886" fill="#9d731d"></path><path d="M217,150l10.24091,10.8555l-12.83638,7.6122l-6.85117,7.15671l10.29048,16.76913l-15.75283,1.31602l-9.93579,3.10857l-7.48527,4.58221l-1.79212,16.00922l-10.93763,0.11546l-9.43754,3.38115l-10.0597,-0.9488l-10.49166,6.62083l-11.30506,1.04547l-5.37028,-16.42952l-10.27596,-0.57236l-8.71196,-4.67301l-1.60644,-12.18529l-9.69475,-3.79408l-9.44202,-5.69797l7.13392,-13.4082l-1.36761,-8.38853l-16.12845,-7.24297l6.98295,-9.97518l4.25476,-8.77082l-5.95766,-11.79523l3.31618,-9.90088l5.54479,-8.87353l16.79655,1.70973l-5.37319,-20.6667l9.75292,-5.37515l10.28069,-3.90433l14.22016,12.16201l8.10028,-5.48011l9.44654,-7.31709l9.08676,6.97341l11.85086,-6.29818l4.57046,14.75748l12.20614,-2.16789l-0.11405,15.10202l15.00736,-1.69202l0.81597,11.30604l15.28537,3.24921l1.79934,10.77702l-5.71766,11.48467" fill="#469e6c"></path><path d="M200,150l14.36742,9.04625l-4.7692,8.04326l-5.69904,6.90795l-8.95263,4.08826l1.78216,11.12432l-1.89696,10.58066l-5.68825,8.24193l-17.22495,-13.09293l-6.46771,2.61312l-5.72655,7.59641l-7.87462,-2.18152l-8.95761,14.65978l-7.16546,-10.38004l-9.70143,2.09232l-10.02518,-0.45004l-4.17101,-10.03306l-7.86674,-4.39853l2.35083,-12.71773l-3.1093,-6.85841l-8.64564,-4.7028l-4.22514,-7.49658l2.80585,-8.70649l0,-7.95224l-10.63103,-10.36979l6.41216,-7.8854l6.33727,-6.87593l11.05583,-2.63317l1.24587,-9.24444l1.19173,-11.81188l12.24932,2.56725l9.14585,1.08873l4.37115,-12.95818l9.83846,8.39474l8.0177,-14.25439l7.17748,13.79415l8.99037,-2.89896l4.69265,9.42731l6.40355,3.69709l4.48844,6.03861l19.49745,-7.09475l-4.43632,14.25982l10.19367,4.29744l2.14029,8.79709l-3.09493,9.42958" fill="#a6787e"></path></g></svg>