<svg x="0" y="0" width="300" height="300" version="1.1" xmlns="http://www.w3.org/2000/svg" xmlns:xlink="http://www.w3.org/1999/xlink"><g fill="none" stroke="none" stroke-width="1" stroke-linecap="butt" stroke-linejoin="miter" stroke-miterlimit="10" stroke-dasharray="" stroke-dashoffset="0" font-family="sans-serif" font-weight="normal" font-size="12" text-anchor="start" mix-blend-mode="normal"><path d="M0,300l0,-300l300,0l0,300z" fill="#e17fd0"></path><path d="M252,150l-31.05869,66.15384l-63.61688,38.59038l-68.36851,-29.36107l-32.04112,-62.30089l16.08491,-66.99846l56.62495,-41.94228l68.27389,16.14191l53.03394,50.77464" fill="#3154e7"></path><path d="M251,150l-28.59598,67.51784l-66.12593,22.26293l-62.91692,-19.83763l-46.34904,-55.46913l26.80674,-67.81661l56.01371,-41.53771l72.18628,8.30642l50.83616,57.0807" fill="#91cc2b"></path><path d="M241,150l-26.64087,60.01586l-57.94153,31.76004l-66.20303,-17.94703l-29.33869,-61.30329l13.76214,-65.29461l53.94708,-47.98017l73.43375,14.17531l44.10732,59.01016" fill="#16721e"></path><path d="M236,150l-14.32734,66.83584l-65.53409,20.9498l-70.95857,-7.7396l-28.2652,-66.96376l15.26575,-67.57203l57.23619,-42.34685l72.6021,10.26272l40.26228,60.11271" fill="#696dc2"></path><path d="M242,150l-23.25275,64.10785l-62.46917,25.67292l-69.21012,-12.06617l-35.1045,-63.93646l21.03625,-67.69432l59.11989,-30.20451l64.23383,6.97564l48.81148,49.85696" fill="#1d43d1"></path><path d="M246,150l-30.90952,60.69785l-58.39386,35.06829l-63.96478,-25.04587l-39.77812,-57.08132l28.2375,-61.81938l49.26507,-43.76545l64.35201,17.37232l42.6665,49.49056" fill="#0adc1a"></path><path d="M234,150l-19.64087,60.01586l-58.29031,26.77222l-55.1558,-26.17069l-36.07606,-48.6485l5.70531,-67.6058l61.16152,-30.44007l64.64966,8.93193l36.31508,53.44024" fill="#3c0799"></path><path d="M239,150l-19.5214,64.78984l-63.68881,18.00797l-54.24746,-22.95758l-37.69565,-47.73218l16.5254,-60.86206l53.82664,-25.58522l55.45922,8.33734l35.32048,44.50217" fill="#097a94"></path><path d="M238,150l-28.76035,55.24187l-52.96157,34.5389l-64.80488,-17.50619l-18.71411,-61.41907l5.97468,-60.75665l52.13835,-40.08843l58.78581,23.9877l35.32048,44.50217" fill="#e18c95"></path><path d="M226,150l-20.41712,51.83188l-49.37456,36.95133l-59.70056,-22.72579l-20.77787,-55.61942l1.36557,-61.48629l53.77666,-38.94128l61.361,19.70186l30.82277,49.33928" fill="#b65b11"></path><path d="M230,150l-26.61118,49.78588l-48.50587,20.0436l-53.96994,-9.2121l-32.11499,-49.20519l13.21236,-59.01904l50.31713,-35.5357l58.3605,15.42633l37.17419,45.38959" fill="#f67f9c"></path><path d="M225,150l-14.29764,56.60586l-55.88916,12.22606l-58.30543,-2.77451l-20.77787,-55.61942l8.73794,-56.3241l50.77043,-23.56236l53.90462,4.30376l28.14543,45.8501" fill="#ea0ce7"></path><path d="M229,150l-26.34253,49.10388l-47.77451,20.7256l-49.5647,-14.65212l-40.48131,-43.20848l30.27987,-50.39851l39.91355,-31.99701l48.96215,13.85359l38.10211,35.90024" fill="#1be173"></path><path d="M230,150l-28.07389,48.42188l-46.48511,29.38811l-47.60547,-25.74122l-27.1543,-42.32666l16.07388,-47.02459l36.81986,-39.99119l57.62807,8.70028l38.58167,45.69548" fill="#a9c4d5"></path><path d="M219,150l-14.14847,51.14988l-49.27101,28.65525l-55.92615,-17.63345l-23.92447,-51.73369l17.74861,-50.01476l40.30438,-36.71874l58.45023,6.00779l22.17141,51.82002" fill="#c49628"></path><path d="M213,150l-4.4917,54.55987l-53.27656,20.25743l-45.50824,-25.07996l-37.95467,-38.74267l27.44375,-46.55641l37.68899,-26.06156l53.27141,-5.23575l24.23156,48.39135" fill="#a1a11c"></path><path d="M215,150l-8.68576,52.51387l-51.71031,13.32535l-53.0616,-5.99899l-21.85136,-49.95895l7.23433,-54.04668l48.93671,-22.34865l53.28089,1.36932l16.61028,49.15775" fill="#823f79"></path><path d="M217,150l-14.34253,49.10388l-48.7511,6.7597l-49.21743,0.09092l-23.01743,-46.35157l14.26446,-47.45899l38.26275,-36.48317l46.70357,22.90918l35.42477,32.41106" fill="#fa31c5"></path><path d="M221,150l-23.46201,44.32989l-42.93406,21.50933l-41.10451,-20.76476l-21.92523,-36.86325l-0.55313,-49.50872l44.84095,-25.21653l47.10043,11.65533l33.36462,35.83973" fill="#4b3bd2"></path><path d="M211,150l-17.85013,40.2379l-38.1274,31.58671l-48.44557,-18.20154l-16.98325,-45.13351l1.42741,-49.78706l46.29633,-18.3695l43.5849,8.23697l36.38603,32.13542" fill="#a06873"></path><path d="M206,150l-11.38742,41.6019l-40.98524,10.27143l-45.7918,0.19545l-26.16403,-42.46584l24.91344,-40.0025l32.81156,-19.48598l39.44563,1.88416l32.67862,30.36058" fill="#e13317"></path><path d="M198,150l1.0007,45.69389l-44.60604,17.15265l-39.00728,-20.10351l-21.83266,-34.81016l4.01955,-44.64176l40.15894,-21.00182l41.10892,9.70934l20.18221,33.94386" fill="#4afd39"></path><path d="M202,150l-10.31284,38.87391l-38.19934,11.0043l-34.95384,-11.0209l-20.02792,-31.6203l2.34482,-41.65159l38.75354,-14.49279l35.63245,6.90618l25.71,27.39242" fill="#4fdac6"></path><path d="M207,150l-21.16367,33.41792l-32.20899,18.45541l-39.4986,-7.57601l-22.55455,-36.08611l6.81924,-44.34653l39.96352,-18.64095l38.42503,10.20357l34.73877,26.93191" fill="#2665fd"></path><path d="M195,150l-3.31284,38.87391l-38.75739,3.02378l-32.50783,-5.37183l-13.99374,-30.40224l-3.93902,-39.39105l34.82821,-26.39957l44.09994,7.3798l8.95567,40.71044" fill="#b61996"></path></g></svg>