<svg x="0" y="0" width="300" height="300" version="1.1" xmlns="http://www.w3.org/2000/svg" xmlns:xlink="http://www.w3.org/1999/xlink"><g fill="none" stroke="none" stroke-width="1" stroke-linecap="butt" stroke-linejoin="miter" stroke-miterlimit="10" stroke-dasharray="" stroke-dashoffset="0" font-family="sans-serif" font-weight="normal" font-size="12" text-anchor="start" mix-blend-mode="normal"><path d="M0,300l0,-300l300,0l0,300z" fill="#1f939e"></path><path d="M257,150l-22.04418,32.61148l-10.64134,34.30158l-26.64548,26.64262l-36.79804,9.87459l-35.19995,-12.63325l-35.62511,-8.27729l-23.91296,-28.05583l-4.16623,-35.75185l-17.64937,-35.45054l10.41986,-38.26151l37.36532,-16.49743l24.21462,-32.16773l39.2828,-3.1882l33.44677,19.153l32.37107,16.28258l23.59094,29.11717l7.85011,36.91001" fill="#57fdf1"></path><path d="M247,150l-11.1106,32.96985l-17.52008,28.59016l-24.78624,23.97661l-34.59364,-0.00774l-34.0949,8.16592l-34.26086,-11.98409l-14.4367,-33.78248l-7.38324,-30.67156l-10.66876,-31.80508l13.0467,-30.95159l24.05744,-22.1117l23.23114,-29.39607l36.49165,2.13796l31.22765,13.56426l23.19741,21.90858l27.38985,20.75699l15.07339,33.30171" fill="#48cf6d"></path><path d="M228,150l10.69014,34.04496l-21.80711,26.1768l-26.02389,19.96883l-32.18328,2.35473l-29.89902,-3.3394l-27.56301,-12.05751l-27.53285,-17.58626l-13.67056,-30.43428l0.10994,-33.36341l10.2053,-31.76446l26.81142,-19.28026l25.05138,-20.31483l32.52177,-4.28157l33.52301,4.00339l19.74951,27.89052l26.06343,20.56298l-3.15719,33.18056" fill="#aa9a0e"></path><path d="M236,150l-6.64566,30.46128l-25.10476,18.38526l-21.56226,15.30594l-24.42957,14.41476l-27.928,-5.15687l-25.00143,-11.92507l-22.42197,-17.91417l-18.98334,-25.27489l14.96343,-29.55951l9.62576,-24.23672l8.62489,-29.78026l27.83254,-11.75532l29.26959,-3.85341l30.3334,3.23763l26.94568,16.13307l15.21953,27.35241l4.15117,29.92667" fill="#4ea975"></path><path d="M213,150l10.75285,28.31107l-16.5307,23.21199l-19.99493,21.53948l-29.91023,-3.446l-25.69314,-1.0358l-28.64667,-3.85937l-18.39348,-22.23951l-14.7918,-25.43309l6.13148,-28.78134l18.651,-20.26742l5.07999,-30.17168l28.09641,-6.30439l26.17442,-6.42115l24.54637,10.94903l18.90459,16.57203l14.74494,19.71806l1.7912,24.30859" fill="#3418ce"></path><path d="M222,150l-4.78221,25.80249l-19.65652,17.02187l-17.14391,16.87308l-24.45924,-3.00969l-25.36955,15.75669l-22.90911,-14.19521l-9.67704,-24.4816l-6.69128,-21.29292l2.39062,-21.39147l2.60466,-22.08324l17.82231,-13.29732l18.56631,-8.96185l20.65445,-10.65313l25.12206,-0.03589l14.66195,20.81467l20.81467,14.66195l2.96,24.96506" fill="#ecabe5"></path><path d="M200,150l8.81557,22.57718l-21.65833,10.87935l-6.73988,26.24091l-24.87735,-6.98778l-21.84561,8.14367l-16.61037,-15.54838l-15.72692,-13.71589l-9.06782,-19.32227l1.41247,-21.18355l11.26491,-17.08324l3.49818,-25.29163l23.92118,-2.91859l21.12048,-12.69796l18.86401,16.66318l16.52036,11.35413l7.69995,18.1473l15.32421,17.49874" fill="#a23fe3"></path><path d="M195,150l0.74544,17.56003l-10.81763,13.88911l-9.95833,17.55622l-19.84758,-0.27379l-15.73348,-9.12861l-25.24332,9.74708l-6.07863,-22.11808l-3.06126,-17.66801l-9.32807,-18.16783l12.75364,-15.3961l10.73252,-14.08015l11.98666,-19.9343l21.15282,14.07475l22.10142,-10.87303l6.7085,23.70003l16.39167,9.96239l10.41615,18.11482" fill="#f49034"></path></g></svg>