<svg x="0" y="0" width="300" height="300" version="1.1" xmlns="http://www.w3.org/2000/svg" xmlns:xlink="http://www.w3.org/1999/xlink"><g fill="none" stroke="none" stroke-width="1" stroke-linecap="butt" stroke-linejoin="miter" stroke-miterlimit="10" stroke-dasharray="" stroke-dashoffset="0" font-family="sans-serif" font-weight="normal" font-size="12" text-anchor="start" mix-blend-mode="normal"><path d="M0,300l0,-300l300,0l0,300z" fill="#fe499f"></path><path d="M251,150l-16.73511,70.70664l-67.94196,21.86529l-66.82293,-5.10336l-44.40895,-52.92453l1.87939,-68.40403l38.02957,-61.4028l73.58036,-10.11164l64.15244,35.95337" fill="#fe6098"></path><path d="M248,150l-17.56533,67.4927l-65.15363,19.17038l-61.28104,-6.98875l-47.96926,-45.47232l10.33662,-64.64181l39.13264,-46.63647l59.2601,-6.6324l57.24808,23.28662" fill="#dc2501"></path><path d="M230,150l-7.22578,61.06482l-58.53507,19.68941l-57.73915,-5.41003l-38.25326,-45.58846l-10.33662,-63.27373l49.08988,-40.96021l56.89185,-4.30644l49.68983,25.43325" fill="#02b193"></path><path d="M243,150l-25.58809,56.56531l-52.47817,28.12816l-58.43374,-9.34926l-41.07234,-44.5624l14.09539,-56.43332l32.97695,-39.30039l50.69726,-9.89348l48.08629,23.42238" fill="#61fa90"></path><path d="M233,150l-24.78062,48.85186l-45.89036,21.06949l-51.32902,-2.37137l-36.17541,-40.18837l-0.93969,-55.06524l32.1151,-48.5066l56.67632,4.31927l49.37328,19.82517" fill="#c5df39"></path><path d="M218,150l-3.65227,53.99416l-50.80318,22.82085l-54.04456,-6.66695l-23.3991,-46.89069l-8.45723,-49.59292l30.85633,-45.54456l54.52361,-1.98047l40.5995,28.86545" fill="#6a53ec"></path><path d="M213,150l-12.44107,42.42398l-38.75086,24.54294l-48.30808,-3.74707l-33.03725,-37.91036l9.39693,-47.19878l22.14033,-43.92864l48.41889,6.72947l46.2684,11.52218" fill="#3a98bf"></path><path d="M222,150l-22.20711,41.78119l-38.67941,21.2465l-44.11348,-5.87002l-20.56248,-37.66253l-13.1557,-43.77858l34.71818,-31.1422l43.46078,-9.57169l39.8642,21.93054" fill="#124347"></path><path d="M218,150l-24.33547,36.63889l-33.24564,22.44957l-38.41889,-10.59104l-18.98463,-31.39642l-17.85416,-40.7004l37.83879,-23.16598l38.63443,-19.21675l35.09428,26.77208" fill="#4c311d"></path><path d="M198,150l-7.39964,34.06774l-31.04971,20.09668l-32.05065,-15.19328l-32.00217,-19.13397l-6.57785,-42.06848l34.08002,-24.53406l35.33511,-0.5054l41.45778,5.48958" fill="#c651b1"></path></g></svg>