<svg x="0" y="0" width="300" height="300" version="1.1" xmlns="http://www.w3.org/2000/svg" xmlns:xlink="http://www.w3.org/1999/xlink"><g fill="none" stroke="none" stroke-width="1" stroke-linecap="butt" stroke-linejoin="miter" stroke-miterlimit="10" stroke-dasharray="" stroke-dashoffset="0" font-family="sans-serif" font-weight="normal" font-size="12" text-anchor="start" mix-blend-mode="normal"><path d="M0,300l0,-300l300,0l0,300z" fill="#ff7f47"></path><path d="M258,150l-28.28245,74.33782l-72.88142,23.42346l-71.65613,-17.71524l-40.14842,-65.29369l30.42558,-66.9478l53.54376,-46.59745l74.048,10.50468l35.38715,62.9296" fill="#08b4a3"></path><path d="M245,150l-33.56629,57.28786l-55.01612,34.48803l-69.97896,-13.28415l-29.52384,-65.40947l11.16999,-70.43992l61.33195,-39.47897l62.30134,27.40606l44.79547,44.62319" fill="#56fb82"></path><path d="M238,150l-27.29764,56.60586l-54.91257,26.19195l-60.54066,-15.18612l-25.46084,-56.33868l15.4987,-56.58556l47.87216,-33.91742l53.92359,17.51391l35.01189,41.04324" fill="#8b3590"></path><path d="M229,150l-31.46201,44.32989l-42.2365,31.48497l-57.53508,-11.31175l-10.1533,-55.73521l-2.32612,-54.08044l49.32755,-27.07038l57.61859,2.0952l20.24889,52.37129" fill="#898ae7"></path><path d="M212,150l-11.53659,47.05789l-45.65021,21.77403l-40.05514,-25.31175l-36.05736,-33.49971l18.05442,-47.30293l40.14645,-24.34083l46.57591,5.90742l21.31444,40.00455" fill="#15ee5a"></path><path d="M196,150l-5.04419,38.19191l-37.1192,16.67411l-37.19059,-13.67729l-20.12049,-33.67339l8.42111,-39.06205l32.57866,-27.14215l42.34691,8.97315l13.38457,37.31202" fill="#2bdc73"></path></g></svg>