<svg x="0" y="0" width="300" height="300" version="1.1" xmlns="http://www.w3.org/2000/svg" xmlns:xlink="http://www.w3.org/1999/xlink"><g fill="none" stroke="none" stroke-width="1" stroke-linecap="butt" stroke-linejoin="miter" stroke-miterlimit="10" stroke-dasharray="" stroke-dashoffset="0" font-family="sans-serif" font-weight="normal" font-size="12" text-anchor="start" mix-blend-mode="normal"><path d="M0,300l0,-300l300,0l0,300z" fill="#1fa048"></path><path d="M249,150l6.41932,11.08002l-2.71382,10.75071l-12.35513,7.52589l6.48545,13.75747l-4.1711,10.38592l-13.38105,4.10295l-5.71233,8.64098l0.03303,15.502l-15.41363,-1.65325l-7.69074,7.37588l-9.4196,4.79953l-8.3246,8.5439l-10.09343,5.8061l-11.47783,-0.20425l-11.18455,-7.41384l-11.3936,9.40289l-8.77383,-13.52257l-9.18918,-4.52995l-13.35073,5.5719l-5.29265,-12.78383l-15.48081,4.2354l-6.10878,-10.08677l-2.49547,-12.38139l-11.2437,-4.36379l-8.46994,-7.54188l-5.95067,-9.47918l-1.16051,-11.38305l-3.79562,-10.30704l12.20401,-12.31864l-13.49851,-9.51209l-5.39741,-11.49813l15.49524,-8.46139l0.69863,-10.32414l1.84899,-10.39l6.48406,-8.32634l-4.12138,-15.65638l15.42053,-1.58755l13.34958,-0.6391l0.85544,-14.82768l11.36631,-1.42772l4.07244,-15.52447l12.09881,0.70409l11.24549,1.12221l9.50324,-8.58271l11.08002,-3.58068l10.34832,10.54233l10.85867,-1.31339l9.38569,5.61646l11.70793,-0.85413l12.19939,0.61196l3.69074,14.30409l4.03841,10.98021l12.08534,2.19941l11.44132,4.60782l3.44482,10.80524l4.89457,9.60613l10.52103,7.902l0.04558,11.74532l-5.2096,11.7937" fill="#4572f8"></path><path d="M250,150l-14.47112,8.98945l14.24217,12.21754l-0.86118,10.93077l-18.51788,3.65506l-3.31574,8.70718l-1.83768,10.16403l-2.41039,10.91077l-15.95209,-2.40749l3.07799,19.35242l-11.4541,1.48473l-11.08023,0.04172l-9.91726,0.59785l-5.67178,18.06147l-12.21411,-11.20948l-9.61662,-2.49601l-10.6619,12.44123l-10.96091,0.28612l-7.11576,-13.27909l-6.24077,-9.88335l-17.02065,11.50173l-3.25181,-14.01904l-12.99951,-0.24683l-3.09058,-11.56423l-5.51471,-8.39694l1.5124,-12.3396l-5.96134,-7.30044l-9.99588,-6.53393l-10.42592,-8.04282l0.28612,-10.96091l-3.55877,-10.6619l5.54781,-10.45285l15.3315,-7.42756l-7.18073,-11.78523l13.65006,-4.90698l-1.15695,-10.92739l-2.09339,-13.27853l5.84407,-8.80367l6.80631,-8.21858l12.41172,-1.05584l4.8396,-11.47798l10.32634,-3.01995l10.08098,-2.80005l10.00943,-2.68202l11.38475,9.31869l9.1985,-17.48207l9.30303,16.48755l8.78528,3.41361l11.88633,-7.15364l9.07207,4.55212l12.95328,-2.36628l-0.86268,19.68216l19.1214,-7.64573l-0.4031,15.13193l13.47314,2.3564l1.54174,11.54188l6.48406,8.32634l-5.75946,12.86213l-0.49625,9.72321l15.34787,7.53094" fill="#b1f06e"></path><path d="M237,150l-4.45468,8.67586l6.46611,10.2441l3.24105,11.05468l-7.29275,7.85186l0.77679,11.67349l-7.26187,7.51517l-13.0779,1.86832l-9.18977,3.54067l-8.59637,3.10621l-6.11061,6.34973l-1.23307,18.56089l-11.21933,-1.04169l-10.33555,-1.36603l-10.03619,-5.48797l-8.67586,9.45468l-9.82568,1.48506l-9.51011,-2.51733l-8.78476,-4.42158l-4.82512,-12.54896l-9.05433,-1.25105l-11.48846,0.87441l-4.7259,-8.96695l-7.92553,-5.10098l-14.76181,-0.7741l-1.37071,-11.27853l2.79396,-12.11391l-1.36135,-9.11964l-13.06237,-6.30692l9.36781,-11.0746l-7.46564,-8.88492l6.47112,-8.98945l-4.4607,-10.13843l7.24766,-7.7566l-5.87199,-12.56898l18.46585,-1.04655l-2.66347,-12.40067l-0.01666,-12.67413l12.60644,-1.30823l7.32108,-5.9285l2.90067,-13.79101l15.02065,8.03763l4.38667,-15.58969l13.33601,12.96834l7.43099,-12.29881l9.82568,1.48506l9.72115,-0.49054l8.36717,7.3917l10.03223,-1.4473l10.51943,-0.24068l1.36002,17.50479l14.07624,-5.14753l5.47638,8.28967l8.8167,4.57987l7.67827,6.3082l10.55494,5.25181l-12.60536,17.05433l8.74473,6.06119l6.26951,7.96451l-2.48803,9.82599" fill="#d381c4"></path><path d="M244,150l0.47958,9.9302l-19.16221,6.079l-1.13496,8.09413l-0.18523,8.84234l1.34703,10.55433l1.5124,12.3396l-18.14817,-2.97828l-3.1706,8.8197l-10.86616,-0.19573l-2.17168,12.12687l-11.18128,-3.26916l-6.90638,4.79046l-8.40314,0.1839l-7.01975,10.21152l-8.98945,-6.52888l-8.98945,6.52888l-8.26722,-4.34263l-11.79093,8.21306l-1.45765,-20.8834l-12.49475,5.96228l-8.13732,-4.09371l0.28339,-13.90547l-9.3408,-2.27943l-15.04385,0.46445l-5.30178,-8.16403l1.06191,-11.11391l7.19816,-11.9008l-4.99337,-7.06027l-15.21688,-6.70388l-2.50946,-9.72115l12.45468,-8.67586l-4.50982,-9.82828l-0.44206,-9.92542l2.53747,-9.39694l12.21359,-4.17349l3.97969,-7.96175l4.11284,-8.25262l9.11576,-3.46666l3.22495,-10.32149l11.31289,0.98843l7.24086,-4.81019l6.56565,-7.8687l10.35265,4.46302l7.01517,-14.2551l9.82568,17.48506l7.83963,1.41086l9.41704,-6.59711l6.84666,7.00384l11.6895,-6.20959l8.20718,4.18176l0.08389,15.53396l16.80699,-6.9499l5.99215,7.40442l4.31046,8.49665l-3.64351,12.7251l6.4472,6.05433l3.0384,7.91529l11.97585,6.11041l-14.42229,11.08033" fill="#935db7"></path><path d="M237,150l-13.40538,7.73511l4.65719,8.89783l3.53905,9.94253l-12.36141,4.33652l-0.14742,9.08802l-2.13362,8.78618l-15.12827,-1.94703l-5.181,5.181l-0.99189,11.08319l-2.34725,12.24088l-11.36781,-3.17412l-7.10182,4.86549l-6.31832,10.99771l-9.61808,-1.50988l-9.09398,-11.5234l-9.30303,13.51245l-7.3299,-10.26064l-7.16137,-5.02046l-10.37157,3.50647l-5.83412,-7.45579l-8.78618,-2.13362l0.60877,-13.64198l-7.55846,-3.32163l-9.79451,-2.57419l-0.28755,-9.61061l0.04266,-8.71496l-13.16242,-3.63663l8.51106,-10.67877l-8.1406,-6.71189l1.56723,-8.25775l-1.56723,-8.25775l-0.66273,-8.5831l3.14543,-7.88051l4.82798,-7.0041l-4.08766,-11.77454l8.1958,-5.28618l1.75167,-10.09732l15.21195,3.14763l9.03983,-0.89533l-2.85503,-19.57905l14.71496,10.43496l7.65385,-0.79868l4.99825,-11.67785l8.89783,4.65719l7.73511,-12.40538l7.31699,16.38347l11.39506,-18.41675l3.53717,19.55721l10.28971,-4.60757l2.96107,11.59583l16.2251,-9.70569l6.48926,6.5399l5.69609,7.10837l2.42894,9.34684l10.73687,3.69839l-6.73326,13.18128l12.39892,4.43424l5.29137,8.17243l-0.51536,9.51355" fill="#36f131"></path><path d="M232,150l-2.43825,8.36228l-11.09142,6.19154l2.85891,8.62246l-10.12169,4.07508l5.47641,11.24864l-12.47982,0.88161l-2.184,7.45753l-5.181,5.181l1.94703,15.12827l-10.28618,-0.46445l-10.84191,-4.56286l-2.93673,13.96343l-7.88051,3.14543l-9.00121,-4.64081l-7.83963,4.41086l-8.36228,0.56175l-5.56781,-14.02586l-10.79128,10.54863l-2.53,-14.87698l-11.24864,5.47641l-7.93503,-2.77161l-5.08802,-6.69019l0.24606,-11.05214l-7.78125,-3.26169l-11.08982,-2.40832l-6.58976,-6.33412l7.31069,-11.60764l3.89124,-8.62816l-18.00395,-5.14969l15.53984,-8.78039l2.36155,-6.89888l-9.67892,-9.11032l-0.76716,-8.71216l15.79052,-2.12326l-8.12201,-12.65538l9.35777,-3.40832l-1.87964,-11.96039l4.06177,-8.2986l15.14335,5.7271l9.23275,1.14856l4.02843,-7.65653l8.07644,1.17845l5.8413,-5.7006l5.98248,-13.08046l8.57133,4.5508l8.88492,-7.53436l6.70846,11.17329l8.81897,-1.77239l6.90638,4.79046l3.68128,9.72122l6.73275,3.18157l7.11378,3.19063l4.65989,6.07217l11.21493,1.15458l-4.96561,12.52282l12.41434,2.36781l-4.64508,10.19199l9.74865,5.51518l-10.64069,9.42162" fill="#a25910"></path><path d="M226,150l3.56175,8.36228l-10.11327,6.39945l2.83182,8.72356l-1.93729,7.83343l-7.98917,4.68128l1.55851,10.43503l-15.60793,-2.94155l-5.48005,4.06778l4.19846,17.16009l-7.02282,4.56067l-11.93517,-6.2474l-4.57954,9.24566l-7.06027,4.99337l-9.52614,-11.63522l-6.89888,2.36155l-8.15322,9.57271l-5.56895,-13.01497l-8.52705,3.91833l-2.96845,-11.83625l-13.78233,10.91016l-5.67168,-6.06469l-1.49833,-10.2083l-5.85013,-4.43785l-2.184,-7.45753l2.24261,-9.38161l-11.98666,-1.52843l-0.72366,-7.45841l1.09225,-7.4989l1.91924,-7.0335l-16.33964,-6.48076l9.37799,-7.21246l-5.71721,-8.58882l3.00998,-7.37499l16.51651,-1.22792l-2.34495,-8.5958l-4.32761,-11.67168l2.03371,-8.85877l11.94331,0.76717l6.36331,-3.86791l3.14497,-9.18674l8.71496,0.04266l9.50795,4.90766l4.18371,-12.49345l8.90356,9.71167l6.68982,-7.3506l7.73511,-2.59462l5.57124,10.99317l5.85271,3.63594l12.15967,-11.3775l1.68128,13.18532l11.08389,-3.5186l-0.5904,12.37186l14.47181,-3.88777l-3.76116,12.81058l2.95354,6.38161l1.30923,6.96885l13.81339,2.54585l-5.76626,9.3473l4.09702,6.71647" fill="#28cfbf"></path><path d="M219,150l-6.34512,6.58529l-0.05343,6.72106l-4.587,5.54369l3.1931,8.40132l-10.97807,1.74864l1.54761,8.61826l-2.72953,6.54436l-0.20102,10.08695l-14.1672,-6.51757l-1.67933,9.42567l-8.18906,-1.4314l-5.65188,3.23923l-6.47644,0.7015l-6.30638,0.99883l-6.37624,4.33416l-5.74907,-10.3013l-9.22058,15.72792l-7.5886,-0.9995l-6.7268,-3.65185l-5.71496,-5.15349l-2.03047,-9.65371l0.22829,-10.09511l-17.44739,7.97357l8.1356,-15.34277l-15.37383,1.99624l10.32926,-12.72275l-8.75801,-3.30918l3.184,-7.40919l0.04481,-6.10076l-1.31225,-5.95812l-4.65488,-6.58529l-4.83731,-7.76061l15.18408,-2.65003l-14.38071,-12.69584l18.1914,1.69177l0.76542,-6.67933l1.65702,-6.80677l5.92714,-3.10259l0.17844,-10.42447l11.4694,5.64971l5.31601,-2.70864l5.87904,-1.18707l2.54322,-16.18931l7.96738,4.80456l6.79435,2.64392l6.37624,1.33416l8.59341,-9.76079l8.20663,-0.90261l-0.39902,20.17069l12.22275,-9.46323l2.03047,9.65371l6.46302,2.66366l11.49923,-1.21125l-8.87875,16.01191l4.98153,4.00376l11.02559,1.84191l3.50181,6.33592l-4.97775,8.43165l0.02068,6.51429" fill="#bf5050"></path><path d="M210,150l-7.29034,5.54001l3.04475,6.31096l-5.34842,4.52693l5.32028,8.43303l-3.76475,5.18906l-9.08362,1.15262l0.2245,7.65696l-4.29282,4.29282l1.15982,11.91076l-14.4694,-10.84586l2.56483,18.86734l-7.97872,-1.21596l-6.36393,2.73907l-6.82329,1.0807l-6.89888,-8.63845l-7.00341,9.63297l-7.13459,-0.11893l-7.49319,0.05992l0.88762,-19.98314l-6.75643,1.04058l-11.88161,6.57274l-5.45014,-4.41344l6.93136,-15.66504l-9.83162,0.55367l4.43073,-9.67933l-9.68437,-1.40927l-5.97987,-4.43167l10.05812,-8.76347l-2.80776,-4.9601l0.71514,-5.43548l1.27391,-5.22642l-17.76609,-9.11948l17.08619,-2.03199l-7.14737,-9.24651l11.65402,-0.87559l2.21243,-5.2404l-1.64492,-9.07656l0.50008,-8.97374l8.97685,0.44067l6.8549,-0.87944l5.81601,-1.84262l5.87904,-1.18707l2.95905,-14.23302l8.17873,8.81539l6.16718,-10.32321l6.06265,11.31773l4.95667,5.84045l7.5217,-5.22157l2.20255,10.47257l4.25643,3.28955l12.03047,-7.6668l8.47041,0.43422l-3.88477,13.06253l-0.35624,7.49427l13.29973,-1.52295l6.64795,4.24864l3.4643,6.2382l-1.09225,7.4989l5.04242,6.3018" fill="#d618dc"></path><path d="M212,150l-16.25199,4.80831l3.15937,5.58728l4.35178,6.90937l-3.92771,4.65883l-0.83403,6.03622l-9.66461,0.21369l0.55386,7.25023l2.09942,10.61106l-3.28006,6.51113l-7.20604,1.10747l-5.37559,3.85979l-7.08339,-0.48997l-5.23467,5.53806l-7.87087,-10.88631l-5.43548,0.28486l-6.79435,12.64392l-3.60123,-15.73654l-5.05527,-1.35455l-3.66577,-4.61619l-3.88338,-3.09947l-9.91597,5.46778l-7.90099,0.02688l-0.056,-8.52965l-2.81395,-5.06178l-3.94448,-4.2404l-1.70006,-5.53622l-2.0256,-5.27686l-8.30995,-4.0043l6.95734,-7.1426l-8.29034,-5.54001l1.32869,-6.27171l4.89505,-5.37135l8.1745,-3.49878l-12.77869,-11.29605l16.07918,1.43788l2.85042,-4.38926l-7.85356,-14.10423l6.81832,-2.58149l5.6312,-3.27506l8.8549,2.58466l5.44296,-1.65254l3.94307,-5.79231l6.80256,3.34655l4.64423,-7.81312l6.16718,7.67679l5.85359,-4.69323l6.20528,-1.03933l6.48214,-0.33083l4.64297,4.9913l4.31601,4.44069l9.53047,-3.33667l1.7791,7.86567l-0.90919,8.97674l4.1685,3.56083l6.42854,2.56483l9.96949,1.96885l0.49859,6.87209l0.7015,6.47644l-13.919,7.8743" fill="#f76570"></path></g></svg>