<svg x="0" y="0" width="300" height="300" version="1.1" xmlns="http://www.w3.org/2000/svg" xmlns:xlink="http://www.w3.org/1999/xlink"><g fill="none" stroke="none" stroke-width="1" stroke-linecap="butt" stroke-linejoin="miter" stroke-miterlimit="10" stroke-dasharray="" stroke-dashoffset="0" font-family="sans-serif" font-weight="normal" font-size="12" text-anchor="start" mix-blend-mode="normal"><path d="M0,300l0,-300l300,0l0,300z" fill="#8631e4"></path><path d="M246,150l10.25184,28.47009l-17.91725,22.52991l-13.38127,23.95332l-22.95332,15.11332l-25.60046,8.45779l-26.39954,8.47557l-24.07017,-17.1689l-26.92983,-1.49651l-23.24621,-14.08838l-11.4903,-24.74621l-12.78792,-23.10046l-1.47557,-26.39954l-0.45629,-26.91718l22.514,-18.08282l12.18136,-20.76093l15.76093,-20.84161l24.63573,-8.05819l25.36427,1.66073l24.07017,3.1689l23.42983,7.55869l27.45332,7.31909l15.11332,22.95332l7.49187,25.85928" fill="#0cf629"></path><path d="M242,150l5.55851,26.14072l-13.55404,22.35928l-12.58668,22.91778l-27.91778,3.92643l-22.01802,4.82763l-21.48198,2.82816l-25.10545,10.69481l-24.39455,-7.95829l-19.79646,-16.44005l-12.10992,-22.29646l0.26862,-25.2592l-5.86223,-21.7408l-4.76295,-24.58781l5.16041,-25.41219l21.54872,-15.05382l19.05382,-14.62051l22.18865,-9.19084l23.81135,-7.13482l22.25844,12.93038l20.74156,8.59144l26.29646,5.18172l0.85159,28.79646l10.98971,18.7592" fill="#150bef"></path><path d="M225,150l10.9674,23.0349l-7.15909,22.4651l-22.23977,11.06854l-14.56854,16.17759l-22.07093,1.63015l-19.92907,12.62371l-18.89379,-16.48741l-23.10621,2.23355l-11.03301,-19.71313l-24.04325,-8.53301l-7.92521,-21.72392l-0.99853,-22.77608l4.86223,-21.7408l15.31984,-16.2592l9.24939,-18.56854l14.56854,-16.17759l20.77684,-6.45978l21.22316,2.20592l22.25844,-6.06962l15.74156,17.25169l19.98276,7.83517l18.22748,13.98276l9.75716,20.9651" fill="#3aa37a"></path><path d="M218,150l-0.38519,18.11733l1.66722,21.88267l-10.59217,18.68986l-27.18986,-4.13026l-10.79448,22.71447l-20.70552,-7.27407l-21.22316,9.20592l-17.27684,-12.52196l-13.1188,-15.06516l-8.13696,-17.1188l-20.41609,-13.01802l13.17184,-21.48198l-7.37629,-19.92907l18.95066,-12.07093l1.68551,-21.74012l16.74012,-10.34576l15.51802,-16.08596l21.48198,-1.82816l21.48198,1.82816l16.51802,14.35391l9.37615,18.44178l18.44178,9.37615l14.35391,16.51802" fill="#3ff055"></path><path d="M222,150l-8.2489,17.08206l-3.99535,17.41794l-7.42985,17.8259l-20.8259,2.2337l-12.34739,16.91891l-19.15261,0.52149l-14.49387,-17.90815l-20.00613,5.66391l-5.80509,-19.45067l-8.19234,-12.30509l-17.18553,-10.4003l9.68296,-17.5997l-8.71703,-17.34088l17.08563,-10.15912l-1.15897,-21.29037l16.79037,-6.63526l12.84739,-16.05289l19.15261,11.47851l16.56442,-1.81925l13.93558,8.9917l7.68377,14.64378l25.03609,1.68377l-1.4006,19.93558" fill="#9dad3a"></path><path d="M197,150l6.12592,14.23505l-0.29837,16.26495l-14.64378,7.68377l-5.68377,18.10789l-20.3355,-10.89314l-12.1645,2.60149l-16.82324,14.78518l-10.67676,-15.15378l-5.02691,-15.10449l-17.70256,-3.52691l0.00133,-15.54141l-1.77186,-13.45859l-8.85333,-16.3056l13.22193,-11.1944l8.74052,-11.39087l14.89087,-2.67835l11.31787,-5.76115l12.68213,-4.66963l16.82324,-10.78518l6.67676,22.08198l15.39087,1.81232l10.47258,10.39087l6.66025,13.4885" fill="#037905"></path></g></svg>