<svg x="0" y="0" width="300" height="300" version="1.1" xmlns="http://www.w3.org/2000/svg" xmlns:xlink="http://www.w3.org/1999/xlink"><g fill="none" stroke="none" stroke-width="1" stroke-linecap="butt" stroke-linejoin="miter" stroke-miterlimit="10" stroke-dasharray="" stroke-dashoffset="0" font-family="sans-serif" font-weight="normal" font-size="12" text-anchor="start" mix-blend-mode="normal"><path d="M0,300l0,-300l300,0l0,300z" fill="#3debae"></path><path d="M255,150l-24.0983,58.77853l-50.61803,34.42501l-60.25831,-0.95106l-45.26393,-37.58845l-17.76142,-54.66403l16.14339,-55.8396l45.33688,-41.16817l64.27553,-3.80423l52.19098,39.09454" fill="#7510db"></path><path d="M251,150l-19.28928,59.36631l-49.26393,40.49462l-62.73045,-6.6574l-49.80902,-35.0128l-6.90732,-58.19074l6.0983,-58.77853l53.09017,-26.81656l55.31404,0.95106l49.3541,28.80443" fill="#70c47d"></path><path d="M241,150l-11.71633,57.60295l-52.7082,24.18791l-56.85913,11.41268l-47.38197,-36.77615l-19.33437,-56.42738l14.48027,-59.9541l54.7082,-25.64099l54.69601,2.85317l48.3541,28.07789" fill="#43d0e3"></path><path d="M238,150l-17.61552,51.13732l-39.48278,43.96833l-58.40421,-10.46162l-44.5,-32.33114l-28.99749,-52.31289l20.90732,-58.19074l51.97214,-28.3554l55.93208,0.95106l48.23607,30.34327" fill="#cc693d"></path><path d="M241,150l-17.37945,53.48846l-49.51722,20.69395l-48.51567,0.95106l-45.16312,-24.58393l-17.42454,-50.54953l18.23356,-49.96175l41.88197,-32.78017l56.24109,-7.60845l49.92705,32.74741" fill="#88b647"></path><path d="M236,150l-9.9524,55.25181l-49.16312,27.4901l-52.22387,-4.75528l-47.47214,-25.08596l-20.18847,-52.90067l22.61552,-51.13732l45.3541,-25.89826l49.44272,1.90211l50.82624,20.46944" fill="#e4f41a"></path><path d="M225,150l-7.85159,48.78618l-39.33688,36.80891l-51.60584,-12.36373l-39.30902,-27.3841l-23.89667,-45.84725l27.94176,-42.90832l34.6459,-32.22514l50.36977,-4.75528l34.71885,35.80485" fill="#6cf84b"></path><path d="M224,150l-3.61552,51.13732l-49.06231,14.48558l-44.18943,4.75528l-32.95492,-29.821l-29.17783,-40.55718l21.89667,-45.84725l37.45492,-33.09044l47.58862,11.41268l35.5,25.79226" fill="#174681"></path><path d="M234,150l-28.98684,39.9694l-30.2918,36.11512l-50.36977,2.85317l-39.88197,-31.32709l-4.46962,-47.61061l11.75078,-42.32054l33.52786,-33.76398l48.82469,1.90211l30.10081,34.8008" fill="#19a1d6"></path><path d="M221,150l-14.36881,41.14497l-35.92705,22.57582l-44.80746,10.46162l-32.52786,-33.03744l-25.36881,-41.14497l15.66061,-48.19839l41.61803,-27.88613l46.66157,8.55951l35.5,25.79226" fill="#916726"></path><path d="M227,150l-17.13274,43.49611l-36.69098,27.83313l-44.18943,-6.6574l-28.33688,-28.81694l-14.64996,-35.8549l2.51471,-44.67168l38.92705,-24.75545l45.4255,-0.95106l41.04508,23.94315" fill="#9059cf"></path><path d="M213,150l-11.22291,37.61826l-30.76393,27.05359l-42.64435,1.90211l-25.2918,-32.48241l-14.07701,-34.09154l1.13274,-43.49611l41.32624,-13.56728l38.93614,-5.70634l28.1459,27.50261" fill="#95342c"></path><path d="M221,150l-12.75078,42.32054l-40.63525,11.88968l-35.22794,0l-36.59017,-14.82861l-16.79586,-39.38161l11.94176,-42.90832l40.82624,-13.20401l38.62712,-6.6574l39.47214,19.27362" fill="#4e08ef"></path><path d="M221,150l-26.50407,32.32819l-22.55573,35.19682l-37.70007,-19.02113l-27.92705,-16.76348l-7.31308,-31.7404l8.93112,-30.56483l24.45492,-23.64539l38.62712,-10.46162l28.33688,28.81694" fill="#399833"></path><path d="M215,150l-26.16718,28.21369l-18.12868,35.50709l-39.86319,-4.75528l-22.10081,-28.98846l-18.74013,-29.97705l15.50407,-32.32819l24.40983,-29.49048l40.17221,0l23.60081,30.07827" fill="#a93ca8"></path><path d="M208,150l-7.84095,36.44269l-30.69098,23.47387l-34.6099,-13.31479l-28.54508,-14.86137l-1.31308,-31.7404l-1.11397,-33.50376l31.89919,-10.24484l33.68285,-16.16796l20.17376,31.11508" fill="#8f797f"></path><path d="M210,150l-21.9762,27.62591l-20.71885,25.63326l-33.37384,-3.80423l-18.71885,-24.18017l-22.21227,-25.27477l22.21227,-25.27477l16.24671,-31.78863l34.30089,8.55951l27.11803,17.35126" fill="#86d54c"></path></g></svg>