<svg x="0" y="0" width="300" height="300" version="1.1" xmlns="http://www.w3.org/2000/svg" xmlns:xlink="http://www.w3.org/1999/xlink"><g fill="none" stroke="none" stroke-width="1" stroke-linecap="butt" stroke-linejoin="miter" stroke-miterlimit="10" stroke-dasharray="" stroke-dashoffset="0" font-family="sans-serif" font-weight="normal" font-size="12" text-anchor="start" mix-blend-mode="normal"><path d="M0,300l0,-300l300,0l0,300z" fill="#fc6cfd"></path><path d="M257,150l-19.08814,40.99397l-18.49079,41.73883l-42.50388,17.72349l-43.58741,-5.91474l-37.81954,-16.7221l-35.57688,-25.81944l-5.56805,-43.63305l4.48451,-41.54291l14.07555,-43.89869l46.29283,-7.4977l40.02032,-21.0243l36.26149,26.78833l33.1386,23.74497l11.96372,39.08771" fill="#3733d0"></path><path d="M232,150l-4.05753,36.34517l-12.37813,41.79136l-41.23535,12.66049l-39.08909,-7.08837l-36.28821,-10.80413l-31.22411,-25.40453l-9.3775,-39.48167l-1.37966,-41.87832l23.026,-36.14358l39.56378,-13.62907l38.63243,-10.00966l41.80736,7.03976l19.62792,37.84854l16.05035,33.64661" fill="#bd81d9"></path><path d="M235,150l-16.12061,32.11899l-9.74293,38.3571l-35.84275,16.45724l-36.66462,-11.10313l-36.53024,-4.56397l-22.84498,-29.26623l-11.93042,-34.59176l14.1996,-33.05975l7.54444,-37.28099l34.88685,-14.12229l35.45389,-7.62175l39.09176,4.13619l23.94708,31.21279l11.29197,34.91477" fill="#7ba5ad"></path><path d="M233,150l-16.83953,30.85113l-21.80812,22.00593l-23.12918,26.34885l-33.72583,-8.29976l-28.22126,-12.74636l-16.43375,-25.1598l-12.57595,-26.8991l1.13607,-31.06837l16.27166,-27.35843l23.93823,-25.66859l34.8372,4.27608l33.55048,4.43638l27.98962,21.67519l7.84058,34.23593" fill="#4ddf03"></path><path d="M211,150l7.87939,32.11899l-20.67032,25.33435l-29.31528,13.05925l-30.52822,-4.53047l-33.10453,-2.08826l-19.34692,-26.89386l6.30659,-31.94497l-5.18011,-27.97038l21.24011,-18.80395l15.38375,-30.63703l32.52361,1.62651l32.31194,4.04587l10.64912,32.26937l8.95453,24.16934" fill="#51c01f"></path><path d="M205,150l-6.96569,22.39877l-12.03821,20.49972l-20.72578,14.09113l-26.38381,6.03807l-18.71249,-20.43179l-21.26952,-13.09591l-7.67999,-24.35781l0.51454,-26.34744l17.95586,-19.09984l20.80994,-13.25739l24.02725,1.76036l29.9679,-7.95363l13.82997,25.91474l12.72811,23.07482" fill="#be2055"></path><path d="M197,150l-3.49723,20.28568l-15.86291,12.65423l-15.47537,12.4586l-19.63137,-3.05178l-26.94771,6.80239l-18.41296,-18.64912l5.0102,-26.31652l-3.86575,-22.99458l18.44908,-14.42291l14.08089,-19.38877l23.24945,5.80164l20.90368,3.51988l20.87251,11.18099l7.3071,22.74328" fill="#bf03d9"></path></g></svg>