<svg x="0" y="0" width="300" height="300" version="1.1" xmlns="http://www.w3.org/2000/svg" xmlns:xlink="http://www.w3.org/1999/xlink"><g fill="none" stroke="none" stroke-width="1" stroke-linecap="butt" stroke-linejoin="miter" stroke-miterlimit="10" stroke-dasharray="" stroke-dashoffset="0" font-family="sans-serif" font-weight="normal" font-size="12" text-anchor="start" mix-blend-mode="normal"><path d="M0,300l0,-300l300,0l0,300z" fill="#981f59"></path><path d="M245,150l-0.62663,46.02897l-29.11326,37.50017l-45.30059,10.37303l-44.63556,5.06799l-33.17485,-30.02616l-28.02239,-30.71076l-23.06033,-42.03729l14.45821,-46.42941l41.57472,-22.57807l33.97302,-34.53252l48.14521,5.45031l37.6955,27.57926l23.95096,37.60304" fill="#7a683c"></path><path d="M244,150l-7.71577,42.08363l-27.18073,33.5654l-39.14398,18.25314l-45.60324,8.94918l-35.4211,-30.07712l-23.8949,-34.94771l-8.98301,-41.10706l10.94566,-40.84977l32.44754,-25.44513l33.35836,-27.92051l43.92799,4.25358l40.84537,18.18476l28.84493,36.09854" fill="#f1f96a"></path><path d="M248,150l-17.10854,39.4534l-26.09759,30.67955l-35.87391,18.87847l-38.99948,-8.47689l-45.48482,-2.39801l-26.70376,-37.05613l7.31987,-44.04686l5.48294,-39.28598l30.67911,-24.89597l32.11595,-27.39313l39.54813,14.75682l37.34385,12.90169l22.29761,33.54305" fill="#bef503"></path><path d="M242,150l-17.40009,36.38481l-18.57471,35.32417l-37.93688,13.38986l-37.92591,-5.53459l-30.29984,-19.81278l-35.73584,-21.51822l-8.06946,-41.5138l18.89219,-36.62453l19.21095,-36.95153l40.03761,-12.76089l41.98753,-1.70236l36.71273,21.46425l24.25701,34.64259" fill="#8fe601"></path><path d="M226,150l-4.09648,35.06969l-22.65061,27.97117l-29.70922,28.90501l-37.68784,-19.17369l-34.56444,-9.95654l-14.89378,-32.71713l-11.34951,-32.85557l13.61375,-31.98384l21.25423,-25.93538l29.84474,-20.07796l35.73886,5.77582l41.39856,5.1228l21.47545,35.76641" fill="#45b63d"></path><path d="M238,150l-16.99527,34.63132l-17.44218,33.92561l-38.17708,3.82599l-35.94883,10.09221l-34.71637,-16.59531l-17.8039,-33.34089l-14.86276,-35.61009l12.0129,-37.3034l34.20074,-17.06565l27.66725,-22.32922l36.9434,-0.01529l31.99081,18.84685l11.88853,33.9662" fill="#bb7514"></path><path d="M220,150l-8.882,29.80924l-14.94338,29.29157l-29.74959,18.17285l-34.08532,-6.44207l-26.04926,-18.74057l-22.06572,-22.80598l-10.17843,-31.9374l14.14737,-30.21065l16.54687,-29.4313l33.79868,-2.703l33.78741,-12.86489l27.85817,22.12634l27.69865,24.26891" fill="#6b1fb5"></path><path d="M224,150l-3.89406,34.19295l-20.85302,28.84791l-35.73866,0.53873l-28.51342,-3.42126l-32.56713,-3.47105l-16.3819,-28.21572l-18.00187,-31.33332l21.02666,-29.53178l13.90056,-32.32782l34.52015,-6.1848l30.69473,7.46289l34.66925,4.73483l20.38621,29.11452" fill="#642973"></path><path d="M223,150l-4.69165,33.31621l-29.52167,16.32847l-22.56956,26.65084l-32.42588,-11.2857l-26.858,-13.68484l-23.62205,-21.6332l-5.26732,-32.20454l9.26686,-30.81972l23.89545,-20.06264l28.02764,-7.66296l28.40698,-0.46267l29.86748,8.75747l14.61305,27.66464" fill="#06575c"></path><path d="M220,150l-18.76874,24.98716l-17.36988,18.35344l-21.8025,13.39197l-25.84843,-1.4257l-26.70607,-7.04606l-11.57647,-25.07681l-11.88892,-25.41756l-0.49416,-32.03786l27.4247,-16.69665l26.61158,-8.12039l28.33532,-3.39355l19.55489,20.8659l20.01409,18.3905" fill="#51f9a8"></path><path d="M219,150l-7.882,29.80924l-27.25661,13.53135l-22.42624,10.45753l-27.16007,9.2711l-22.84233,-17.10656l-25.38093,-17.4911l-1.01222,-30.74003l12.8665,-25.43035l22.11686,-13.56104l19.03721,-20.78302l24.99734,13.01854l27.42859,2.94937l7.65465,26.22083" fill="#d9f585"></path><path d="M212,150l-20.65547,20.16507l-7.48314,23.17552l-20.55503,19.26085l-27.82166,-4.3837l-23.40916,-13.02112l-15.97471,-21.19916l-1.06731,-25.91693l1.98964,-26.24882l14.77081,-24.41781l29.87093,5.31533l26.52718,-16.1725l17.94099,23.31345l13.93488,19.90106" fill="#12c85b"></path><path d="M207,150l-16.55427,19.7267l-12.74097,15.73378l-17.10127,14.42504l-24.15112,4.45103l-14.09224,-21.39665l-24.43222,-9.75592l0.10377,-24.99876l-2.77443,-27.29246l25.35349,-11.34361l19.14402,-17.65281l23.47584,11.9631l19.55681,9.72646l17.28053,16.18534" fill="#d0da54"></path></g></svg>