<svg x="0" y="0" width="300" height="300" version="1.1" xmlns="http://www.w3.org/2000/svg" xmlns:xlink="http://www.w3.org/1999/xlink"><g fill="none" stroke="none" stroke-width="1" stroke-linecap="butt" stroke-linejoin="miter" stroke-miterlimit="10" stroke-dasharray="" stroke-dashoffset="0" font-family="sans-serif" font-weight="normal" font-size="12" text-anchor="start" mix-blend-mode="normal"><path d="M0,300l0,-300l300,0l0,300z" fill="#475f7f"></path><path d="M257,150l-31.19923,68.25132l-64.5117,39.15704l-67.71646,-29.74273l-33.5622,-58.53776l2.52101,-69.62788l59.34802,-36.04614l71.23463,-10.28968l50.06755,55.34868" fill="#2cd3f8"></path><path d="M235,150l-25.54841,53.53045l-48.99874,45.92174l-60.41459,-30.68575l-37.09339,-50.2623l1.31862,-68.00414l56.68892,-39.89931l61.99327,15.40213l43.79215,39.8313" fill="#25bbd7"></path><path d="M221,150l-13.77785,51.52306l-48.85987,28.03869l-54.79731,-15.64941l-36.70751,-46.23985l19.05667,-54.67249l41.52764,-32.42713l56.31738,-6.39715l32.01613,46.53923" fill="#85ee31"></path><path d="M226,150l-18.0347,52.19219l-49.70755,26.37504l-48.22715,-23.55407l-20.67575,-42.12263l-5.17278,-50.89052l41.09657,-38.08452l56.85355,3.91443l38.21081,40.85137" fill="#a8165f"></path><path d="M204,150l-10.15446,39.47871l-38.20101,14.22548l-41.49944,-4.35415l-20.87766,-37.29116l6.50309,-41.05888l29.21632,-35.67184l49.48472,0.72366l28.16825,38.73051" fill="#7d5e24"></path></g></svg>