<svg x="0" y="0" width="300" height="300" version="1.1" xmlns="http://www.w3.org/2000/svg" xmlns:xlink="http://www.w3.org/1999/xlink"><g fill="none" stroke="none" stroke-width="1" stroke-linecap="butt" stroke-linejoin="miter" stroke-miterlimit="10" stroke-dasharray="" stroke-dashoffset="0" font-family="sans-serif" font-weight="normal" font-size="12" text-anchor="start" mix-blend-mode="normal"><path d="M0,300l0,-300l300,0l0,300z" fill="#716b19"></path><path d="M258,150l-19.91753,35.58763l-22.62254,27.62629l-23.56605,30.88127l-38.29923,8.84207l-38.13868,-8.0283l-35.04555,-17.62189l-29.27776,-29.06624l-1.88662,-41.17542l-3.86225,-41.03727l31.84199,-27.07295l25.35759,-28.11288l35.9185,-20.2197l40.99133,6.54241l28.37898,28.78199l24.40023,26.57301l20.71547,33.026" fill="#7f83c6"></path><path d="M249,150l-21.11656,31.46695l-6.6688,37.30422l-35.01508,12.53437l-33.16331,5.64146l-33.81807,-2.37467l-32.78559,-13.97358l-9.23491,-35.0907l-26.95409,-28.53242l19.86766,-32.93307l18.60519,-25.46558l22.78689,-20.97869l29.61175,-12.13266l32.31409,2.82712l31.3647,11.57429l16.22021,29.13296l15.13924,28.89194" fill="#103e77"></path><path d="M226,150l0.02908,30.71774l-21.35925,22.0763l-23.75784,16.63542l-28.25962,6.52425l-31.72407,3.92017l-27.13526,-17.44971l-15.69655,-27.35447l-11.89186,-29.21015l17.22142,-27.49073l-2.37004,-36.2197l29.50839,-16.31671l31.7005,0.57298l27.581,4.38378l33.71666,0.65391l16.58551,28.05694l15.015,28.53111" fill="#927611"></path><path d="M220,150l-5.09713,26.22246l-19.58446,17.54102l-15.62663,22.92534l-27.59781,-6.72537l-25.35134,3.93565l-17.5596,-18.56726l-13.11068,-19.02957l-12.90915,-21.62859l-4.49245,-27.84996l14.64195,-24.39001l20.06851,-21.30363l29.92896,5.22051l23.22806,5.9737l30.86769,-3.00113l17.54597,23.17683l4.36686,27.75788" fill="#edf52e"></path><path d="M200,150l1.9223,20.97797l-5.16521,24.17482l-26.01352,1.43802l-18.99859,3.37872l-24.66032,12.98986l-11.21031,-25.05902l-23.39716,-9.84463l-4.32615,-23.73085l3.83452,-23.17494l19.71223,-13.28934l5.43921,-29.66695l26.17319,-1.84307l21.02296,13.66379l26.30051,-2.0231l19.98812,17.00871l6.71645,25.53623" fill="#a07882"></path></g></svg>