<svg x="0" y="0" width="300" height="300" version="1.1" xmlns="http://www.w3.org/2000/svg" xmlns:xlink="http://www.w3.org/1999/xlink"><g fill="none" stroke="none" stroke-width="1" stroke-linecap="butt" stroke-linejoin="miter" stroke-miterlimit="10" stroke-dasharray="" stroke-dashoffset="0" font-family="sans-serif" font-weight="normal" font-size="12" text-anchor="start" mix-blend-mode="normal"><path d="M0,300l0,-300l300,0l0,300z" fill="#02878f"></path><path d="M249,150l-6.72704,17.93605l-7.89922,16.15315l4.52535,23.64254l-11.92972,16.59671l-16.17026,12.50167l-18.90523,7.26507l-21.19838,-4.45314l-16.89145,19.29155l-18.35245,-17.07858l-22.73179,10.57148l-17.82888,-10.70959l-11.13486,-18.14556l-13.61962,-13.38984l-18.105,-12.39905l-5.38551,-20.08882l5.59279,-20.8575l1.4843,-18.65746l-7.38818,-21.86153l17.07781,-14.3133l8.45082,-17.56818l18.98042,-7.48738l13.1479,-13.47714l14.72444,-15.79574l20.30828,-2.10019l18.81951,14.76728l20.82227,-10.31369l19.00272,6.41553l11.4345,17.90665l17.12217,9.38707l12.97495,14.76196l11.02435,16.98978l-4.16897,21.01043" fill="#01bb50"></path><path d="M248,150l-12.59844,16.60038l-10.29967,13.74275l2.89447,20.3083l-16.13314,9.08919l-9.66777,14.80222l-19.24979,-0.54565l-12.70007,13.69612l-17.13954,1.25248l-15.77725,-8.94303l-15.03244,-3.88765l-13.49941,-7.54172l-12.99653,-8.37865l-22.46943,-2.42049l-5.12125,-17.88247l-14.80232,-14.00987l13.79477,-20.09212l-0.57606,-16.02681l3.48513,-15.7204l-3.20012,-20.09949l14.14487,-11.79397l14.82245,-8.98367l16.56383,-3.80125l11.24427,-15.43162l16.38325,-8.41215l18.55862,-4.1437l14.52512,17.87729l14.98166,5.90143l11.11772,11.80369l21.68978,1.37131l12.19574,13.66955l-1.82384,20.00114l16.72194,14.22072" fill="#200873"></path><path d="M232,150l-2.4882,15.45553l-14.60893,10.76693l10.57748,22.79505l-25.12657,-0.39143l-1.02621,21.82099l-14.34822,8.11783l-17.65812,-3.53841l-14.73867,-1.07157l-16.50523,13.94934l-15.83309,-6.151l-8.8721,-17.46571l-12.22607,-7.80854l-10.64101,-10.13925l-10.40859,-11.27007l-1.50684,-15.39944l-7.39233,-14.01997l-1.57864,-15.76543l-0.36059,-16.76932l19.7693,-8.02181l1.68906,-16.51672l14.71385,-6.08579l6.19515,-18.42469l18.1543,3.25433l14.38061,-1.90998l14.28916,0.87073l15.32583,-2.22127l17.26783,-0.68689l6.51577,18.31377l16.32724,4.51596l15.19008,9.29684l5.18386,16.17557l-7.99001,17.88645" fill="#610d27"></path><path d="M227,150l-5.34122,13.92906l-15.10057,8.92195l5.50341,17.45229l-4.51444,15.26938l-21.98544,-4.78524l-10.7508,4.93885l-7.71466,18.32585l-14.65332,-4.09477l-12.76764,-4.76993l-10.53855,-7.86618l-10.55409,-5.03404l-12.07617,-3.98279l-8.41782,-9.18644l-11.00428,-8.432l-10.49478,-11.01573l1.58575,-14.64778l1.35383,-13.67519l9.60316,-11.12436l-5.60348,-17.06844l16.67821,-4.93566l8.25774,-9.51044l3.97742,-19.34417l16.79933,2.73817l14.1731,5.24276l12.59904,-6.08255l12.45396,4.3329l14.6736,-0.63894l11.80198,7.51869l13.92406,6.35218l7.81661,12.6726l6.12097,13.43125l6.41652,13.9349" fill="#ead239"></path><path d="M202,150l12.78739,12.59339l-1.73889,12.87985l-7.69624,10.47293l-19.38527,-1.21326l-7.28817,6.22468l-3.05441,16.59576l-12.3523,-0.06553l-11.07344,5.47379l-11.27187,-5.6757l-9.73791,-5.60283l-15.18141,4.88995l-2.14054,-16.44322l-3.79872,-10.03907l-11.29949,-5.1036l-0.92873,-11.01093l1.28423,-10.41865l-15.62483,-11.72283l1.82875,-12.84791l12.19466,-8.07542l11.87683,-4.97917l7.8757,-6.34385l9.25108,-3.73579l6.22365,-12.2746l11.91898,5.70136l9.86305,-1.08151l10.07668,0.85525l8.99873,4.61453l7.17557,6.9318l11.48066,2.66123l14.02791,4.23931l7.05809,10.68693l-7.89473,14.01937" fill="#ab3ea5"></path></g></svg>