<svg x="0" y="0" width="300" height="300" version="1.1" xmlns="http://www.w3.org/2000/svg" xmlns:xlink="http://www.w3.org/1999/xlink"><g fill="none" stroke="none" stroke-width="1" stroke-linecap="butt" stroke-linejoin="miter" stroke-miterlimit="10" stroke-dasharray="" stroke-dashoffset="0" font-family="sans-serif" font-weight="normal" font-size="12" text-anchor="start" mix-blend-mode="normal"><path d="M0,300l0,-300l300,0l0,300z" fill="#a82947"></path><path d="M250,150l-0.58548,42.19896l-27.17005,32.61238l-33.18236,26.94893l-42.44736,-4.81936l-35.91825,-12.65429l-37.98356,-14.69704l-17.2648,-37.03277l-10.19237,-39.88125l12.07955,-39.89058l30.95707,-26.32525l31.8857,-24.00282l41.21552,-10.8598l32.72407,28.81249l35.47141,17.40858l17.96942,36.04109" fill="#e34ed5"></path><path d="M244,150l-9.31355,35.94726l-13.13663,38.14474l-38.22159,12.73098l-36.85307,14.11549l-31.97508,-24.80862l-31.3831,-15.9081l-14.43156,-32.22289l-21.4345,-35.18378l25.23153,-32.31226l12.59602,-37.87332l37.14624,-13.47846l36.86929,4.32555l34.53889,7.80763l30.44015,20.84359l11.89439,34.83728" fill="#c0842c"></path><path d="M239,150l-13.5186,32.03995l-11.57283,34.13931l-34.5224,10.37433l-32.45733,11.3928l-35.38711,-5.47238l-32.1405,-18.9066l-22.06206,-31.66173l3.87762,-38.11401l14.82966,-31.47289l19.31659,-27.43257l25.98452,-28.60409l38.16452,3.21637l34.12078,11.78572l31.22816,20.22793l10.14045,35.71176" fill="#1d03e6"></path><path d="M224,150l-6.80315,28.52337l-10.23487,30.46249l-27.57581,17.56773l-32.49223,12.39219l-34.50697,-8.28439l-24.068,-25.12355l-25.30669,-25.58557l1.1972,-35.95133l4.70891,-35.31408l29.0158,-20.73646l31.01503,-6.80434l28.78587,-4.74068l35.41295,-4.24653l14.37673,32.89787l16.8515,25.01422" fill="#1157f8"></path><path d="M228,150l-3.43911,31.64922l-23.85083,20.86258l-24.90757,14.70599l-28.48975,9.7353l-26.4734,-14.41786l-30.29093,-9.00479l-21.86301,-25.53159l-2.48078,-33.85841l14.29687,-29.55172l17.43271,-26.63834l32.18452,-2.97912l27.72091,-9.56042l26.58185,12.49114l28.61938,12.84508l10.3695,29.58267" fill="#4113f8"></path><path d="M215,150l-8.8492,23.8346l-13.77664,20.04513l-13.70472,30.80671l-31.4614,5.26483l-25.10085,-20.13495l-30.07249,-7.62413l0.28866,-32.33253l-18.13823,-25.16115l14.33542,-26.02385l22.26941,-15.40337l20.20588,-15.4311l27.15738,-15.4129l23.35941,20.72243l25.22415,12.52265l3.15063,28.28085" fill="#536664"></path><path d="M216,150l2.11736,28.9141l-20.18593,20.72034l-27.50445,3.57964l-22.45114,4.75058l-23.33292,-3.5862l-19.23159,-14.23063l-15.9245,-19.31147l-4.32847,-25.37053l7.81725,-24.52122l12.02928,-24.56772l27.16046,-4.71148l23.47921,4.63041l23.92885,0.35238l13.7672,19.49042l15.58088,18.07342" fill="#44f9ce"></path><path d="M210,150l2.59433,26.56972l-29.25073,7.95859l-14.3501,14.95145l-20.66868,-1.509l-27.06287,13.65817l-13.62121,-23.48848l-20.04497,-16.65295l11.52846,-25.04508l6.32544,-19.14194l7.91143,-20.96501l19.09659,-13.71375l23.60495,-0.30398l22.05631,6.95433l22.31373,11.32561l9.45471,23.35555" fill="#3950b7"></path><path d="M193,150l3.94575,19.92729l-14.2968,13.88168l-11.14687,22.20585l-23.28195,-5.04589l-23.99984,4.31584l-18.80898,-15.13694l-7.41483,-22.24159l7.11314,-21.04529l-3.22397,-21.37645l15.33218,-14.55278l17.28647,-11.61589l21.55835,-6.99812l22.05631,6.95433l19.9497,13.17259l-6.53385,26.42613" fill="#b833f4"></path></g></svg>