<svg x="0" y="0" width="300" height="300" version="1.1" xmlns="http://www.w3.org/2000/svg" xmlns:xlink="http://www.w3.org/1999/xlink"><g fill="none" stroke="none" stroke-width="1" stroke-linecap="butt" stroke-linejoin="miter" stroke-miterlimit="10" stroke-dasharray="" stroke-dashoffset="0" font-family="sans-serif" font-weight="normal" font-size="12" text-anchor="start" mix-blend-mode="normal"><path d="M0,300l0,-300l300,0l0,300z" fill="#662a25"></path><path d="M240,150l8.52443,26.39954l-11.05587,24.10046l-23.12185,13.84672l-18.84672,14.46159l-19.35928,18.7502l-26.14072,-5.55851l-27.95246,12.31999l-24.04754,-14.25335l-12.34672,-25.71992l-17.05967,-17.34672l-22.9136,-19.04754l2.31999,-27.95246l12.1689,-24.07017l4.09459,-25.42983l20.68269,-15.55382l10.55382,-29.34295l30.17101,3.59974l24.32899,-14.20297l28.47009,-1.25184l18.02991,25.71148l24.91778,9.12258l12.58668,22.91778l17.41775,21.324" fill="#9f67cd"></path><path d="M239,150l-2.06668,23.29371l-1.19681,26.20629l-15.02584,21.21068l-21.21068,15.02584l-23.6181,10.85607l-25.8819,-8.59258l-22.25844,-4.93038l-28.74156,5.26497l-17.58936,-19.74523l-6.75485,-25.08936l-9.65726,-20.72392l-4.99853,-22.77608l0.1689,-24.07017l3.22856,-25.92983l13.06344,-23.53911l29.03911,-3.53716l17.58282,-23.38002l26.91718,1.45629l23.0349,13.0326l21.4651,8.89114l16.31118,16.26508l22.32726,12.81118l16.35192,21.34164" fill="#240344"></path><path d="M248,150l-8.1689,24.07017l-2.36254,26.42983l-16.05078,20.91778l-23.41778,11.72065l-26.00038,-1.03474l-21.99962,16.8963l-22.51726,-14.96445l-21.98274,-6.95929l-25.50357,-7.07269l-2.74256,-28.00357l-20.94867,-16.89455l-2.30519,-25.10545l10.99853,-22.77608l4.46111,-23.72392l12.65811,-21.38225l23.88225,-8.32798l21.74156,-6.85939l22.25844,-10.93038l23.0349,8.0326l21.9651,8.02511l18.63961,14.30268l9.10652,21.63961l12.25534,19.22392" fill="#b53c72"></path><path d="M248,150l-10.10075,23.55253l-19.48324,15.94747l-0.53376,28.38225l-23.88225,8.32798l-20.70629,10.72309l-23.29371,10.06668l-21.99962,-14.8963l-18.50038,-11.95564l-28.08936,-1.5587l-12.81703,-21.58936l5.09825,-26.5533l-4.69186,-20.4467l-9.79703,-24.32899l14.58679,-19.67101l21.05591,-11.15433l9.15433,-24.52001l23.22392,-5.32714l22.77608,5.00147l22.25844,-3.06962l18.24156,12.92156l21.7254,7.92266l16.58291,16.7254l11.02279,21.42983" fill="#f07ea2"></path><path d="M234,150l1.9674,23.0349l-6.29306,22.9651l-13.2063,20.46804l-20.46804,13.2063l-26.58857,-7.2299l-19.41143,7.55556l-22.51726,4.03555l-20.48274,-9.55736l-15.68986,-15.78832l-22.71653,-11.68986l-4.56101,-23.9651l-2.0326,-23.0349l6.86223,-21.7408l10.98971,-18.7592l11.45819,-18.18986l20.18986,-7.99409l14.68865,-22.18122l23.81135,14.86518l22.25844,-9.06962l22.24156,5.99336l9.94722,22.62904l20.89699,10.94722l11.58911,20.20629" fill="#f1eaf4"></path><path d="M238,150l-20.38519,18.11733l-5.26098,17.88267l-11.44214,14.91169l-7.91169,23.5665l-20.22392,10.52329l-22.77608,4.99853l-18.89379,-19.48741l-25.60621,6.56368l-9.24012,-23.33615l-12.94384,-15.24012l-18.31752,-15.72392l13.00147,-22.77608l-13.00147,-22.77608l23.51367,-12.72392l2.09083,-23.89697l16.89697,-14.21519l24.38267,5.99735l18.11733,-20.38519l20.70552,10.72593l23.29448,1.06383l9.74012,22.47012l16.40794,13.24012l1.33045,21.34739" fill="#9eb88d"></path><path d="M222,150l0.44444,19.41143l-6.62651,18.58857l-14.19914,13.6188l-18.1188,6.40491l-12.79448,19.25036l-20.70552,-7.27407l-19.92907,4.37629l-23.07093,0.1019l-13.56854,-17.90964l-5.78529,-20.56854l-10.09061,-16.58857l-11.55556,-19.41143l15.41927,-18.37615l7.09293,-17.12385l5.62637,-20.36144l16.86144,-11.68855l19.32975,-5.86038l19.67025,5.41036l22.25844,-15.06962l20.24156,9.45746l11.94722,19.16494l6.17456,19.44722l15.68636,14.5533" fill="#7e42e8"></path><path d="M214,150l0.71703,17.34088l-6.69333,16.15912l-5.6978,18.8259l-20.3259,3.09972l-15.17676,7.35955l-16.82324,-0.78518l-20.70552,15.27407l-12.29448,-20.11639l-15.08326,-9.07442l-14.27057,-12.08326l-10.09061,-16.58857l6.44444,-19.41143l-5.47851,-19.15261l9.12468,-16.84739l5.78529,-20.56854l24.56854,1.14292l14.4003,-10.25733l17.5997,-7.31704l16.82324,10.21482l22.67676,-5.63083l15.65433,13.26168l1.13732,22.65433l5.5276,15.93558" fill="#9ea282"></path><path d="M226,150l-19.01038,15.27032l-5.89412,14.22968l4.05883,25.65433l-23.65433,-0.59473l-15.1944,6.29373l-16.3056,1.14667l-19.92907,12.37629l-9.07093,-24.14682l-23.3259,2.09643l-13.49203,-14.3259l-0.83095,-20.14149l-3.35112,-17.85851l-0.51259,-18.89379l13.35491,-14.10621l9.78152,-14.37615l11.37615,-14.97767l18.65912,-2.3632l17.34088,4.71703l18.63497,-9.54666l19.86503,2.8627l5.34062,22.84334l20.24526,6.84062l1.59708,19.4003" fill="#84b5e0"></path><path d="M221,150l-1.45334,18.63497l-5.46078,18.36503l-13.17419,13.91169l-21.91169,-0.68221l-15.02377,1.93052l-13.97623,5.84001l-16.56442,3.81925l-16.43558,-4.66158l-13.66905,-10.48863l-11.35465,-13.16905l-3.79555,-16.93558l-10.18075,-16.56442l10.18075,-16.56442l14.18786,-10.93558l8.03342,-12.09798l7.09798,-16.69367l14.38267,-11.32316l18.11733,-0.38519l17.08206,4.2489l16.91794,4.86138l16.20458,8.68515l6.08707,17.70458l-1.23388,17.74731" fill="#074665"></path><path d="M208,150l7.68296,17.5997l-15.45348,11.4003l-12.04571,9.18377l-7.68377,14.64378l-14.1944,8.02578l-16.3056,-5.85333l-14.23505,-1.87408l-16.76495,0.56765l-10.01219,-12.68138l-19.60958,-6.01219l8.46178,-21.02377l-1.84001,-13.97623l-1.05777,-14.75269l5.69432,-13.74731l5.52283,-15.34062l9.84062,-15.04911l19.50613,4.79788l14.49387,2.09185l16.82324,-10.78518l11.17676,14.28776l15.84062,4.6568l4.6568,15.84062l8.4922,12.72968" fill="#7b2d4b"></path><path d="M214,150l-6.04445,15.52914l-8.5921,12.97086l-14.71522,6.14823l-7.14823,12.98316l-10.93558,14.18786l-16.56442,2.18075l-16.04678,-4.1126l-8.95322,-16.58613l-18.13351,-0.16776l-5.36391,-15.13351l-15.25368,-10.91794l4.7511,-17.08206l-2.81925,-16.56442l14.18786,-10.93558l9.44763,-10.68377l13.18377,-5.1175l8.17676,-19.48391l16.82324,1.78518l15.27032,4.01038l11.72968,10.22425l15.42641,4.33896l3.47294,15.92641l13.02213,10.71204" fill="#a57e42"></path><path d="M199,150l6.05777,14.75269l-8.2924,12.24731l-12.11714,7.64823l-4.14823,18.17932l-15.22968,4.16207l-15.27032,1.01038l-13.19977,-8.73778l-17.30023,3.56533l-4.85534,-17.47221l-3.6158,-12.85534l-9.32515,-9.55905l-3.70371,-12.94095l5.63556,-12.42331l9.12535,-9.07669l-5.89442,-21.63351l21.63351,5.89442l9.85314,-6.22757l11.64686,-12.53334l14.75269,0.94223l13.24731,6.56035l15.13351,5.36391l-3.29635,20.13351l19.08431,7.21204" fill="#8ad941"></path></g></svg>