<svg x="0" y="0" width="300" height="300" version="1.1" xmlns="http://www.w3.org/2000/svg" xmlns:xlink="http://www.w3.org/1999/xlink"><g fill="none" stroke="none" stroke-width="1" stroke-linecap="butt" stroke-linejoin="miter" stroke-miterlimit="10" stroke-dasharray="" stroke-dashoffset="0" font-family="sans-serif" font-weight="normal" font-size="12" text-anchor="start" mix-blend-mode="normal"><path d="M0,300l0,-300l300,0l0,300z" fill="#655d08"></path><path d="M240,150l10.45629,26.91718l-10.38964,25.08282l-15.82043,22.24621l-21.74621,16.68646l-26.35928,6.62584l-26.14072,-2.55851l-26.39954,3.52443l-22.10046,-14.51997l-26.45332,-9.05115l-7.31909,-27.45332l-7.55869,-23.42983l-19.1689,-24.07017l8.54371,-26.91718l7.79157,-26.58282l18.41851,-20.74621l28.24621,-5.42813l18.04754,-24.64565l27.95246,8.31999l27.69364,-7.35406l19.80636,21.08165l16.84672,17.9257l19.65775,15.84672l8.72442,23.65337" fill="#c4e6b4"></path><path d="M247,150l-8.13482,23.81135l-2.26264,26.18865l-18.72029,17.88225l-18.88225,16.98824l-22.34164,14.61987l-26.65836,-7.49036l-25.10545,1.69481l-25.89455,-5.36021l-19.71068,-17.62391l-15.02584,-21.21068l-4.09459,-25.42983l-5.1689,-24.07017l8.06668,-23.29371l2.06283,-25.70629l13.4527,-22.41778l22.91778,-12.58668l23.91219,-7.75849l24.58781,5.76295l21.99962,3.8963l23.50038,3.29538l21.67514,11.63317l6.43702,24.67514l17.18487,18.17101" fill="#a16c08"></path><path d="M232,150l0.1037,21.99962l-16.28576,16.00038l-9.24939,18.56854l-9.06854,25.70387l-23.68865,6.59276l-23.81135,3.13482l-21.99962,-9.8963l-19.00038,-11.08961l-24.05382,-5.96026l-9.42436,-22.05382l-13.42107,-19.44747l10.89925,-23.55253l-3.17184,-21.48198l4.82763,-22.01802l20.89699,-10.94722l6.44722,-28.69122l23.41219,-8.62451l24.58781,5.76295l24.32899,-4.79703l14.67101,23.24705l25.34672,3.20326l7.53339,22.84672l3.46211,21.31211" fill="#454180"></path><path d="M237,150l-4.8963,21.99962l-12.82166,18.00038l-6.34953,22.9325l-20.9325,9.81363l-20.77684,6.45978l-21.22316,4.79408l-21.99962,-1.8963l-15.00038,-18.01782l-16.74012,-10.34576l-6.01564,-19.24012l-16.55239,-14.0533l2.30814,-20.4467l-6.17184,-21.48198l16.95199,-15.01802l6.65131,-20.06854l21.56854,-4.05324l15.32975,-12.78858l19.67025,-4.58964l18.11733,10.38519l16.38267,7.85905l17.1188,8.13696l9.86901,16.1188l18.68404,14.01802" fill="#b92a47"></path><path d="M224,150l-5.41927,18.37615l-2.7628,19.62385l-17.02756,10.79037l-15.79037,8.36731l-12.03566,21.08232l-20.96434,-9.23999l-19.92907,5.37629l-15.57093,-12.88848l-13.29037,-12.69744l-10.96538,-14.29037l-6.89313,-16.64149l-10.35112,-17.85851l13.2489,-17.08206l2.2633,-18.41794l9.86901,-16.1188l16.1188,-9.86901l18.41794,-2.2633l17.08206,-15.2489l18.63497,9.45334l14.36503,12.38898l24.98276,-0.82508l1.773,23.48276l4.96128,17.15912" fill="#0957e3"></path><path d="M221,150l-14.01038,15.27032l1.9001,18.72968l-8.68515,16.20458l-22.20458,-1.70716l-13.76495,4.6285l-14.23505,11.87408l-14.75269,-9.94223l-16.24731,-1.3642l-15.66905,-7.02453l-1.82838,-18.66905l-20.08331,-9.62385l-6.41927,-18.37615l10.28297,-17.34088l9.2914,-14.65912l16.53475,-6.89087l7.89087,-14.8027l15.72968,-3.29605l15.27032,-11.01038l18.63497,-1.54666l15.86503,9.79091l7.2193,18.03645l5.9121,14.2193l16.11971,10.41794" fill="#442299"></path><path d="M208,150l-10.66963,12.68213l-2.29704,13.31787l-5.43534,13.59798l-12.09798,8.03342l-10.41794,16.11971l-17.08206,-5.7511l-15.27032,-1.01038l-18.22968,1.03408l-14.58326,-9.94044l-9.94044,-14.58326l-4.76148,-16.67676l14.78518,-16.82324l-12.85333,-16.3056l18.41808,-8.1944l-4.94091,-22.87615l15.37615,-8.04947l15.95322,-4.46178l16.04678,-2.1126l12.94095,13.70371l12.05905,4.99502l16.01219,2.28908l15.27946,8.51219l2.62982,16.71204" fill="#ab7b83"></path><path d="M201,150l5.0237,15.0115l-17.05255,7.4885l-0.78738,15.68377l-8.68377,12.91173l-15.00613,2.99635l-14.49387,-1.09185l-13.19977,-3.73778l-17.30023,3.56533l-11.92641,-10.40114l-5.20499,-14.92641l3.19881,-15.59432l-15.56741,-11.90568l2.04445,-15.52914l10.32415,-11.97086l10.15474,-9.97666l7.97666,-13.61884l18.6296,10.52661l10.8704,-10.43112l14.75269,-4.05777l14.74731,3.96227l9.39087,12.20463l3.54437,14.39087l7.7929,11.04141" fill="#c2922c"></path></g></svg>