<svg x="0" y="0" width="300" height="300" version="1.1" xmlns="http://www.w3.org/2000/svg" xmlns:xlink="http://www.w3.org/1999/xlink"><g fill="none" stroke="none" stroke-width="1" stroke-linecap="butt" stroke-linejoin="miter" stroke-miterlimit="10" stroke-dasharray="" stroke-dashoffset="0" font-family="sans-serif" font-weight="normal" font-size="12" text-anchor="start" mix-blend-mode="normal"><path d="M0,300l0,-300l300,0l0,300z" fill="#993828"></path><path d="M255,150l-21.04324,52.46201l-44.06499,29.32825l-51.28538,26.61263l-50.17255,-29.60181l-35.22219,-43.573l-4.93901,-56.85089l31.23205,-46.4537l48.72233,-19.2501l55.76484,-17.2896l48.74093,35.19515l20.25508,54.94706" fill="#badd26"></path><path d="M242,150l-13.13153,49.28249l-36.34647,37.90053l-52.34768,6.30204l-44.35253,-24.14011l-32.27351,-37.87909l4.28732,-48.93044l18.14316,-44.36001l42.73212,-23.56143l48.48262,1.69305l34.8561,31.62718l19.15238,40.6536" fill="#44de77"></path><path d="M235,150l-18.0042,41.86362l-27.98077,38.12905l-48.31807,8.51978l-33.79327,-33.3517l-27.38064,-29.50924l-8.75301,-42.49236l15.20871,-44.98375l45.39326,-12.88818l43.04033,-0.42069l39.16935,21.78209l14.64949,42.3567" fill="#79215f"></path><path d="M214,150l-12.26907,32.32508l-19.29147,34.18568l-39.65193,2.11125l-41.42479,-6.36916l-16.20153,-38.65346l-8.52228,-39.19277l23.00728,-33.03271l32.69349,-22.2055l40.52756,0.45341l32.28794,24.09747l14.16356,36.53859" fill="#0ad42b"></path><path d="M214,150l-10.57297,33.38491l-28.43987,17.84635l-31.88603,14.40718l-25.11552,-24.66189l-19.6687,-22.16545l-0.15873,-29.83043l10.83945,-28.57621l26.00321,-20.56281l34.77625,-0.70928l31.54789,17.80085l13.04245,34.02052" fill="#c9f2a3"></path></g></svg>