<svg x="0" y="0" width="300" height="300" version="1.1" xmlns="http://www.w3.org/2000/svg" xmlns:xlink="http://www.w3.org/1999/xlink"><g fill="none" stroke="none" stroke-width="1" stroke-linecap="butt" stroke-linejoin="miter" stroke-miterlimit="10" stroke-dasharray="" stroke-dashoffset="0" font-family="sans-serif" font-weight="normal" font-size="12" text-anchor="start" mix-blend-mode="normal"><path d="M0,300l0,-300l300,0l0,300z" fill="#32758d"></path><path d="M240,150l-2.95105,58.71525l-47.71525,38.63905l-61.99607,9.26378l-56.465,-30.20567l-12.45974,-60.26314l8.45448,-53.16232l29.61079,-48.63982l56.9071,-11.28805l51.27878,21.70233l35.54646,42.40465" fill="#e3ccfa"></path><path d="M244,150l-15.24143,53.12333l-45.41858,29.39604l-53.0916,10.40466l-45.70831,-29.71011l-20.21835,-48.10652l-4.76273,-55.37432l39.56875,-41.14569l53.80381,-2.53621l51.14469,9.51927l26.73732,45.01583" fill="#14991e"></path><path d="M245,150l-15.41239,53.68252l-43.99998,34.39995l-52.22056,-9.83066l-49.54633,-14.34324l-16.54459,-49.32212l1.41831,-50.78601l33.61281,-40.12477l50.38,-0.62877l52.56455,0.9055l17.10452,49.71205" fill="#2ed016"></path><path d="M229,150l-21.79641,38.58431l-29.4827,30.02729l-43.52218,5.72761l-45.34259,-15.29326l-10.74708,-46.36964l1.54797,-43.99504l29.53922,-33.98098l43.21185,-3.65826l39.91247,10.70874l41.31211,27.80943" fill="#d31aa5"></path><path d="M232,150l-14.84796,45.29463l-37.93273,27.02572l-42.10984,-11.67519l-41.7793,-7.85112l-22.14518,-39.24948l20.17519,-38.76223l19.54547,-34.14569l39.46751,-8.59521l39.35959,10.51837l24.98542,33.15678" fill="#61213a"></path><path d="M214,150l-4.30929,40.26189l-36.4651,17.22351l-38.81899,15.87567l-31.16371,-28.20828l-16.27061,-34.03931l2.7337,-37.9581l23.72957,-31.6707l39.07719,-13.44082l32.16657,24.22414l20.76253,27.55281" fill="#5c1c91"></path><path d="M217,150l-20.5739,31.3148l-26.57195,17.82594l-30.24973,-0.23336l-32.04546,-7.92254l-19.60184,-30.04501l18.19271,-30.46319l18.41406,-21.18295l27.73949,-25.25349l29.43704,22.27288l14.30453,26.92793" fill="#be53e6"></path><path d="M202,150l-8.89005,29.07803l-20.63356,26.553l-33.91154,-1.83291l-25.25119,-18.37054l-11.56925,-26.91882l5.31894,-27.62538l10.61156,-32.61431l34.41904,-8.23252l22.59301,25.98474l25.11673,15.85165" fill="#4df516"></path></g></svg>