<svg x="0" y="0" width="300" height="300" version="1.1" xmlns="http://www.w3.org/2000/svg" xmlns:xlink="http://www.w3.org/1999/xlink"><g fill="none" stroke="none" stroke-width="1" stroke-linecap="butt" stroke-linejoin="miter" stroke-miterlimit="10" stroke-dasharray="" stroke-dashoffset="0" font-family="sans-serif" font-weight="normal" font-size="12" text-anchor="start" mix-blend-mode="normal"><path d="M0,300l0,-300l300,0l0,300z" fill="#5609f2"></path><path d="M257,150l-17.17574,30.92897l-18.9033,24.48056l-21.35882,20.90949l-25.61188,19.74026l-32.05575,-3.41317l-28.50081,-10.42702l-30.91154,-9.81507l-21.65987,-24.98739l-12.55419,-31.30388l12.11439,-31.91473l10.02711,-28.31569l11.33907,-31.6831l31.5226,-10.72668l29.68332,-14.22651l33.18613,3.19546l34.8113,7.19341l10.92517,36.20174l30.83691,20.78952" fill="#465984"></path><path d="M252,150l-21.63092,27.67329l-1.568,33.89285l-23.24789,23.97825l-33.53829,2.75251l-30.38184,7.33778l-26.6124,-17.06978l-28.4465,-10.54902l-12.50765,-27.64134l-5.05695,-27.54693l-2.71822,-27.58772l11.11522,-25.4791l11.70255,-27.38698l24.16216,-18.90128l30.17162,-7.24356l28.03909,13.59918l24.37184,12.19076l19.63429,18.63225l20.10697,21.5373" fill="#120c82"></path><path d="M235,150l-3.6854,27.99886l-22.21379,18.17575l-11.71721,26.78973l-27.30408,7.57021l-26.87767,-2.83136l-27.36773,-0.96537l-21.07599,-17.49817l-18.04278,-20.27351l-10.66886,-25.66921l1.22966,-27.88338l12.75427,-24.19832l10.41695,-27.35512l27.51267,-9.34151l26.80822,0.66409l27.23135,-7.28639l25.53178,11.6355l11.56763,25.93388l19.83866,18.8859" fill="#f51d51"></path><path d="M232,150l-8.24955,25.39432l-6.76953,26.93691l-22.86515,15.60109l-25.97162,4.83986l-23.98358,-6.02713l-25.47929,3.59796l-25.28714,-9.64064l-11.3811,-24.55305l-2.13891,-25.04246l-3.73471,-24.13046l7.38948,-23.82192l10.93326,-24.83549l25.45154,-9.19785l24.64529,-6.93112l23.55834,10.19519l27.73648,-0.36627l10.8493,25.25221l25.08774,16.15341" fill="#bbc38c"></path><path d="M211,150l-2.37785,20.18523l-3.4614,22.91108l-21.93777,8.0626l-14.35307,24.52416l-24.62219,-9.93422l-19.87213,-8.19549l-14.61349,-14.4035l-24.21727,-8.87844l-3.69532,-23.47745l-2.75566,-23.29665l4.43506,-24.34286l19.63196,-15.17461l24.17674,-1.36914l17.29116,-23.42315l24.26504,6.29985l19.69052,13.30899l10.13246,20.49288l13.10191,16.62461" fill="#dcd358"></path><path d="M215,150l-2.59577,21.4875l-15.91159,14.83653l-16.53749,9.80285l-13.50446,19.85323l-21.41857,-9.19701l-17.80937,-5.62455l-20.87064,-4.35191l-15.50959,-15.35204l1.87156,-22.3814l4.10631,-18.4502l-8.04376,-24.55967l14.38424,-18.08346l20.26943,-10.57419l22.03555,-2.24733l20.06331,6.88611l19.14082,6.55522l14.84544,14.0878l-1.01152,21.55266" fill="#a59f39"></path><path d="M204,150l0.84008,18.88295l-14.65153,12.51578l-12.9566,10.53479l-14.16817,10.46244l-16.81148,-9.5596l-16.1824,1.92736l-13.48782,-8.9274l-13.3783,-10.95434l-0.61282,-17.37314l6.04711,-14.80208l-0.61982,-15.97764l7.85609,-14.62952l11.07252,-16.4094l19.56531,4.43158l16.68759,0.61599l20.3518,-0.48004l11.97065,15.4388l13.44328,15.1444" fill="#770502"></path></g></svg>