<svg x="0" y="0" width="300" height="300" version="1.1" xmlns="http://www.w3.org/2000/svg" xmlns:xlink="http://www.w3.org/1999/xlink"><g fill="none" stroke="none" stroke-width="1" stroke-linecap="butt" stroke-linejoin="miter" stroke-miterlimit="10" stroke-dasharray="" stroke-dashoffset="0" font-family="sans-serif" font-weight="normal" font-size="12" text-anchor="start" mix-blend-mode="normal"><path d="M0,300l0,-300l300,0l0,300z" fill="#f9f76e"></path><path d="M258,150l-24.89129,51.93209l-43.65531,28.95938l-50.32436,22.53881l-53.15783,-21.47716l-27.12139,-48.77716l-6.66458,-53.96712l19.40672,-54.92659l51.79663,-31.01477l58.13114,9.72477l37.42427,39.15688l29.09254,44.07275" fill="#5719c0"></path><path d="M250,150l-13.49909,54.05176l-49.67773,21.44693l-46.12621,13.01375l-54.1101,-7.34734l-27.73705,-47.98915l-5.68643,-53.75921l27.77999,-46.10395l44.86443,-30.34237l54.16684,4.77709l36.67122,36.32996l29.41014,42.42273" fill="#63e3c6"></path><path d="M237,150l-17.46006,43.45338l-33.59351,30.24773l-43.99513,2.87707l-39.35724,-15.90136l-40.92517,-28.52693l-4.59292,-51.9015l36.81552,-34.43174l35.54514,-28.29178l48.06587,-2.16889l33.78104,33.22102l19.91843,40.01081" fill="#95763b"></path><path d="M224,150l-12.09249,38.68411l-26.39945,34.11821l-43.76581,5.76491l-43.45782,-12.37433l-20.64077,-39.85735l-1.98289,-42.13684l10.31798,-46.02331l47.32863,-5.12581l39.86889,-4.37883l34.27706,23.12017l15.8265,37.91026" fill="#40b03d"></path><path d="M217,150l-3.39639,39.74394l-35.10948,18.67767l-35.70659,10.2004l-33.42119,-16.6133l-36.42114,-23.96306l11.51891,-41.97574l20.21748,-29.83339l27.65811,-27.06811l39.90952,2.35552l35.20411,20.267l12.8557,38.32778" fill="#9fe8ab"></path><path d="M212,150l-0.94054,38.15419l-34.31882,16.67225l-33.53499,9.81749l-31.37666,-15.78726l-21.02962,-27.3094l-5.35711,-35.26944l14.9233,-34.20926l34.63529,-12.22691l36.93936,-7.36668l33.21499,21.2443l5.25115,37.79115" fill="#5eebf2"></path><path d="M199,150l4.42703,33.38491l-26.68639,21.44152l-32.38518,-1.12225l-25.13854,-14.30364l-23.7191,-19.56337l-1.25224,-31.68813l21.2261,-21.49264l18.80339,-29.72562l30.86676,16.46745l34.65106,4.82057l-0.27949,34.82254" fill="#b2b32d"></path><path d="M194,150l6.03484,31.26524l-26.80117,16.37085l-29.60991,13.02975l-31.17911,-12.59718l-5.67051,-32.33573l0.18737,-24.88104l8.51018,-24.19549l20.49684,-22.93355l28.86429,10.62644l21.17127,15.4397l5.58717,24.36575" fill="#fab342"></path></g></svg>