<svg x="0" y="0" width="300" height="300" version="1.1" xmlns="http://www.w3.org/2000/svg" xmlns:xlink="http://www.w3.org/1999/xlink"><g fill="none" stroke="none" stroke-width="1" stroke-linecap="butt" stroke-linejoin="miter" stroke-miterlimit="10" stroke-dasharray="" stroke-dashoffset="0" font-family="sans-serif" font-weight="normal" font-size="12" text-anchor="start" mix-blend-mode="normal"><path d="M0,300l0,-300l300,0l0,300z" fill="#93dfb0"></path><path d="M244,150l-23.27972,57.26816l-50.13703,39.56846l-66.89029,-5.95395l-52.35588,-46.95511l5.93403,-68.77419l38.06485,-50.39195l60.42098,-34.61067l57.14132,39.99364l27.96905,55.46364" fill="#fd8849"></path><path d="M237,150l-18.61116,55.38019l-50.50844,28.7405l-62.37147,3.19795l-34.98739,-51.93255l-17.11413,-61.26799l39.57741,-52.59274l61.93475,-15.39653l57.30957,24.75871l39.50275,52.99972" fill="#234295"></path><path d="M239,150l-20.61116,55.38019l-50.92426,26.7842l-57.86974,-2.86482l-36.33266,-45.1337l1.3956,-54.35376l25.38047,-48.57856l54.25329,-13.12118l48.56977,23.17918l24.17837,46.50655" fill="#50c031"></path><path d="M241,150l-26.49689,52.23359l-48.07809,25.04007l-51.83628,-7.77515l-47.72138,-32.48547l8.75635,-56.9421l25.00233,-48.02836l53.66551,-13.93019l49.90803,21.69289l33.70468,46.27206" fill="#fcdae2"></path><path d="M218,150l-16.70837,41.53515l-33.61914,41.6074l-52.17577,-15.42605l-26.70427,-40.46514l-19.93022,-48.99215l37.05388,-38.93547l48.21843,-18.21546l44.04286,25.38531l30.83766,40.99167" fill="#d720a1"></path><path d="M220,150l-13.26834,45.94039l-42.80157,19.5955l-50.24932,5.74463l-22.14767,-45.24938l-0.45457,-41.81911l20.71543,-36.79814l41.3462,-7.33167l40.35333,11.61336l32.55851,36.25896" fill="#d51e16"></path><path d="M214,150l-6.4912,46.56971l-42.12334,25.81321l-40.35494,-23.37756l-40.8058,-19.72032l1.05824,-46.62591l25.33542,-36.86326l42.73111,-9.70815l42.15138,13.37844l13.76042,41.14778" fill="#e65fe5"></path><path d="M202,150l-3.0398,39.64718l-36.06967,20.99797l-41.49193,-4.51174l-24.38424,-32.54269l-0.14028,-37.82577l17.27102,-35.11499l38.36703,1.41582l35.62832,5.57496l23.09623,32.66032" fill="#e11f97"></path><path d="M200,150l-9.58841,32.72466l-28.97645,21.07346l-35.04265,-7.46578l-27.55104,-23.55509l2.86225,-35.7182l17.73146,-29.12793l32.86762,-1.87082l27.13896,11.24133l29.81955,23.3123" fill="#2cd472"></path></g></svg>