<svg x="0" y="0" width="300" height="300" version="1.1" xmlns="http://www.w3.org/2000/svg" xmlns:xlink="http://www.w3.org/1999/xlink"><g fill="none" stroke="none" stroke-width="1" stroke-linecap="butt" stroke-linejoin="miter" stroke-miterlimit="10" stroke-dasharray="" stroke-dashoffset="0" font-family="sans-serif" font-weight="normal" font-size="12" text-anchor="start" mix-blend-mode="normal"><path d="M0,300l0,-300l300,0l0,300z" fill="#b5ea12"></path><path d="M252,150l-19.62253,66.70796l-62.83377,25.23791l-61.31082,-9.97327l-52.32806,-40.07873l-11.19073,-70.10515l45.33182,-54.30846l65.18769,-17.34322l65.69425,21.0896l24.87792,63.59921" fill="#1af1df"></path><path d="M238,150l-16.50257,57.89748l-50.29044,41.87358l-63.8821,-16.01644l-45.02526,-44.7079l-6.96037,-64.41098l36.46999,-54.72842l63.16266,-14.77712l53.24245,30.21621l23.76377,51.66954" fill="#c08fde"></path><path d="M233,150l-21.60547,49.71631l-42.47457,39.29512l-60.2331,-7.92984l-33.59759,-47.72919l0.53444,-53.28147l24.41454,-48.83738l54.04395,-9.12666l49.44824,18.44152l29.43537,46.31109" fill="#d5ed9d"></path><path d="M239,150l-19.83401,56.00951l-50.66185,31.04562l-56.18535,-13.10159l-29.00761,-44.26177l-6.72154,-49.36202l25.79976,-45.86013l51.84982,-15.35862l41.9308,29.612l27.90661,39.54441" fill="#dd9bec"></path><path d="M224,150l-19.59978,44.05243l-40.26222,22.46161l-50.91123,5.65749l-31.74268,-41.66628l7.66258,-46.81085l16.76943,-44.37067l47.4334,-3.23602l48.84269,5.94699l27.81057,45.2941" fill="#c37b7c"></path><path d="M210,150l-6.37693,43.42311l-41.7721,12.33131l-41.36035,2.16101l-38.09298,-27.81691l5.78311,-46.66293l17.73536,-44.11186l47.95675,-13.22231l41.62802,23.36474l25.61268,39.27057" fill="#908033"></path><path d="M200,150l-0.26266,40.27651l-36.43099,22.32494l-42.36174,-5.57703l-28.49797,-31.40001l-6.19774,-42.70647l26.13285,-34.69503l40.60141,-5.1448l38.50295,10.8469l24.68902,35.59387" fill="#e974ca"></path><path d="M193,150l-7.25129,28.94874l-25.14522,20.93679l-32.39504,-7.11721l-33.93473,-17.95738l1.63443,-39.3048l27.05372,-22.72092l29.55025,-10.71944l32.28267,9.29069l7.67581,31.91685" fill="#c836b1"></path></g></svg>