<svg x="0" y="0" width="300" height="300" version="1.1" xmlns="http://www.w3.org/2000/svg" xmlns:xlink="http://www.w3.org/1999/xlink"><g fill="none" stroke="none" stroke-width="1" stroke-linecap="butt" stroke-linejoin="miter" stroke-miterlimit="10" stroke-dasharray="" stroke-dashoffset="0" font-family="sans-serif" font-weight="normal" font-size="12" text-anchor="start" mix-blend-mode="normal"><path d="M0,300l0,-300l300,0l0,300z" fill="#b28147"></path><path d="M240,150l1.80526,28.06768l-15.5338,23.37806l-13.96874,25.4917l-23.34363,19.48967l-29.63342,10.16571l-30.32475,-7.79993l-30.87555,-5.2086l-26.53341,-17.86655l-6.23758,-32.58866l-8.91112,-26.63252l-8.67552,-29.04912l11.79125,-27.71439l21.76243,-19.43444l20.98584,-16.62296l22.06965,-19.30233l29.04324,-2.31364l25.88098,12.84363l30.06518,3.38596l18.89997,22.73284l24.16022,21.69768l-6.55806,32.25594" fill="#2abefc"></path><path d="M242,150l-13.58301,23.97448l1.99965,30.26723l-22.51917,17.25572l-21.56064,18.43941l-28.84145,-4.26409l-28.07865,11.16387l-23.04961,-18.12084l-21.10772,-16.19652l-17.23202,-20.75213l-9.61452,-25.61785l11.19088,-26.0207l-7.30413,-29.1753l23.55005,-16.7183l20.69693,-13.77493l18.08911,-25.12079l28.50522,4.71556l28.43916,-1.77013l19.55721,21.33082l16.7467,19.2302l22.32647,18.32034l4.65931,27.86202" fill="#267aa9"></path><path d="M222,150l-1.23345,21.63551l-4.44355,23.09993l-15.97737,17.43624l-20.0025,12.93022l-24.24223,-5.36826l-23.35757,11.45262l-22.49772,-9.46743l-21.38949,-12.67285l-7.46362,-24.08869l-3.28346,-22.28095l-11.48291,-22.91334l1.15479,-26.36927l26.37058,-11.94207l13.98489,-18.44743l18.56991,-19.93752l25.77158,15.97658l21.93975,0.04286l21.42964,7.81057l13.25178,18.56901l25.47331,13.7525l5.30432,26.07158" fill="#450069"></path><path d="M215,150l-1.88389,19.29653l-0.9383,22.64294l-11.83219,20.23221l-23.74856,3.65838l-20.58332,2.90738l-21.60712,4.62364l-20.76734,-7.76459l-19.02844,-12.10778l-4.30827,-23.07133l-5.29987,-18.95658l-1.50328,-19.62603l9.86077,-17.05243l5.31957,-19.39434l17.40542,-9.66306l14.76222,-17.20343l21.59557,1.52115l21.32351,0.9345l11.50064,20.48184l19.0401,7.6176l13.35065,16.29797l-4.74421,21.32829" fill="#b19607"></path><path d="M202,150l8.2472,18.41942l-17.96628,10.09942l-0.74577,22.7728l-19.05875,4.3394l-17.9443,-3.82891l-15.34351,-0.93845l-19.7316,4.23737l-16.21408,-9.94825l-7.59431,-17.45937l-8.6763,-16.57994l10.42275,-17.57256l-3.12133,-18.35186l6.67015,-17.8329l17.26097,-8.23905l14.45428,-13.83414l19.29525,8.75114l16.27744,3.01685l18.21087,2.78999l6.68363,17.66104l9.49647,13.34488l7.29499,16.01297" fill="#98f15c"></path></g></svg>