<svg x="0" y="0" width="300" height="300" version="1.1" xmlns="http://www.w3.org/2000/svg" xmlns:xlink="http://www.w3.org/1999/xlink"><g fill="none" stroke="none" stroke-width="1" stroke-linecap="butt" stroke-linejoin="miter" stroke-miterlimit="10" stroke-dasharray="" stroke-dashoffset="0" font-family="sans-serif" font-weight="normal" font-size="12" text-anchor="start" mix-blend-mode="normal"><path d="M0,300l0,-300l300,0l0,300z" fill="#9990cd"></path><path d="M249,150l-12.48645,24.80736l-7.64508,24.47513l-15.9702,20.57312l-21.69139,14.63103l-22.27924,22.8574l-29.79861,-3.91377l-23.59285,-18.12936l-29.56499,-3.3478l-16.87291,-23.17459l-8.3691,-26.28661l-7.49291,-25.72554l-3.00734,-27.97337l4.41272,-29.49594l16.23096,-25.70949l29.62738,-9.32409l22.88859,-20.99601l30.24096,2.79588l29.74429,1.22254l25.34142,15.66516l24.78359,16.9851l4.20152,31.01713l2.41403,26.38197" fill="#506973"></path><path d="M244,150l1.16491,27.2881l-21.38472,18.81488l-10.21278,24.49578l-27.62097,3.10235l-20.66539,12.96197l-24.89766,4.83293l-25.97101,-3.41355l-26.59418,-8.49338l-16.29284,-22.57392l2.35955,-29.31154l-17.65592,-21.14652l6.71588,-25.06125l0.52627,-27.50407l15.31422,-22.76297l22.71464,-15.23329l27.21087,-1.38156l24.77908,-14.55306l27.72077,3.88237l25.26777,12.32391l20.89201,18.81125l6.67569,27.50178l7.05848,24.61585" fill="#f334c3"></path><path d="M222,150l8.74598,23.15354l-6.9658,22.94944l-20.24974,13.34861l-18.89913,11.55314l-20.56582,8.7647l-23.05495,5.75946l-22.1029,-8.57262l-20.62322,-10.76336l-18.66891,-15.05559l-13.24816,-20.69752l-8.14325,-24.0222l18.41482,-22.01097l-3.45537,-25.25065l17.11124,-16.81262l19.2052,-12.49141l22.35586,-2.62412l21.1455,-13.17543l23.26509,5.10781l16.23222,17.83295l21.84907,9.0127l19.69845,16.57439l-8.78581,26.84262" fill="#4fbf16"></path><path d="M228,150l-17.44051,17.36515l6.43631,24.49847l-24.84057,4.9545l-13.22273,12.50228l-17.29807,6.66171l-18.42878,-1.3382l-21.30114,4.89487l-19.9261,-8.07395l-6.18254,-22.08323l-6.87588,-17.1503l-1.76651,-17.83665l-12.47083,-20.40386l19.69167,-13.56751l7.42993,-16.9654l11.19577,-17.54377l20.06547,-3.83482l19.4473,-4.03544l19.42744,4.43113l21.67684,2.86008l10.00606,19.6698l18.54698,12.86294l6.06109,21.13752" fill="#316258"></path><path d="M205,150l2.6757,16.53824l-5.09672,16.31675l-15.10767,8.76112l-12.92253,8.71636l-13.95625,9.74081l-17.28236,3.57613l-20.65646,4.03502l-10.20907,-19.61577l-6.94058,-15.74047l-6.24747,-13.8591l-18.08852,-13.65589l0.36159,-19.36702l3.13221,-20.18708l15.70368,-13.19053l18.63445,-5.76215l16.96853,-2.58358l16.05564,-1.68752l17.13488,-1.00084l15.51091,7.56517l12.05875,12.19029l19.04656,9.92501l-8.33972,21.213" fill="#4ccb36"></path><path d="M208,150l-1.28556,16.2626l-7.52765,14.47271l-13.05374,9.3945l-13.77612,5.70868l-14.02182,1.43228l-13.45701,1.4608l-18.47832,9.68101l-12.72381,-11.91995l-4.12682,-17.10337l-15.93071,-8.86805l3.51066,-16.82412l-4.83981,-15.96388l17.97807,-8.85943l2.32697,-14.99601l13.40567,-5.44698l8.75892,-19.55941l17.19545,5.16274l18.13173,-5.85279l8.43273,19.53776l14.37965,6.28481l12.82778,11.18517l7.65088,15.90386" fill="#ed4717"></path></g></svg>