<svg x="0" y="0" width="300" height="300" version="1.1" xmlns="http://www.w3.org/2000/svg" xmlns:xlink="http://www.w3.org/1999/xlink"><g fill="none" stroke="none" stroke-width="1" stroke-linecap="butt" stroke-linejoin="miter" stroke-miterlimit="10" stroke-dasharray="" stroke-dashoffset="0" font-family="sans-serif" font-weight="normal" font-size="12" text-anchor="start" mix-blend-mode="normal"><path d="M0,300l0,-300l300,0l0,300z" fill="#87e9e5"></path><path d="M251,150l-26.57044,54.07624l-46.61803,31.51884l-59.64028,12.36373l-53.92705,-35.65358l-8.2442,-62.30524l16.33437,-56.42738l46.45492,-39.62932l62.11242,0.95106l48.38197,37.5027" fill="#dfb090"></path><path d="M252,150l-25.14339,55.8396l-44.71885,43.07028l-60.25831,-12.36373l-43.07295,-34.82104l-32.8065,-51.7251l31.99749,-52.31289l44.5,-32.33114l59.64028,-14.26585l54.42705,36.01686" fill="#26d3a6"></path><path d="M253,150l-19.67125,60.54188l-53.3541,31.7106l-59.64028,-0.95106l-39.10081,-41.33968l-32.23356,-49.96175l24.14339,-55.8396l45.33688,-41.16817l63.03947,0l52.61803,35.8781" fill="#1fd977"></path><path d="M244,150l-12.28928,59.36631l-52.3541,30.98406l-56.85913,-5.70634l-46.92705,-30.56779l-23.57044,-54.07624l17.0983,-58.77853l54.94427,-21.11022l53.76896,-5.70634l45,32.69441" fill="#8cf574"></path><path d="M245,150l-24.61552,51.13732l-41.95492,36.35988l-52.84191,-12.36373l-50.82624,-20.46944l-17.76142,-54.66403l20.18847,-52.90067l42.83688,-39.35181l55.31404,14.26585l45.04508,26.84932" fill="#d0a21d"></path><path d="M229,150l-4.57044,54.07624l-50.94427,18.20405l-47.2796,0.95106l-46.59017,-22.09403l-17.61552,-51.13732l21.66061,-48.19839l41.92705,-26.93507l48.51567,0.95106l52.75329,18.34281" fill="#710b97"></path><path d="M231,150l-21.13274,43.49611l-37.61803,24.97996l-44.80746,0.95106l-39.73607,-24.16766l-12.70569,-45.25946l7.04257,-49.37396l42.92705,-27.66162l47.2796,8.55951l46.51722,18.51432" fill="#0b574b"></path><path d="M237,150l-26.32373,44.08389l-37.80902,26.29429l-46.97058,3.80423l-39.80902,-27.74737l-23.08766,-46.43503l17.42454,-50.54953l46.09017,-21.73076l44.80746,6.6574l47.44427,15.66115" fill="#0edf85"></path><path d="M222,150l-18.60488,38.79383l-30.21885,32.53541l-46.04353,-0.95106l-35.38197,-28.05764l-24.75078,-42.32054l23.94176,-42.90832l38.3541,-20.81246l41.40828,0l48.87132,13.17125" fill="#b24c4d"></path><path d="M232,150l-17.27864,47.02282l-44.94427,13.8448l-43.26238,11.41268l-36.38197,-28.78419l-13.13274,-43.49611l20.4139,-38.20604l27.86475,-37.87848l50.36977,-2.85317l37.45492,33.09044" fill="#19019a"></path><path d="M211,150l-12.45898,35.26712l-28.1459,27.50261l-43.5714,8.55951l-33.45492,-30.18427l-4.36881,-41.14497l-2.91234,-46.43503l41.66312,-22.04103l42.64435,5.70634l43.51722,16.3347" fill="#51cb66"></path><path d="M216,150l-16.64996,35.8549l-28.02786,29.768l-42.64435,0l-31.26393,-27.41686l-10.4139,-38.20604l3.94176,-42.90832l38.3541,-20.81246l42.33533,-2.85317l35,25.42899" fill="#b61c0f"></path><path d="M224,150l-14.94176,42.90832l-42.06231,9.39978l-36.77302,8.55951l-32,-23.24936l-20.22291,-37.61826l12.13274,-43.49611l41.63525,-12.61623l35.22794,3.80423l27.5,19.97992" fill="#fa1cb2"></path><path d="M207,150l-6.03193,37.03047l-31.80902,21.93503l-38.00909,-0.95106l-23.21885,-27.44961l-25.93112,-30.56483l26.74013,-29.97705l21.17376,-31.84163l40.48123,-0.95106l36.23607,21.62476" fill="#f3723c"></path><path d="M209,150l-11.268,34.67933l-27.02786,29.04146l-37.08204,-13.31479l-24.07295,-21.01673l-7.54915,-29.38926l3.50407,-32.32819l24.71885,-28.53943l39.86319,-0.95106l34.92705,21.84928" fill="#6dd803"></path><path d="M214,150l-19.50407,32.32819l-25.95492,24.7352l-35.53695,-4.75528l-27.5,-19.97992l-7.50407,-32.32819l10.74013,-29.97705l24.88197,-20.42895l33.99187,-3.80423l24.45492,23.64539" fill="#a4d0fd"></path><path d="M210,150l-17.1221,31.15262l-23.71885,27.81289l-38.00909,-0.95106l-21.60081,-28.62518l-13.54915,-29.38926l17.59424,-26.45034l22.19098,-17.29826l31.82875,-10.46162l22.02786,25.40874" fill="#30fa20"></path></g></svg>