<svg x="0" y="0" width="300" height="300" version="1.1" xmlns="http://www.w3.org/2000/svg" xmlns:xlink="http://www.w3.org/1999/xlink"><g fill="none" stroke="none" stroke-width="1" stroke-linecap="butt" stroke-linejoin="miter" stroke-miterlimit="10" stroke-dasharray="" stroke-dashoffset="0" font-family="sans-serif" font-weight="normal" font-size="12" text-anchor="start" mix-blend-mode="normal"><path d="M0,300l0,-300l300,0l0,300z" fill="#899d45"></path><path d="M257,150l-6.54371,26.91718l-11.25567,24.58282l-19.19705,18.50357l-17.00357,21.79512l-27.89455,1.89611l-25.10545,15.30519l-27.95246,-4.68001l-18.54754,-23.77963l-26.332,-7.70836l-18.96669,-19.832l1.96759,-28.92983l-5.1689,-24.07017l4.20297,-24.32899l8.52461,-23.17101l5.90488,-28.86753l30.36753,-3.3068l18.56518,-22.7138l27.43482,9.38814l25.10545,-0.69481l27.39455,2.76214l23.86753,14.56514l17.16321,22.36753l4.99369,27.60046" fill="#ec74a5"></path><path d="M237,150l-1.99853,22.77608l-8.79124,21.22392l-9.03509,23.17514l-19.17514,15.96329l-21.60046,15.386l-26.39954,-11.52443l-22.51726,-2.96445l-22.48274,-6.09326l-18.63961,-14.30268l-23.82896,-13.13961l-9.12402,-24.6181l-5.40742,-25.8819l10.23705,-24.58781l9.49054,-22.91219l12.26884,-22.50357l22.00357,-13.13487l24.9651,-2.82896l23.0349,-7.0326l26.91718,-7.45629l24.08282,12.12169l23.24621,14.08838l4.5621,28.74621l12.95464,20.91219" fill="#7a2058"></path><path d="M252,150l-7.33927,25.36427l-8.05819,24.63573l-15.89186,20.71068l-28.21068,2.90148l-16.10046,24.91227l-26.39954,0.47557l-22.25844,-15.93038l-23.24156,-4.26131l-12.48276,-20.82556l-22.55761,-11.48276l-10.25667,-22.17101l-0.20297,-24.32899l1.1689,-24.07017l18.81702,-16.92983l5.96026,-24.05382l14.55382,-22.41474l27.98274,3.43302l22.51726,-2.96445l23.55253,-0.89925l21.44747,9.95696l15.10408,17.83821l15.24013,16.60408l20.28245,17.87691" fill="#7fcbed"></path><path d="M228,150l7.00147,22.77608l-16.58547,16.72392l-7.60482,21.31118l-18.31118,12.80098l-21.79448,3.66191l-20.70552,3.72593l-23.29371,5.93332l-19.70629,-12.45514l-23.46804,-8.01015l-6.2781,-24.46804l-16.11904,-18.18865l8.86518,-23.81135l-9.8311,-24.07017l22.28112,-14.92983l-1.03938,-29.58936l20.08936,-15.41511l28.0533,7.69632l20.4467,-19.69186l20.4467,19.69186l19.0533,7.89213l22.01829,6.89772l15.55797,17.01829l17.58447,19.13573" fill="#e12ded"></path><path d="M233,150l-10.55556,19.41143l-3.1624,20.58857l-8.47085,20.81118l-23.31118,4.14072l-16.53566,13.28809l-20.96434,9.76001l-20.18789,-12.65779l-26.81211,6.06417l-8.86144,-25.54495l-16.01867,-14.36144l-7.32581,-20.27684l5.20592,-21.22316l-1.34221,-20.18789l-1.73405,-24.31211l13.43665,-19.13961l18.63961,-14.30268l22.74156,-5.12733l22.25844,-0.93038l22.77608,-1.00147l21.22392,8.79124l19.63961,12.57063l0.44627,26.63961l21.88152,13.9651" fill="#47e08e"></path><path d="M224,150l3.27407,20.70552l0.66822,24.29448l-24.20217,8.74012l-18.24012,7.74769l-14.01802,18.68404l-21.48198,-1.17184l-20.4467,-2.69186l-17.0533,-11.35623l-25.4325,-2.0194l-4.61748,-23.9325l-4.89446,-19.58857l1.44444,-19.41143l-14.9674,-23.0349l18.41742,-15.9651l8.86012,-19.68986l19.18986,-9.72614l21.12385,-0.16473l18.37615,-10.41927l20.96434,0.76001l20.03566,7.22591l9.20458,20.8095l10.4172,15.20458l10.85673,15.84739" fill="#068641"></path><path d="M229,150l-5.58964,19.67025l-8.45846,17.82975l-14.74732,12.70458l-14.70458,11.28322l-17.12385,7.09293l-18.37615,-1.58073l-17.85851,-0.35112l-19.14149,-2.563l-16.03301,-11.05287l-8.4548,-17.53301l-9.99071,-16.34739l-1.52149,-19.15261l-6.20592,-21.22316l16.85209,-14.77684l8.61371,-17.74012l16.24012,-11.21179l15.7592,-16.18586l21.7408,10.13777l17.5997,5.31704l23.4003,-5.33113l11.3259,18.68818l18.68818,11.3259l12.05554,18.74156" fill="#b1d8bb"></path><path d="M225,150l-7.38519,18.11733l-7.85905,16.38267l-6.72274,18.53301l-12.03301,17.98107l-21.84739,0.46443l-19.15261,1.52149l-18.63497,-3.45334l-15.86503,-9.79091l-14.29037,-10.96538l-19.62564,-9.29037l-8.85806,-18.79448l0.27407,-20.70552l0.69186,-20.4467l20.01649,-12.0533l4.67286,-19.1188l13.1188,-15.06516l19.34739,-4.79456l19.15261,4.47851l16.82324,4.21482l19.67676,-0.43468l14.41169,12.30817l20.10239,9.91169l1.43035,21.58857" fill="#ea36ab"></path><path d="M219,150l-10.07852,15.78796l5.1644,21.21204l-21.65947,5.42641l-12.92641,8.66909l-14.22968,5.89412l-15.27032,4.01038l-15.0115,-4.9763l-18.4885,2l-17.41169,-7.11201l-0.18381,-21.41169l-9.75783,-13.1944l-0.14667,-16.3056l-14.34221,-20.18789l12.12236,-16.31211l16.55081,-10.16905l16.66905,-5.29248l13.43558,-9.85773l16.56442,-9.18075l17.85851,4.35112l16.14149,7.75915l9.13351,15.75621l15.75621,9.13351l7.75915,16.14149" fill="#d95555"></path><path d="M218,150l-10.04445,15.52914l-11.19018,11.47086l2.025,21.79037l-14.29037,10.96538l-18.45322,0.13165l-16.04678,7.1126l-14.49387,-12.90815l-19.50613,4.79788l-12.66905,-12.22068l-6.1585,-16.16905l-4.16207,-15.22968l-3.01038,-15.27032l6.87408,-14.23505l-10.09393,-22.26495l15.13659,-11.58326l14.08326,-10.80647l18.21204,-0.03175l15.78796,-6.07852l18.63497,-4.54666l13.86503,13.25501l7.80509,15.98656l7.32631,12.80509l17.08563,10.15912" fill="#a8cf31"></path><path d="M204,150l10.71703,17.34088l-18.81768,9.15912l2.18391,21.58326l-16.58326,6.47634l-14.93558,7.25965l-16.56442,0.18075l-15.0115,-5.9763l-16.9885,-0.59807l-16.08326,-7.34236l1.31789,-21.08326l-5.39462,-13.02377l-4.84001,-13.97623l-5.78518,-16.82324l7.35955,-15.17676l15.12054,-8.30509l11.30509,-9.92439l10.88267,-17.38533l18.11733,-1.38519l17.85851,2.35112l16.14149,7.75915l11.25483,13.63489l-1.08754,19.75483l10.89048,10.74731" fill="#b38d8e"></path><path d="M204,150l7.81925,16.56442l-10.72375,12.93558l-7.25488,14.34062l-16.84062,2.92475l-12.76495,6.36055l-14.23505,1.87408l-14.75269,0.05777l-16.24731,-1.3642l-12.13351,-10.56006l-4.49788,-15.63351l-7.42637,-12.74731l-6.94223,-14.75269l15.63556,-12.42331l-7.32914,-18.57669l18.33824,-4.35534l7.35534,-13.14208l12.9885,-7.52628l15.0115,4.0237l12.68213,4.66963l16.31787,-2.89911l7.06245,14.16703l13.301,7.56245l-4.93086,16.59432" fill="#320ce4"></path><path d="M211,150l-15.60149,12.1645l-2.96327,12.3355l-8.49412,9.44113l-9.44113,8.49412l-10.26495,10.69068l-14.23505,3.87408l-12.94095,-8.70371l-8.55905,-11.0572l-20.92641,5.18731l2.58924,-19.42641l-15.2206,-8.24731l-6.94223,-14.75269l2.1126,-16.04678l17.45216,-8.45322l2.83727,-15.09798l13.09798,-6.30137l14.59432,1.46676l11.90568,0.43259l16.04678,-15.8874l9.45322,15.72011l11.26955,7.39774l14.32595,7.26955l8.7919,13.45322" fill="#b80ff0"></path></g></svg>