<svg x="0" y="0" width="300" height="300" version="1.1" xmlns="http://www.w3.org/2000/svg" xmlns:xlink="http://www.w3.org/1999/xlink"><g fill="none" stroke="none" stroke-width="1" stroke-linecap="butt" stroke-linejoin="miter" stroke-miterlimit="10" stroke-dasharray="" stroke-dashoffset="0" font-family="sans-serif" font-weight="normal" font-size="12" text-anchor="start" mix-blend-mode="normal"><path d="M0,300l0,-300l300,0l0,300z" fill="#60ca01"></path><path d="M246,150l-13.92528,55.3601l-43.86485,39.21266l-57.33775,-4.58317l-52.8061,-20.52374l-26.5468,-52.10102l13.52105,-55.19133l26.66861,-55.45878l61.71127,-4.65501l49.48052,25.12877l43.88767,37.58345" fill="#092c6b"></path><path d="M242,150l-8.26721,56.47848l-47.77056,32.53117l-56.12967,5.87067l-51.04721,-26.10914l-15.44844,-53.49014l-6.51855,-56.76818l45.4889,-34.83719l50.97329,-17.61841l46.68119,25.17629l44.00752,34.56443" fill="#268546"></path><path d="M247,150l-24.04469,49.20898l-38.86611,35.16476l-51.55378,-2.20933l-46.55666,-20.3398l-19.68742,-47.0645l8.79793,-48.1125l25.09832,-46.36412l52.91847,-9.22926l53.32133,11.28015l32.84341,45.17372" fill="#eb1b7a"></path><path d="M243,150l-27.50603,44.17624l-30.28095,42.97904l-52.6776,-4.99088l-42.95996,-23.8131l-22.29931,-43.76486l13.2944,-45.49843l22.79656,-43.71625l49.28526,-1.32547l50.24831,3.14217l22.27474,45.44992" fill="#3b186c"></path><path d="M220,150l-3.67699,44.73543l-36.72908,28.51209l-46.85059,7.93873l-38.85183,-27.0029l-25.63054,-39.77055l-0.48005,-51.0191l36.11612,-37.17389l48.99963,-9.16925l50.00401,10.13791l30.73197,42.37174" fill="#94947f"></path><path d="M229,150l-24.28352,36.90673l-28.86862,27.06895l-42.27288,13.29797l-33.20942,-29.34223l-24.22614,-34.90781l9.9124,-41.49518l25.26408,-33.43595l41.02237,-5.05167l38.8067,10.328l19.93505,34.39988" fill="#87b95d"></path><path d="M211,150l-6.28352,36.90673l-30.74166,22.43304l-37.48908,4.23983l-31.08481,-20.51078l-22.36786,-31.26074l10.32711,-37.02575l21.66515,-30.7535l37.59213,-18.98314l43.81757,11.04197l13.70529,42.02305" fill="#e6faa0"></path><path d="M211,150l-14.5739,31.3148l-25.82274,19.68031l-34.94927,16.49707l-33.13052,-21.64473l-16.53608,-34.56032l10.11332,-35.28459l14.15524,-39.60615l41.90771,1.64138l33.10335,13.42121l17.35567,29.38789" fill="#3c6dec"></path><path d="M201,150l5.37455,38.02512l-32.39973,21.31465l-37.90491,6.19612l-24.91427,-28.02434l-25.16815,-26.22442l7.37269,-36.5048l20.60531,-32.4496l38.12848,-2.29618l37.87543,4.95029l7.95493,37.57013" fill="#5e3175"></path><path d="M195,150l-3.54812,27.95965l-17.85166,30.45294l-36.90656,4.18886l-32.7314,-18.14331l-8.12668,-34.90749l9.4007,-29.48075l14.55833,-28.40865l32.47387,-16.62166l33.58643,15.61037l21.46635,28.48681" fill="#a2d421"></path></g></svg>