<svg x="0" y="0" width="300" height="300" version="1.1" xmlns="http://www.w3.org/2000/svg" xmlns:xlink="http://www.w3.org/1999/xlink"><g fill="none" stroke="none" stroke-width="1" stroke-linecap="butt" stroke-linejoin="miter" stroke-miterlimit="10" stroke-dasharray="" stroke-dashoffset="0" font-family="sans-serif" font-weight="normal" font-size="12" text-anchor="start" mix-blend-mode="normal"><path d="M0,300l0,-300l300,0l0,300z" fill="#0894b3"></path><path d="M244,150l-21.59598,67.51784l-65.42837,32.23857l-65.50244,-27.48183l-42.48055,-58.07892l17.45383,-72.70045l62.97025,-38.33182l66.93668,19.69156l41.12139,52.06206" fill="#af5393"></path><path d="M251,150l-29.32734,66.83584l-64.13896,40.90108l-72.98302,-26.91374l-28.62615,-67.60174l8.88365,-72.87339l66.47976,-28.38133l67.64067,6.60239l44.31377,54.69407" fill="#e86aef"></path><path d="M254,150l-33.79004,65.47184l-64.07139,22.31379l-69.07061,-10.07104l-29.16289,-64.7715l6.08397,-73.16862l66.05144,-33.67664l72.49341,6.4711l34.94093,62.34807" fill="#63214d"></path><path d="M239,150l-21.71546,62.74385l-60.30889,37.01256l-63.61448,-29.81327l-40.40744,-56.30417l24.14174,-64.68727l54.6083,-35.02869l63.10454,11.50343l35.93767,51.42002" fill="#b70416"></path><path d="M247,150l-28.98411,63.42585l-62.22611,19.37197l-61.7993,-13.63183l-41.03676,-55.52703l21.68428,-66.408l58.10532,-28.41722l68.76048,-4.53048l34.04848,61.18501" fill="#137be2"></path><path d="M234,150l-22.56629,57.28786l-54.45806,42.46854l-61.72652,-32.14471l-24.47057,-56.47785l7.95522,-61.035l52.34626,-39.11028l69.3937,5.00904l35.07856,59.47067" fill="#c9f298"></path><path d="M238,150l-17.05869,66.15384l-64.80274,21.6318l-59.6308,-21.72823l-41.5735,-52.69679l30.35272,-58.67316l46.41678,-40.76445l58.4692,19.21794l45.37932,42.32732" fill="#75f8a3"></path><path d="M229,150l-21.22306,53.87787l-51.98716,28.91995l-56.13542,-20.62614l-25.90501,-51.45535l3.34611,-61.76463l53.98457,-37.96313l61.66812,17.86655l30.30773,50.19645" fill="#6b9e61"></path><path d="M237,150l-32.14847,51.14988l-49.41052,26.66012l-53.26935,-18.7469l-42.28604,-46.39834l13.1141,-66.58094l61.61483,-18.46674l58.13363,1.23804l47.61044,45.23497" fill="#1d7b35"></path><path d="M236,150l-31.14847,51.14988l-48.6432,37.63332l-62.21784,-19.61721l-27.173,-57.47545l21.74611,-54.70877l44.59556,-36.21172l57.52885,11.51374l31.40662,47.04342" fill="#cad076"></path><path d="M232,150l-17.64087,60.01586l-59.12739,14.80145l-50.5428,-18.86279l-42.82279,-43.5681l16.04848,-62.86113l54.20497,-33.64597l56.50826,19.83315l38.27308,42.23656" fill="#df7798"></path><path d="M218,150l-12.41712,51.83188l-50.07212,26.97568l-53.33911,-19.74447l-21.49042,-49.32098l-1.94746,-59.64327l54.63329,-28.35066l57.83598,9.67842l35.69789,46.5224" fill="#24f418"></path><path d="M220,150l-20.26795,46.37589l-44.70959,25.44872l-52.85082,-12.76152l-32.38336,-47.79007l21.23277,-52.57052l44.42513,-27.17283l49.06137,11.04012l40.47086,35.9305" fill="#97cf0f"></path><path d="M216,150l-15.53659,47.05789l-45.85948,18.78134l-44.88043,-16.10189l-37.95467,-38.74267l12.69901,-56.88079l48.69132,-33.34384l52.37847,20.08541l25.98312,41.50375" fill="#cd8952"></path><path d="M217,150l-17.9993,45.69389l-43.55969,32.11611l-47.60547,-25.74122l-30.1251,-41.90914l13.31062,-51.45714l42.76184,-34.99801l52.78482,15.43663l32.64314,41.01299" fill="#f7ac80"></path><path d="M223,150l-26.19336,43.6479l-42.41198,19.19864l-52.22301,-3.78344l-12.578,-50.57353l-1.03005,-51.50779l46.46676,-27.40839l48.44712,14.71075l33.81084,36.42126" fill="#fed14a"></path><path d="M221,150l-22.73066,45.01189l-43.24688,26.81272l-54.10946,-11.20723l-18.25124,-51.15361l3.44437,-54.20273l48.71631,-26.66581l50.20014,13.1174l39.95582,36.78766" fill="#808cad"></path><path d="M206,150l-5.53659,47.05789l-46.55704,8.8057l-46.07083,-3.79481l-24.18349,-42.74418l15.56053,-44.88634l39.14437,-19.21453l47.18068,-4.36828l22.13807,42.6063" fill="#33e0a4"></path><path d="M208,150l-17.77555,37.50991l-36.03907,22.34393l-42.57393,-12.44794l-23.99834,-38.638l18.15268,-39.74103l30.30413,-34.56276l46.89252,10.67718l32.40336,36.11537" fill="#e21c8a"></path><path d="M217,150l-28.96961,35.46391l-33.28695,32.37044l-38.09742,-26.64562l-29.03291,-32.42083l8.32285,-46.62395l40.54978,-25.72355l46.99173,7.86372l20.35318,40.28018" fill="#e20cf0"></path><path d="M206,150l-7.73066,45.01189l-43.73517,19.82977l-46.06932,-13.55003l-9.95879,-44.05463l1.52566,-42.22516l35.62237,-32.50402l42.15796,21.20515l25.05734,31.12698" fill="#d57273"></path><path d="M215,150l-21.85013,40.2379l-38.89472,20.6135l-41.38505,-14.9998l-13.37377,-38.75378l9.54607,-35.77665l28.4829,-30.01003l42.34691,8.97315l20.1134,35.38256" fill="#8d6ccf"></path><path d="M198,150l-8.5069,36.82791l-35.65649,18.03811l-43.48379,-5.90583l-11.84675,-41.72319l12.99379,-34.19509l28.93621,-18.0367l39.43615,-4.72091l28.76476,32.90182" fill="#24ae89"></path><path d="M211,150l-15.65607,42.2839l-41.29805,15.57482l-44.32238,-8.12137l-18.14931,-41.52613l6.00009,-44.9201l40.57476,-19.04552l34.51264,18.03905l20.5951,25.31168" fill="#96cac7"></path><path d="M207,150l-24.82044,30.00793l-27.85466,31.84104l-39.56684,-18.3288l-11.30066,-36.97904l-1.78737,-40.38215l38.35021,-13.11008l31.61136,10.95006l25.47022,22.4948" fill="#45862a"></path></g></svg>