<svg x="0" y="0" width="300" height="300" version="1.1" xmlns="http://www.w3.org/2000/svg" xmlns:xlink="http://www.w3.org/1999/xlink"><g fill="none" stroke="none" stroke-width="1" stroke-linecap="butt" stroke-linejoin="miter" stroke-miterlimit="10" stroke-dasharray="" stroke-dashoffset="0" font-family="sans-serif" font-weight="normal" font-size="12" text-anchor="start" mix-blend-mode="normal"><path d="M0,300l0,-300l300,0l0,300z" fill="#293449"></path><path d="M248,150l-22.52904,65.6059l-60.85778,38.37224l-70.711,-17.59508l-39.06709,-59.09497l11.78459,-66.16898l44.3336,-48.81948l65.36017,1.63294l64.42769,29.36607" fill="#71ed3e"></path><path d="M248,150l-25.54788,62.98167l-59.0915,32.08407l-61.83349,-20.42405l-39.00194,-49.55868l11.34496,-60.58293l40.33703,-44.89207l60.05968,1.01871l46.96919,34.86008" fill="#35402b"></path><path d="M227,150l-18.13265,51.1726l-47.03763,33.00018l-64.11506,-3.66041l-38.07325,-54.60246l7.88459,-64.36817l49.93508,-34.62537l57.39053,-8.20227l43.8403,38.36244" fill="#0d3992"></path><path d="M230,150l-14.34027,57.07714l-55.5001,15.21243l-51.00756,-9.38928l-41.82058,-39.19548l17.41435,-54.13333l34.34218,-39.00094l55.76358,-11.85645l50.62469,34.12309" fill="#04104a"></path><path d="M215,150l-12.92504,45.26807l-42.33284,24.05069l-53.31324,-2.22512l-18.91089,-49.17722l2.6657,-45.80923l32.56496,-33.31474l48.00975,-6.69009l33.51669,33.9828" fill="#0cd072"></path><path d="M214,150l-15.69859,41.98778l-38.42012,28.32126l-48.00602,-11.60209l-33.00863,-38.30978l19.47382,-44.48641l22.37451,-41.68603l50.04343,-2.12236l30.12449,36.10248" fill="#32a76d"></path><path d="M216,150l-22.98155,37.39536l-36.05979,12.11804l-38.00308,-1.70918l-30.47632,-30.16343l8.04859,-42.57527l31.91512,-23.48343l37.63749,-4.17885l38.19463,18.68193" fill="#f90b32"></path><path d="M205,150l-21.79278,28.8666l-25.5527,25.59815l-32.70792,-15.8859l-32.62231,-22.0406l5.10985,-41.0501l35.48291,-13.85705l31.70152,-9.44633l31.17601,19.1996" fill="#c08fb8"></path></g></svg>