<svg x="0" y="0" width="300" height="300" version="1.1" xmlns="http://www.w3.org/2000/svg" xmlns:xlink="http://www.w3.org/1999/xlink"><g fill="none" stroke="none" stroke-width="1" stroke-linecap="butt" stroke-linejoin="miter" stroke-miterlimit="10" stroke-dasharray="" stroke-dashoffset="0" font-family="sans-serif" font-weight="normal" font-size="12" text-anchor="start" mix-blend-mode="normal"><path d="M0,300l0,-300l300,0l0,300z" fill="#7963bf"></path><path d="M252,150l-2.22894,21.20699l0.71895,23.53404l-12.30715,19.32756l-19.2624,12.47532l-17.42045,12.6567l-19.05322,10.66032l-22.09847,-1.40327l-21.53286,7.95618l-19.40814,-12.25925l-19.90732,-6.68603l-23.10437,-5.72263l-8.10635,-22.37962l-2.33547,-21.94654l-10.83414,-17.25234l-3.11968,-20.16743l5.07598,-19.75161l-1.17116,-22.14226l19.66562,-12.18237l4.17085,-23.95396l18.25871,-12.03644l20.17125,-7.89218l22.42119,8.45185l20.38305,-14.91783l20.54424,7.41703l19.48027,8.67317l15.24393,14.76325l19.51187,11.2661l4.6852,22.03831l-1.42957,21.34696" fill="#620139"></path><path d="M253,150l-11.05413,19.5437l-14.29451,15.02892l-6.45787,17.15249l-7.62609,18.87366l-16.06741,11.67365l-20.61552,0.4695l-16.74522,13.72671l-19.23324,-9.94522l-21.49871,7.63119l-17.90732,-10.15013l-13.06002,-15.63514l-11.25151,-15.46865l-6.66693,-17.51458l-6.59853,-17.08986l-8.92301,-18.29623l10.87931,-17.88041l-8.1474,-23.2l17.02951,-13.58363l13.67856,-13.7053l9.56002,-21.69732l22.9524,0.66733l19.64004,-0.10766l18.91965,-0.99452l17.06337,8.71063l19.42454,2.11652l21.58219,4.61671l15.74656,14.51575l-2.0232,24.34232l14.55292,15.82422" fill="#a8b504"></path><path d="M238,150l1.01143,18.91996l-10.44652,16.05939l-4.13535,19.09689l-12.20042,15.03623l-19.22915,5.36572l-14.87945,12.06796l-19.02657,-0.02274l-17.56078,-5.96713l-20.27177,7.89198l-18.76142,-6.17584l-14.72915,-13.15994l-11.3914,-15.62401l-1.29018,-20.13605l-10.18811,-15.26409l3.09884,-18.08832l-15.81476,-20.79117l20.1634,-13.78145l4.03082,-18.91584l16.74444,-9.67885l7.3761,-22.5692l23.54257,5.84777l16.86345,-6.63466l19.12871,-8.9507l14.99564,18.43852l17.46962,3.42342l21.06741,3.0134l10.05314,17.1103l14.99336,14.035l2.35382,20.11767" fill="#abe85a"></path><path d="M228,150l1.22996,16.84085l7.55686,21.79913l-24.49251,6.61948l-10.77125,11.96269l-4.52306,24.18424l-21.35159,-2.4687l-16.76349,5.59667l-17.66531,-0.99452l-15.63195,-8.40637l-15.58766,-5.85143l-14.86871,-8.34416l-10.66167,-13.32727l-19.42935,-9.7841l9.64236,-21.81731l-0.68263,-16.0092l-6.1644,-17.46458l3.59949,-17.51477l17.07962,-9.69233l9.96223,-12.55047l8.52306,-17.25603l15.18847,-11.1169l19.34472,5.03881l17.2472,-2.98357l16.86802,4.60215l14.35159,9.65566l20.22175,2.399l3.69059,20.448l7.3442,14.70958l21.66748,11.97385" fill="#317bca"></path><path d="M224,150l-2.59523,15.17755l-3.80241,14.92096l-5.30806,15.16095l-4.74908,18.65099l-15.04523,9.7017l-20.55979,-6.08715l-14.2051,6.06961l-15.57474,0.99452l-16.57271,0.54432l-16.58766,-4.11938l-17.21436,-6.36048l-11.3611,-14.10407l3.80019,-21.26449l-20.30172,-10.98881l-1.92301,-18.29623l2.90116,-18.08832l12.92875,-14.04388l10.6848,-12.53948l10.63137,-11.80733l9.85393,-14.53508l13.49749,-13.62995l19.76741,11.04941l16.20191,-6.96165l18.41767,-2.18564l10.11552,18.65604l22.55262,-2.05401l7.59579,17.35371l-3.20023,20.31461l20.17251,10.59116" fill="#4d728f"></path><path d="M229,150l3.1644,17.46458l-11.8214,13.85414l-6.43066,15.11631l-17.0732,5.5851l-6.33914,18.12792l-17.94176,-0.72093l-13.67332,15.10724l-17.76984,0l-14.90939,-11.30301l-8.70569,-16.9397l-11.66262,-7.24409l-12.46857,-7.90259l-12.79827,-10.23298l-0.99717,-15.94234l-9.57337,-14.96964l14.46411,-13.93008l-9.37484,-19.42232l13.42544,-11.31927l6.61658,-16.2662l21.36871,2.91417l10.63274,-12.35448l15.23668,-2.22192l14.42493,7.95618l16.38192,-6.68532l12.82373,8.97541l13.51566,7.36111l14.39668,8.55768l11.91193,12.67589l-0.50691,17.74994" fill="#7558f5"></path><path d="M226,150l-11.44226,13.72217l5.78526,17.59655l-12.90279,10.41403l-15.95411,4.34223l-5.4861,16.27885l-13.44176,7.0733l-16.182,-8.76129l-14.63398,17.90139l-13.06442,-12.94433l-9.17783,-12.79535l-19.6848,2.90831l-4.82836,-15.76646l-0.71312,-15.15846l-19.59109,-8.80174l5.31737,-16.0092l4.46411,-13.93008l-5.72066,-17.79537l6.53519,-15.29736l11.19091,-12.42877l16.03045,-5.50032l17.72291,4.08429l12.35557,-9.74344l15.67927,-7.95618l13.99147,10.09116l16.25078,1.79211l4.32436,19.12269l6.52568,11.70637l23.7336,3.31597l0.27743,16.94555" fill="#10fb8f"></path><path d="M223,150l-13.333,12.68261l-3.94073,12.12832l-11.23034,7.51725l0.33582,17.46251l-9.33175,11.6971l-14.79586,2.23298l-14.53696,-5.04399l-13.5887,11.93426l-11.73753,-11.64555l-18.34095,5.9864l-2.64784,-20.36322l-20.52844,-0.5048l-6.01254,-14.39212l11.91255,-18.04872l-11.22373,-11.64305l-5.40477,-15.17755l15.6785,-9.63338l5.56722,-11.63175l1.31252,-17.80689l12.34653,-8.97028l19.50407,10.91175l9.888,-15.31938l13.69323,4.97261l15.0459,-3.91908l15.86881,1.62205l8.67001,13.67491l-0.05604,17.77323l18.74776,4.62546l-6.17287,16.4036" fill="#b8b551"></path><path d="M210,150l-2.28929,12.26679l-10.20634,8.88352l1.84567,14.70459l-8.53307,9.47693l-8.31697,10.95982l-10.86881,10.2823l-14.41873,2.04805l-12.43889,-18.89592l-11.46049,1.63096l-8.31308,-8.05578l-13.80958,-0.19887l-8.92243,-8.42307l-4.34009,-11.49534l-11.5075,-9.66973l5.57959,-13.51426l0.28929,-12.26679l8.37925,-9.69699l1.59945,-12.71555l2.90025,-15.11137l17.33175,2.15931l9.268,-8.48094l12.27388,-0.57541l13.17059,-11.93426l10.4015,14.41179l9.88603,6.57882l7.96392,8.24472l13.88611,3.53178l10.94396,9.01028l0.35115,13.95409" fill="#d4d3e2"></path><path d="M214,150l-4.333,12.68261l-11.24909,8.87443l4.1682,16.649l-12.43827,6.38265l-14.14784,0.44463l-7.14996,12.98113l-13.83267,-10.2774l-10.03473,0l-14.14169,11.22845l-9.34095,-9.60206l-14.32436,-1.80218l-4.90764,-12.88194l5.70891,-15.96944l-16.66576,-6.23518l9.68886,-12.4747l-2.84182,-11.01932l-2.05736,-12.97814l7.78521,-9.5063l9.98092,-6.62606l5.13305,-13.56375l14.93112,4.23864l9.69265,-11.2109l12.75247,0l9.38363,12.16195l13.24013,-1.72559l3.11827,14.55852l17.23177,-0.18395l0.89496,13.48439l11.3783,9.27208" fill="#a0a12f"></path></g></svg>