<svg x="0" y="0" width="300" height="300" version="1.1" xmlns="http://www.w3.org/2000/svg" xmlns:xlink="http://www.w3.org/1999/xlink"><g fill="none" stroke="none" stroke-width="1" stroke-linecap="butt" stroke-linejoin="miter" stroke-miterlimit="10" stroke-dasharray="" stroke-dashoffset="0" font-family="sans-serif" font-weight="normal" font-size="12" text-anchor="start" mix-blend-mode="normal"><path d="M0,300l0,-300l300,0l0,300z" fill="#487380"></path><path d="M256,150l-14.46291,42.68444l-26.61554,34.68604l-38.00437,23.0858l-43.41376,-6.89955l-44.30253,-6.72662l-20.60729,-39.83012l-25.18644,-37.67434l18.26173,-41.47556l21.15596,-35.02525l32.63111,-27.73381l43.60823,-8.69529l35.9358,25.66196l34.45775,22.30537l17.05341,38.61939" fill="#cfd840"></path><path d="M252,150l-23.15122,36.76779l-17.78395,36.00643l-39.58284,7.39762l-37.45761,10.43047l-37.94055,-13.60202l-26.62418,-30.50029l-6.12858,-38.91745l-8.24002,-42.12658l25.61249,-34.75243l40.90879,-8.69802l35.88307,-7.67826l43.50461,-2.66185l26.81944,33.84483l19.67652,37.29859" fill="#96b997"></path><path d="M230,150l-10.2143,32.54161l-19.64827,27.20986l-27.62018,24.28408l-37.1037,-1.3117l-30.15252,-18.82999l-24.54307,-23.89386l-17.38691,-32.41745l3.97599,-37.68032l21.17466,-31.42052l34.4987,-12.71743l33.99205,-5.45986l40.02754,-1.71081l31.6386,26.34305l3.10045,40.65054" fill="#c78bee"></path><path d="M230,150l-13.83953,30.85113l-16.02303,28.90033l-31.24364,10.76112l-31.22281,-0.59123l-28.96848,-10.9424l-25.38645,-20.47895l-16.9964,-31.17892l4.74617,-36.05077l22.36564,-27.83885l32.96915,-8.27025l30.65901,-15.85298l31.94038,13.14179l33.08538,17.07526l13.59289,35.36733" fill="#fa77d4"></path><path d="M225,150l-5.2143,32.54161l-29.29008,15.71919l-22.63711,18.38808l-31.40307,10.16612l-28.9001,-16.19775l-21.64122,-23.61725l-11.62492,-30.37616l4.29416,-32.61737l14.8481,-30.57501l31.25905,-12.96871l32.02048,-7.16974l24.28901,23.01342l32.07471,9.52819l3.89222,32.35731" fill="#a9ef3c"></path><path d="M219,150l-1.02692,31.69637l-31.33419,11.96816l-22.14503,10.42731l-24.21816,1.05739l-29.2789,0.5531l-25.08268,-18.70234l9.29517,-32.20643l-2.53054,-25.65679l15.60195,-20.85607l19.83001,-18.42103l27.64157,-5.60852l23.24772,15.51938l16.05336,18.68277l10.09587,21.82241" fill="#1ea5b1"></path><path d="M215,150l-12.43415,24.51186l-11.42744,24.51499l-28.71509,-2.6624l-21.10572,2.87595l-30.32079,6.46195l-14.69038,-24.70234l5.87623,-26.81652l-13.26267,-26.41478l25.72468,-13.12403l17.91231,-12.56898l22.23659,-6.86638l24.20643,4.56123l24.24488,12.94701l10.76762,25.99534" fill="#676ee7"></path><path d="M191,150l5.2217,21.55353l-10.22559,21.34496l-23.31397,4.43188l-20.8436,-1.0444l-19.3702,-6.96667l-21.83178,-10.8193l-7.41965,-23.53212l8.85877,-22.4109l6.20502,-24.27627l24.27627,-6.20502l22.06228,-4.874l16.38075,16.42525l17.50015,9.41497l14.67947,17.58109" fill="#f76a63"></path></g></svg>