<svg x="0" y="0" width="300" height="300" version="1.1" xmlns="http://www.w3.org/2000/svg" xmlns:xlink="http://www.w3.org/1999/xlink"><g fill="none" stroke="none" stroke-width="1" stroke-linecap="butt" stroke-linejoin="miter" stroke-miterlimit="10" stroke-dasharray="" stroke-dashoffset="0" font-family="sans-serif" font-weight="normal" font-size="12" text-anchor="start" mix-blend-mode="normal"><path d="M0,300l0,-300l300,0l0,300z" fill="#78ea58"></path><path d="M241,150l-22.41064,68.58936l-68.58936,26.41064l-77.78175,-17.21825l-28.21825,-77.78175l40.23907,-65.76093l65.76093,-25.23907l76.36753,14.63247" fill="#e8b60f"></path><path d="M246,150l-21.04668,74.95332l-74.95332,29.04668l-74.95332,-29.04668l-24.04668,-74.95332l33.23907,-65.76093l65.76093,-35.23907l73.53911,27.46089" fill="#839b53"></path><path d="M240,150l-28.48171,61.51829l-61.51829,42.48171l-63.63961,-40.36039l-31.36039,-63.63961l21.46089,-73.53911l73.53911,-20.46089l71.41778,22.58222" fill="#87c59a"></path><path d="M250,150l-26.46089,73.53911l-73.53911,27.46089l-65.05382,-35.94618l-19.94618,-65.05382l17.82486,-67.17514l67.17514,-21.82486l68.58936,20.41064" fill="#69cac9"></path><path d="M246,150l-35.18882,60.81118l-60.81118,37.18882l-64.34672,-33.65328l-32.65328,-64.34672l26.28932,-70.71068l70.71068,-29.28932l67.17514,32.82486" fill="#db3368"></path><path d="M239,150l-21.82486,67.17514l-67.17514,32.82486l-56.56854,-43.43146l-23.43146,-56.56854l18.48171,-61.51829l61.51829,-32.48171l60.81118,33.18882" fill="#d2d539"></path><path d="M238,150l-31.43146,56.56854l-56.56854,32.43146l-62.2254,-26.7746l-22.7746,-62.2254l17.82486,-67.17514l67.17514,-27.82486l67.88225,27.11775" fill="#5a4fb9"></path><path d="M243,150l-25.82486,67.17514l-67.17514,11.82486l-55.86144,-23.13856l-38.13856,-55.86144l39.55278,-54.44722l54.44722,-24.55278l61.51829,17.48171" fill="#fff92e"></path><path d="M244,150l-27.53196,66.46804l-66.46804,20.53196l-66.46804,-20.53196l-10.53196,-66.46804l24.6741,-52.3259l52.3259,-24.6741l62.9325,14.0675" fill="#65d282"></path><path d="M229,150l-27.3812,51.6188l-51.6188,29.3812l-60.10408,-20.89592l-28.89592,-60.10408l35.25988,-53.74012l53.74012,-31.25988l62.9325,22.0675" fill="#c225f4"></path><path d="M231,150l-18.7746,62.2254l-62.2254,7.7746l-53.74012,-16.25988l-18.25988,-53.74012l19.6741,-52.3259l52.3259,-23.6741l57.27565,18.72435" fill="#1e0fc2"></path><path d="M223,150l-17.84567,55.15433l-55.15433,30.84567l-51.6188,-34.3812l-21.3812,-51.6188l24.20963,-48.79037l48.79037,-24.20963l54.44722,18.55278" fill="#526696"></path><path d="M220,150l-12.72435,57.27565l-57.27565,15.72435l-47.37615,-25.62385l-31.62385,-47.37615l22.43146,-56.56854l56.56854,-22.43146l48.08326,30.91674" fill="#9913fd"></path><path d="M216,150l-7.31014,58.68986l-58.68986,23.31014l-50.20458,-31.79542l-33.79542,-50.20458l28.13856,-55.86144l55.86144,-26.13856l54.44722,27.55278" fill="#49317b"></path><path d="M232,150l-36.74517,45.25483l-45.25483,21.74517l-48.79037,-18.20963l-29.20963,-48.79037l24.25988,-53.74012l53.74012,-11.25988l50.20458,14.79542" fill="#f16dee"></path><path d="M228,150l-33.45227,44.54773l-44.54773,35.45227l-55.15433,-24.84567l-19.84567,-55.15433l21.96699,-53.03301l53.03301,-7.96699l55.15433,5.84567" fill="#20578c"></path><path d="M209,150l-13.03806,45.96194l-45.96194,12.03806l-45.25483,-12.74517l-13.74517,-45.25483l17.98781,-41.01219l41.01219,-21.98781l54.44722,8.55278" fill="#3eccba"></path><path d="M206,150l-2.25988,53.74012l-53.74012,8.25988l-39.59798,-22.40202l-20.40202,-39.59798l11.91674,-48.08326l48.08326,-24.91674l46.66905,26.33095" fill="#e8a85a"></path><path d="M218,150l-28.40202,39.59798l-39.59798,22.40202l-43.84062,-18.15938l-15.15938,-43.84062l15.86649,-43.13351l43.13351,-12.86649l50.91169,5.08831" fill="#f1bb22"></path><path d="M205,150l-14.69491,40.30509l-40.30509,25.69491l-43.84062,-22.15938l-25.15938,-43.84062l25.86649,-43.13351l43.13351,-24.86649l43.13351,24.86649" fill="#a36ae4"></path><path d="M205,150l-13.2807,41.7193l-41.7193,21.2807l-36.06245,-26.93755l-32.93755,-36.06245l20.20963,-48.79037l48.79037,-6.20963l45.25483,9.74517" fill="#0bfe17"></path><path d="M204,150l-8.03806,45.96194l-45.96194,11.03806l-46.66905,-10.33095l-17.33095,-46.66905l19.45227,-44.54773l44.54773,-10.45227l35.35534,19.64466" fill="#8a24af"></path><path d="M212,150l-18.15938,43.84062l-43.84062,22.15938l-33.94113,-32.05887l-13.05887,-33.94113l10.23045,-36.76955l36.76955,-13.23045l43.84062,6.15938" fill="#0241c0"></path><path d="M198,150l-12.64466,35.35534l-35.35534,10.64466l-33.23402,-12.76598l-16.76598,-33.23402l6.15938,-43.84062l43.84062,-3.15938l40.30509,6.69491" fill="#17262b"></path><path d="M196,150l-11.35177,34.64823l-34.64823,23.35177l-37.47666,-20.52334l-7.52334,-37.47666l13.18019,-31.81981l31.81981,-12.18019l33.23402,10.76598" fill="#aee52b"></path></g></svg>