<svg x="0" y="0" width="300" height="300" version="1.1" xmlns="http://www.w3.org/2000/svg" xmlns:xlink="http://www.w3.org/1999/xlink"><g fill="none" stroke="none" stroke-width="1" stroke-linecap="butt" stroke-linejoin="miter" stroke-miterlimit="10" stroke-dasharray="" stroke-dashoffset="0" font-family="sans-serif" font-weight="normal" font-size="12" text-anchor="start" mix-blend-mode="normal"><path d="M0,300l0,-300l300,0l0,300z" fill="#ac9c8f"></path><path d="M253,150l-9.97043,33.85999l-17.19117,29.77598l-22.3384,29.02874l-37.69802,-3.04721l-32.64586,5.90885l-35.15613,-5.45971l-25.37049,-25.14509l-9.08123,-33.4557l-19.54828,-31.46585l18.60859,-31.80787l6.1907,-36.32761l30.70071,-19.33308l31.91964,-17.90586l34.55599,14.77212l33.02437,5.73182l23.77422,23.80567l24.95381,25.49473" fill="#4cd8d3"></path><path d="M237,150l-2.42766,30.78181l-16.39438,26.42628l-20.17796,25.93034l-33.5872,-1.3994l-30.04113,6.89365l-26.87166,-15.02054l-21.84773,-19.618l-20.2246,-23.21235l-17.42766,-30.78181l11.78951,-32.83393l12.07396,-32.7304l35.63653,-8.04782l27.21896,-13.05092l32.29856,-9.84808l33.48248,9.04259l18.444,29.61768l25.96495,23.30685" fill="#ec72f6"></path><path d="M235,150l-9.82459,27.36161l-10.06163,27.27534l-19.11378,25.03739l-29.50342,13.8824l-30.73573,-12.8025l-23.76085,-14.93631l-27.11378,-11.18098l-13.8204,-25.90725l-5.06582,-28.72969l12.58336,-25.99353l10.13308,-25.42948l15.28356,-28.25133l30.02437,-10.92798l30.38843,8.86327l32.0872,1.19868l27.04027,18.83275l15.73053,29.2157" fill="#01a0d7"></path><path d="M234,150l-11.64367,26.33555l-17.20113,19.94516l-12.6552,27.33145l-30.34463,-4.67562l-26.22087,10.83289l-25.9345,-10.4874l-15.92124,-22.35854l-24.89232,-17.50976l6.81357,-29.41373l-6.81357,-29.41373l25.65837,-16.86698l10.6552,-30.79555l31.47639,3.21568l26.91547,-4.92404l25.10815,11.23464l23.81564,14.8414l14.23915,24.66293" fill="#a50822"></path><path d="M221,150l4.17541,27.36161l-17.72208,20.84746l-21.95333,13.27873l-21.95544,15.3272l-27.08912,0l-24.95544,-10.13105l-12.05893,-24.25997l-18.97832,-17.11449l0.53725,-25.30949l-5.23572,-27.01959l24.44283,-14.7616l15.79289,-17.10853l22.19192,-8.0772l24.83169,-6.89365l18.97639,18.43496l22.38916,9.78771l18.90687,18.96035" fill="#e0c0a3"></path><path d="M225,150l-14.85967,21.88929l-6.51722,23.10584l-24.62311,5.23434l-18.23381,10.82861l-20.49048,-5.90885l-22.2757,0.27639l-13.19662,-17.50116l-14.00401,-16.3772l0.20064,-21.54727l4.49783,-19.83717l2.41115,-23.87239l22.09102,-8.25197l19.06016,-10.08136l22.74791,-4.92404l16.19192,18.4695l22.55893,6.07344l4.88293,22.24479" fill="#180589"></path><path d="M209,150l-0.73906,21.20525l-9.2341,19.93316l-15.52684,16.8853l-24.81759,-8.78331l-17.71211,1.96962l-17.47029,-5.31066l-15.63244,-10.54603l-8.61096,-16.88423l-16.2566,-18.46909l11.55814,-20.17919l14.07546,-14.53134l12.3664,-15.51894l18.75476,-7.87418l20.66413,-0.98481l14.58111,15.78719l20.96267,4.73401l3.84104,20.44019" fill="#5f670a"></path><path d="M203,150l-3.19629,18.12707l-6.13918,18.51183l-17.16453,9.26045l-15.90746,14.17393l-19.4486,-9.84808l-14.64394,-9.522l-19.39849,-4.70709l-2.20676,-19.57914l-6.89475,-16.41697l8.77414,-15.73293l2.62551,-18.33482l14.10036,-11.8316l19.38042,5.52223l17.36482,-17.72654l19.25476,7.00816l16.46267,12.52824l-1.79711,22.49231" fill="#9dbc9e"></path></g></svg>