<svg x="0" y="0" width="300" height="300" version="1.1" xmlns="http://www.w3.org/2000/svg" xmlns:xlink="http://www.w3.org/1999/xlink"><g fill="none" stroke="none" stroke-width="1" stroke-linecap="butt" stroke-linejoin="miter" stroke-miterlimit="10" stroke-dasharray="" stroke-dashoffset="0" font-family="sans-serif" font-weight="normal" font-size="12" text-anchor="start" mix-blend-mode="normal"><path d="M0,300l0,-300l300,0l0,300z" fill="#a8e73a"></path><path d="M240,150l-0.73279,22.25681l-5.38719,22.34298l-8.07925,23.65152l-22.67745,10.50725l-21.65747,7.69315l-21.95376,4.04977l-23.56857,9.51558l-22.65496,-9.15306l-25.00601,-5.91723l-20.2493,-16.16851l-10.60903,-23.62605l2.58621,-26.02435l0.0444,-22.26883l-2.33595,-23.32023l3.08051,-25.03881l20.86334,-14.49255l12.69576,-23.0525l24.73982,-6.0606l24.34459,1.33463l24.96382,-10.6186l18.19959,22.17053l20.65022,8.93409l25.48461,8.64055l15.00823,21.12363l6.64026,25.11411" fill="#3f9146"></path><path d="M241,150l9.91076,25.15988l-7.31831,24.60411l-17.79167,18.48734l-26.5918,4.70398l-13.63888,24.77273l-24.69913,5.70224l-24.37075,-7.37427l-22.83705,-6.11917l-15.97605,-17.93432l-22.75947,-9.00933l-4.92031,-23.97815l-19.77839,-17.80804l13.82344,-24.20835l-7.29477,-23.73547l16.16612,-17.76318l14.4937,-15.93528l16.47959,-13.34491l17.3644,-14.66807l21.41415,-16.29597l22.95277,16.11153l27.07901,-7.28958l15.78049,21.06125l14.00915,18.22017l15.20337,17.59414l9.7956,21.85555" fill="#0369bb"></path><path d="M234,150l6.2375,22.49874l-15.18696,17.40635l-4.45179,23.66232l-20.2714,11.04597l-21.93969,3.38111l-18.562,15.49057l-23.32547,2.57094l-24.33548,-2.41043l-13.88984,-22.45207l-25.64539,-6.27195l-5.31856,-24.5914l-15.12571,-19.53898l5.8708,-24.00192l-1.29843,-23.52607l11.836,-20.26318l8.03373,-23.85515l26.73976,-3.77308l20.67547,-5.26051l19.26081,-15.8774l22.15131,8.11826l18.30445,11.82362l22.26605,4.11529l23.56389,9.52717l8.11128,23.13509l2.90195,23.07109" fill="#46ba51"></path><path d="M238,150l-4.55457,20.80528l-10.16078,18.16086l-5.65847,21.92475l-20.65398,8.74827l-18.24251,9.29502l-18.79949,15.5454l-21.48157,-12.28733l-23.28705,4.03585l-12.18441,-21.50674l-17.32491,-10.7272l-15.64494,-14.97913l2.71901,-22.59001l-3.677,-19.25188l-11.33047,-23.63433l21.26704,-14.53881l3.39614,-24.29789l25.2244,-2.54596l15.50906,-14.89807l20.74591,-5.04372l22.28785,-3.80148l19.23681,12.10867l15.09815,14.86157l14.92065,13.51698l24.12256,11.23971l3.04447,23.53726" fill="#add80b"></path><path d="M229,150l10.26721,22.25681l-7.15308,21.40404l-21.9194,10.53872l-12.10414,17.09765l-21.071,2.93849l-17.5075,16.26578l-20.92428,-9.29951l-18.93094,-6.10009l-14.91633,-12.80758l-25.98267,-2.51506l-6.95295,-21.64096l-4.94746,-20.4658l6.18945,-20.35975l-13.40551,-23.22265l9.81824,-20.59009l18.67714,-13.24062l12.58073,-19.12785l23.63408,-0.06922l19.0913,-14.83333l21.83815,7.10794l18.4781,10.83881l13.03113,15.93546l13.88656,12.48288l19.71517,11.61311l-0.62257,21.72732" fill="#1b1dfe"></path><path d="M235,150l-11.25752,18.38606l-6.63846,17.29377l-8.39558,17.18148l-19.56494,5.17131l-8.70371,25.60001l-21.55487,0.90172l-18.62704,-15.2156l-19.8518,3.92876l-23.30675,-0.436l-9.91497,-20.10295l-14.48064,-15.00867l-6.82441,-19.81951l13.16394,-20.35827l-4.02166,-19.02185l5.69638,-18.50029l6.69947,-20.43528l23.89846,-1.47223l17.05292,-4.66645l15.63213,-19.21655l19.54361,8.9755l22.655,-4.49054l13.66902,17.47667l11.59626,15.80728l9.79171,16.29614l7.52807,17.8336" fill="#348388"></path><path d="M219,150l3.77218,18.14414l-8.31701,16.12728l-9.46246,15.24424l-15.29002,9.346l-12.34108,16.31374l-18.99933,4.38634l-19.07861,-3.31111l-18.50299,-3.9303l-16.04015,-10.02603l-12.95991,-13.44245l-6.49379,-17.28914l-6.6916,-16.38517l4.44559,-17.51582l-9.94175,-19.71272l4.1548,-19.94901l10.88291,-17.74062l21.05944,-5.55908l20.09964,1.57892l15.89094,-5.11113l19.05235,-11.92232l15.04589,14.97896l18.73656,4.31043l7.92717,17.75287l16.22133,11.57977l-3.23355,19.97682" fill="#0f8c89"></path><path d="M213,150l5.891,17.17645l3.51071,21.32021l-23.35414,5.66595l-3.19374,23.81846l-20.54433,1.55617l-18.41061,-3.89881l-17.89355,12.59273l-12.60554,-19.81859l-15.7814,-4.20844l-18.07172,-5.99507l-8.15863,-16.20798l-13.61799,-15.16025l11.27138,-19.21401l-4.13605,-18.29964l1.94657,-19.8272l16.91691,-10.90472l10.8376,-16.43913l21.07137,2.22095l16.71825,-0.21633l16.06471,0.84192l20.26468,-6.25923l13.21783,13.73176l8.64144,15.6598l12.19054,12.57994l-0.77796,17.82426" fill="#dc392c"></path><path d="M226,150l-8.0793,16.93453l-14.0609,11.70323l0.38977,20.20877l-12.3101,13.33128l-19.02412,0.78159l-15.49383,7.65165l-17.58116,1.67851l-14.93901,-10.16825l-17.80968,-3.06308l-14.54501,-10.84917l-9.95622,-15.33123l8.7207,-20.40313l-5.27216,-14.70827l1.479,-15.68286l12.25254,-11.08357l2.03371,-17.54211l10.04158,-14.51735l17.45005,-2.66132l15.89094,-5.11113l16.10033,4.81942l20.03159,-6.3305l8.08361,19.91031l22.0625,2.41109l-6.65211,23.6174l7.23016,13.46436" fill="#297de4"></path><path d="M222,150l-1.16841,17.6603l-20.50358,9.09958l-3.50989,15.39535l-7.11543,16.70644l-19.18149,-2.48011l-13.72686,8.26237l-16.67564,5.66511l-15.59196,-7.26053l-6.26716,-19.36158l-24.94689,3.87937l0.96206,-20.38727l-15.67954,-12.00146l12.44072,-17.23662l-9.28552,-17.51118l7.6278,-15.42975l19.61941,-4.59553l12.38673,-6.19907l6.98445,-20.77936l16.74824,-3.25553l15.82279,7.7866l11.02394,12.71143l14.36025,2.83882l15.68468,5.85898l2.80402,16.22946l6.24535,13.63801" fill="#f1f013"></path><path d="M217,150l-2.96048,15.96685l-17.2433,8.91515l-7.40955,10.58193l-10.86784,6.81699l-7.65561,15.04033l-13.96435,8.3172l-14.5534,-11.1737l-12.19963,-5.324l-14.2374,-2.21776l-9.57299,-10.28409l-13.85829,-8.58314l-7.03492,-14.33358l8.59186,-15.67654l7.9028,-11.8275l2.16374,-12.71813l1.30028,-16.56882l12.27399,-8.66211l15.02012,-1.52823l13.25908,-4.59955l16.20125,-11.07783l8.5882,22.34572l13.11781,3.25023l9.47921,9.47921l5.99086,11.8976l-0.09107,13.28137" fill="#211c95"></path><path d="M207,150l-10.42581,11.61225l5.51971,16.08657l-5.27578,14.45641l-20.53606,-3.19046l-9.8651,6.14048l-10.24979,13.57155l-12.84749,-11.14392l-11.67541,-2.10086l-15.73582,1.49098l-4.21068,-14.78361l-3.0423,-11.97431l-12.45359,-8.72993l-11.16229,-13.70361l3.43966,-15.37232l6.09512,-14.35921l12.98458,-8.98484l17.53484,1.12658l7.91027,-12.44985l13.15933,-2.55791l14.77644,-7.17687l12.24415,9.9708l13.7557,4.79145l8.76494,11.57228l6.36747,12.52438l1.10753,13.80699" fill="#b746f8"></path><path d="M199,150l3.39597,13.06378l2.34678,16.04345l-20.55809,1.67277l-7.9026,8.18476l-11.91722,0.50232l-7.98861,21.19875l-12.36068,-18.08431l-10.87285,-0.85825l-9.00525,-6.12653l-17.80198,1.04215l-3.97155,-13.40522l-1.2713,-12.83809l-2.06155,-12.17546l1.94459,-12.27763l-4.66923,-16.94249l19.16526,-2.3436l9.09219,-7.36271l10.29429,-5.89546l12.1423,3.70652l12.37653,-10.28436l15.0272,-1.63311l5.76321,16.2002l4.50506,11.52342l17.39962,3.90512l0.12272,13.98064" fill="#8937b6"></path></g></svg>