<svg x="0" y="0" width="300" height="300" version="1.1" xmlns="http://www.w3.org/2000/svg" xmlns:xlink="http://www.w3.org/1999/xlink"><g fill="none" stroke="none" stroke-width="1" stroke-linecap="butt" stroke-linejoin="miter" stroke-miterlimit="10" stroke-dasharray="" stroke-dashoffset="0" font-family="sans-serif" font-weight="normal" font-size="12" text-anchor="start" mix-blend-mode="normal"><path d="M0,300l0,-300l300,0l0,300z" fill="#3408bb"></path><path d="M260,150l-41.66272,65.99255l-65.05673,27.95019l-76.88492,-12.19681l-26.15204,-74.77028l20.08778,-73.82556l68.48408,-39.56393l78.29165,20.52067l27.95863,72.53255" fill="#f1b0e4"></path><path d="M234,150l-17.1014,64.60323l-64.00194,18.34621l-64.45667,-14.58011l-30.21588,-61.95173l27.42816,-60.41175l54.20847,-42.47446l61.23916,31.06373l34.06315,53.43601" fill="#d43b53"></path><path d="M236,150l-21.97876,61.82459l-61.29908,16.12789l-61.60565,-12.55574l-22.91676,-59.67671l25.87901,-52.64353l48.60425,-22.69304l56.56991,6.57567l26.00746,52.4637" fill="#7ccca4"></path><path d="M223,150l-23.36555,47.93143l-47.54048,12.03202l-42.91094,-14.63162l-25.02226,-40.72791l14.51425,-47.6707l43.90346,-27.54428l54.21179,10.72224l19.55769,50.56422" fill="#9fa236"></path><path d="M215,150l-24.71697,38.90087l-38.32866,17.06502l-42.77134,-10.63405l-26.01982,-40.65815l19.34204,-44.52652l40.28229,-28.76918l45.38348,19.76534l19.26454,40.78463" fill="#860547"></path></g></svg>