<svg x="0" y="0" width="300" height="300" version="1.1" xmlns="http://www.w3.org/2000/svg" xmlns:xlink="http://www.w3.org/1999/xlink"><g fill="none" stroke="none" stroke-width="1" stroke-linecap="butt" stroke-linejoin="miter" stroke-miterlimit="10" stroke-dasharray="" stroke-dashoffset="0" font-family="sans-serif" font-weight="normal" font-size="12" text-anchor="start" mix-blend-mode="normal"><path d="M0,300l0,-300l300,0l0,300z" fill="#be200a"></path><path d="M258,150l-29.19892,61.56615l-52.91543,42.2555l-65.3391,-15.20773l-50.6072,-40.72781l-7.43531,-65.07727l25.22986,-63.06847l64.87192,-25.48215l64.99106,20.35092l41.31301,53.2531" fill="#a8bbee"></path><path d="M254,150l-33.86704,54.79387l-47.3923,36.41393l-65.04127,3.80093l-45.99415,-48.06157l-3.29236,-63.09644l34.04189,-47.76117l51.05788,-28.863l59.05148,14.84392l33.03095,50.118" fill="#c43d27"></path><path d="M250,150l-33.01909,52.33123l-46.65947,29.17362l-54.48732,-4.76702l-50.59709,-31.66855l-10.76338,-61.91314l28.61329,-57.47061l59.93741,-25.44192l55.06624,28.45917l31.79816,45.3398" fill="#f15b9c"></path><path d="M228,150l-6.29102,56.02519l-52.83907,19.65787l-57.50989,11.10375l-33.76172,-48.29015l-7.36773,-52.56217l19.54767,-52.81753l54.78075,-10.92696l53.53159,6.51276l45.11295,41.01357" fill="#1fb05f"></path><path d="M227,150l-2.92699,57.87218l-54.96118,18.78118l-51.24402,-4.48327l-47.33309,-29.91765l-9.16741,-57.88078l27.74181,-51.99784l54.96158,-17.16677l51.78312,16.81186l27.37753,44.18677" fill="#78e204"></path><path d="M229,150l-15.17113,49.86858l-44.2332,28.72537l-52.1346,-5.51032l-29.2674,-40.22063l-23.87194,-47.9704l31.4787,-45.08734l49.10736,-12.62744l48.70927,8.15725l41.02698,37.16242" fill="#2b5856"></path><path d="M231,150l-28.20328,41.24932l-35.62027,27.64168l-46.46149,-3.11572l-37.81898,-30.09543l-15.61983,-50.26629l28.52427,-45.60828l49.17711,-11.62988l46.96193,9.64679l22.73238,41.16466" fill="#fb1999"></path><path d="M216,150l-13.20328,41.24932l-34.65258,31.52286l-50.68307,0.31146l-22.20382,-43.9764l-26.01148,-43.34639l33.91509,-37.78099l41.11911,-29.78011l50.45546,15.47725l17.08324,46.2369" fill="#08db70"></path><path d="M228,150l-22.05124,43.71196l-40.94961,16.44637l-44.2842,5.61694l-32.52129,-32.91226l-3.19098,-44.32379l15.48165,-43.53194l45.05125,-8.85138l37.4568,14.93088l31.67946,27.90006" fill="#6381ec"></path><path d="M224,150l-31.44742,33.24572l-25.37613,35.64528l-42.39413,-12.25118l-26.87624,-28.941l-19.79706,-40.37514l25.72095,-38.60068l42.33341,-3.58903l37.94737,4.29473l23.90368,31.72126" fill="#645bad"></path><path d="M203,150l-8.08339,35.0927l-32.5786,14.39238l-33.08159,-2.89426l-39.29687,-14.66675l-2.98726,-43.03755l24.88725,-31.24577l33.67603,-21.48484l39.69357,11.61473l13.27473,36.4695" fill="#6f7a09"></path><path d="M201,150l-4.50737,36.32403l-32.94501,18.01253l-35.91814,-4.09156l-27.9575,-23.48512l-11.71488,-37.69971l28.58636,-26.21741l30.03846,-11.7234l35.29206,1.6255l20.43411,30.25921" fill="#2ce245"></path><path d="M208,150l-24.11554,26.47344l-18.8853,33.68489l-37.77641,-8.99979l-29.31666,-23.45972l2.85352,-36.38123l11.76907,-32.9337l33.84398,-10.25722l31.02779,11.25049l29.66294,22.08182" fill="#2e1814"></path></g></svg>