<svg x="0" y="0" width="300" height="300" version="1.1" xmlns="http://www.w3.org/2000/svg" xmlns:xlink="http://www.w3.org/1999/xlink"><g fill="none" stroke="none" stroke-width="1" stroke-linecap="butt" stroke-linejoin="miter" stroke-miterlimit="10" stroke-dasharray="" stroke-dashoffset="0" font-family="sans-serif" font-weight="normal" font-size="12" text-anchor="start" mix-blend-mode="normal"><path d="M0,300l0,-300l300,0l0,300z" fill="#f16d18"></path><path d="M242,150l3.16232,44.37492l-36.66865,25.33513l-31.83531,29.78032l-44.54412,1.94484l-41.19261,-17.06254l-24.06007,-36.37266l-22.4582,-38.76149l14.44645,-42.41446l14.78265,-43.19158l39.08734,-26.05896l45.21137,11.77278l45.56883,-2.011l22.68114,39.32211l32.14771,34.24131" fill="#561946"></path><path d="M236,150l1.91186,40.99397l-26.20424,32.5463l-38.93153,11.46121l-38.05712,1.66161l-34.04653,-16.21601l-37.27497,-20.44708l-10.02835,-41.54589l3.60132,-42.3141l29.38996,-29.77962l31.48972,-24.6915l40.77831,-10.29217l34.87158,23.27906l30.22368,23.72233l18.84824,35.29895" fill="#c4ba24"></path><path d="M245,150l-7.99445,40.57135l-24.65515,33.73496l-40.6096,6.83146l-36.1536,0.60127l-34.3412,-12.11112l-24.85816,-27.12792l-13.05678,-34.91745l3.0363,-38.02234l17.16461,-36.02824l33.6341,-23.74245l41.20089,-5.4242l40.63305,10.7642l27.18114,31.52788l17.3756,36.84603" fill="#81abfb"></path><path d="M229,150l-3.77645,35.07732l-16.08709,35.39877l-36.87802,12.59353l-37.88677,5.56308l-33.69924,-18.18562l-23.41856,-28.44708l-4.95705,-35.20185l-8.74853,-38.264l30.59029,-24.39558l23.36952,-33.40936l40.07446,2.60186l33.41745,15.65486l33.54284,18.81863l19.99871,35.52523" fill="#e8bf0e"></path><path d="M239,150l-11.05753,36.34517l-23.30552,28.76861l-32.63733,16.98992l-35.71782,-4.30388l-35.60937,-7.35274l-30.34676,-24.44708l-8.98699,-38.24314l13.48592,-35.11847l12.95001,-34.86379l32.46964,-19.52786l37.3383,-4.91568l35.91745,11.32473l25.30877,27.16379l7.02143,34.80951" fill="#6f629a"></path><path d="M221,150l6.03616,35.92255l-28.1843,22.29683l-27.36988,21.95247l-35.20019,-2.37203l-37.3301,-4.89528l-19.09975,-32.40453l-8.55132,-33.6147l10.10182,-31.85277l7.07927,-36.55082l37.23486,-5.19989l30.38433,-3.01545l38.8991,-8.20866l27.90453,26.89398l11.78893,36.11456" fill="#fb6b8b"></path><path d="M223,150l1.31724,34.6547l-30.60768,17.43632l-25.33341,16.48971l-30.18423,-1.61381l-28.34227,-9.62628l-34.32783,-14.34064l0.75978,-36.55048l-5.21577,-35.17922l30.85092,-19.35357l18.66953,-32.7303l35.86326,7.09516l30.55048,9.63253l17.06403,26.22984l22.75097,24.31149" fill="#aeb5ad"></path><path d="M225,150l-7.93322,31.27375l-16.92934,28.47772l-30.46719,13.6589l-32.34656,-1.5194l-30.34192,-10.45456l-27.12982,-20.9364l0.41443,-34.3991l7.71392,-28.67423l11.10802,-28.33836l29.0224,-9.22864l27.64157,-5.60852l31.24772,1.66297l25.25556,20.49407l18.49868,29.35266" fill="#05e50c"></path><path d="M215,150l-7.90261,26.62495l-17.24456,20.8698l-24.58251,9.49487l-28.29394,16.87096l-27.70031,-15.70079l-14.7017,-26.1598l-4.34606,-26.77066l-6.0068,-29.17075l15.5739,-26.26317l23.86903,-22.15175l31.73921,10.59226l27.59634,4.60639l16.96827,22.16951l8.13538,24.74292" fill="#afc3f0"></path><path d="M214,150l0.34785,30.0059l-25.7806,15.95677l-19.67347,24.54992l-29.31268,-11.42412l-28.58431,-3.38613l-11.22628,-26.70234l-14.52318,-23.33488l6.49171,-26.87037l20.07718,-16.97852l13.55832,-29.4741l30.72635,-2.07576l21.8991,21.23621l21.14912,14.08284l6.98492,24.51664" fill="#2dfa30"></path><path d="M202,150l-5.7783,21.55353l-3.79771,29.0054l-24.56547,16.08995l-26.88822,-15.43888l-22.517,-6.15664l-15.21867,-18.05336l-11.01392,-21.94497l-1.42134,-26.6023l9.70316,-27.95021l32.05445,1.57315l23.19531,-17.82453l23.24772,15.51938l15.23421,19.25635l22.73272,19.16505" fill="#9abc0f"></path><path d="M215,150l-15.15307,23.244l-13.85082,19.65448l-18.91405,20.85262l-25.59082,-15.49552l-20.17006,-7.29798l-25.88078,-9.4576l1.76128,-26.88075l-1.70385,-24.45642l11.36866,-23.29635l25.69049,-4.79081l22.75953,-12.84355l24.6835,8.80635l22.42573,15.25263l12.57158,25.24811" fill="#5ed3da"></path><path d="M195,150l-1.49723,20.28568l-13.29176,15.71841l-18.04652,9.39443l-19.80501,-2.06697l-18.17042,-6.4697l-12.29418,-14.86184l-8.71603,-17.90368l-8.62071,-24.27551l21.50074,-13.76194l17.18214,-12.10381l20.76815,0.21998l17.49084,8.58586l18.63845,9.13385l3.19309,20.46473" fill="#4518a1"></path></g></svg>