<svg x="0" y="0" width="300" height="300" version="1.1" xmlns="http://www.w3.org/2000/svg" xmlns:xlink="http://www.w3.org/1999/xlink"><g fill="none" stroke="none" stroke-width="1" stroke-linecap="butt" stroke-linejoin="miter" stroke-miterlimit="10" stroke-dasharray="" stroke-dashoffset="0" font-family="sans-serif" font-weight="normal" font-size="12" text-anchor="start" mix-blend-mode="normal"><path d="M0,300l0,-300l300,0l0,300z" fill="#a54bd1"></path><path d="M254,150l-4.53442,17.53847l-14.89325,13.24335l-3.16595,16.21819l-0.20568,21.13549l-15.63637,10.00105l-13.56434,11.93011l-14.37778,13.29955l-21.64658,-12.76388l-15.97563,0.39769l-19.1013,17.32885l-12.70657,-20.93744l-23.19213,7.87138l-14.42106,-12.52999l-4.88525,-20.3824l-15.76033,-10.3504l-0.14385,-19.16607l-12.20951,-14.77452l6.42001,-18.05941l-6.42001,-18.05941l11.26982,-15.11654l10.60982,-13.32405l3.93592,-17.77876l11.04011,-13.85777l13.06434,-12.79613l19.66607,0.72218l16.33736,-3.34624l16.49658,-3.44326l15.80198,7.38249l16.00589,2.22609l20.19213,-2.67523l18.06385,6.5678l5.00851,20.50566l13.26224,11.99319l-1.88287,19.53415l15.96829,13.40644" fill="#e9b1bc"></path><path d="M252,150l-0.5648,17.88576l-3.70717,17.68433l-16.32164,11.42991l-1.73777,19.84991l-18.6038,5.92431l-14.06482,8.63217l-13.82405,9.7438l-15.46384,9.30021l-17.71211,2.54961l-16.32293,-10.42807l-15.82696,-4.24082l-20.35011,2.60156l-12.42155,-13.56218l-9.38476,-15.02009l-1.90392,-18.3504l-23.39718,-7.74586l-3.7974,-18.02108l7.40481,-18.23306l11.30653,-14.93374l2.94021,-14.82201l-6.58133,-21.24425l18.62455,-7.49367l2.86013,-21.17495l20.84991,-0.00572l14.87617,-5.83769l16.19009,0.81856l14.93374,-15.30653l17.53847,0.53442l16.66355,5.49632l12.79799,12.56287l8.92252,14.76052l22.21401,1.08153l3.26985,18.56434l9.7438,13.82405l-4.4871,17.89491" fill="#e290ef"></path><path d="M248,150l-4.44326,16.49658l-1.46686,17.0214l-17.61169,9.48203l-10.13045,10.99416l-7.78242,13.41775l-6.56531,19.19063l-17.85011,1.72857l-17.73709,-6.59206l-14.4128,4.26096l-14.23915,-5.24576l-18.9368,10.39595l-16.82405,-4.54764l-3.35137,-23.02085l-19.42285,-2.51687l1.76014,-20.06482l-9.79948,-11.58627l-9.78875,-13.4381l-1.39769,-15.97563l-7.46558,-17.53847l16.77263,-12.55931l0.42054,-17.40223l9.49819,-13.56482l19.42285,-2.51687l2.35137,-24.7529l17.48203,-3.75529l15.80586,-8.36051l17.71211,16.45039l16.32293,-8.57193l15.48494,5.18052l18.19213,0.78887l12.99319,11.53018l2.12059,20.43541l20.62274,5.13695l3.53428,17.00809l1.33151,16.51628" fill="#959407"></path><path d="M242,150l-9.27615,14.58645l1.84848,16.19537l-8.3621,13.21819l-4.9681,15.77925l-17.24797,4.56849l-6.99416,17.05865l-16.90223,1.28656l-15.85862,-1.93871l-14.23915,5.24576l-15.45469,1.64789l-13.61702,-7.77402l-14.92829,-3.66364l-11.92252,-9.56437l-13.02148,-8.79498l-11.59636,-11.35088l3.48557,-18.45435l0.23979,-14.50109l-8.185,-13.54456l6.21538,-13.89185l-3.90833,-16.20592l8.21477,-12.90223l13.19463,-8.42301l7.93218,-12.15868l9.85137,-11.76252l13.40223,-7.34874l14.64308,-4.95494l15.45469,1.64789l17.01752,-10.51116l16.15843,5.36098l5.82405,23.6002l14.99416,3.20225l10.35357,10.35357l14.46058,8.49416l4.82433,15.06021l3.03044,15.15875" fill="#66617f"></path><path d="M225,150l2.79981,13.71821l2.07406,15.35351l-0.19954,16.92829l-9.19825,13.13646l-18.41029,2.91314l-8.0658,14.16064l-15.95435,0.84456l-14.67474,-1.2246l-13.37091,4.1698l-15.62834,8.6327l-10.70722,-16.27637l-18.66445,5.58595l-15.42204,-5.93411l-0.86152,-20.58517l-9.73053,-10.42301l-13.55825,-10.21819l11.69656,-17.93185l-16.12423,-12.84997l8.24576,-14.23915l10.27729,-11.41236l1.19491,-14.34849l11.8287,-8.20907l9.88705,-8.47822l2.56628,-21.255l15.58627,-2.87128l15.52188,2.02895l13.89185,3.78462l13.02361,1.13942l12.6279,3.38363l12.34849,4.65902l22.42204,-6.19025l7.75592,14.80008l-1.494,18.7081l4.73268,12.50647l17.21606,10.36519" fill="#8db9d8"></path><path d="M222,150l-2.07865,12.32902l11.83191,17.42673l-9.00712,12.24425l-17.59093,4.28071l-5.66055,12.70471l-13.99465,2.50238l-8.13839,13.68761l-13.64341,2.6244l-13.71821,-3.79981l-12.84997,-1.12423l-17.24781,9.81718l-11.90223,-9.94682l-13.27973,-6.86631l-5.23778,-15.0996l-10.49657,-9.78022l-6.9804,-12.61233l-3.74456,-13.97487l-4.26096,-14.4128l14.10903,-12.67632l-10.80198,-17.42146l16.87502,-7.90223l0.70415,-16.63695l10.47683,-10.47683l13.63695,-5.90031l10.56021,-12.61856l18.11077,13.71129l12.32902,-16.07865l13.37091,10.1698l17.06888,-7.80245l9.06021,15.21664l18.35088,-0.52799l-2.69568,22.66329l9.79671,8.78071l19.62043,6.71819l-13.66618,18.27914" fill="#12f7ec"></path><path d="M221,150l9.75424,14.23915l0.05933,15.17458l-8.93346,12.08627l-14.42678,6.70907l-11.17263,6.94613l-13.28071,2.00248l-7.00647,14.25896l-11.75438,9.3376l-14.23915,-10.75424l-14.0655,9.76943l-12.27005,-7.4131l-12.66445,-4.80635l-5.35235,-14.69291l-16.93121,-1.43406l2.39383,-17.42301l-14.4063,-7.32243l2.38987,-14.1749l-3.09384,-12.50267l9.00269,-11.46078l-8.29871,-15.21679l7.47809,-11.32243l-0.06189,-17.27973l18.31354,-1.40755l9.56628,-9.13064l13.03253,-2.77963l12.29115,-3.2934l12.67632,-7.10903l13.89185,0.21538l10.04956,13.00614l12.05859,3.42465l11.56628,5.66654l10.65309,7.83543l4.13445,12.85186l14.70097,7.95435l1.72983,14.1538" fill="#a3b917"></path><path d="M218,150l-6.94192,10.76619l8.47917,14.5433l-4.58535,12.19051l-2.13626,15.20858l-22.32002,-4.44778l-4.99562,13.227l-13.95273,-2.28717l-8.52366,14.65995l-13.02361,-11.86058l-11.46078,2.99731l-10.42851,-4.85698l-10.11071,-4.7147l-11.06677,-4.10065l-5.19403,-10.82936l-9.7629,-6.99562l-8.69447,-9.21657l-7.14241,-11.25982l-0.13942,-13.02361l-4.78462,-13.89185l11.12675,-10.7336l13.09827,-6.87455l4.76671,-10.28119l-0.34454,-17.97027l15.63743,-0.00429l6.45435,-17.29904l14.84839,2.20941l13.19726,4.84539l13.37091,-5.8302l8.17636,16.62956l13.45273,-1.42114l4.85283,13.12702l7.64192,7.64192l12.261,5.35283l14.47996,7.48041l-12.19283,16.07976" fill="#14cca3"></path><path d="M224,150l-0.13942,13.02361l-9.02179,10.57578l-7.68111,9.40061l2.59379,17.13743l-19.25585,-1.87663l-7.99562,8.03085l-7.19051,13.2456l-14.36966,-7.49437l-10.93984,-2.04289l-12.32902,9.92135l-13.66451,1.49529l-12.00647,-5.59871l-8.28071,-10.66273l-9.64054,-8.2317l-7.29861,-10.4235l-7.25709,-10.84849l11.38848,-15.23262l-0.91153,-10.41889l-13.86058,-13.02361l0.56456,-13.65396l14.4063,-7.32243l-0.09569,-15.49465l12.06193,-6.4266l7.9235,-11.62874l17.45273,8.34935l9.3919,-9.73591l12.15537,6.93654l11.63443,-3.98212l14.70112,-6.37421l5.66445,16.93071l7.85283,7.93087l12.23819,3.7852l1.60255,12.70956l8.32614,8.42667l10.85606,9.72336" fill="#03a551"></path><path d="M221,150l-17.82038,9.377l6.96071,12.51229l-7.31278,8.61071l0.79556,14.49513l-9.27077,7.86193l-13.85235,-0.02952l-7.24263,11.07155l-13.70672,-9.73467l-9.55065,19.83557l-10.41889,-14.91153l-8.0502,-8.34506l-13.03091,3.8162l-4.49611,-11.66111l-18.39305,2.73943l-9.69672,-8.63792l-3.57199,-12.37455l14.47825,-15.24845l-3.82038,-9.377l-5.04289,-10.93984l-0.91652,-11.97551l4.9357,-10.58465l6.69872,-9.56677l6.97263,-9.7903l13.85235,0.02952l8.26869,-8.25247l10.94418,-2.93248l11.28713,-3.9875l10.24524,9.89634l12.32809,-3.91606l5.92667,12.65626l6.21053,7.99705l20.44467,-4.91431l2.8685,12.78071l1.17693,11.95273l9.73591,9.3919" fill="#b1e2cc"></path><path d="M204,150l12.96693,11.80808l-13.40445,7.68707l1.86315,12.50485l-5.63274,9.78119l-9.94006,5.71356l-9.85283,4.46677l-11.53091,-1.21812l-9.78668,-1.50301l-8.68241,20.75961l-9.02971,-18.79l-9.43938,-0.4666l-12.03091,2.08415l-4.85332,-10.69511l-18.26979,2.86269l4.25966,-16.49513l1.43912,-11.05697l-3.28568,-8.41332l-5.79,-9.02971l-11.93654,-12.15537l17.25345,-6.65574l3.18567,-9.18889l5.59893,-7.99611l1.76008,-13.03074l8.63841,-7.26481l10.26869,-4.78837l11.11783,-1.94768l11.11348,-4.9723l8.85606,17.7748l9.95505,-1.4579l13.68889,-4.60856l2.85332,14.15921l15.20561,-0.29154l-3.79356,15.42398l4.91772,8.18889l10.35979,7.87127" fill="#a5e34c"></path><path d="M204,150l-4.75961,8.68241l0.56332,9.44466l5.62192,13.87293l-20.18758,-2.43177l-5.66981,5.66981l1.93177,19.32156l-12.00485,-0.99712l-11.16004,-6.29171l-8.33511,9.72923l-10.59254,3.07327l-5.82443,-14.96803l-16.08303,11.18641l-3.49611,-13.39316l-6.90238,-6.90238l-3.86688,-8.99611l-7.7368,-7.16283l-6.55591,-9.07098l4.05808,-10.76619l9.72923,-8.33511l-14.74894,-14.23822l9.19216,-7.92667l2.26862,-11.92398l13.27725,-2.0066l14.28168,4.59341l2.82081,-15.6047l8.89206,-8.57064l11.28713,1.0125l11.11348,-0.0277l10.43379,3.82706l2.45273,17.63142l17.78119,-8.22367l-1.18084,15.72515l13.09322,3.06774l7.38645,8.76869l-1.00675,11.63877" fill="#84a848"></path><path d="M206,150l-2.82038,9.377l-4.3156,8.40805l-1.23262,9.71495l-10.09522,3.99659l-4.11122,8.33772l-4.92496,9.52914l-10.37293,0.44026l-9.27101,0.42149l-8.85606,-6.2252l-7.29322,-2.63807l-11.8599,11.26086l-1.84687,-16.24972l-17.56726,9.5896l1.03108,-14.46607l-10.09522,-3.99659l0.64677,-10.39899l5.62271,-9.80778l-5.63807,-7.29322l-12.08847,-10.41889l17.74199,-4.63l1.50931,-7.95111l3.06704,-7.85381l-3.0827,-16.64095l10.85283,-2.73472l10.87293,0.42576l7.36088,-11.25437l10.76619,8.05808l10.59254,-7.07327l8.90261,6.51079l2.00485,16.32339l18.35283,-10.25566l-6.14688,19.2121l7.86326,4.28265l4.47572,7.24101l-1.72859,8.94482" fill="#71b4fe"></path></g></svg>