<svg x="0" y="0" width="300" height="300" version="1.1" xmlns="http://www.w3.org/2000/svg" xmlns:xlink="http://www.w3.org/1999/xlink"><g fill="none" stroke="none" stroke-width="1" stroke-linecap="butt" stroke-linejoin="miter" stroke-miterlimit="10" stroke-dasharray="" stroke-dashoffset="0" font-family="sans-serif" font-weight="normal" font-size="12" text-anchor="start" mix-blend-mode="normal"><path d="M0,300l0,-300l300,0l0,300z" fill="#4cd953"></path><path d="M253,150l-32.05869,66.15384l-63.61688,38.59038l-71.51511,-25.47534l-32.85559,-65.62992l14.31191,-71.57018l61.94319,-39.88354l67.1446,20.6697l59.38536,46.82495" fill="#2eb0ff"></path><path d="M241,150l-24.44681,62.06185l-60.34486,26.72135l-69.76969,-10.29146l-23.58223,-66.24451l6.86669,-68.45772l59.48573,-41.60427l67.1446,20.6697l36.31508,53.44024" fill="#41b019"></path><path d="M239,150l-18.05869,66.15384l-64.73298,22.62936l-66.62308,-14.17719l-20.78722,-63.19382l8.29745,-62.4605l55.85577,-29.1598l64.9473,0.49154l43.42132,53.53101" fill="#2f6317"></path><path d="M246,150l-25.79004,65.47184l-63.37382,32.28943l-59.69905,-32.48102l-24.378,-54.42476l1.05977,-64.19811l56.01371,-41.53771l69.09605,13.44942l43.35251,54.96971" fill="#131fce"></path><path d="M242,150l-28.37223,59.33386l-57.27993,31.44447l-59.84007,-24.72092l-22.75841,-55.34108l-0.74965,-64.63251l59.53571,-28.24821l59.18267,12.73385l32.29907,48.20647" fill="#77aca5"></path><path d="M229,150l-24.14847,51.14988l-49.82906,20.67473l-59.77334,-4.21291l-28.43164,-55.92116l9.45883,-63.31242l57.71448,-23.69549l59.2724,3.31531l25.94764,52.15616" fill="#3c57b6"></path><path d="M221,150l-11.029,55.92387l-54.25097,25.87639l-50.40178,-26.62289l-33.54943,-44.18269l20.89053,-51.14503l39.46024,-43.97034l59.59849,14.69014l31.3378,48.48211" fill="#4fe5d2"></path><path d="M232,150l-35.92472,42.9659l-41.68063,19.88064l-48.44709,-8.44632l-37.14955,-42.98802l14.03151,-58.44546l51.785,-25.34965l53.49828,8.95254l40.71064,40.82812" fill="#eddaa1"></path><path d="M219,150l-14.14847,51.14988l-50.66614,8.70397l-53.27238,0.76354l-19.24151,-51.01444l19.17937,-44.01753l35.21904,-31.1213l45.34741,13.24868l41.63857,31.33877" fill="#a4564c"></path><path d="M205,150l-5.9993,45.69389l-44.39677,20.14534l-46.13907,-14.54759l-11.93933,-43.77629l-1.40871,-45.94497l41.36893,-25.14997l49.05189,4.43505l34.63448,39.02302" fill="#1ea13e"></path><path d="M218,150l-23.38742,41.6019l-41.12475,8.2763l-38.72977,-6.35803l-32.09629,-34.0564l13.27419,-47.31982l40.54978,-25.72355l43.38647,13.86389l18.19088,35.93384" fill="#821e1b"></path><path d="M204,150l-18.16367,33.41792l-31.51143,28.43105l-33.90296,-25.32311l-26.86722,-28.59299l14.66853,-37.18527l31.38117,-19.65498l42.32795,-4.23699l28.62713,35.77922" fill="#5cb083"></path><path d="M197,150l-3.85013,40.2379l-39.10399,17.62081l-34.88257,-19.77856l-15.7059,-31.53902l10.49991,-31.7785l24.19172,-30.51705l40.6931,7.75304l25.94978,32.29004" fill="#725808"></path></g></svg>