<svg x="0" y="0" width="300" height="300" version="1.1" xmlns="http://www.w3.org/2000/svg" xmlns:xlink="http://www.w3.org/1999/xlink"><g fill="none" stroke="none" stroke-width="1" stroke-linecap="butt" stroke-linejoin="miter" stroke-miterlimit="10" stroke-dasharray="" stroke-dashoffset="0" font-family="sans-serif" font-weight="normal" font-size="12" text-anchor="start" mix-blend-mode="normal"><path d="M0,300l0,-300l300,0l0,300z" fill="#aea32d"></path><path d="M253,150l-1.11895,25.4018l-15.35219,20.60641l-19.64583,14.21354l-12.08213,21.02393l-22.65101,7.08542l-20.96535,18.08274l-25.3802,-5.4065l-20.64276,-14.77924l-29.81796,2.76377l-7.3518,-28.56983l-9.78208,-20.53026l-23.84968,-17.43731l2.70269,-26.04911l0.08225,-25.89855l11.92233,-23.0068l11.80529,-23.91242l31.43464,0.08809l17.71809,-15.92815l23.06876,-6.50636l23.57612,4.2173l21.56302,8.66827l24.56423,5.49618l10.48753,23.12058l25.37791,13.32896l4.7419,25.6945" fill="#62ad73"></path><path d="M241,150l9.91076,25.15988l-22.32842,16.62309l-13.92874,16.43139l-8.73431,24.68939l-21.71728,11.0655l-24.5854,-2.47325l-21.44633,-7.32323l-22.63409,1.12813l-24.31472,-4.39922l-14.76174,-19.19409l-12.74396,-19.62398l-5.66165,-22.53993l1.00131,-22.71955l-2.29782,-23.56097l10.10395,-21.26318l19.83654,-13.12994l10.30998,-23.67487l20.85416,-14.10507l25.72017,7.13399l23.43512,-4.73527l25.28309,1.50243l16.80289,19.3597l12.60548,19.62384l19.64557,15.35153l3.187,24.00344" fill="#3037ce"></path><path d="M240,150l4.11869,23.46642l-23.48288,14.0913l-11.18422,15.97272l-11.361,17.76678l-18.67686,9.51633l-20.73787,1.73175l-20.08806,-1.34334l-23.42622,5.02612l-12.77219,-20.69772l-22.86548,-6.39392l-17.60573,-16.17609l0.04853,-24.24832l-2.91128,-21.88791l2.50849,-22.18278l7.02969,-21.64136l17.38515,-14.82459l17.91827,-11.95559l18.29145,-11.8149l21.6032,-3.18811l22.18396,-1.81911l15.74983,19.34577l27.9937,-5.1805l9.62578,22.25883l11.04705,18.38539l15.13435,18.94895" fill="#432a50"></path><path d="M241,150l-3.67338,21.77297l-13.15902,17.66264l-13.22972,15.4331l-17.88002,8.96718l-16.03826,10.39982l-18.13467,10.29864l-21.27133,3.5995l-19.82976,-8.39605l-13.63108,-16.63449l-9.30795,-16.82262l-25.73626,-6.8273l7.53039,-23.86003l-4.59141,-18.31554l-3.75476,-20.70701l12.42521,-16.57082l13.17353,-14.18335l10.53545,-18.74878l21.16071,-2.20133l19.18061,0.31616l17.90805,2.92634l23.52324,-9.41458l11.82203,19.84071l22.89937,6.05531l8.55749,20.02344l6.19982,20.2787" fill="#8be63a"></path><path d="M222,150l11.44543,20.80528l-7.51194,19.56927l-12.76618,16.50155l-17.31349,11.10498l-22.25443,-3.14229l-16.07334,6.76679l-16.85065,-5.25762l-16.52326,-2.37227l-21.76275,1.55469l-18.26922,-10.25064l5.66062,-25.90887l-19.01075,-12.53002l7.27382,-19.35361l7.55161,-15.95494l-8.3416,-23.5323l23.11169,-5.93143l9.36058,-16.52023l15.86152,-10.68181l18.62256,-7.66435l18.4661,10.90685l17.01546,5.20215l18.32982,5.22398l8.71518,17.13721l21.82814,9.34827l-10.61317,22.99763" fill="#9d4fa8"></path><path d="M215,150l5.83159,17.6603l-14.32294,12.38588l-5.23165,16.12383l-17.72542,3.57224l-11.66229,10.39807l-15.40852,1.52003l-17.05792,13.60002l-17.89295,-4.7944l-15.61379,-9.7897l-4.17691,-20.18066l-19.14875,-7.61778l3.82996,-19.36358l-5.37837,-15.92233l0.70839,-17.16219l6.76178,-15.92975l7.53732,-16.59938l17.38606,-6.41594l14.31521,-9.96075l17.92432,6.6271l16.13298,-5.11796l15.03654,6.67293l14.4047,7.49728l9.18337,13.39439l11.6884,11.74424l14.69391,14.11353" fill="#9a8746"></path><path d="M206,150l13.86129,17.41838l-7.17201,15.9141l-15.12801,9.49188l-6.18099,18.52442l-16.75482,6.30909l-18.5628,-9.9756l-14.96973,5.69489l-12.4455,-10.52768l-18.02904,1.35466l-15.77359,-7.92343l-0.57003,-19.1017l-1.98548,-14.91222l-3.25213,-14.39566l8.09345,-13.03119l6.10402,-11.83995l6.48234,-11.90087l5.83828,-16.22226l14.04963,-7.6466l16.62827,8.90127l14.01209,-4.2352l14.56569,2.37738l13.97574,6.0816l19.52612,4.08573l-7.15425,22.7817l9.89954,12.01106" fill="#0dcac5"></path><path d="M205,150l-3.57433,12.82186l-8.16124,10.18225l3.55369,19.15112l-19.41767,-1.53239l-6.87924,15.75872l-14.2495,3.28976l-13.36954,-9.16764l-18.00081,11.61765l-4.29062,-21.67047l-13.50923,-4.45474l-11.92795,-9.25547l-6.79686,-13.6422l9.65498,-14.91321l1.98271,-12.51837l1.48819,-13.66686l8.21439,-10.90087l14.8469,-1.80544l6.27707,-18.2592l15.67123,9.0873l13.03847,-4.28622l17.29397,-6.12957l13.78904,8.28529l-1.23312,21.22564l22.72055,3.12498l-9.92628,18.45474" fill="#2523be"></path><path d="M203,150l5.21774,14.51531l-17.60215,7.08038l0.25738,15.20649l-14.5909,2.16258l-6.78692,14.59771l-14.8959,-9.80352l-11.27956,3.7739l-13.92305,3.46224l-11.72483,-6.49918l-1.37777,-16.21328l-9.43616,-7.24084l-4.78712,-10.85414l-9.03604,-12.17694l-1.67169,-14.82461l19.66582,-5.68612l5.88151,-9.45429l5.53383,-12.14422l11.79594,-4.40538l12.76034,5.60863l10.4664,0.54852l10.42954,2.15073l17.81195,-5.50862l1.32814,16.76853l4.98659,10.2262l-0.66117,11.41666" fill="#00a845"></path></g></svg>