<svg x="0" y="0" width="300" height="300" version="1.1" xmlns="http://www.w3.org/2000/svg" xmlns:xlink="http://www.w3.org/1999/xlink"><g fill="none" stroke="none" stroke-width="1" stroke-linecap="butt" stroke-linejoin="miter" stroke-miterlimit="10" stroke-dasharray="" stroke-dashoffset="0" font-family="sans-serif" font-weight="normal" font-size="12" text-anchor="start" mix-blend-mode="normal"><path d="M0,300l0,-300l300,0l0,300z" fill="#af47c3"></path><path d="M242,150l-2.82229,47.41663l-34.936,33.00002l-43.89339,18.04102l-48.18358,-4.8121l-41.83336,-26.79566l-25.97132,-44.39545l12.39756,-49.19129l19.86972,-44.11833l40.61686,-29.95684l48.55779,11.19449l48.84247,6.87638l22.14236,44.10115" fill="#4cebf5"></path><path d="M235,150l-8.18356,40.84403l-26.48908,33.76936l-40.50169,18.87168l-45.4133,-5.40259l-40.25077,-24.44649l-22.95451,-42.63689l9.39557,-46.63335l27.53411,-34.10635l32.81563,-29.65869l44.67593,0.76661l38.54987,19.28775l36.26279,29.07802" fill="#1150e1"></path><path d="M240,150l-26.42777,33.80195l-17.15922,35.00817l-38.88696,2.79546l-36.74536,0.71476l-29.76611,-22.82569l-20.24453,-32.6538l-1.51603,-39.99438l18.16342,-37.28174l35.69808,-22.30664l40.42904,5.92691l31.39873,19.29022l28.14035,24.98585" fill="#96a587"></path><path d="M218,150l-6.19367,32.86301l-26.01799,20.1954l-28.2623,18.54717l-34.49772,-4.84834l-22.82121,-24.97604l-31.39336,-24.52452l11.01415,-37.3782l16.94096,-31.28319l30.05487,-19.92452l36.19989,-2.53134l33.76666,13.97176l12.59018,33.45094" fill="#40f4fa"></path><path d="M223,150l-24.43788,25.82094l-12.21458,28.06651l-30.49394,1.80578l-28.32999,-0.06219l-18.89,-20.9205l-18.3006,-22.02792l2.95256,-28.94522l14.27339,-24.72224l25.1361,-12.27432l29.46032,-15.67738l24.78432,21.6559l25.1814,19.62255" fill="#3ba80b"></path><path d="M205,150l-13.50146,22.06516l-9.06535,26.01902l-26.16148,11.58713l-23.87822,-16.09367l-26.82407,-6.29596l-9.36754,-25.84654l4.77377,-25.49265l10.18,-23.45405l23.3935,-10.04127l25.69609,-10.55083l20.53783,18.70312l13.06711,19.87718" fill="#0cce30"></path></g></svg>