<svg x="0" y="0" width="300" height="300" version="1.1" xmlns="http://www.w3.org/2000/svg" xmlns:xlink="http://www.w3.org/1999/xlink"><g fill="none" stroke="none" stroke-width="1" stroke-linecap="butt" stroke-linejoin="miter" stroke-miterlimit="10" stroke-dasharray="" stroke-dashoffset="0" font-family="sans-serif" font-weight="normal" font-size="12" text-anchor="start" mix-blend-mode="normal"><path d="M0,300l0,-300l300,0l0,300z" fill="#ad983b"></path><path d="M254,150l-21.26564,57.93122l-47.16426,39.79681l-63.52255,6.59196l-53.24825,-36.1845l-11.4454,-60.03l5.17754,-58.60548l41.40318,-48.28755l62.73562,4.246l47.67649,30.19483l38.07329,46.28731" fill="#031aeb"></path><path d="M255,150l-28.81886,53.34261l-44.71529,33.10911l-54.50075,-0.48432l-57.39977,-18.4747l-14.20383,-59.2129l2.8398,-61.2798l55.0309,-25.84878l54.13261,-19.632l49.81033,31.30563l35.24486,49.11573" fill="#0f6007"></path><path d="M236,150l-1.62734,59.07837l-50.85469,33.0115l-55.77641,-9.02026l-51.28183,-21.36201l-25.08301,-53.07919l25.01112,-51.12842l29.65986,-51.75601l59.58064,5.62331l44.47574,28.52862l23.60458,45.34398" fill="#a5b1b6"></path><path d="M247,150l-29.82953,47.03327l-36.04663,38.47876l-53.12345,-3.40833l-40.04998,-30.0379l-31.5927,-43.87316l20.89617,-50.19264l33.02002,-43.19293l53.79162,5.4235l55.23096,10.47296l25.24508,52.62624" fill="#af2d3a"></path><path d="M240,150l-24.46784,45.88611l-34.75035,38.68622l-50.9697,-9.23012l-52.58634,-14.27739l-19.87188,-52.95934l24.2301,-47.60548l35.02916,-32.09832l47.79964,-10.14073l42.86285,24.46339l36.28109,40.77907" fill="#87e50d"></path><path d="M240,150l-19.55292,49.32757l-40.69132,32.42568l-52.53183,3.24821l-43.86979,-29.07895l-17.03449,-48.60144l17.86242,-45.32108l33.27632,-31.7857l47.99629,-17.86219l38.99253,33.20067l35.17028,38.64524" fill="#e1bf30"></path><path d="M236,150l-20.46784,45.88611l-37.48651,31.16868l-50.04527,5.0489l-40.81603,-29.39511l-10.90276,-46.25906l-3.35785,-50.94952l40.73109,-33.44247l49.36878,4.08189l39.30229,21.53468l18.58026,39.82323" fill="#ced8e7"></path><path d="M236,150l-14.73377,49.90115l-44.58866,23.39487l-47.38309,3.97804l-36.74781,-29.065l-21.24605,-41.32377l6.81927,-48.3853l41.87421,-22.84785l44.0714,-15.42158l41.79593,23.90799l27.84722,41.10134" fill="#2ba365"></path><path d="M228,150l-7.55292,49.32757l-46.84769,15.51122l-44.30491,12.43528l-34.44968,-30.99336l-29.52135,-38.87247l11.06439,-49.90824l37.26699,-35.44247l49.88973,1.12746l44.4382,18.83225l22.77148,43.74361" fill="#d57e77"></path><path d="M229,150l-26.57427,36.70889l-29.16836,27.19021l-40.33943,-0.14799l-41.13732,-14.89925l-16.49522,-42.31518l14.09282,-41.53668l30.19326,-30.25416l42.06294,-0.72796l39.27726,15.07043l24.91851,37.54078" fill="#387e7f"></path><path d="M215,150l-6.8402,40.72393l-31.1402,33.51179l-46.1722,-2.75721l-37.53468,-23.91223l-10.05776,-41.72685l-2.53699,-45.83943l36.31781,-30.69201l46.33513,-5.13819l43.19763,19.26165l15.32242,43.89223" fill="#42caa7"></path><path d="M223,150l-22.21257,35.56174l-27.87208,27.39767l-38.18567,-5.96978l-35.28861,-14.56564l-14.19372,-36.75886l0.66678,-42.66512l36.19307,-22.81631l37.79075,3.68227l30.40714,15.82896l34.5403,27.10783" fill="#a2155f"></path><path d="M211,150l-15.94664,31.5467l-20.42791,36.11116l-39.11932,-13.56602l-38.3632,-9.7395l-2.92984,-39.47162l-7.43295,-41.38072l34.90443,-24.22262l38.03972,5.57339l32.70211,12.72283l26.51014,30.27103" fill="#499704"></path><path d="M205,150l1.52149,39.57677l-33.94816,22.44294l-36.54956,-9.85972l-27.39017,-17.44946l-22.39006,-29.13256l13.52699,-34.57797l26.98547,-20.84693l32.9683,-5.30231l30.58079,14.84415l14.84415,30.58079" fill="#f5e2cf"></path><path d="M211,150l-8.57427,36.70889l-29.51038,26.25051l-39.47977,-1.14015l-33.22847,-20.03806l-9.97879,-36.55185l13.87234,-31.72934l20.11963,-28.78478l34.80942,4.07477l27.03274,15.14756l18.10198,26.5118" fill="#6fe5b4"></path><path d="M207,150l-13.58494,30.39955l-25.28799,19.40416l-33.13857,6.21999l-24.82281,-22.59874l-16.94879,-28.45708l0.49145,-37.46788l33.89288,-15.53431l30.56023,1.74835l25.77966,12.34484l29.08657,22.82764" fill="#85a95a"></path><path d="M194,150l-6.31901,26.38452l-23.31615,13.08257l-27.3058,8.8292l-32.25567,-10.37182l2.36025,-34.17677l-2.19695,-29.7477l20.09884,-27.47216l32.2277,12.11023l22.40526,11.66344l15.60267,21.71067" fill="#36da87"></path></g></svg>