<svg x="0" y="0" width="300" height="300" version="1.1" xmlns="http://www.w3.org/2000/svg" xmlns:xlink="http://www.w3.org/1999/xlink"><g fill="none" stroke="none" stroke-width="1" stroke-linecap="butt" stroke-linejoin="miter" stroke-miterlimit="10" stroke-dasharray="" stroke-dashoffset="0" font-family="sans-serif" font-weight="normal" font-size="12" text-anchor="start" mix-blend-mode="normal"><path d="M0,300l0,-300l300,0l0,300z" fill="#375668"></path><path d="M244,150l4.04869,28.11501l-21.72436,19.57772l-12.08779,23.64917l-22.59128,14.04353l-22.54396,22.94342l-28.82245,-15.83832l-25.86648,-4.40807l-27.20984,-7.70537l-22.95833,-18.07186l-9.15315,-27.7612l2.1355,-28.05668l-5.0413,-27.27852l15.70063,-22.86969l3.70609,-32.05691l24.40804,-17.81298l31.74319,4.26354l25.88636,-14.66944l24.18198,18.34156l29.22615,1.03325l26.46117,14.49798l16.07761,25.72956l-10.45233,31.80872" fill="#967f81"></path><path d="M251,150l-6.79635,27.01246l-6.00664,28.09914l-26.63699,13.25772l-18.59964,19.71249l-28.37393,-5.35797l-24.83024,14.73929l-26.84226,-5.67194l-18.32348,-20.87023l-27.91922,-10.37909l3.45488,-31.47017l-20.8801,-22.02631l15.65513,-25.13372l-2.31297,-28.38937l19.07453,-19.51486l17.83728,-21.47602l29.69472,4.02313l23.73684,-0.5034l26.11604,-5.45048l24.07573,10.64074l19.6509,17.69375l11.27196,23.64505l13.99036,23.64163" fill="#38dd9b"></path><path d="M237,150l-12.02159,21.49971l3.89006,27.78278l-25.33802,10.16909l-12.32356,25.03505l-27.66233,-7.67164l-23.16118,14.68101l-21.10112,-15.46694l-19.7665,-11.41219l-19.09122,-14.06735l-6.53964,-22.8459l-5.68515,-21.9836l-2.32044,-23.60044l12.60194,-20.14679l1.74279,-29.35467l23.27596,-13.1585l26.90433,1.94641l22.45743,-3.35609l23.40469,1.11024l23.50172,7.05546l21.47396,14.0051l3.66859,26.42684l19.16474,20.13096" fill="#ef70b4"></path><path d="M230,150l3.62977,23.98045l-9.84958,22.12253l-18.91147,14.8349l-20.23739,10.06685l-20.04487,11.71912l-23.99401,6.78312l-24.30703,-6.06042l-21.07928,-13.31359l-18.82668,-16.6445l4.08329,-28.17897l-18.24838,-19.17092l9.53383,-22.7715l5.85011,-21.86373l13.41584,-18.46532l17.98586,-14.0521l21.40433,-7.57987l22.59703,-7.35366l23.88312,3.20569l16.73257,18.07699l13.07024,17.09865l18.22344,14.21388l6.29125,21.94021" fill="#78a480"></path><path d="M233,150l-17.6342,18.74334l2.47805,23.6502l-21.00471,9.6266l-9.57759,24.37736l-22.6751,6.32636l-22.94872,-3.1621l-23.47928,-0.75112l-9.40776,-26.01391l-12.1458,-14.00289l-19.9009,-12.11626l-0.52372,-21.51559l-10.30095,-23.04238l18.78257,-16.86049l11.38764,-17.35848l17.45049,-11.12048l18.59778,-8.58203l20.58948,-5.15121l19.87098,7.52597l23.29558,1.44604l11.59952,19.77201l12.88967,16.89035l6.89791,20.46322" fill="#397c48"></path><path d="M220,150l-1.75042,19.57025l-8.03817,18.05402l-16.71793,10.68015l-13.24588,13.71238l-16.8767,13.81341l-21.00149,-3.2301l-18.59188,-7.69723l-15.02686,-12.10615l-16.9999,-10.47618l-10.34834,-17.35307l-7.21731,-19.66598l7.34454,-19.85531l-0.39958,-22.06496l12.04207,-18.25923l19.32784,-10.07389l21.77508,1.88268l17.95849,-0.89179l16.61647,5.94657l18.05669,3.29797l22.07869,5.22183l-4.17269,25.09045l20.44765,13.82704" fill="#def86c"></path><path d="M208,150l-1.28556,16.2626l-6.6796,15.00263l-7.87961,15.55289l-18.48319,1.71675l-11.51667,20.40166l-17.90444,-14.23784l-14.47969,-4.63078l-21.02056,2.72879l-2.4376,-21.05632l-7.99618,-12.9293l-4.18049,-14.90475l-5.75971,-17.0048l-1.06598,-20.23404l21.68691,-6.26305l9.00237,-15.8301l18.6943,2.05936l15.85337,-19.58927l17.22942,12.08791l14.89287,9.46729l16.65502,8.33356l8.05548,16.62889l10.92858,16.55659" fill="#04a967"></path><path d="M209,150l-11.89818,13.50623l2.93301,17.75901l-9.21787,14.0666l-14.95307,7.69701l-15.27136,7.04442l-17.49142,5.56517l-18.19976,-3.51713l-6.30009,-21.93277l-21.99639,-1.39472l-9.56428,-15.87848l14.07877,-19.49728l-0.02674,-13.81365l2.11116,-14.48641l5.79385,-14.71353l12.50237,-9.76792l12.77508,-13.70577l17.4001,15.09846l16.86584,-9.09263l12.77378,10.63729l19.24413,4.00212l3.34025,18.42652l10.46824,14.95121" fill="#0c137e"></path><path d="M205,150l-0.20808,15.71133l-18.32585,7.0752l-0.33302,17.34329l-14.65287,3.91109l-12.79778,5.19948l-14.64053,7.44736l-16.51827,-1.05672l-14.46329,-8.35039l-0.27509,-20.24252l-11.64923,-9.25307l-7.99713,-13.80893l14.8008,-12.91632l-0.32114,-13.59443l-0.05956,-18.45021l18.44105,-0.58438l9.96853,-14.70793l15.60195,11.30456l12.6443,1.22399l19.33679,-5.99365l6.28274,16.3173l16.80551,8.20728l-13.06802,19.09406" fill="#3691a9"></path></g></svg>