<svg x="0" y="0" width="300" height="300" version="1.1" xmlns="http://www.w3.org/2000/svg" xmlns:xlink="http://www.w3.org/1999/xlink"><g fill="none" stroke="none" stroke-width="1" stroke-linecap="butt" stroke-linejoin="miter" stroke-miterlimit="10" stroke-dasharray="" stroke-dashoffset="0" font-family="sans-serif" font-weight="normal" font-size="12" text-anchor="start" mix-blend-mode="normal"><path d="M0,300l0,-300l300,0l0,300z" fill="#f6a8a2"></path><path d="M255,150l-13.05413,19.5437l-3.33197,19.90976l-14.99336,14.035l-10.05314,17.1103l-15.56741,12.53968l-15.55322,16.7225l-22.51658,-5.38135l-20.06946,1.98904l-23.23457,6.24548l-11.62616,-24.77182l-16.56002,-9.57296l-26.62284,-4.30073l5.96376,-27.46229l-7.77049,-17.47842l-18.01042,-19.12788l11.16339,-20.58326l13.70398,-16.42978l6.27602,-18.82656l7.93616,-20.70432l20.92045,-6.59452l18.02535,-9.11404l18.58105,-16.1504l22.57815,1.98904l19.40814,12.25925l20.40732,5.82l16.58219,13.27696l11.70147,17.45467l7.50315,18.96297l7.11535,18.68046" fill="#56669b"></path><path d="M231,150l5.07699,18.29623l-6.59853,17.08986l0.61423,22.80465l-16.52527,12.40802l-15.06741,13.40571l-22.54257,-4.11572l-17.49062,0.66753l-17.35172,3.97809l-21.70776,9.62023l-11.40732,-21.40846l-13.53784,-11.06511l-18.89172,-7.60478l-4.13535,-19.09689l-13.38097,-15.43565l-7.05413,-19.5437l9.01042,-19.12788l8.68403,-17.07169l14.96615,-11.99883l6.78677,-17.9415l10.05262,-19.59663l21.07044,-1.76068l19.33559,0.97379l19.44229,-11.93426l19.62633,6.20519l15.52535,13.44417l20.74393,5.23697l12.23072,16.55617l6.48508,19.18866l6.008,18.49072" fill="#ec9c76"></path><path d="M229,150l7.07699,18.29623l-4.77144,17.90333l-8.49402,16.70111l-15.2663,11.00978l-19.54523,1.90748l-14.51471,6.46236l-15.54113,3.30337l-16.09738,1.98904l-19.96733,8.97344l-11.87945,-17.26411l-8.1774,-15.7756l-15.73494,-7.07139l-9.17129,-13.8961l-10.05891,-14.86644l4.14255,-17.67249l-1.2081,-17.04876l4.38383,-16.71038l17.57505,-8.5614l8.06443,-13.41532l9.6848,-14.4122l12.99749,-14.49597l18.72212,1.10419l17.45625,0.99452l16.35451,5.50974l11.96962,12.9497l21.88349,-1.31086l4.21983,19.54949l14.54804,11.27464l7.44748,16.4843" fill="#c24bcd"></path><path d="M213,150l13.29551,16.21711l-16.00151,10.62751l2.80933,19.00263l-14.25679,8.40232l-8.84653,15.03246l-15.89667,4.90038l-16.78633,-4.56588l-15.88833,11.93426l-16.76806,-3.56416l-14.16061,-9.57063l-15.36871,-7.47813l-5.80756,-16.85398l-12.40736,-11.54496l9.50404,-19.02467l-19.42041,-13.51426l18.44226,-13.72217l-4.87171,-17.18981l6.32613,-14.93526l15.59505,-6.91603l6.00827,-19.11683l21.10488,9.11038l12.66002,-10.82489l15.15663,2.98357l17.29984,-5.47347l15.77864,5.93646l7.00827,17.38478l19.64014,3.97711l-1.37314,19.50114l7.5858,13.69166" fill="#19d4b8"></path><path d="M213,150l-6.26744,12.05888l-7.40111,9.9049l-2.40847,12.12777l-8.11341,9.01086l-4.80958,15.78733l-11.75078,9.58634l-15.24582,-1.8431l-13.5887,-3.97809l-13.80983,0.11485l-13.10488,-4.74603l-9.32436,-10.46243l-8.14371,-10.5308l-3.84466,-12.62627l-13.6576,-9.85038l13.47033,-14.55382l-15.42663,-14.96964l21.09517,-6.99414l-10.5358,-21.53233l13.69725,-7.78088l18.17001,2.77957l6.98684,-16.17442l15.05503,7.9841l12.64794,-6.96165l11.54218,7.53707l14.268,-0.17932l6.97871,12.44611l17.9615,2.11279l6.50798,13.26119l-7.21562,16.41269" fill="#a56870"></path><path d="M195,150l17.60145,13.30635l-5.04808,12.31806l-17.91153,3.17707l3.18253,18.75979l-17.82436,-4.26l-6.45898,13.76212l-11.8512,6.58601l-12.96153,-3.97809l-9.17914,-12.11849l-10.04915,-3.38553l-5.28001,-9.98263l-15.33396,-0.6809l-8.69876,-9.09956l0.03646,-12.76114l4.77627,-11.64305l-12.60145,-13.30635l21.4919,-4.9968l1.46771,-10.49833l-3.85166,-19.50294l14.49349,-1.92506l14.78522,6.48087l8.88383,-6.97202l10.55737,0.99452l9.29738,5.02644l16.4762,-8.99392l1.7874,17.27948l6.85443,7.61262l13.3438,5.21075l3.74692,11.53185" fill="#22005e"></path></g></svg>