<svg x="0" y="0" width="300" height="300" version="1.1" xmlns="http://www.w3.org/2000/svg" xmlns:xlink="http://www.w3.org/1999/xlink"><g fill="none" stroke="none" stroke-width="1" stroke-linecap="butt" stroke-linejoin="miter" stroke-miterlimit="10" stroke-dasharray="" stroke-dashoffset="0" font-family="sans-serif" font-weight="normal" font-size="12" text-anchor="start" mix-blend-mode="normal"><path d="M0,300l0,-300l300,0l0,300z" fill="#4d5331"></path><path d="M254,150l-4.39258,36.25414l-23.76902,27.38184l-28.8384,17.77041l-30.32977,13.13516l-32.99315,-1.96962l-28.67707,-14.62964l-33.90258,-11.73516l-8.48884,-34.39925l-11.60859,-31.80787l-2.4868,-36.93818l27.18049,-25.41222l19.80631,-32.04637l36.96153,-5.06881l35.42423,-1.96962l28.61424,20.89484l37.76489,9.83373l5.00591,38.21472" fill="#ccb0f5"></path><path d="M246,150l-13.30705,30.09777l-15.28104,26.46754l-22.41191,21.37698l-27.28789,22.5081l-35.42423,0l-27.28789,-22.5081l-33.13653,-12.37795l-15.83273,-31.36232l10.96926,-34.20201l-13.78834,-35.22807l23.24807,-26.47954l29.54027,-14.50263l29.5872,-5.52881l28.8256,0l33.0872,-0.53337l31.40258,16.06529l0.9713,37.13541" fill="#278885"></path><path d="M246,150l-7.66889,32.14989l-17.85502,26.98657l-29.97609,11.0116l-24.35072,21.43906l-30.21478,-11.81769l-31.9345,-0.09509l-22.944,-21.82345l-18.44741,-26.04301l-8.60859,-31.80787l17.06582,-28.72969l7.69205,-31.04956l25.24213,-19.89509l30.71896,-6.98875l30.21478,1.96962l33.06626,1.55503l16.34773,29.14428l20.2246,23.21235" fill="#4bcd78"></path><path d="M229,150l-13.22152,23.94141l-11.38933,21.69651l-18.88916,15.84988l-23.17098,8.43355l-25.00534,1.96962l-23.32368,-9.53714l-27.58169,-9.00246l-18.17157,-23.59562l10.75326,-29.75575l-6.99449,-28.38767l12.88071,-26.24927l24.11378,-16.37714l26.06626,-13.67938l28.30465,8.86327l23.62909,11.74432l24.28356,12.66287l15.77124,23.37736" fill="#f9fd88"></path><path d="M226,150l-17.73906,21.20525l3.02261,30.21776l-21.28356,17.85902l-29.06016,-7.23914l-21.87967,0l-24.56016,-0.55508l-25.78356,-10.06479l-2.61554,-28.16564l-8.1009,-23.25737l-3.17541,-27.36161l15.42394,-22.77582l26.25147,-7.88627l22.21287,-5.9888l24.83169,-12.8025l17.45544,23.12143l26.45333,5.4845l19.60146,20.16342" fill="#580c38"></path><path d="M217,150l-14.37721,19.15313l2.53241,27.12758l-23.6552,8.27889l-21.7757,0.58963l-19.4486,0l-20.7757,-2.32168l-20.82498,-9.76078l-5.99627,-22.20354l-12.67875,-20.86323l18.31691,-18.81111l6.48647,-19.11336l9.69662,-23.56333l24.21287,-2.5247l21.53237,5.90885l25.75476,-4.25017l20.68729,14.78755l3.45304,25.67699" fill="#097a10"></path><path d="M213,150l-7.55814,20.17919l-10.24524,17.74528l-13.19662,17.50116l-23.49124,-7.17005l-18.05941,5.90885l-22.94935,2.12722l-17.29289,-14.51046l-9.40775,-20.23393l8.20064,-21.54727l-12.8991,-23.25737l15.6383,-17.23825l16.2608,-14.93001l22.623,2.24601l20.14319,-7.87846l19.23381,9.09656l13.66453,15.32263l13.65672,15.77567" fill="#a67b2b"></path><path d="M195,150l-6.4726,14.02283l7.43527,24.54443l-22.96267,1.26991l-12.92841,17.28168l-18.23306,-10.83289l-19.33854,1.34543l-6.972,-18.70595l-11.57294,-12.16646l-9.95506,-16.75899l15.59322,-14.70687l4.40269,-15.50415l11.00409,-13.09025l17.01218,-1.99989l15.97563,0l13.51218,8.06206l16.80222,5.09971l8.68241,15.03837" fill="#2cf02a"></path></g></svg>