<svg x="0" y="0" width="300" height="300" version="1.1" xmlns="http://www.w3.org/2000/svg" xmlns:xlink="http://www.w3.org/1999/xlink"><g fill="none" stroke="none" stroke-width="1" stroke-linecap="butt" stroke-linejoin="miter" stroke-miterlimit="10" stroke-dasharray="" stroke-dashoffset="0" font-family="sans-serif" font-weight="normal" font-size="12" text-anchor="start" mix-blend-mode="normal"><path d="M0,300l0,-300l300,0l0,300z" fill="#fae967"></path><path d="M243,150l-3.27553,41.83921l-28.65965,30.93501l-33.37119,30.57984l-44.71116,-6.8429l-42.63443,-11.31935l-24.35251,-36.69181l-15.61501,-39.78443l9.40898,-41.54951l15.25717,-42.11939l42.80343,-13.37779l40.51684,-7.30358l39.13305,13.36228l31.1386,27.20908l23.78141,37.00393" fill="#b256c2"></path><path d="M239,150l0.72447,41.83921l-31.2308,27.87084l-34.94114,18.18921l-40.57005,8.61191l-36.89866,-19.51087l-20.562,-34.00029l-22.1527,-34.54589l16.75701,-37.52582l19.06269,-31.73947l29.00331,-26.58023l39.30327,1.71867l42.50461,-0.9298l31.9152,29.2449l11.64153,40.86107" fill="#475350"></path><path d="M245,150l-9.80707,39.72612l-29.27041,26.91975l-33.40527,17.38968l-39.53478,12.47561l-30.58932,-28.52154l-32.93352,-21.48962l-16.09052,-38.04589l10.17916,-39.91996l24.22632,-30.75954l30.41752,-25.16602l39.0418,4.70725l36.76607,6.47392l29.72368,24.58836l9.00017,37.03543" fill="#a3137f"></path><path d="M237,150l-4.52599,38.45826l-23.98034,31.25178l-37.78815,7.56402l-34.77103,2.49536l-28.37915,-19.15218l-36.36366,-15.11725l-4.87204,-38.17892l13.20341,-32.97259l19.56526,-25.26018l19.78786,-34.60034l38.44492,1.83167l30.17892,18.72845l30.48962,17.34506l17.68865,32.49945" fill="#7baeed"></path><path d="M230,150l-9.30799,32.96422l-22.48294,24.48911l-28.53882,15.95703l-33.73575,6.35907l-31.82061,-14.23726l-20.79784,-27.03216l-6.03826,-32.13763l6.94373,-30.30378l5.67441,-36.16267l34.11055,-11.31256l32.87883,-7.28274l34.1147,7.6853l16.34064,30.86373l22.42878,26.08485" fill="#6b09fe"></path><path d="M211,150l3.34785,30.0059l-19.99551,22.85117l-24.6821,20.5533l-32.86751,1.43503l-29.24739,-14.22814l-25.97135,-21.11725l-9.28718,-32.70185l3.46747,-33.81774l24.03114,-23.18499l23.18499,-24.03114l32.68471,9.48306l26.83488,8.461l21.56403,18.43561l21.76616,24.48514" fill="#ef959e"></path><path d="M206,150l10.16047,30.85113l-26.95042,15.87758l-23.16326,13.15869l-25.77108,-4.73817l-24.69029,-6.00011l-29.67129,-12.14912l-3.65536,-31.07341l2.90245,-29.52598l20.29106,-20.94834l26.07864,-6.19567l23.34981,-5.0435l28.11928,-1.37077l12.87251,25.0374l11.24634,22.04869" fill="#d22a4a"></path><path d="M202,150l7.81631,27.89281l-17.39233,22.66613l-25.34193,13.19217l-28.89013,3.21582l-19.16505,-22.73272l-14.06019,-18.23421l-18.72314,-20.42203l13.95275,-23.70504l9.49862,-22.17802l17.73176,-21.71463l28.23845,-2.73294l22.83488,15.38921l25.56403,11.5074l-0.88442,28.47904" fill="#7ba246"></path><path d="M199,150l4.47216,24.93448l-21.33278,13.36774l-20.49252,5.16444l-20.85021,8.72815l-22.34335,-7.14145l-18.68277,-16.05336l-5.55743,-24.11928l9.74196,-21.63971l2.91142,-26.37453l23.63837,-10.42897l23.24285,10.72611l24.2523,-5.66105l17.05336,16.95072l4.18703,22.8643" fill="#0091a4"></path></g></svg>