<svg x="0" y="0" width="300" height="300" version="1.1" xmlns="http://www.w3.org/2000/svg" xmlns:xlink="http://www.w3.org/1999/xlink"><g fill="none" stroke="none" stroke-width="1" stroke-linecap="butt" stroke-linejoin="miter" stroke-miterlimit="10" stroke-dasharray="" stroke-dashoffset="0" font-family="sans-serif" font-weight="normal" font-size="12" text-anchor="start" mix-blend-mode="normal"><path d="M0,300l0,-300l300,0l0,300z" fill="#deab59"></path><path d="M256,150l-11.62663,46.02897l-26.65061,40.65221l-46.93159,11.13358l-44.01567,-4.66637l-41.05426,-16.54395l-34.38415,-32.67689l-5.27374,-47.55711l24.47136,-38.62289l18.9234,-41.07631l43.87166,-11.21279l41.47759,8.02799l41.43657,12.94221l19.05698,39.10753" fill="#ce1183"></path><path d="M247,150l-5.32301,44.71386l-36.26746,26.20711l-34.82628,25.91564l-44.04968,-2.71793l-34.38446,-25.17469l-26.1953,-31.52423l-10.89595,-40.73522l18.12569,-37.52857l21.56463,-35.20357l40.31807,-8.64587l41.67057,-8.54892l43.52189,15.21218l19.67812,41.69337" fill="#c8cdf7"></path><path d="M236,150l-3.31095,40.33015l-31.58915,25.07475l-33.42741,17.73765l-38.23585,-0.66741l-39.21589,-11.233l-19.69921,-35.85605l-8.46794,-38.45724l16.42764,-34.95604l12.74023,-42.8745l41.58736,-16.59427l43.65236,5.21484l31.08405,28.37067l35.17315,26.4498" fill="#e19dd7"></path><path d="M240,150l-8.20974,39.89177l-25.1494,32.60521l-39.38419,8.68926l-37.82003,1.28889l-28.93128,-23.48971l-24.50254,-26.03975l-16.94738,-36.12152l23.84055,-32.50398l11.8522,-40.36776l39.62348,-12.5851l37.40369,12.69302l28.40944,20.20381l24.9171,25.39273" fill="#263b7f"></path><path d="M238,150l-8.90612,38.57666l-31.68794,22.10017l-31.39673,14.64054l-36.08872,5.21718l-33.27185,-16.95286l-12.4239,-34.29665l-20.17234,-32.2864l14.42886,-35.02584l30.37379,-18.60399l27.77406,-19.19901l35.4219,-1.07074l34.82511,13.73363l13.58987,34.69721" fill="#bfa1fc"></path><path d="M225,150l-1.29889,35.94643l-24.44819,27.09443l-31.78834,19.12354l-37.78602,-0.65956l-26.60206,-25.5836l-17.02469,-27.44968l-17.00247,-31.29842l15.61254,-31.91404l23.01758,-23.50833l27.90774,-23.48982l36.46379,4.83811l22.78076,27.11023l28.41577,20.19678" fill="#8c06f9"></path><path d="M221,150l-2.69165,33.31621l-28.29035,17.90449l-24.42462,22.14037l-32.52791,-5.44037l-29.98896,-11.99946l-10.62987,-30.29684l-7.40704,-27.89288l10.21765,-26.83877l14.77335,-25.90592l27.98767,-12.93858l28.7956,9.31477l28.01787,8.84626l19.14394,23.94285" fill="#6ebf36"></path><path d="M221,150l-6.28683,31.56272l-26.54216,17.29394l-23.40928,20.59181l-29.03512,-12.20103l-32.6501,-1.3262l-21.59241,-25.416l7.55307,-32.63412l6.22009,-26.97837l18.30007,-21.05182l23.59272,-22.71672l28.56129,18.08386l27.78216,6.4875l7.50162,27.70105" fill="#6e0498"></path><path d="M218,150l-5.08442,30.68598l-32.13251,8.71456l-16.43717,28.09165l-30.7966,-1.51208l-25.97329,-15.42118l-14.21584,-25.34126l-4.32302,-27.34654l15.93251,-21.81418l15.05328,-17.31682l20.60005,-11.91975l27.56907,-10.26365l21.95577,18.85458l6.21136,25.85836" fill="#f6a4fd"></path><path d="M207,150l-5.76874,24.98716l-12.44459,24.65752l-27.35153,4.15344l-25.22469,1.50874l-15.77868,-20.06881l-26.15804,-10.42711l4.75734,-26.59081l-3.77382,-27.32736l25.35349,-11.34361l20.70685,-8.78954l22.18864,2.13856l21.95769,7.71515l7.18654,22.15477" fill="#21f726"></path></g></svg>