<svg x="0" y="0" width="300" height="300" version="1.1" xmlns="http://www.w3.org/2000/svg" xmlns:xlink="http://www.w3.org/1999/xlink"><g fill="none" stroke="none" stroke-width="1" stroke-linecap="butt" stroke-linejoin="miter" stroke-miterlimit="10" stroke-dasharray="" stroke-dashoffset="0" font-family="sans-serif" font-weight="normal" font-size="12" text-anchor="start" mix-blend-mode="normal"><path d="M0,300l0,-300l300,0l0,300z" fill="#da4080"></path><path d="M259,150l-28.95397,64.82l-61.33398,23.21328l-62.74913,-1.60565l-51.88519,-43.72029l-6.46586,-70.14217l40.0829,-58.32098l67.27715,-9.114l65.2868,16.8396l31.47319,61.91746" fill="#1bec27"></path><path d="M238,150l-9.50826,63.56136l-57.49266,35.23155l-61.85823,-18.60232l-45.01413,-41.95734l-14.58301,-65.15043l44.61669,-49.93943l61.02086,-22.00771l64.40832,21.57726l21.27774,62.89509" fill="#7e27ae"></path><path d="M235,150l-12.72543,58.5268l-52.52296,34.39723l-59.24878,-15.40645l-54.59801,-35.62369l10.05964,-64.41113l23.49367,-60.81149l65.77548,-16.5342l55.65729,32.23677l33.9272,52.60847" fill="#18a73e"></path><path d="M242,150l-26.71974,52.86291l-45.52865,40.06111l-56.52484,-20.75249l-53.66777,-31.9046l4.4736,-63.30182l37.18122,-44.11352l53.54875,-23.72688l62.15049,16.56081l25.92964,59.60964" fill="#96c9ea"></path><path d="M247,150l-27.05686,56.63884l-52.27064,26.50371l-62.16356,4.17609l-39.55511,-49.89887l3.87434,-58.90175l23.74446,-56.18365l61.34696,-16.20554l60.65522,21.04298l26.28022,58.27979" fill="#8c70e4"></path><path d="M244,150l-21.72543,58.5268l-55.43373,20.70316l-59.06196,3.63365l-40.91152,-45.85057l2.96079,-58.49502l24.33224,-55.37463l59.97414,-2.03512l54.07982,14.23813l26.72683,51.20024" fill="#375b81"></path><path d="M229,150l-16.05118,50.97495l-43.82095,39.01463l-52.26918,-24.9461l-49.99133,-28.03044l8.75635,-56.9421l27.94125,-43.98328l50.77892,-18.97391l57.21613,14.51693l12.51661,56.63674" fill="#4d0fda"></path><path d="M237,150l-27.15976,48.45767l-44.66269,22.9471l-49.22684,-4.57929l-34.46662,-36.32024l-12.62186,-52.24605l34.11495,-42.98056l51.00035,-11.17449l54.90596,10.4991l11.24238,54.2899" fill="#ad1d26"></path><path d="M233,150l-26.26834,45.94039l-40.93037,28.39883l-53.4825,-0.38568l-25.35343,-45.88871l-7.47795,-46.95862l20.55084,-49.87265l54.04395,-9.12666l48.77911,19.18466l15.28918,47.91446" fill="#d596a9"></path><path d="M218,150l-8.15976,48.45767l-43.2073,29.79414l-52.49818,-7.86229l-33.56421,-39.47753l3.7465,-48.51168l18.66014,-47.12166l50.31999,1.8077l44.21111,10.15038l28.54373,40.71783" fill="#3c2435"></path><path d="M218,150l-15.93122,42.16447l-35.43584,36.08734l-45.23434,-22.1184l-29.86551,-30.10227l-3.35234,-42.59556l21.84986,-38.44874l43.99927,-21.88132l40.13275,27.84692l24.97556,38.09715" fill="#fb7b0c"></path><path d="M215,150l-8.26834,45.94039l-43.00948,18.61735l-45.04752,-3.07829l-20.74675,-38.29546l-18.44049,-42.07778l31.13097,-35.31035l42.94046,-13.70267l45.95682,12.91409l18.63483,44.19874" fill="#f7374a"></path><path d="M218,150l-21.37124,37.75922l-33.53032,23.86408l-43.5158,-1.92586l-23.48182,-35.69998l-13.71563,-42.1148l31.17212,-32.04172l39.89686,-15.7505l38.03192,19.83457l14.81214,37.15821" fill="#fd93ec"></path><path d="M205,150l-4.48551,40.90583l-35.96067,27.56451l-39.97729,-18.57397l-34.87053,-23.05175l7.16808,-41.07967l20.20995,-31.0699l36.05613,-14.61282l34.33116,18.30166l18.82692,32.69935" fill="#e5cda7"></path><path d="M216,150l-24.03412,33.9833l-30.53074,19.81482l-36.85861,-3.90175l-22.0809,-28.74606l-2.72378,-34.6089l14.96103,-35.08243l38.04092,-4.38635l38.04316,7.59553l25.35815,34.85073" fill="#353d62"></path><path d="M203,150l-7.14839,37.1299l-34.20856,17.64636l-34.34258,-10.22594l-36.68093,-18.11244l9.15231,-39.89647l20.83888,-26.99226l31.84905,-6.48474l28.32022,12.75093l31.44436,24.32929" fill="#499dbc"></path><path d="M200,150l-16.58272,27.06078l-21.56631,28.69364l-35.91246,-8.53107l-28.01059,-24.03936l-2.98568,-37.93667l21.55401,-31.36128l36.3299,-7.81203l26.61561,21.22762l23.89342,24.25091" fill="#697af4"></path></g></svg>