<svg x="0" y="0" width="300" height="300" version="1.1" xmlns="http://www.w3.org/2000/svg" xmlns:xlink="http://www.w3.org/1999/xlink"><g fill="none" stroke="none" stroke-width="1" stroke-linecap="butt" stroke-linejoin="miter" stroke-miterlimit="10" stroke-dasharray="" stroke-dashoffset="0" font-family="sans-serif" font-weight="normal" font-size="12" text-anchor="start" mix-blend-mode="normal"><path d="M0,300l0,-300l300,0l0,300z" fill="#7aabfe"></path><path d="M244,150l-2.16493,50.90501l-43.0825,27.11541l-43.36197,24.83842l-51.41957,-8.48547l-32.60963,-39.31004l-28.76977,-43.77426l20.88091,-48.0178l27.42395,-38.92031l43.92936,-20.15674l51.42828,-3.80165l38.46211,34.65757l21.14222,44.5745" fill="#8c4c51"></path><path d="M252,150l-17.16189,47.02653l-34.49578,33.53804l-44.79472,25.29016l-48.94635,-16.87412l-32.7824,-35.638l-13.32583,-43.93505l-6.22553,-50.0436l30.47239,-42.8931l49.7731,-14.25201l48.32095,7.57065l44.90115,22.63641l9.32005,49.06994" fill="#2e8963"></path><path d="M248,150l-12.28727,47.51134l-36.43024,31.35713l-43.99656,21.99311l-44.30096,-20.86891l-28.15544,-32.9594l-26.31459,-37.20759l6.0371,-46.94513l33.26975,-32.22549l40.72485,-15.59625l43.20912,3.18794l32.88514,27.30036l37.13016,33.24591" fill="#666f5b"></path><path d="M237,150l-10.03347,42.66325l-26.09428,38.74937l-45.848,14.45582l-47.54625,-8.68541l-37.7549,-30.97253l-3.26294,-47.4301l-2.06711,-45.11839l29.58176,-35.37098l41.63322,-19.15835l47.56792,-0.28286l35.50262,31.44881l14.46397,42.02888" fill="#10657e"></path><path d="M229,150l-2.90809,42.17844l-31.04878,29.90565l-40.28057,18.7912l-44.21598,-9.98382l-28.53622,-33.28462l-9.58309,-39.45362l4.85282,-39.02098l22.23564,-33.74912l37.03088,-20.32432l40.13094,11.64517l29.17094,24.74766l19.46886,32.53917" fill="#6b3a8e"></path><path d="M223,150l-9.15276,35.3911l-17.74426,38.38908l-42.23012,0.1184l-40.25767,0.70132l-29.14736,-28.71379l-11.04602,-37.83742l-4.42624,-42.43303l35.44548,-23.92846l31.63628,-29.59147l40.94226,13.66855l31.09305,23.71917l14.27028,35.13108" fill="#dc0d85"></path><path d="M217,150l2.96958,38.78477l-27.04612,29.90713l-38.73658,11.19847l-41.44842,-3.49287l-24.17486,-33.37926l-7.18561,-35.80577l1.42516,-35.73584l16.09695,-36.88152l39.99306,-4.72098l38.81048,-5.98923l37.20139,19.69403l13.34678,39.78814" fill="#13ace2"></path><path d="M227,150l-19.2751,31.99743l-16.3912,34.15032l-37.30383,10.74672l-38.66119,-5.88974l-16.97526,-34.86941l-20.99352,-28.50474l4.48274,-36.54468l23.17407,-28.61068l35.24435,-3.71189l31.58823,1.09635l32.4498,12.90408l11.1968,33.30617" fill="#97b801"></path><path d="M215,150l-5.52586,32.96705l-21.84987,27.24436l-34.37944,1.70362l-36.12267,5.49452l-26.10111,-26.11205l-6.6595,-34.39862l-3.39942,-36.20371l25.94156,-25.85592l31.83302,-15.95281l31.10045,16.61139l26.20012,14.48257l25.36749,24.84205" fill="#496d18"></path><path d="M215,150l-15.14668,27.63415l-13.28889,30.88117l-33.58128,-1.59344l-31.91565,2.39852l-17.75917,-26.62655l-17.95226,-25.89951l0.20858,-34.14553l18.87639,-30.96162l34.4521,-11.81308l30.602,16.56339l32.57981,8.29441l12.48278,31.5459" fill="#6338ff"></path><path d="M212,150l-2.52586,32.96705l-25.02939,22.15607l-30.99058,10.78642l-25.37273,-20.96985l-32.14548,-7.08366l-14.55798,-30.64358l6.94819,-33.39145l25.96546,-19.52564l25.85299,-16.51974l28.32446,11.48096l27.5682,10.7238l4.82639,29.20819" fill="#552fe2"></path><path d="M214,150l-15.0213,27.14934l-23.54258,13.55697l-22.3483,18.21283l-28.95172,-5.89029l-13.4554,-25.49718l-20.35202,-21.25996l8.12304,-28.15265l22.61218,-15.15556l21.2708,-11.36022l25.79236,-1.40698l24.89138,12.40834l4.91079,27.20769" fill="#d8c0d1"></path><path d="M200,150l-3.64516,25.69491l-16.67937,21.79578l-26.90167,5.43667l-24.25399,-8.88646l-13.74335,-19.37712l-25.4423,-18.28755l22.00463,-22.78694l6.03115,-25.35386l23.24399,-17.49673l28.88122,5.69882l14.46678,24.03982l25.70507,16.84004" fill="#923363"></path></g></svg>