<svg x="0" y="0" width="300" height="300" version="1.1" xmlns="http://www.w3.org/2000/svg" xmlns:xlink="http://www.w3.org/1999/xlink"><g fill="none" stroke="none" stroke-width="1" stroke-linecap="butt" stroke-linejoin="miter" stroke-miterlimit="10" stroke-dasharray="" stroke-dashoffset="0" font-family="sans-serif" font-weight="normal" font-size="12" text-anchor="start" mix-blend-mode="normal"><path d="M0,300l0,-300l300,0l0,300z" fill="#d21e78"></path><path d="M257,150l-17.00834,45.85304l-32.3887,33.43062l-41.17734,24.42361l-44.23715,-18.11219l-38.65651,-19.12705l-27.68656,-35.87535l-8.56499,-46.86187l21.00887,-43.09713l33.13373,-35.97139l48.57698,-5.6623l44.03708,14.57237l43.33676,22.94683l2.5058,49.24527" fill="#1f0a33"></path><path d="M252,150l-28.04646,37.68121l-19.8773,36.74835l-39.84071,15.45008l-44.5192,3.3239l-41.84123,-21.07865l-19.17653,-42.45926l-4.50434,-44.83977l14.09505,-44.19217l44.0295,-14.58723l37.68121,-17.04646l41.76713,9.0274l39.94359,22.60629l14.09505,44.19217" fill="#4d1b67"></path><path d="M232,150l-12.50149,35.41126l-21.30012,30.92813l-35.68363,12.67567l-39.09022,2.77579l-27.87176,-27.34364l-31.14786,-26.63569l3.61695,-40.79559l15.63874,-35.21433l31.83612,-19.51811l34.50328,-9.2835l39.49717,-0.51757l29.26927,27.55582l25.06395,35.10047" fill="#07a2ec"></path><path d="M220,150l0.38952,35.86525l-28.65676,21.57496l-29.84373,17.62411l-39.39153,9.57972l-34.01578,-23.12574l-5.05567,-39.8871l-1.57654,-32.42517l1.8111,-37.40441l34.56006,-14.17207l31.77933,-12.62954l37.22722,1.93747l32.34824,22.513l11.41498,37.72191" fill="#c6c513"></path><path d="M219,150l-11.08458,29.50938l-10.8926,35.21198l-35.29024,9.35527l-37.07198,3.91001l-27.69362,-24.95363l-10.68778,-32.32887l-3.44202,-31.34168l4.8685,-34.62192l33.23892,-11.76495l29.05539,-17.97558l31.77933,12.62954l23.23382,22.40106l16.1004,28.70612" fill="#cd1405"></path><path d="M206,150l1.91542,29.50938l-21.47274,20.64967l-26.27445,14.04069l-28.40024,-8.08741l-24.1944,-13.68593l-21.29438,-21.72227l-7.39277,-31.96742l12.05532,-31.64504l31.36482,-11.44307l27.69342,-6.6486l29.96337,2.19357l23.43175,20.0126l6.85387,29.25132" fill="#e22190"></path><path d="M214,150l-3.41156,30.87135l-24.14576,19.2877l-26.90018,10.08994l-30.55566,4.42285l-22.12036,-21.53833l-10.12565,-25.82856l3.87475,-25.12667l-3.20169,-30.38432l23.9847,-17.92737l28.6014,-6.86659l29.50938,5.08458l23.07672,19.70938l-3.20169,30.38432" fill="#a7c7af"></path><path d="M196,150l3.89637,25.42347l-21.09489,14.21836l-20.66689,11.71796l-21.73134,-9.51331l-21.75859,-6.49115l-13.14854,-19.59547l8.00866,-22.17368l-5.61875,-27.08995l24.77642,-8.37355l21.33755,-0.12269l25.87746,-8.78737l14.57339,21.39811l13.87201,20.78537" fill="#66949b"></path></g></svg>