<svg x="0" y="0" width="300" height="300" version="1.1" xmlns="http://www.w3.org/2000/svg" xmlns:xlink="http://www.w3.org/1999/xlink"><g fill="none" stroke="none" stroke-width="1" stroke-linecap="butt" stroke-linejoin="miter" stroke-miterlimit="10" stroke-dasharray="" stroke-dashoffset="0" font-family="sans-serif" font-weight="normal" font-size="12" text-anchor="start" mix-blend-mode="normal"><path d="M0,300l0,-300l300,0l0,300z" fill="#e4292e"></path><path d="M256,150l-37.66272,65.99255l-64.70773,37.9441l-73.21913,-26.64958l-30.16682,-70.31141l17.78965,-75.75392l72.14108,-24.70678l68.92918,17.83603l32.00116,62.84511" fill="#9288df"></path><path d="M238,150l-28.2948,57.65664l-56.35485,38.28487l-63.57211,-29.05849l-33.54927,-60.32593l18.69867,-69.55029l65.76932,-25.51926l69.63786,11.28739l27.79903,64.83865" fill="#4aca5d"></path><path d="M237,150l-29.45282,55.57267l-54.79012,23.37921l-55.61838,-20.24343l-34.92432,-52.56987l28.03417,-56.276l50.55296,-37.38049l55.98878,27.62911l25.4993,49.72918" fill="#806b97"></path><path d="M228,150l-26.92687,49.32074l-48.28117,30.63052l-47.62371,-30.16056l-18.01478,-45.39605l13.81969,-45.53306l41.5008,-30.46717l52.46934,14.08079l34.27816,46.39094" fill="#cd285a"></path><path d="M208,150l-8.36555,47.93143l-47.33108,18.02837l-38.43642,-25.82997l-27.71105,-35.66541l22.4777,-39.17495l35.09469,-24.96078l37.05478,20.27078l35.56489,30.07594" fill="#109cc6"></path></g></svg>