<svg x="0" y="0" width="300" height="300" version="1.1" xmlns="http://www.w3.org/2000/svg" xmlns:xlink="http://www.w3.org/1999/xlink"><g fill="none" stroke="none" stroke-width="1" stroke-linecap="butt" stroke-linejoin="miter" stroke-miterlimit="10" stroke-dasharray="" stroke-dashoffset="0" font-family="sans-serif" font-weight="normal" font-size="12" text-anchor="start" mix-blend-mode="normal"><path d="M0,300l0,-300l300,0l0,300z" fill="#6f9e0a"></path><path d="M260,150l-10.30614,46.48801l-39.27182,25.52017l-33.24604,29.41403l-43.32528,-9.83509l-44.07625,-5.57616l-20.31484,-39.51096l-21.0715,-37.61011l8.58229,-42.74988l21.61178,-37.55779l36.18971,-25.37056l43.50787,2.14984l45.7202,1.10775l23.00029,39.61456l25.41971,35.85677" fill="#542e89"></path><path d="M243,150l-15.05753,36.34517l-17.52043,35.66301l-37.64596,12.9933l-38.05712,1.66161l-43.22376,-3.10957l-25.49967,-35.05351l-16.6112,-39.69727l20.74179,-37.87444l14.82005,-35.98211l34.61403,-18.57882l39.59115,-20.9678l41.34865,17.13188l24.04284,35.27311l21.96832,35.17793" fill="#2eddca"></path><path d="M243,150l-19.58907,34.23208l-11.70332,39.30819l-36.08453,22.08639l-40.38318,-11.918l-33.42033,-14.89989l-36.69007,-19.80877l0.19394,-41.59176l-1.77517,-38.87409l26.34764,-28.63822l28.98024,-25.40795l38.61923,-0.16072l38.00461,6.86443l33.95775,23.1714l16.0686,38.79304" fill="#1d3055"></path><path d="M244,150l-14.24491,37.19041l-21.9042,31.75359l-34.55717,17.98932l-39.0957,2.68418l-37.54062,-13.43637l-25.4657,-30.68114l2.10132,-38.78901l-11.62411,-38.86089l26.10571,-30.0755l32.12762,-20.46755l36.89592,4.98976l31.20185,11.88526l28.35132,19.35824l7.50927,33.43608" fill="#f0fc74"></path><path d="M235,150l-7.05753,36.34517l-31.01897,19.57607l-26.73561,19.42097l-35.29528,10.33606l-27.91084,-24.24187l-21.06765,-24.4364l-13.61731,-30.20185l-4.98976,-36.89592l19.05334,-33.54184l36.278,-11.5358l33.46251,5.44178l35.8991,-3.01251l23.53216,26.86002l14.23726,31.82061" fill="#22d877"></path><path d="M229,150l-6.49538,33.80946l-17.86768,31.30432l-34.44906,10.22844l-34.25339,4.42721l-23.79054,-25.70539l-21.89971,-19.56403l-17.94743,-27.70185l-2.17069,-35.86986l19.7698,-31.03236l35.13661,-8.49348l30.98122,-0.13987l32.98625,1.18745l20.7981,25.6789l19.97133,27.80558" fill="#a89ac7"></path><path d="M213,150l3.16047,30.85113l-14.73746,30.43242l-31.23512,14.05866l-31.12772,-13.29933l-34.94628,3.48928l-12.13759,-32.03216l-8.72134,-27.66057l-1.85252,-30.80691l17.68587,-25.94422l24.91816,-20.50495l32.00728,2.67921l23.98625,16.77591l28.1598,11.2376l20.62483,26.83207" fill="#f24741"></path><path d="M212,150l-3.9963,27.04757l-11.72299,28.10763l-29.45747,7.62998l-26.72118,-6.65114l-25.66379,-5.34662l-22.46196,-17.28743l-10.71373,-27.48625l-1.73951,-31.66526l21.68658,-23.13886l25.87502,-14.16904l29.19056,-8.76661l22.22479,22.36257l22.28743,13.80171l22.08835,22.71177" fill="#3d7c37"></path><path d="M214,150l-5.9963,27.04757l-24.57874,12.78674l-18.15463,17.15531l-26.55746,7.02288l-18.53884,-21.4166l-27.3317,-9.59591l-11.57976,-26.98625l14.23526,-25.85091l19.14683,-15.51817l18.25433,-11.62929l21.98173,-8.80227l24.61928,4.6914l26.20234,12.0923l-3.50753,29.79984" fill="#4c8157"></path><path d="M197,150l0.128,21.97615l-8.56075,23.98652l-24.84985,5.2314l-23.26806,2.97036l-26.01109,-3.377l-17.26581,-20.28743l-3.95555,-25.53212l12.61754,-21.04282l2.44625,-25.64435l22.22415,-11.84318l23.59147,6.74133l22.40368,0.9218l11.18099,19.51483l14.51382,17.18116" fill="#36a582"></path></g></svg>