<svg x="0" y="0" width="300" height="300" version="1.1" xmlns="http://www.w3.org/2000/svg" xmlns:xlink="http://www.w3.org/1999/xlink"><g fill="none" stroke="none" stroke-width="1" stroke-linecap="butt" stroke-linejoin="miter" stroke-miterlimit="10" stroke-dasharray="" stroke-dashoffset="0" font-family="sans-serif" font-weight="normal" font-size="12" text-anchor="start" mix-blend-mode="normal"><path d="M0,300l0,-300l300,0l0,300z" fill="#fcc115"></path><path d="M259,150l-7.66551,23.39491l-13.25267,19.56546l-3.37291,25.63555l-23.75842,9.41714l-20.37913,8.99248l-21.23557,3.96218l-21.13339,12.01659l-24.57189,2.77792l-18.57557,-17.55259l-16.76255,-14.66938l-18.95458,-12.75695l-13.433,-18.88944l2.80385,-24.14864l-18.64166,-21.58418l7.54485,-23.59587l16.74222,-18.10392l15.45793,-15.47475l6.70718,-26.36035l22.84477,-8.35867l24.31311,3.16058l21.55652,-7.29102l20.95195,8.54309l24.23465,0.35941l19.16938,13.67339l9.04901,22.22372l6.66232,20.59953l23.3448,17.25602" fill="#4c7c90"></path><path d="M254,150l-10.46047,21.5953l-1.86253,23.11856l-20.95671,12.5543l-15.31075,13.65281l-17.79651,9.74043l-15.7823,22.04411l-23.36654,-14.7189l-19.26947,-4.54116l-26.40973,9.21925l-15.77817,-17.59232l-4.89083,-23.91808l-17.98925,-12.92103l0.47171,-21.63286l0.45334,-19.56684l0.91267,-19.5508l4.57026,-19.73518l2.48491,-24.66558l16.4385,-16.41073l23.03169,-5.03972l22.22915,1.70538l20.67164,-16.19576l19.6924,15.38403l21.45872,3.51132l13.68003,17.08046l20.05515,10.67254l1.31528,23.24511l20.13972,16.85263" fill="#8d64a8"></path><path d="M245,150l2.43701,22.49511l-11.15278,19.58852l-19.44968,12.03792l-6.49973,23.1035l-18.073,13.40572l-25.21307,-10.42268l-18.65438,11.77788l-19.68351,-6.59996l-20.02401,-4.30443l-10.10987,-19.79804l-17.25965,-9.52746l-22.67189,-11.08243l-0.91841,-22.73762l10.32291,-20.7978l-0.15365,-19.13786l-0.01043,-21.66124l20.98265,-9.47993l3.52852,-26.14288l24.39081,1.04075l18.6257,-4.48094l19.66303,-14.14321l19.1795,12.27604l22.77045,-0.24708l19.88653,10.52363l-0.56175,27.85479l18.02242,12.37049l6.4936,19.69723" fill="#7d926d"></path><path d="M242,150l-10.15291,18.89589l2.63955,22.311l-16.0978,14.17331l-18.52027,8.44868l-11.83294,17.73883l-19.32359,6.46558l-20.24786,-0.04669l-20.721,1.28061l-16.33238,-13.53165l-12.19103,-15.21804l-14.70789,-11.16868l-4.85489,-18.03011l-17.02182,-14.33672l0.41782,-20.01826l2.91146,-19.481l12.51679,-15.50994l12.65141,-13.14541l3.02775,-25.68401l26.14403,6.89825l15.45642,-10.79587l18.89705,-8.12379l19.32255,5.24826l13.8347,15.40943l12.36965,12.48448l24.35804,3.54041l13.53963,16.60783l4.76024,20.88279" fill="#67ea6c"></path><path d="M237,150l-18.7941,15.74657l1.00124,18.008l-3.14973,19.73765l-19.26713,6.39658l-8.75463,21.67888l-19.32359,6.46558l-19.96863,-16.04425l-16.64565,-0.18715l-17.50904,-2.30337l-19.22569,-4.38473l-3.66345,-21.18128l-17.52388,-10.17336l-11.54055,-16.77714l16.40807,-19.45986l-2.45361,-17.19238l-1.64018,-20.23484l12.40965,-14.54782l15.61807,-10.26846l18.49945,-2.47549l13.41598,-18.48142l19.39894,3.79065l19.6889,-1.74215l10.92584,20.65715l19.29329,2.77789l9.69428,15.45577l4.71775,17.01807l17.31728,14.11109" fill="#444543"></path><path d="M224,150l1.02649,17.32123l-13.00971,12.92638l-2.9537,17.58074l-7.96319,17.57654l-16.4452,8.91235l-19.26923,-1.93432l-16.83401,10.60444l-18.14712,-4.3934l-15.36159,-9.98645l-13.89459,-10.38812l-13.44171,-11.27781l-12.61716,-13.58917l9.14171,-20.5682l-12.18346,-15.50636l13.23545,-14.61872l1.1448,-16.46108l2.44075,-19.33883l16.4598,-8.34451l13.02246,-13.0756l18.45196,-0.2845l17.38414,-5.04497l16.21029,8.757l15.47875,6.41151l17.65454,5.27027l4.62935,18.72766l8.59744,13.75225l2.38095,16.02126" fill="#139d22"></path><path d="M213,150l0.33405,14.62182l-1.31727,15.62579l-12.27945,10.0289l-7.87236,13.30823l-12.70432,8.95051l-12.52772,15.71657l-17.99422,-0.26369l-14.84748,-12.97831l-11.03066,-11.54942l-23.54079,7.05712l-7.52017,-16.58501l-1.99361,-17.08788l-14.30967,-12.34313l2.64753,-17.01425l3.37541,-15.86339l13.83798,-10.73108l7.19605,-12.22448l7.57731,-13.68144l11.83676,-11.26319l14.24079,-12.50827l17.55537,8.88055l14.52855,6.4608l10.89651,10.96609l11.72839,7.14535l16.52368,5.18148l6.63504,14.3025l1.21174,15.52318" fill="#d508b8"></path><path d="M210,150l2.35968,14.39687l-4.83687,13.65889l-3.1226,15.99667l-15.61354,5.59225l-12.16172,7.45271l-14.9819,-2.32112l-12.70765,6.21444l-12.96687,-4.71356l-13.66195,-1.92575l-18.58729,0.8038l-10.42241,-12.42633l6.45812,-20.35835l-9.63426,-10.73117l-5.08115,-13.90782l2.17523,-14.55477l0.0959,-16.50924l9.1049,-13.24771l17.14169,-3.57886l7.91931,-17.0378l16.19435,-2.7245l15.41684,11.00221l14.82861,-3.56287l10.68734,10.87945l9.53668,9.24331l10.18953,8.51825l4.51951,12.48843l15.30102,10.5586" fill="#851249"></path><path d="M204,150l-0.40965,12.37231l1.23608,14.36833l-11.30626,8.5013l-4.11784,15.19075l-13.62262,4.85209l-12.47337,7.31667l-14.33604,-3.61043l-12.03409,-6.59504l-15.53762,3.73744l-11.89422,-7.87261l-15.40887,-6.13375l8.40012,-20.97675l-20.22791,-7.98448l15.76395,-14.98059l-15.64648,-16.30256l11.98911,-11.45938l14.11667,-6.50654l10.94419,-5.98564l8.68389,-9.47939l10.76746,-11.47942l14.72466,-5.87774l15.4078,2.57838l10.0696,13.84987l7.71361,11.60422l4.15542,12.19414l12.81906,6.95164l-2.41687,13.59259" fill="#e92cc6"></path><path d="M200,150l8.4622,13.49706l-9.92733,10.17498l-0.35183,15.34582l-13.09035,5.89875l-8.04514,13.08709l-13.94913,3.6196l-14.14558,-1.63244l-12.50048,-5.6543l-12.78382,-2.65818l-8.37908,-10.31198l-7.61715,-9.4702l1.21814,-13.59305l-10.9167,-8.19027l2.0567,-11.85785l-7.98601,-13.78417l4.97869,-12.63915l19.01492,-1.35436l1.63374,-14.97328l10.44725,-7.05234l13.19853,2.30788l11.56089,-5.68424l11.17903,5.90028l9.21336,7.0426l12.19306,2.59507l3.85538,11.85501l11.67581,6.92831l12.21694,10.59156" fill="#6f6b93"></path></g></svg>