<svg x="0" y="0" width="300" height="300" version="1.1" xmlns="http://www.w3.org/2000/svg" xmlns:xlink="http://www.w3.org/1999/xlink"><g fill="none" stroke="none" stroke-width="1" stroke-linecap="butt" stroke-linejoin="miter" stroke-miterlimit="10" stroke-dasharray="" stroke-dashoffset="0" font-family="sans-serif" font-weight="normal" font-size="12" text-anchor="start" mix-blend-mode="normal"><path d="M0,300l0,-300l300,0l0,300z" fill="#b9dc6e"></path><path d="M258,150l-30.07047,52.56413l-42.34191,35.51833l-58.25,18.53562l-50.71029,-35.76293l-23.1385,-53.83763l14.29207,-53.62382l32.40668,-43.11022l53.16276,-16.225l58.3671,10.99473l32.25181,50.74477" fill="#3e51ab"></path><path d="M232,150l1.73279,56.47848l-51.51663,23.25933l-52.59151,16.12065l-49.40061,-28.4766l-22.79597,-51.05893l8.52575,-53.7427l35.82353,-39.75261l51.11931,-5.77706l56.46965,1.23872l32.72357,48.19274" fill="#d604dc"></path><path d="M240,150l-12.07047,52.56413l-47.21179,23.46494l-48.39023,7.11347l-44.19073,-23.40193l-28.73909,-43.76499l4.72904,-54.20888l37.65062,-38.93913l51.50321,-16.77036l47.85676,23.55826l25.91748,42.33883" fill="#079227"></path><path d="M235,150l-20.33507,43.61705l-35.82022,27.77611l-43.39853,-2.92282l-37.23865,-18.45493l-25.02254,-36.47084l10.12619,-43.23633l27.47479,-33.06378l42.21538,-23.19205l46.96039,17.18117l14.87704,45.16705" fill="#b91d51"></path><path d="M208,150l-1.62545,38.02512l-33.14895,19.46028l-39.0269,16.85382l-38.1492,-22.23984l-18.92529,-39.24941l4.35986,-43.35521l29.30188,-32.25031l41.48249,-2.20484l36.52536,11.56528l27.92435,29.11169" fill="#86e2ae"></path><path d="M210,150l-12.74486,31.874l-23.65493,26.53859l-34.82745,-5.59261l-39.12655,-4.19388l-7.74987,-38.38084l-2.19034,-37.08986l31.67836,-18.94998l30.43041,-6.17373l34.04013,2.61829l14.8885,30.88095" fill="#39393e"></path><path d="M200,150l-5.23197,30.19642l-28.65995,9.67249l-28.37487,17.8418l-26.57756,-20.19916l-10.39604,-28.82914l-2.8317,-31.8664l22.92653,-23.45866l30.71604,1.67006l33.10885,-2.75942l21.70223,27.21079" fill="#d0c3b8"></path></g></svg>