<svg x="0" y="0" width="300" height="300" version="1.1" xmlns="http://www.w3.org/2000/svg" xmlns:xlink="http://www.w3.org/1999/xlink"><g fill="none" stroke="none" stroke-width="1" stroke-linecap="butt" stroke-linejoin="miter" stroke-miterlimit="10" stroke-dasharray="" stroke-dashoffset="0" font-family="sans-serif" font-weight="normal" font-size="12" text-anchor="start" mix-blend-mode="normal"><path d="M0,300l0,-300l300,0l0,300z" fill="#6b6ad4"></path><path d="M251,150l-36.65328,64.34672l-64.34672,28.65328l-65.76093,-27.23907l-36.23907,-65.76093l34.82486,-67.17514l67.17514,-27.82486l68.58936,26.41064" fill="#2667bf"></path><path d="M250,150l-30.70354,69.29646l-69.29646,14.70354l-65.76093,-18.23907l-28.23907,-65.76093l35.31014,-58.68986l58.68986,-21.31014l62.9325,17.0675" fill="#35e828"></path><path d="M232,150l-26.13856,55.86144l-55.86144,14.13856l-55.86144,-14.13856l-20.13856,-55.86144l19.43146,-56.56854l56.56854,-17.43146l62.2254,11.7746" fill="#e83218"></path><path d="M216,150l-16.50253,49.49747l-49.49747,17.50253l-51.6188,-15.3812l-27.3812,-51.6188l34.45227,-44.54773l44.54773,-26.45227l46.66905,24.33095" fill="#e9e721"></path><path d="M202,150l-8.86649,43.13351l-43.13351,15.86649l-39.59798,-19.40202l-17.40202,-39.59798l15.98781,-41.01219l41.01219,-25.98781l42.42641,24.57359" fill="#8df5bb"></path></g></svg>