<svg x="0" y="0" width="300" height="300" version="1.1" xmlns="http://www.w3.org/2000/svg" xmlns:xlink="http://www.w3.org/1999/xlink"><g fill="none" stroke="none" stroke-width="1" stroke-linecap="butt" stroke-linejoin="miter" stroke-miterlimit="10" stroke-dasharray="" stroke-dashoffset="0" font-family="sans-serif" font-weight="normal" font-size="12" text-anchor="start" mix-blend-mode="normal"><path d="M0,300l0,-300l300,0l0,300z" fill="#5d14c4"></path><path d="M246,150l-11.51336,41.20689l-17.37954,44.68628l-48.39505,2.14011l-42.17848,6.0854l-46.59743,-10.61984l-23.11779,-42.01171l-2.75988,-44.83749l8.52971,-43.12733l25.69436,-38.4691l42.61615,-23.38207l48.31886,6.43511l31.00419,35.01071l24.15198,32.79383" fill="#2ce650"></path><path d="M233,150l5.98061,43.39874l-31.72409,29.88626l-36.88117,22.57346l-42.87408,-5.62096l-34.06657,-22.82559l-25.65378,-30.80561l-9.72486,-39.81705l3.6492,-43.7364l38.33301,-21.81929l33.81247,-22.82068l39.02718,11.8024l34.66733,15.87427l24.04695,30.94507" fill="#d6ccab"></path><path d="M228,150l-6.99527,34.63132l-16.21086,35.50164l-39.61632,1.27182l-34.77323,7.18918l-32.47012,-16.54435l-19.19075,-30.32414l-17.68924,-34.83151l10.36345,-38.67691l33.91066,-19.70232l31.12712,-15.32971l33.39045,7.60416l29.66978,14.21813l27.4406,23.90037" fill="#088f75"></path><path d="M213,150l-1.882,29.80924l-22.33132,19.83544l-25.27241,13.93492l-28.51342,-3.42126l-33.20991,-2.705l-17.5662,-28.16829l-7.18026,-31.8327l17.32983,-27.02905l13.30516,-28.67252l31.03341,-5.76328l31.13302,-5.19834l29.00064,14.96127l18.83789,26.90329" fill="#c06e48"></path><path d="M211,150l1.91558,30.68598l-21.66626,22.11074l-28.98253,4.91399l-26.05634,-2.40385l-24.13492,-10.11023l-13.23408,-22.41937l-6.80612,-24.80142l-2.07577,-29.8999l26.53668,-14.1899l24.6477,-4.11123l23.46484,-0.72167l21.52427,10.81705l19.49798,17.65342" fill="#78ea92"></path></g></svg>