<svg x="0" y="0" width="300" height="300" version="1.1" xmlns="http://www.w3.org/2000/svg" xmlns:xlink="http://www.w3.org/1999/xlink"><g fill="none" stroke="none" stroke-width="1" stroke-linecap="butt" stroke-linejoin="miter" stroke-miterlimit="10" stroke-dasharray="" stroke-dashoffset="0" font-family="sans-serif" font-weight="normal" font-size="12" text-anchor="start" mix-blend-mode="normal"><path d="M0,300l0,-300l300,0l0,300z" fill="#4699db"></path><path d="M259,150l-16.29031,51.38982l-37.06817,37.65523l-50.72194,4.82613l-46.56484,-8.48574l-46.00401,-24.01276l-10.8084,-51.02436l8.24819,-48.63997l26.79634,-42.87346l48.86473,-10.68991l47.04032,2.58422l37.69608,28.25731l37.40825,38.1432" fill="#d79d0f"></path><path d="M239,150l5.45893,52.35944l-38.81741,36.68561l-50.19858,14.81242l-48.84168,-14.87686l-31.96324,-36.21158l-29.06281,-41.79354l9.6128,-51.22079l40.01813,-29.88765l40.08903,-22.70975l45.14463,9.21006l47.29529,16.05856l22.03597,46.36709" fill="#40e522"></path><path d="M247,150l-20.03347,42.66325l-26.09428,38.74937l-46.05734,10.4613l-44.70668,-10.08366l-33.01276,-30.74196l-24.55861,-40.80451l15.53821,-45.01886l19.12746,-45.60203l49.34411,-4.5641l49.7075,-14.66622l35.44327,37.28181l20.24846,42.78191" fill="#abdb49"></path><path d="M238,150l-11.90809,42.17844l-22.57007,43.47442l-48.23591,15.20873l-45.61608,-18.17253l-44.04252,-23.61068l-5.13431,-49.67081l7.58204,-44.18263l29.59371,-32.20584l38.87786,-17.96028l46.97134,-7.14868l38.17944,29.76427l17.31402,43.40564" fill="#0ac5c1"></path><path d="M238,150l-15.40656,40.2392l-25.96054,34.38903l-41.76565,18.24431l-49.14273,-2.09435l-26.17159,-41.45063l-27.01607,-39.08378l13.6972,-45.80032l27.74075,-36.15245l42.72826,-12.24453l43.73672,0.32087l43.52175,19.33886l11.1373,46.20547" fill="#01764c"></path><path d="M242,150l-22.03042,38.78477l-21.217,39.23566l-44.19934,8.86034l-41.81478,-10.48328l-34.00468,-26.49634l-21.22431,-40.18l5.96308,-46.44987l32.96491,-31.82821l39.79632,-18.35964l41.12784,11.74116l36.7887,19.41039l27.79556,36.22132" fill="#1281fd"></path><path d="M247,150l-19.15885,43.14806l-32.2681,29.78408l-40.75815,18.94178l-46.89854,-5.58969l-32.45921,-34.08877l-12.97509,-42.99695l-1.77104,-47.09942l30.18547,-37.74811l43.92936,-20.15674l41.85171,22.50974l40.49158,14.90677l12.0608,41.54841" fill="#787681"></path><path d="M228,150l0.71577,43.63287l-34.73247,26.75513l-39.27306,19.48867l-45.47875,-6.28881l-32.13602,-32.53954l-5.6627,-42.79055l6.76785,-38.73478l12.69588,-45.172l45.33727,-11.26754l46.60017,-3.29392l26.78812,38.38183l31.34567,32.49288" fill="#92d968"></path><path d="M230,150l-7.40656,40.2392l-31.25973,25.90855l-37.46084,7.75083l-42.44952,5.19529l-36.78533,-26.32484l-13.15046,-43.466l16.71307,-39.78006l18.85249,-37.2919l39.33709,-18.15996l42.68151,6.05501l29.04093,29.35733l22.09547,33.46779" fill="#e3483d"></path><path d="M224,150l-9.27814,35.87591l-20.73856,34.51208l-39.74409,10.501l-37.11705,-13.47944l-35.93094,-19.22913l-4.78585,-40.44531l-10.17132,-43.29164l33.2817,-29.06035l37.03088,-20.32432l42.8671,4.12763l34.73658,25.04855l14.10149,39.13208" fill="#a00530"></path><path d="M235,150l-8.03347,42.66325l-30.33364,31.96499l-42.44602,5.26213l-40.57168,-5.29046l-22.59414,-33.3024l-10.63759,-33.98051l-0.34184,-37.01256l17.62714,-37.28535l40.44221,-8.0834l41.98679,-7.62864l24.24132,35.4567l31.7379,28.94002" fill="#477bbd"></path><path d="M230,150l-7.40656,40.2392l-34.96917,19.97222l-33.75141,13.68717l-36.31233,-7.38783l-24.90118,-26.36041l-28.18824,-31.1609l18.33203,-37.51282l25.33187,-25.06136l30.1324,-20.49189l36.35804,6.41876l34.2419,16.48526l21.34076,34.12385" fill="#6acbec"></path><path d="M222,150l3.21729,41.69363l-39.18278,15.97364l-32.42333,11.23817l-33.85879,-6.88865l-24.63558,-23.58717l-28.65665,-29.64923l21.86601,-34.95938l13.65223,-35.28585l37.38405,-5.69797l35.26299,-0.49506l25.18538,24.35797l15.72506,29.36981" fill="#11f202"></path><path d="M232,150l-15.5289,36.84553l-32.02635,18.2776l-30.7289,15.77957l-31.77161,-13.37988l-35.83811,-12.78386l-1.74459,-37.84008l-3.39942,-36.20371l29.63553,-21.12785l26.73114,-29.57007l37.29664,12.34489l24.43067,25.01403l29.19569,26.0109" fill="#55d2ad"></path><path d="M229,150l-9.03042,38.78477l-36.05474,15.49031l-29.72796,25.61528l-38.37983,-9.78443l-16.59448,-34.5442l-22.80719,-27.82663l-0.96627,-39.38433l35.77422,-17.99546l26.74122,-26.40732l33.59272,16.85137l33.54653,11.30833l7.50765,34.58596" fill="#25c81d"></path><path d="M212,150l-6.89896,30.54301l-14.29726,34.7567l-37.29727,1.60848l-30.68552,-11.18295l-33.43824,-13.28057l-14.96641,-34.50049l1.94328,-39.20265l29.31276,-25.47828l34.31582,-6.47528l33.26918,-0.68704l31.08172,16.66285l4.34977,34.76155" fill="#4f1218"></path><path d="M226,150l-12.15276,35.3911l-29.93241,18.88398l-30.77468,5.64269l-33.38777,2.09902l-20.53982,-26.45505l-23.80172,-27.7221l11.99481,-34.40935l21.96067,-25.43899l30.46542,-12.19103l33.76763,-0.63905l31.49441,16.94648l7.50765,34.58596" fill="#99c1f7"></path><path d="M223,150l-12.65124,33.45186l-22.72449,26.75955l-33.64674,15.68443l-34.66351,-12.98026l-20.9206,-26.78027l-21.98804,-28.40021l6.39777,-36.25848l28.41018,-21.12131l28.14913,-17.51813l32.52683,7.02248l27.16683,17.49649l8.65459,30.37705" fill="#7ae5d9"></path><path d="M210,150l-0.52586,32.96705l-20.26011,29.7885l-35.34116,11.14303l-28.42164,-23.56612l-32.79186,-10.18212l-8.2978,-33.25147l6.72613,-31.90567l19.50998,-25.4259l29.7034,-10.80399l34.66641,-7.36088l27.10749,23.32949l1.72316,33.83293" fill="#d48bd0"></path><path d="M212,150l-9.52282,29.08858l-17.50251,26.8826l-31.72984,5.94386l-33.93081,1.00055l-21.73975,-26.20669l-16.19628,-29.49643l15.23273,-29.87487l11.5243,-30.92233l31.69674,-10.61501l30.68945,7.81818l20.98782,20.29831l12.28909,24.6481" fill="#eb6f48"></path><path d="M202,150l3.10104,30.54301l-27.01532,14.40354l-24.68388,19.96437l-28.38899,-13.67966l-29.07688,-13.37522l-13.56345,-30.74811l8.71518,-32.11473l16.43167,-29.36595l31.99953,-11.80238l28.26616,17.3111l30.51637,6.87624l8.43115,29.9289" fill="#b2782e"></path><path d="M198,150l-4.26901,24.24048l-17.76494,17.31388l-22.66888,21.3593l-31.35292,-5.39084l-20.27422,-23.68181l-13.33039,-27.36025l7.35057,-29.5339l21.67973,-18.71143l22.46182,-22.43517l26.92723,18.1548l31.54243,4.05716l12.34374,29.09725" fill="#9e0a77"></path><path d="M215,150l-23.01825,23.27086l-9.65667,28.46007l-29.08025,10.1841l-26.91687,-13.38015l-23.83878,-15.26745l-13.15502,-26.8912l7.27655,-29.03864l16.44959,-24.61824l28.17936,-8.0299l31.33366,-6.70917l12.14331,31.841l15.16889,19.57522" fill="#efda5e"></path><path d="M201,150l-11.64211,21.81643l-10.74225,23.97816l-26.20819,0.14236l-30.46321,11.58586l-23.55083,-21.3875l-12.04282,-29.44549l19.46517,-25.44492l15.86381,-17.4934l19.40366,-20.04974l29.43797,-0.08332l25.51608,16.36196l8.73898,28.37655" fill="#38260a"></path><path d="M196,150l5.60256,28.60377l-21.92708,18.88693l-27.3727,-3.55099l-26.4132,5.49397l-16.02804,-21.32843l-6.60408,-23.19241l-10.32877,-29.13817l20.13161,-23.05532l29.43083,-0.1284l25.63592,-2.39467l18.09899,18.31288l8.76873,21.9269" fill="#aeb160"></path></g></svg>