<svg x="0" y="0" width="300" height="300" version="1.1" xmlns="http://www.w3.org/2000/svg" xmlns:xlink="http://www.w3.org/1999/xlink"><g fill="none" stroke="none" stroke-width="1" stroke-linecap="butt" stroke-linejoin="miter" stroke-miterlimit="10" stroke-dasharray="" stroke-dashoffset="0" font-family="sans-serif" font-weight="normal" font-size="12" text-anchor="start" mix-blend-mode="normal"><path d="M0,300l0,-300l300,0l0,300z" fill="#7ec4f9"></path><path d="M250,150l-10.73279,22.25681l-3.62129,23.28193l-15.7903,17.35954l-16.73229,15.86029l-16.18515,22.72823l-27.42609,-10.98531l-23.84692,11.49612l-20.12898,-16.6967l-23.13915,-6.01725l-17.4694,-16.29048l-13.90826,-19.59444l-7.856,-22.81549l-9.09882,-24.2826l9.80926,-23.86439l13.85376,-19.93626l13.93513,-18.49255l13.7556,-21.35641l23.67998,-7.7567l24.55386,4.32732l22.32347,0.17602l24.69803,-0.75223l26.43344,5.46137l11.69397,24.32702l14.38056,20.07901l14.16241,22.55949" fill="#e8ceb1"></path><path d="M247,150l-0.94072,23.95027l-11.29631,21.119l-9.70534,22.51292l-27.52623,2.886l-16.74958,14.10414l-20.4335,13.88533l-23.29142,-6.36274l-19.64768,-11.42994l-28.53889,3.47277l-7.04829,-26.92967l-22.60024,-12.93261l5.67936,-26.18717l-0.84877,-21.08967l-8.25604,-24.0111l9.33316,-21.98754l17.97189,-15.60323l14.43659,-19.35353l24.34146,-2.58938l21.1449,-13.21026l21.73574,16.04775l25.50683,-6.73234l18.22091,15.57998l11.64512,20.06715l11.17259,18.59431l1.41831,21.61311" fill="#0f0483"></path><path d="M247,150l-15.49516,20.32144l-2.03956,21.931l-19.27055,11.94714l-16.57768,10.46535l-12.49321,20.8471l-22.44797,-2.96671l-21.75813,10.53988l-18.38468,-15.20175l-17.90701,-9.92602l-25.69839,-4.96424l3.16883,-27.92349l-6.34828,-18.43676l-19.68849,-20.05309l19.11684,-19.18211l-3.44895,-24.89774l24.72523,-8.07267l12.50405,-16.51142l15.68652,-18.26628l23.7761,10.54525l19.99332,-1.93392l25.04066,-6.87487l15.95608,17.69294l16.29945,14.89577l16.90493,16.57174l6.91244,22.60958" fill="#07fb1a"></path><path d="M237,150l-3.55457,20.80528l-14.57552,15.8135l-0.50059,24.94123l-18.04196,13.05337l-19.20353,10.89865l-23.38873,-11.91741l-19.84317,12.5587l-21.60653,-2.70678l-15.65937,-15.48912l-13.44168,-15.24884l-7.29029,-18.51563l-6.18958,-17.97584l-0.65758,-18.90437l-9.56046,-22.1201l24.15972,-11.19264l-0.94807,-25.12994l19.3186,-9.25806l18.95292,-6.64759l19.79864,2.21827l18.77629,-1.9977l19.40111,2.81782l18.7699,7.80428l15.26535,13.86168l8.84336,18.57208l4.92996,19.51999" fill="#ae7cbe"></path><path d="M223,150l8.50484,20.32144l-5.57135,20.05312l-18.71134,11.1485l-14.1643,12.31284l-16.7223,8.52044l-19.22762,-4.72884l-18.79848,15.55503l-13.78271,-20.13402l-19.19843,-1.56321l-15.07979,-11.34786l-15.74723,-13.31426l-4.7094,-19.77442l-5.73951,-20.05012l5.20163,-20.15218l19.25818,-12.34646l10.41468,-13.82074l10.26934,-15.97896l20.40866,2.52997l15.23314,-11.05001l17.66465,2.91358l21.66321,-5.83166l12.62439,16.849l6.79446,18.02384l21.326,8.51258l-4.00457,20.84974" fill="#93239a"></path><path d="M212,150l8.83159,17.6603l-6.37641,16.61113l-18.3802,7.21467l-1.33955,24.83691l-20.79402,-0.54452l-15.57913,13.78327l-18.24357,-9.25272l-16.71578,-4.47898l-12.78454,-11.62592l-6.58105,-15.63688l-14.25653,-9.19639l-15.09816,-13.36167l6.3594,-18.41727l11.28227,-14.13018l1.38405,-15.96176l2.34117,-19.59938l13.67662,-12.35228l18.64267,-2.1223l16.81799,-2.25796l16.96857,-0.10462l15.90946,5.90191l15.03147,7.87388l17.58052,7.75482l1.44426,19.74784l16.66353,13.76624" fill="#dd5c46"></path><path d="M223,150l-15.75255,14.27339l5.44183,19.05909l-12.15543,12.1684l-9.71277,15.01886l-15.51159,9.01751l-17.9925,0.07928l-17.05911,-0.29777l-17.22956,-2.56153l-5.35651,-22.2613l-21.29492,0.4992l3.29064,-20.44635l-22.05046,-9.16332l15.41765,-17.37474l-0.71042,-14.54897l-3.8121,-18.96176l15.45006,-8.95814l11.06308,-11.51304l14.27053,-7.74961l16.93729,9.85233l14.88033,-9.15924l16.95135,-0.00694l6.41221,18.90603l15.16763,5.34193l14.3035,10.31511l8.92759,15.6216" fill="#ad7581"></path><path d="M209,150l-2.72285,14.03147l2.88034,17.42312l-11.59622,11.36976l-10.09534,12.72116l-20.70694,-9.50058l-11.32351,5.6702l-12.39414,-2.20174l-11.39707,-4.08139l-20.4381,7.96311l-13.2972,-9.68556l-0.03903,-18.28403l0.28823,-14.40621l-0.1265,-12.83409l-13.39747,-16.92857l15.13632,-10.25666l11.38512,-8.51155l13.40822,-3.19476l6.89511,-16.35708l14.70441,2.19737l14.08185,-3.23763l16.19264,-1.2768l9.88615,12.88782l1.50049,16.94088l15.16112,5.96103l1.17879,14.04008" fill="#64b6ea"></path><path d="M197,150l-0.42581,11.61225l4.63677,15.6171l-10.33799,9.57283l-8.99897,10.45296l-16.14107,-4.02928l-10.40197,7.49476l-11.45457,-7.14882l-15.22896,9.27768l-10.38783,-9.16256l-1.96555,-15.40426l-13.03133,-5.48736l-9.99527,-10.73642l13.75876,-13.55956l-14.7019,-15.03756l17.83853,-6.46176l8.18622,-7.56497l3.03531,-15.22963l11.00167,-8.41562l14.61444,11.31497l12.55018,-11.26917l11.59966,6.66006l8.40145,9.67985l12.21282,5.19446l4.82625,11.88649l3.63438,11.88751" fill="#4718b3"></path></g></svg>