<svg x="0" y="0" width="300" height="300" version="1.1" xmlns="http://www.w3.org/2000/svg" xmlns:xlink="http://www.w3.org/1999/xlink"><g fill="none" stroke="none" stroke-width="1" stroke-linecap="butt" stroke-linejoin="miter" stroke-miterlimit="10" stroke-dasharray="" stroke-dashoffset="0" font-family="sans-serif" font-weight="normal" font-size="12" text-anchor="start" mix-blend-mode="normal"><path d="M0,300l0,-300l300,0l0,300z" fill="#497f10"></path><path d="M255,150l-5.54431,30.40666l-13.23579,27.7494l-27.06379,14.89566l-22.81928,16.88511l-27.96989,5.69786l-29.57394,4.13636l-30.66764,-6.18675l-22.93671,-21.33984l-7.16126,-30.47734l-21.43221,-23.53407l9.11293,-29.81065l-1.63039,-31.12976l21.20602,-22.2425l16.42513,-28.33545l30.59748,-10.06877l31.32319,-0.58258l30.22954,5.60271l21.39273,22.28633l26.20901,14.66247l5.93059,29.57726l8.47702,26.78362" fill="#9d19ff"></path><path d="M247,150l-6.15105,27.77531l-12.09038,25.34801l-21.49041,17.59696l-22.80435,14.58063l-26.61979,4.35661l-28.21936,6.20094l-26.16638,-11.89497l-18.9182,-20.74958l-21.85872,-18.72284l-1.31406,-28.86273l4.26627,-25.98723l4.88797,-25.02719l15.32814,-20.37893l10.62847,-29.88784l31.78105,4.51509l24.74216,-4.80984l28.57875,-5.76769l18.38164,22.94886l24.31136,12.79765l20.63585,21.42476l5.95263,29.2581" fill="#3c3e9f"></path><path d="M236,150l1.02373,26.60583l-22.3588,17.01122l-15.57794,17.00034l-17.24543,18.19324l-24.43332,5.86592l-26.95194,7.26933l-20.6955,-19.35244l-20.90468,-13.54747l-8.35463,-23.6347l-20.119,-19.60927l8.22872,-25.79527l8.30515,-22.54565l1.38623,-29.78668l22.41492,-16.54287l27.02405,-4.20115l25.50409,-9.87373l22.14866,19.1929l24.56743,4.984l22.71408,14.00128l10.01712,24.66739l-0.80533,25.80622" fill="#dfee73"></path><path d="M234,150l-9.40823,22.80499l-9.92684,20.81205l-12.43134,20.88607l-22.63967,8.74441l-21.57559,18.40239l-26.31456,-5.57292l-20.00373,-16.98203l-13.49251,-19.07955l-19.48806,-13.69616l-3.56487,-23.12198l-10.51358,-23.67803l17.75661,-19.61775l1.94263,-26.97862l25.38587,-7.37452l18.79188,-15.72019l24.48334,-5.77577l21.74182,14.0882l18.75293,11.99215l15.60292,15.33295l17.01607,16.83068l-0.21926,23.7261" fill="#2c047e"></path><path d="M216,150l7.63547,22.51262l-7.31246,22.22281l-18.49466,14.32766l-21.60589,5.83978l-19.42431,12.80032l-24.05482,3.48306l-24.43696,-5.96896l-17.29224,-18.25531l-1.60258,-26.09063l-8.3481,-18.71598l-7.48951,-21.53931l2.42887,-23.56173l10.60158,-22.16329l27.36109,-2.55831l14.03489,-24.43642l24.44258,12.14634l22.62578,-2.84757l14.90065,17.79177l18.331,11.08066l16.87502,16.57089l0.72043,23.38408" fill="#96d711"></path><path d="M220,150l1.72286,21.92788l-12.86119,17.77482l-18.58516,10.03465l-14.42865,14.23834l-20.09558,1.77316l-20.92983,5.65592l-14.39583,-18.05297l-18.62238,-6.80969l-5.26462,-19.30268l-23.35461,-13.69487l16.26969,-20.97859l0.25132,-19.41059l15.01143,-12.51892l7.65831,-20.84787l16.91874,-17.06265l23.00889,11.31427l19.18413,3.55557l17.30633,9.0091l21.90247,7.65718l9.78065,20.08643l-5.56603,22.24967" fill="#2a1962"></path><path d="M210,150l-1.66541,17.83467l-8.59234,15.7169l-7.57779,18.51721l-19.68807,3.56225l-17.50852,1.15207l-19.31378,10.70909l-16.1971,-12.39114l-22.68814,-3.69632l-5.57529,-21.44135l-2.25165,-19.19719l1.50531,-18.07835l5.65359,-16.6853l6.35248,-17.33426l17.34131,-7.00702l11.82925,-20.24199l20.64462,3.62033l19.87017,0.66514l14.89184,13.32719l15.67947,11.24828l10.24946,16.80444l-2.043,19.72286" fill="#cdc40d"></path><path d="M209,150l-0.66541,17.83467l-14.3956,11.80255l-3.03317,20.87726l-22.92471,-6.00966l-13.27471,9.28969l-18.22067,9.78508l-10.72622,-19.84861l-21.79727,0.72715l-1.1856,-20.39664l-10.88031,-13.81625l-6.41184,-18.16675l13.35695,-14.85574l7.38539,-15.27417l12.50792,-11.98341l13.66554,-15.64812l19.44937,12.71524l16.05658,0.96419l13.24637,9.12562l14.36961,8.57444l8.04026,14.80831l14.34433,15.9363" fill="#a9b653"></path><path d="M195,150l-2.92259,12.86436l2.69062,17.33206l-5.75016,17.98663l-22.16057,-6.45978l-12.41235,9.08266l-14.00888,-5.81114l-11.28288,-7.38614l-21.59423,3.3762l4.12777,-21.46325l-17.82076,-9.62365l5.51419,-16.11328l11.3374,-11.27434l-2.22657,-18.59357l18.7225,-0.38282l9.32794,-13.76207l15.55256,-9.73531l18.09126,1.3413l10.37961,16.55327l2.97786,16.79265l17.20071,6.80714l9.17437,15.32893" fill="#3fbfb1"></path></g></svg>