<svg x="0" y="0" width="300" height="300" version="1.1" xmlns="http://www.w3.org/2000/svg" xmlns:xlink="http://www.w3.org/1999/xlink"><g fill="none" stroke="none" stroke-width="1" stroke-linecap="butt" stroke-linejoin="miter" stroke-miterlimit="10" stroke-dasharray="" stroke-dashoffset="0" font-family="sans-serif" font-weight="normal" font-size="12" text-anchor="start" mix-blend-mode="normal"><path d="M0,300l0,-300l300,0l0,300z" fill="#d065b0"></path><path d="M251,150l0.33449,23.39491l-10.55629,20.88058l-9.95502,21.17383l-25.41365,5.47165l-11.03462,24.24135l-22.33628,8.52133l-23.87114,1.30036l-19.94047,-17.65739l-25.44204,5.33806l-16.42096,-16.82628l-24.21393,-9.63875l-8.98591,-23.08557l-1.3269,-24.03318l-7.77271,-22.78025l13.20655,-21.14728l3.55117,-22.57l9.17849,-22.12563l25.92297,-4.88731l16.95679,-13.0184l21.31747,-2.16954l20.72156,-4.25367l24.02234,-7.0613l18.08461,16.09437l14.53348,16.46879l12.98282,16.17387l26.5202,11.36334l6.59499,23.78076" fill="#9b46c2"></path><path d="M239,150l-3.25543,19.79569l4.13484,24.04142l-20.71341,12.1724l-18.06609,9.39538l-9.68331,23.41327l-20.2096,10.95289l-22.89988,-2.78583l-22.49931,0.04435l-15.30498,-19.51201l-26.06716,0.61897l-9.5074,-21.56592l-14.45572,-16.71042l-4.70875,-21.54253l-1.70531,-21.66802l5.14449,-20.97864l-0.14657,-24.02658l24.52916,-9.37762l8.81149,-21.55047l18.13911,-13.68732l24.70375,9.26233l19.15632,-0.17622l20.68678,-3.58993l17.09544,11.3829l19.38158,7.72259l12.16367,16.74744l18.9947,14.16122l-1.85106,23.06869" fill="#e4ed18"></path><path d="M243,150l-7.25543,19.79569l-12.04345,16.15074l-5.31227,19.43376l-12.97931,15.54077l-16.95127,11.55304l-20.78577,0.66854l-19.24321,6.84375l-20.20225,-2.65968l-12.73031,-19.61012l-22.70482,0.46146l-12.27319,-15.82005l-16.39198,-14.12466l11.26961,-23.73176l-18.33968,-17.74714l7.94187,-19.53042l12.59977,-15.72059l8.25139,-17.26835l8.8985,-20.28258l20.86747,-4.95683l18.58236,-8.61308l20.25054,4.734l17.05116,9.9051l24.07239,-7.23584l5.28182,25.73525l19.59315,7.15143l10.21792,16.7368l14.15309,17.57306" fill="#6b9a1d"></path><path d="M234,150l-6.05039,17.99608l-13.23643,13.56664l-10.31295,12.4897l-11.91958,10.32031l-5.71285,24.47604l-21.38232,-6.46586l-16.64204,-0.39389l-17.61333,3.69403l-20.62727,1.8345l-10.64026,-17.7661l-16.94795,-9.199l-13.30662,-14.75964l-2.06468,-19.76487l-5.48971,-19.09911l9.7064,-17.89319l7.60418,-16.59338l14.03259,-11.6467l7.22926,-18.753l16.16182,-10.28549l21.23042,10.29118l15.90692,-6.94548l19.77962,-7.77129l14.59515,13.57355l19.9144,4.44136l14.69017,13.6053l7.76046,18.45753l-4.61299,20.54532" fill="#4405c2"></path><path d="M225,150l-14.58906,13.94697l4.30223,17.61576l-8.75866,13.74835l-14.08953,8.27366l-10.16861,14.38835l-15.47926,8.32243l-17.5784,1.69261l-16.78285,-5.21594l-10.00327,-17.52977l-12.991,-6.21556l-9.17563,-11.1125l-12.7206,-9.84952l-0.77113,-15.66224l-2.15403,-14.70595l0.27684,-15.29633l-4.95285,-19.95803l11.01375,-14.27094l20.24044,-2.37548l10.07678,-14.83373l18.19135,6.01017l14.67233,-4.87911l19.04342,-10.91665l9.87998,20.22394l13.68777,7.32253l10.35148,11.70022l14.87167,10.73207l-5.21804,18.3636" fill="#a42eda"></path><path d="M209,150l14.07775,16.87133l-22.74529,7.67746l-1.37227,15.0984l-4.63257,17.08959l-18.97053,-2.35831l-9.76372,18.9826l-16.8674,-0.37219l-12.99937,-15.74143l-16.14397,2.44999l-10.07826,-11.43664l-13.01296,-7.93919l-9.52606,-12.25678l8.06351,-17.37952l-1.99415,-12.67458l-5.8199,-14.83397l12.45717,-9.93664l-2.50166,-19.16425l8.74578,-14.75214l18.68637,0.84346l14.45769,-2.21007l14.44634,-4.86529l11.92918,13.07752l17.53136,-5.64349l3.83513,18.60117l12.34694,6.45838l20.38967,6.31909l-3.36367,17.61439" fill="#3fbf65"></path><path d="M215,150l-15.30713,11.4725l7.82995,16.58325l-10.11692,10.33279l-16.00717,1.8l-11.11306,3.31423l-6.14768,23.01126l-15.09788,-11.52241l-12.1039,-2.59565l-17.80757,8.19247l-9.62427,-12.32764l-13.01296,-7.93919l4.17712,-18.35783l-6.62129,-11.08767l-10.00705,-13.17948l3.17462,-14.51987l20.40369,-5.7114l-0.63696,-14.86073l13.0414,-3.8645l6.92391,-13.04992l12.28695,-6.74829l13.33065,12.12523l16.17888,-16.43295l14.22371,5.89166l10.52644,11.16973l1.55987,16.75771l14.2864,7.57188l-8.96766,15.99666" fill="#cf29fa"></path><path d="M211,150l-13.25587,11.0226l7.0823,15.71804l-19.07772,2.2081l1.80664,19.11992l-20.228,-10.91004l-6.30803,14.6832l-11.92684,0.15026l-9.01127,-12.20996l-10.05678,-0.57784l-18.59167,6.75838l1.83002,-18.27918l-13.50777,-5.31298l-5.70775,-11.4944l-3.01131,-12.93518l4.87221,-12.4348l9.06152,-9.44918l2.01188,-13.45231l17.74368,2.60763l4.17528,-14.91953l12.24342,-0.51793l11.1065,7.28413l11.80706,-6.08328l11.6374,2.6695l2.40858,15.14276l14.49242,1.38611l5.61765,10.34643l12.03543,9.93704" fill="#0f56af"></path></g></svg>