<svg x="0" y="0" width="300" height="300" version="1.1" xmlns="http://www.w3.org/2000/svg" xmlns:xlink="http://www.w3.org/1999/xlink"><g fill="none" stroke="none" stroke-width="1" stroke-linecap="butt" stroke-linejoin="miter" stroke-miterlimit="10" stroke-dasharray="" stroke-dashoffset="0" font-family="sans-serif" font-weight="normal" font-size="12" text-anchor="start" mix-blend-mode="normal"><path d="M0,300l0,-300l300,0l0,300z" fill="#5852ac"></path><path d="M260,150l-31.0138,73.65582l-71.9408,27.09815l-71.23608,-21.48508l-26.91398,-66.46496l13.28522,-67.29369l58.89948,-34.52167l66.8185,9.29487l38.61501,54.9092" fill="#e55bca"></path><path d="M240,150l-27.10358,58.65186l-56.75785,29.13378l-67.81197,-11.62533l-29.43126,-63.35638l5.0937,-73.02945l67.091,-28.78591l72.48392,-0.13397l48.32978,59.92784" fill="#d3ba6d"></path><path d="M246,150l-33.10358,58.65186l-56.89736,27.13865l-65.78449,-11.96164l-24.38735,-61.99915l10.4491,-63.45159l55.84328,-32.49881l67.8391,0.97547l42.32243,56.68404" fill="#04c38e"></path><path d="M242,150l-25.44681,62.06185l-60.34486,26.72135l-55.92464,-27.38867l-33.46621,-49.70399l6.18223,-65.60673l56.62495,-41.94228l66.21373,19.57058l47.404,49.55107" fill="#047df0"></path><path d="M243,150l-31.56629,57.28786l-55.08587,33.49047l-54.80551,-30.93809l-30.76378,-48.70639l7.95522,-61.035l53.38582,-34.21954l59.59849,14.69014l38.06664,46.55265" fill="#80d977"></path><path d="M235,150l-25.029,55.92387l-54.73927,18.89344l-54.94805,-13.42277l-32.47594,-49.84316l19.11754,-55.71675l45.81804,-37.02087l56.9146,15.18437l34.35922,44.77781" fill="#93d66c"></path><path d="M229,150l-19.76035,55.24187l-54.00791,19.57544l-48.65484,-21.19423l-28.86646,-43.46343l2.66165,-58.91363l53.41081,-27.54152l55.87504,10.29363l35.32048,44.50217" fill="#556bf4"></path><path d="M221,150l-11.76035,55.24187l-53.58938,25.56082l-50.96134,-24.84818l-24.99796,-46.07322l13.78754,-49.45806l42.59141,-25.95912l47.9226,8.96285l40.9859,35.07333" fill="#5bb4d5"></path><path d="M215,150l-8.68576,52.51387l-52.05909,8.33753l-45.79029,-9.55977l-24.81281,-41.96704l9.82647,-48.90137l44.46261,-17.15579l41.93109,7.01686l37.41611,30.42109" fill="#4b671a"></path><path d="M213,150l-13.9993,45.69389l-45.02458,11.16726l-40.4767,-11.78669l-27.86684,-36.02821l3.75017,-51.49091l45.85552,-27.00382l47.72417,14.58977l31.4421,36.391" fill="#ec6aa0"></path><path d="M208,150l-17.04419,38.19191l-36.77042,21.66193l-43.20325,-11.67079l-25.34956,-39.1368l10.30339,-46.9023l39.51022,-30.61429l44.42603,18.75463l29.72602,32.62619" fill="#6d6b9c"></path><path d="M213,150l-22.77555,37.50991l-36.38785,17.35611l-37.81991,-12.90014l-18.50091,-34.58971l6.61169,-39.49645l32.35825,-31.45931l46.99173,7.86372l22.2757,39.72891" fill="#fc4f7b"></path><path d="M200,150l-6.85013,40.2379l-38.82497,21.61107l-33.27364,-26.10026l-22.5452,-28.51171l17.08955,-31.32721l21.51386,-36.55494l37.61235,19.50112l27.1863,26.25961" fill="#1f8d55"></path></g></svg>