<svg x="0" y="0" width="300" height="300" version="1.1" xmlns="http://www.w3.org/2000/svg" xmlns:xlink="http://www.w3.org/1999/xlink"><g fill="none" stroke="none" stroke-width="1" stroke-linecap="butt" stroke-linejoin="miter" stroke-miterlimit="10" stroke-dasharray="" stroke-dashoffset="0" font-family="sans-serif" font-weight="normal" font-size="12" text-anchor="start" mix-blend-mode="normal"><path d="M0,300l0,-300l300,0l0,300z" fill="#1efdd1"></path><path d="M253,150l-8.44814,32.55682l-20.47885,25.31536l-16.88591,30.18823l-32.75299,9.93946l-32.27813,-8.34235l-36.89701,10.83248l-24.1408,-26.62328l-13.23229,-30.20587l-13.69164,-28.48671l-9.56866,-33.7545l16.16322,-30.87023l23.63641,-23.37761l26.50169,-19.22229l32.37649,-3.71566l30.24915,7.8669l31.24837,6.65357l18.67356,25.8787l17.82696,25.70135" fill="#92008c"></path><path d="M246,150l2.33393,33.85909l-29.777,19.70346l-11.91448,33.65919l-31.7245,12.71872l-32.84913,-9.28674l-32.33576,-0.21272l-23.15892,-22.42511l-26.63481,-20.12979l7.09483,-34.7456l-19.45419,-31.19991l19.33113,-27.9975l16.84494,-27.51442l25.99862,-21.24066l34.24625,9.02149l30.58687,-5.97245l24.62117,18.80765l21.86958,19.39377l24.02709,22.65984" fill="#514bd6"></path><path d="M233,150l9.66082,31.90568l-20.95184,24.11952l-26.50394,13.58446l-22.46438,21.59814l-29.62596,-12.50842l-28.90752,1.69262l-20.81304,-19.68964l-29.923,-14.69414l0.59998,-32.39841l4.18984,-28.0226l-0.47521,-31.15931l17.30858,-26.51294l26.61402,-18.12443l32.15308,2.42384l29.94992,-1.07954l28.75278,10.93564l24.10488,20.15529l0.36657,32.74387" fill="#fc3872"></path><path d="M230,150l5.09667,29.30113l-22.05581,19.95178l-14.56799,25.38876l-27.90951,7.83346l-26.83857,-10.74912l-26.67045,2.27116l-23.6602,-13.29482l-21.97647,-18.91939l-1.42042,-29.11178l-0.75148,-26.91034l6.41156,-26.96967l18.80483,-20.4722l19.59058,-23.00543l30.50626,6.87645l24.07598,8.26334l27.21885,1.56558l24.42611,15.02136l7.70671,27.62033" fill="#6474df"></path><path d="M236,150l-7.52196,27.02216l-20.95326,17.92113l-11.77511,25.50504l-27.60554,2.32385l-24.85513,3.93481l-20.54036,-15.49945l-31.4005,1.68887l-13.74984,-24.39975l-0.68723,-26.92052l5.1372,-23.55787l-6.39094,-29.22709l28.84179,-9.32503l16.97751,-16.66301l22.59407,-17.59609l25.34073,12.34851l28.11997,1.97624l18.75535,20.51755l0.28721,28.31946" fill="#c158f7"></path><path d="M222,150l-3.92266,23.44091l-8.97653,22.7337l-25.33319,5.82296l-18.0427,11.07165l-21.82583,6.66441l-20.74372,-9.43963l-27.71525,-1.7857l-4.59762,-27.0537l-14.91914,-19.72201l13.01854,-22.49877l4.2078,-20.74644l7.33462,-23.48009l23.72741,-5.7606l20.20774,-19.0518l21.10966,21.84957l19.14082,6.55522l26.02634,5.66239l12.53505,21.94363" fill="#7f9ea9"></path><path d="M216,150l-7.37785,20.18523l-5.03742,21.67975l-13.82608,19.35797l-25.48526,-3.9755l-20.19998,10.49379l-21.7315,-5.62015l-11.89781,-19.70258l-9.88916,-16.12811l-6.85317,-17.37364l-11.6535,-20.89849l17.22379,-16.13723l7.90358,-19.44231l15.47318,-16.87407l23.16579,4.5815l19.45571,2.86422l16.60367,9.73448l22.43322,6.33172l12.26674,19.29223" fill="#cc7fe1"></path><path d="M208,150l6.29526,22.13863l-24.10671,9.2601l-9.68876,15.56682l-17.67793,4.46012l-18.31267,11.33459l-16.8797,-12.51527l-19.23138,-5.63242l-17.55559,-13.15798l-6.02994,-21.12992l8.06858,-20.39627l13.38786,-14.16889l3.58315,-20.34821l15.14104,-14.32362l21.51897,9.03411l16.42878,1.58191l22.2882,-3.93308l10.29307,17.92591l8.688,16.68949" fill="#03bc26"></path><path d="M210,150l-17.45166,14.65057l-3.1478,16.13251l-9.44539,15.34381l-16.64944,7.23938l-18.09927,1.42444l-19.2039,-0.89153l-5.32847,-22.45097l-17.47029,-6.56622l0.37487,-17.52957l-13.65192,-17.94496l11.96919,-16.07199l20.0006,-4.54755l11.30205,-8.36963l12.47654,-22.26726l19.07759,6.7912l19.91727,3.65744l6.06045,20.70776l-0.78604,17.71385" fill="#9b0524"></path></g></svg>