<svg x="0" y="0" width="300" height="300" version="1.1" xmlns="http://www.w3.org/2000/svg" xmlns:xlink="http://www.w3.org/1999/xlink"><g fill="none" stroke="none" stroke-width="1" stroke-linecap="butt" stroke-linejoin="miter" stroke-miterlimit="10" stroke-dasharray="" stroke-dashoffset="0" font-family="sans-serif" font-weight="normal" font-size="12" text-anchor="start" mix-blend-mode="normal"><path d="M0,300l0,-300l300,0l0,300z" fill="#99885e"></path><path d="M253,150l-16.61693,56.09782l-47.33635,31.60254l-54.69016,11.06847l-57.96092,-17.0229l-22.02229,-56.12285l1.47206,-56.21577l32.4812,-45.56762l51.84772,-17.32475l57.49468,-0.07063l39.79956,43.05569" fill="#30b5ae"></path><path d="M250,150l-15.29427,55.00854l-46.87922,29.95119l-53.93926,16.77217l-50.80031,-27.41742l-35.47508,-46.87966l19.64622,-54.3193l16.66328,-54.71585l56.56655,-8.90117l49.00926,12.98392l45.37332,28.51757" fill="#ba1dc3"></path><path d="M238,150l-9.16497,51.19607l-44.26242,26.45529l-50.8418,25.06822l-43.95257,-35.83655l-21.88194,-44.88342l-12.0509,-52.5923l33.11052,-44.79048l51.53199,-15.11833l54.45715,2.29185l42.52351,37.70965" fill="#ef392a"></path><path d="M241,150l-14.68098,49.56215l-35.64536,41.79239l-53.34486,-11.35179l-44.20491,-16.83545l-22.32982,-41.94415l-16.85079,-52.43388l39.41787,-38.73242l47.44033,-17.57479l46.42573,14.45539l43.31314,26.56253" fill="#1a3fa2"></path><path d="M236,150l-10.51965,49.01751l-38.87405,33.20158l-51.1547,9.63592l-39.65117,-31.66028l-31.76782,-37.15984l2.27443,-50.22839l24.53686,-45.85822l51.0029,-4.52099l52.1903,-8.85493l35.63726,40.42763" fill="#b47ba8"></path><path d="M225,150l3.83503,51.19607l-41.822,31.93657l-51.56144,8.72238l-44.33509,-26.45827l-24.18613,-43.13831l-4.42758,-50.688l32.74633,-39.18214l46.17954,-13.9391l43.98259,12.05229l44.26308,23.49851" fill="#3cbdb3"></path><path d="M239,150l-24.42237,41.93721l-30.81849,33.88707l-48.15111,15.04305l-34.45456,-36.61776l-39.05272,-30.69704l16.57001,-46.72881l13.43176,-48.32115l48.69897,-16.0205l47.33371,12.67338l40.67311,29.34455" fill="#3b4706"></path><path d="M222,150l-3.22901,44.6604l-32.97816,35.7316l-48.93332,2.57382l-45.743,-17.56908l-18.39057,-44.69122l5.94483,-43.8818l20.98361,-38.9954l42.08788,-16.39555l41.85305,12.63275l38.28481,24.43448" fill="#c787c1"></path><path d="M224,150l-18.64774,35.94618l-20.77964,41.70519l-45.67946,-7.52549l-44.43099,-8.44485l-12.07697,-43.56369l-7.51866,-42.52968l31.08104,-29.98787l35.27204,-29.13962l46.00761,10.4773l32.05481,33.06253" fill="#88610a"></path><path d="M226,150l-7.22901,44.6604l-35.41858,30.25033l-43.52064,-10.71099l-33.32525,-15.89533l-29.91687,-28.63417l2.08112,-42.84652l19.72497,-40.54969l44.70539,-1.91248l43.67211,-6.53308l32.5088,32.17153" fill="#83c640"></path><path d="M211,150l-10.67977,32.67834l-22.66214,29.44275l-38.6085,7.01709l-42.58004,-9.6866l-16.01621,-40.81661l3.92376,-39.95714l17.16523,-38.51807l41.97691,-1.82012l40.07606,-4.27413l27.02648,30.93448" fill="#0e1e53"></path><path d="M211,150l0.22295,39.75865l-33.9716,21.4489l-38.51464,9.90601l-30.22282,-25.03858l-16.46945,-30.54584l-14.32475,-39.01443l35.15039,-22.36632l29.91744,-22.7704l36.72185,10.70659l28.51432,24.41542" fill="#d12c89"></path><path d="M208,150l-6.8411,33.22298l-25.94123,23.41684l-36.63739,15.46143l-29.39725,-26.76941l-27.76377,-26.95568l9.61523,-37.53521l19.31832,-29.80114l33.89812,-5.73851l31.17253,4.80234l37.79639,13.39637" fill="#0d431b"></path><path d="M202,150l5.0296,37.03545l-31.81193,19.60436l-33.66513,-3.30465l-35.04603,-5.03076l-13.49613,-33.03409l-0.07377,-33.81134l17.41621,-30.41918l32.43472,-19.66182l30.81997,22.28967l24.88992,18.33234" fill="#cd5bc7"></path><path d="M202,150l-5.87312,29.95515l-24.1631,19.37631l-31.03698,7.95447l-30.40551,-13.44038l-20.4087,-27.79876l-0.02916,-35.51485l27.82122,-20.16637l26.65986,-12.08069l27.68101,8.05582l28.84996,14.15932" fill="#6ee88c"></path><path d="M202,150l-9.2278,27.77659l-19.18147,25.20905l-31.41245,-3.60122l-26.97307,-10.74089l-13.5015,-25.70258l-6.86499,-30.86394l26.21254,-17.82573l22.25892,-27.90069l32.56728,12.86203l22.61996,22.78737" fill="#e14e1f"></path><path d="M200,150l-7.2278,27.77659l-18.368,27.03614l-33.4774,2.4732l-29.73638,-14.18352l-12.38449,-29.38499l7.44547,-27.93219l11.02394,-26.19681l26.34842,-20.25425l31.7997,10.76947l19.60985,23.89637" fill="#6f05f9"></path></g></svg>