<svg x="0" y="0" width="300" height="300" version="1.1" xmlns="http://www.w3.org/2000/svg" xmlns:xlink="http://www.w3.org/1999/xlink"><g fill="none" stroke="none" stroke-width="1" stroke-linecap="butt" stroke-linejoin="miter" stroke-miterlimit="10" stroke-dasharray="" stroke-dashoffset="0" font-family="sans-serif" font-weight="normal" font-size="12" text-anchor="start" mix-blend-mode="normal"><path d="M0,300l0,-300l300,0l0,300z" fill="#a36011"></path><path d="M242,150l-3.66541,51l-35.33459,40.79869l-53,5.20131l-51.5,-7.79938l-37.70062,-37.70062l-16.79938,-51.5l17.66541,-51l40.33459,-32.13844l48,-14.86156l46,18.32566l47.53074,25.67434" fill="#41f7cf"></path><path d="M245,150l-8.39746,50l-38.60254,33.13844l-48,13.86156l-45,-19.05771l-27.74613,-35.94229l-24.25387,-42l14.72759,-47.5l35.77241,-33.04036l46.5,-12.45964l48,9.86156l37.73651,33.63844" fill="#a8632b"></path><path d="M226,150l-11.04809,37.5l-23.45191,34.38011l-41.5,22.11989l-41,-22.98592l-35.21024,-27.01408l-10.78976,-44l22.91412,-37l22.58588,-34.88011l41.5,-2.11989l46.5,-6.54036l24.51408,39.54036" fill="#f4be1a"></path><path d="M236,150l-16.71797,40l-35.78203,18.0237l-33.5,15.9763l-33.5,-15.9763l-33.18396,-19.5237l-13.31604,-38.5l21.9763,-33.5l15.5237,-40.11216l42.5,-9.38784l34.5,23.24425l39.11216,17.25575" fill="#00f7aa"></path><path d="M212,150l-1.37822,35l-27.12178,23.0237l-33.5,16.9763l-35,-14.37822l-27.35383,-24.62178l-5.64617,-36l14.30642,-31l24.19358,-20.0955l29.5,-10.9045l33,4.84232l22.42563,25.15768" fill="#ec422a"></path><path d="M209,150l-0.11027,34l-30.88973,14.49742l-28,13.50258l-34.5,-2.24425l-17.46152,-29.75575l-1.03848,-30l-0.69358,-31l18.69358,-29.62178l35,8.62178l31,-1.69358l21.82755,23.19358" fill="#1dcf44"></path><path d="M203,150l-12.29681,23.5l-17.20319,17.20319l-23.5,12.29681l-30.5,-0.17245l-21.46152,-22.82755l-7.03848,-30l10.50258,-28l23.49742,-15.30127l25,-7.69873l23,11.16283l20.30127,14.83717" fill="#8122cf"></path></g></svg>