<svg x="0" y="0" width="300" height="300" version="1.1" xmlns="http://www.w3.org/2000/svg" xmlns:xlink="http://www.w3.org/1999/xlink"><g fill="none" stroke="none" stroke-width="1" stroke-linecap="butt" stroke-linejoin="miter" stroke-miterlimit="10" stroke-dasharray="" stroke-dashoffset="0" font-family="sans-serif" font-weight="normal" font-size="12" text-anchor="start" mix-blend-mode="normal"><path d="M0,300l0,-300l300,0l0,300z" fill="#d82c35"></path><path d="M250,150l-11.06366,27.19057l-5.20355,29.28791l-17.65415,25.12184l-28.99259,10.19088l-28.7191,3.84349l-28.32647,-1.73252l-30.46068,-2.94172l-18.63642,-24.27325l-16.48001,-23.10412l-20.82261,-24.82908l-1.82829,-32.03776l21.40071,-25.35622l11.31586,-26.96592l25.12863,-14.95867l22.90751,-21.82357l30.75027,7.44601l25.98568,9.84546l26.53847,8.24006l27.21849,14.26785l12.79055,27.70271l10.00608,29.33844" fill="#845765"></path><path d="M233,150l13.58678,29.52954l-21.9734,20.79782l-10.4227,28.94153l-28.60305,8.81358l-28.26654,-4.40211l-26.65687,7.28737l-30.11479,-1.75652l-9.53528,-32.24922l-22.09573,-15.64885l-0.65745,-26.90034l-18.50812,-26.7216l8.89262,-28.36486l29.46836,-13.12318l11.01394,-27.61578l29.64909,2.2067l24.29432,-8.74048l28.18339,-2.82339l20.47056,19.57629l21.74936,15.82651l8.27879,25.61123l10.12066,24.94084" fill="#aa392c"></path><path d="M239,150l-7.7141,24.85159l-9.15964,23.79819l-15.48743,21.29335l-27.04491,3.30439l-22.79577,4.45566l-23.84691,2.50492l-23.67525,-6.74005l-12.50714,-22.06334l-26.06844,-10.99956l-9.33312,-24.77682l-2.68155,-26.84032l6.35452,-26.61453l20.0547,-18.59457l24.63116,-8.03058l18.79188,-15.72019l24.51824,-6.77516l24.63704,6.57792l22.87624,10.79362l22.1263,14.81029l15.65527,22.61527l-0.45171,27.54433" fill="#60af5b"></path><path d="M233,150l-12.23345,21.63551l-7.7597,20.86315l-18.32511,12.6787l-13.96401,20.85171l-23.91959,1.67411l-24.67855,6.41751l-17.02589,-21.14807l-12.57013,-17.12517l-20.24007,-11.34417l-5.15928,-21.65331l6.37518,-21.01521l4.3795,-19.49285l1.74432,-24.82663l16.39347,-17.90327l23.01896,-7.852l23.40731,8.28263l20.34681,3.77106l19.53077,7.93708l23.96621,8.29858l6.06958,23.6151l-6.44678,22.88138" fill="#dfd8bb"></path><path d="M223,150l-6.05867,20.46602l-4.76351,21.47345l-20.64267,9.35217l-12.69044,20.10152l-23.61536,-11.62147l-20.82272,13.58939l-13.98001,-20.00927l-24.3771,-1.25242l-6.63796,-21.22802l-14.25695,-17.67409l12.31498,-20.87503l6.80413,-17.13317l6.67015,-17.8329l8.78226,-21.80782l22.41535,-2.19723l19.95248,6.68543l17.76569,2.28682l14.81967,9.94463l12.44017,12.22492l19.59868,11.22366l-6.8004,21.14327" fill="#859106"></path><path d="M215,150l-9.53432,16.95756l0.07984,20.50837l-14.01037,13.82571l-17.56032,8.04813l-17.87392,10.39386l-20.65472,-1.2633l-18.89805,-8.12157l-14.02456,-14.50131l-0.63793,-21.33197l-9.0045,-14.44389l6.499,-16.28693l-7.84706,-19.81581l7.90137,-17.92481l20.36014,-4.38279l12.08806,-19.27607l20.1415,9.65014l17.50992,1.23355l15.73303,8.19009l11.85238,13.03393l16.7796,12.24972l1.01182,19.85553" fill="#cac873"></path><path d="M201,150l-7.00998,13.4491l4.9232,19.54328l-19.33516,3.53348l-6.72706,20.03235l-18.14459,-2.7637l-13.64661,-11.73417l-19.17876,8.6676l-3.53199,-20.16297l-8.44434,-10.1354l-18.99317,-10.01068l-2.4494,-17.97479l22.25541,-9.93378l3.05639,-14.00116l10.26002,-10.06352l10.69572,-15.43527l16.9106,10.01825l12.03359,7.25959l13.36426,2.497l12.09502,7.72585l19.1278,8.28369l-9.3281,18.64079" fill="#82b911"></path></g></svg>