<svg x="0" y="0" width="300" height="300" version="1.1" xmlns="http://www.w3.org/2000/svg" xmlns:xlink="http://www.w3.org/1999/xlink"><g fill="none" stroke="none" stroke-width="1" stroke-linecap="butt" stroke-linejoin="miter" stroke-miterlimit="10" stroke-dasharray="" stroke-dashoffset="0" font-family="sans-serif" font-weight="normal" font-size="12" text-anchor="start" mix-blend-mode="normal"><path d="M0,300l0,-300l300,0l0,300z" fill="#88369f"></path><path d="M260,150l-33.14339,55.8396l-45.95492,39.26605l-62.42143,1.90211l-54.23607,-34.70253l-16.2442,-62.30524l17.05322,-61.71745l53.11803,-36.24137l65.20259,-4.75528l55.61803,38.05773" fill="#9514dd"></path><path d="M251,150l-16.86223,61.12967l-56.63525,23.51436l-59.9493,15.2169l-41.17376,-46.37248l-32.37945,-53.48846l18.62616,-63.48081l54.61803,-37.33118l62.11242,10.46162l49.11803,33.3352" fill="#4a8134"></path><path d="M237,150l-11.76142,54.66403l-48.66312,27.12683l-56.85913,11.41268l-47.38197,-36.77615l-14.33437,-56.42738l15.14339,-55.8396l49.3541,-28.80443l58.40421,-10.46162l48.38197,37.5027" fill="#65f2ec"></path><path d="M246,150l-24.8065,51.7251l-42.1459,37.67421l-55.93208,-6.6574l-54.01722,-23.96339l-17.0983,-58.77853l23.57044,-54.07624l45.69098,-34.37201l59.9493,-7.60845l39.17376,44.91939" fill="#2b1207"></path><path d="M233,150l-9.37945,53.48846l-48.28115,24.49818l-56.24109,17.11902l-35.43769,-46.90726l-23.66061,-48.19839l19.61552,-51.13732l43.80902,-30.65354l55.62306,-7.60845l48.61803,32.97193" fill="#cae1cd"></path><path d="M239,150l-24.27864,47.02282l-35.05573,44.27861l-58.09519,-3.80423l-46.80902,-32.83317l-9.76142,-54.66403l6.52535,-57.01517l52.2082,-23.82463l52.53289,0l52.2082,23.82463" fill="#4094f1"></path><path d="M229,150l-9.42454,50.54953l-44.8541,25.53499l-52.22387,8.55951l-41.26393,-34.68228l-14.23356,-49.96175l15.04257,-49.37396l37.67376,-43.82958l58.09519,7.60845l49.04508,29.75549" fill="#1b47f7"></path><path d="M242,150l-18.37945,53.48846l-46.11803,31.15557l-53.45994,-4.75528l-48.47214,-25.8125l-5.57044,-54.07624l7.18847,-52.90067l47.16312,-26.03702l51.91486,-1.90211l47.3541,27.35135" fill="#45b7cd"></path><path d="M230,150l-11.23356,49.96175l-40.02786,38.48651l-53.45994,-12.36373l-39.19098,-29.64949l-11.08766,-46.43503l8.66061,-48.19839l41,-29.78824l52.84191,-6.6574l36.40983,38.209" fill="#994b22"></path><path d="M233,150l-24.75078,42.32054l-32.60081,36.61715l-47.89763,-10.46162l-44.09017,-20.27768l-21.66061,-48.19839l22.46962,-47.61061l39.57295,-32.27814l54.38699,-7.60845l40.33688,37.53545" fill="#eb60de"></path><path d="M227,150l-15.51471,44.67168l-34.90983,37.11918l-48.51567,-14.26585l-49.25329,-15.79991l-13.8065,-51.7251l14.61552,-51.13732l44.73607,-27.80037l52.84191,-4.75528l29.43769,42.54801" fill="#4539ab"></path><path d="M235,150l-13.8065,51.7251l-49.56231,14.84885l-45.4255,6.6574l-34.45492,-30.91081l-26.75078,-42.32054l28.36881,-41.14497l30.98278,-37.79272l49.44272,5.70634l43.3541,24.44518" fill="#033049"></path><path d="M223,150l-15.55979,41.73275l-33.6459,31.4986l-47.58862,0l-44.16312,-23.85739l-18.04257,-49.37396l17.23356,-49.96175l47.75329,-14.7101l46.66157,-14.26585l27.74671,40.14386" fill="#ce871d"></path><path d="M234,150l-24.94176,42.90832l-36.5,26.5188l-43.26238,-5.70634l-36.73607,-21.98803l-18.55979,-41.73275l8.04257,-49.37396l46.32624,-17.19999l45.73452,-7.60845l30.90983,34.21301" fill="#97a905"></path><path d="M231,150l-29.22291,37.61826l-29.52786,30.85781l-43.26238,-3.80423l-38.8541,-21.17573l-8.13274,-43.49611l17.03193,-37.03047l27.48278,-35.24982l46.04353,2.85317l34.88197,27.69437" fill="#72bd4b"></path><path d="M216,150l-15.84095,36.44269l-31,22.52282l-42.64435,13.31479l-38.80902,-27.02083l1.29431,-45.25946l8.4139,-38.20604l33.42705,-20.75946l42.33533,-12.36373l40.73607,24.8942" fill="#653e7d"></path><path d="M213,150l-11.22291,37.61826l-30.45492,28.00464l-40.17221,-7.60845l-29.69098,-22.74733l-11.45898,-35.26712l-0.67627,-44.08389l41.2082,-15.83267l43.5714,-14.26585l27.67376,36.56415" fill="#deb9ce"></path><path d="M222,150l-25.07701,34.09154l-29,21.06973l-39.24516,10.46162l-29.6459,-28.59243l-22.03193,-37.03047l18.79586,-39.38161l36.28115,-15.77967l36.15499,-0.95106l27.88197,22.60858" fill="#6f689a"></path><path d="M222,150l-16.17783,40.55718l-38.51722,12.70198l-38.00909,10.46162l-28.6459,-27.86589l-5.64996,-35.8549l5.64996,-35.8549l30.19098,-23.1106l40.79024,-7.60845l35.80902,24.8412" fill="#b2924e"></path><path d="M215,150l-11.60488,38.79383l-33.92705,21.12273l-35.84597,-9.51057l-30.54508,-16.31445l-19.07701,-34.09154l20.69505,-32.91597l25.21885,-28.9027l41.71729,-4.75528l27.71885,30.71906" fill="#f5a9e7"></path><path d="M205,150l-12.1221,31.15262l-24.6459,24.95972l-34.6099,-5.70634l-29.73607,-16.90224l-11.88603,-33.50376l11.07701,-34.09154l27.1459,-26.77607l41.40828,-5.70634l31.76393,27.78013" fill="#b0be6f"></path><path d="M198,150l-9.16718,28.21369l-23.69098,18.38808l-32.7558,7.60845l-36.59017,-14.82861l-9.79586,-39.38161l15.45898,-35.26712l27.83688,-28.45367l37.70007,11.41268l30.73607,17.62878" fill="#65d40b"></path><path d="M205,150l-12.93112,30.56483l-21.98278,31.25384l-39.86319,-0.95106l-31.19098,-23.83715l-15.03193,-37.03047l21.50407,-32.32819l24.71885,-28.53943l35.84597,11.41268l24.38197,20.06568" fill="#d69545"></path><path d="M199,150l1.15905,36.44269l-33.47214,14.91437l-34.91892,4.75528l-30.30902,-20.84522l3.54102,-35.26712l0.50407,-32.32819l25.6459,-25.68626l32.44678,16.16796l37.37132,4.81602" fill="#b61102"></path><path d="M197,150l-4.1221,31.15262l-28.66312,12.59598l-32.13777,11.41268l-30.61803,-19.89416l-9.45898,-35.26712l13.50407,-32.32819l25.6459,-25.68626l36.46401,3.80423l17.98278,28.34767" fill="#b111fb"></path></g></svg>