<svg x="0" y="0" width="300" height="300" version="1.1" xmlns="http://www.w3.org/2000/svg" xmlns:xlink="http://www.w3.org/1999/xlink"><g fill="none" stroke="none" stroke-width="1" stroke-linecap="butt" stroke-linejoin="miter" stroke-miterlimit="10" stroke-dasharray="" stroke-dashoffset="0" font-family="sans-serif" font-weight="normal" font-size="12" text-anchor="start" mix-blend-mode="normal"><path d="M0,300l0,-300l300,0l0,300z" fill="#a5b8b2"></path><path d="M249,150l-22.56296,59.71916l-50.06756,46.04307l-63.78926,-21.71605l-57.05562,-33.81272l1.90346,-66.55639l20.97495,-63.19357l64.27255,-25.22773l59.88856,26.81469l51.10103,44.24668" fill="#9ba00d"></path><path d="M253,150l-24.98694,60.95049l-53.33703,38.01968l-64.53622,-9.44271l-44.01983,-44.92766l-11.64633,-61.44367l37.31199,-47.80973l51.16896,-36.10037l55.13599,29.45674l39.40661,42.86767" fill="#18a7b4"></path><path d="M235,150l-19.59511,51.0999l-41.69655,43.98908l-57.87422,-18.35116l-55.01183,-29.32119l-0.4398,-63.21861l33.41053,-46.62218l50.0684,-25.36147l55.34755,14.83033l40.19034,43.90771" fill="#894994"></path><path d="M243,150l-21.29102,56.02519l-51.87138,23.53906l-59.69779,9.96321l-44.01983,-44.92766l3.12579,-58.83895l21.20161,-51.90074l53.06527,-26.63357l52.34117,24.79238l40.69232,39.86053" fill="#4875cd"></path><path d="M225,150l-3.29102,56.02519l-53.56484,16.74699l-53.12349,5.79273l-40.07119,-38.65983l0.20516,-53.10234l22.6532,-44.76803l46.61167,-21.83983l51.99353,10.99501l28.72045,44.39778" fill="#0a6eb3"></path><path d="M227,150l-13.17113,49.86858l-43.74935,30.66597l-51.39824,-10.19155l-37.55119,-33.72422l-4.99067,-49.6424l20.33013,-46.42797l47.53139,-26.33892l45.14256,27.75788l36.94102,33.31127" fill="#b48af6"></path><path d="M230,150l-14.59511,51.0999l-46.77691,23.61287l-49.53997,-5.28332l-33.54319,-35.15803l-1.52695,-45.90585l20.48124,-38.89942l40.40866,-22.28833l45.9133,12.30243l40.96978,33.94428" fill="#988e02"></path><path d="M227,150l-12.38312,50.48424l-48.89196,12.58498l-45.00996,2.70605l-34.28719,-31.97332l-1.42509,-45.26273l22.17295,-36.10049l37.3136,-31.24629l48.00942,15.8007l27.87952,40.1396" fill="#4b3667"></path><path d="M216,150l-16.35532,38.78667l-31.01669,35.9261l-45.06587,-15.33232l-42.43203,-22.76167l1.90299,-48.42686l24.8117,-35.01005l38.10935,-11.04059l39.83422,4.80031l22.2261,34.20837" fill="#f7a1a3"></path><path d="M222,150l-27.08339,35.0927l-30.15938,24.09534l-36.72101,-9.85658l-29.24718,-22.1021l-21.66481,-40.07932l24.69837,-40.65646l44.06177,-5.34985l35.98963,11.60114l31.84679,26.551" fill="#dca2c6"></path><path d="M215,150l-22.44742,33.24572l-27.06958,28.85321l-38.26025,-10.94038l-33.73139,-21.11237l-1.59501,-40.29142l18.62495,-33.6003l34.59575,-25.98394l37.31614,21.7453l28.43443,28.30709" fill="#88cbda"></path><path d="M199,150l-11.96349,28.93609l-25.18233,18.6084l-38.29205,11.83596l-15.9436,-36.84582l-11.78294,-32.08528l16.69311,-32.06546l33.28593,-18.23773l35.50019,13.42774l19.09119,30.0482" fill="#557c3e"></path><path d="M203,150l-11.23543,32.63006l-27.97502,22.6768l-31.68596,-15.11086l-29.78276,-14.84454l2.37801,-33.33928l3.81506,-38.08716l37.85876,-5.79835l38.2973,0.473l9.07864,37.18555" fill="#fcd843"></path></g></svg>