<svg x="0" y="0" width="300" height="300" version="1.1" xmlns="http://www.w3.org/2000/svg" xmlns:xlink="http://www.w3.org/1999/xlink"><g fill="none" stroke="none" stroke-width="1" stroke-linecap="butt" stroke-linejoin="miter" stroke-miterlimit="10" stroke-dasharray="" stroke-dashoffset="0" font-family="sans-serif" font-weight="normal" font-size="12" text-anchor="start" mix-blend-mode="normal"><path d="M0,300l0,-300l300,0l0,300z" fill="#e6a1ba"></path><path d="M243,150l-22.40124,63.56741l-61.1912,25.93956l-65.83495,-11.84134l-46.27811,-55.8349l16.10296,-71.83073l54.46477,-48.90988l74.84511,2.9876l46.82011,56.06208" fill="#341c3f"></path><path d="M249,150l-23.19923,68.25132l-64.72076,37.168l-63.3929,-33.41681l-50.39261,-50.17178l16.96898,-71.33073l52.98071,-51.31199l71.39578,14.02517l54.54166,45.29968" fill="#e8419c"></path><path d="M251,150l-30.40124,63.56741l-61.1912,25.93956l-61.13266,-18.31348l-36.30818,-52.48144l6.6269,-65.71205l54.21289,-36.69297l65.02,-1.26675l48.96031,46.31975" fill="#21c2e3"></path><path d="M237,150l-28.29156,52.86132l-50.03258,29.684l-55.1109,-18.63297l-37.68566,-46.03194l11.37456,-59.88041l42.46247,-51.20354l68.11017,8.24381l46.21967,47.53996" fill="#cac4dc"></path><path d="M224,150l-4.14439,62.89828l-61.80692,13.67991l-60.36158,-4.57567l-26.91707,-55.16167l7.34985,-58.34085l43.45055,-45.9972l61.37523,13.50002l42.8786,40.23804" fill="#a60f6a"></path><path d="M240,150l-29.06212,54.86871l-52.88918,21.70948l-55.07151,-11.85683l-40.03232,-46.21722l20.37118,-57.00414l40.10849,-43.29086l63.18176,-0.42823l41.95861,47.23974" fill="#f8f436"></path><path d="M221,150l-9.31898,55.53784l-54.2595,15.07321l-53.26877,-7.50773l-24.57938,-48.13368l-0.58746,-55.96964l48.14683,-29.37818l53.77924,0.94873l43.0852,36.48379" fill="#918445"></path><path d="M232,150l-32.95244,44.16262l-41.1034,31.42104l-49.08913,-18.95247l-30.25981,-41.45364l5.58684,-53.17755l44.49576,-27.6229l54.67458,-9.28783l36.9906,43.59201" fill="#02279a"></path><path d="M228,150l-20.0347,52.19219l-51.90265,5.49008l-45.44426,-3.47813l-32.02316,-39.02659l7.31889,-52.17755l46.16289,-18.16128l47.20802,-10.614l35.57669,36.89697" fill="#8e6655"></path><path d="M205,150l-1.49357,48.1774l-46.92113,14.47748l-47.14248,-6.83271l-14.21908,-44.17912l-6.71154,-47.14305l42.01973,-24.41656l43.0588,6.93092l41.271,24.10733" fill="#30f792"></path><path d="M204,150l-16.09961,34.12566l-31.83774,23.55661l-39.56641,-11.5683l-19.31621,-34.88674l-7.80181,-46.22723l42.08076,-22.06339l43.75869,0.42357l20.4596,36.30299" fill="#a2f903"></path><path d="M196,150l-5.12703,36.80218l-35.22843,16.902l-44.43836,-0.30906l-19.89503,-40.92042l11.92348,-39.4747l28.84239,-28.16128l42.73392,-0.56499l20.86634,35.38944" fill="#a51721"></path><path d="M210,150l-21.35647,34.79479l-33.52164,13.93678l-31.57223,-12.32581l-22.45704,-26.01018l-4.78619,-41.39558l35.46157,-25.11233l37.34862,13.1757l24.73356,23.41328" fill="#fc9026"></path></g></svg>