<svg x="0" y="0" width="300" height="300" version="1.1" xmlns="http://www.w3.org/2000/svg" xmlns:xlink="http://www.w3.org/1999/xlink"><g fill="none" stroke="none" stroke-width="1" stroke-linecap="butt" stroke-linejoin="miter" stroke-miterlimit="10" stroke-dasharray="" stroke-dashoffset="0" font-family="sans-serif" font-weight="normal" font-size="12" text-anchor="start" mix-blend-mode="normal"><path d="M0,300l0,-300l300,0l0,300z" fill="#908e6d"></path><path d="M244,150l-29.25942,62.51925l-61.11103,41.41739l-63.8513,-37.05361l-30.55657,-60.5352l21.06828,-64.84151l59.36173,-39.964l66.98917,25.96068l38.42488,59.13637" fill="#cb9910"></path><path d="M255,150l-32.34668,70.1605l-69.51237,19.78468l-69.38488,-16.37384l-34.51004,-66.52593l33.34206,-63.61071l58.42246,-28.96357l67.47729,10.66786l29.64602,62.47462" fill="#c55ff0"></path><path d="M230,150l-18.13678,59.74062l-58.86187,26.20699l-69.24529,-12.37627l-33.51247,-66.59569l28.51427,-66.7549l60.99834,-37.6839l60.72803,32.84626l43.59123,51.39544" fill="#728565"></path><path d="M225,150l-13.85612,59.04596l-58.52642,15.90835l-59.49356,-11.787l-36.89492,-56.6102l23.29493,-65.69357l60.65041,-34.3486l67.69785,19.41205l27.29088,62.10412" fill="#f6a6e1"></path><path d="M236,150l-21.25942,62.51925l-61.59963,27.42592l-62.69358,-23.80528l-15.26468,-60.90815l10.46957,-59.22589l56.40357,-21.5895l54.11877,16.48286l37.99818,47.27109" fill="#60cb30"></path><path d="M220,150l-9.57546,58.3513l-58.01648,10.60666l-51.92373,-13.96525l-20.31382,-50.10976l4.71571,-59.5199l58.31943,-10.00698l49.89065,9.48317l39.09595,43.60939" fill="#c15aff"></path><path d="M224,150l-25.08489,47.23677l-46.47214,22.72059l-46.60558,-20.9098l-26.66443,-44.09485l24.09834,-44.16275l40.35247,-21.45579l52.55085,1.56503l32.05657,48.10613" fill="#18f21a"></path><path d="M205,150l-1.76885,51.40472l-50.99758,12.55629l-39.03575,-23.08805l-20.05897,-36.89685l3.23804,-48.97125l47.87405,-9.70357l41.45743,8.99408l24.69799,37.21506" fill="#349d4a"></path><path d="M200,150l-11.15565,37.51155l-36.71548,23.45129l-48.29888,-9.68585l-23.65947,-46.39404l31.52726,-37.02233l32.03051,-27.53193l48.13669,6.08658l14.5803,45.65186" fill="#c31197"></path><path d="M207,150l-21.03301,34.73292l-34.22202,15.23662l-41.89281,-5.38085l-12.72306,-40.8916l17.63285,-33.26532l30.42974,-16.17978l43.59498,-3.89667l13.69753,42.2685" fill="#76d3a1"></path></g></svg>