<svg x="0" y="0" width="300" height="300" version="1.1" xmlns="http://www.w3.org/2000/svg" xmlns:xlink="http://www.w3.org/1999/xlink"><g fill="none" stroke="none" stroke-width="1" stroke-linecap="butt" stroke-linejoin="miter" stroke-miterlimit="10" stroke-dasharray="" stroke-dashoffset="0" font-family="sans-serif" font-weight="normal" font-size="12" text-anchor="start" mix-blend-mode="normal"><path d="M0,300l0,-300l300,0l0,300z" fill="#e51218"></path><path d="M247,150l-8.70524,46.94716l-37.40821,28.49526l-39.70201,30.97142l-46.39757,-19.25856l-46.75374,-18.37701l-19.7606,-47.15546l-2.08891,-51.39165l26.12756,-45.25427l48.95012,-13.42515l47.66623,-18.89579l42.6385,28.54297l24.30713,40.56783" fill="#755ec0"></path><path d="M254,150l-13.0564,48.35557l-37.82028,30.403l-42.35689,23.67719l-48.22709,-9.71737l-27.65312,-38.08144l-20.96321,-36.34072l4.36974,-41.7254l17.686,-38.39542l34.97364,-27.57472l43.98134,4.70585l37.39748,17.71255l39.93687,25.90051" fill="#6a228d"></path><path d="M229,150l7.52886,46.00821l-40.67505,21.97287l-37.28248,13.56971l-45.28278,9.31322l-33.76464,-31.72756l-12.66646,-41.46397l-9.13858,-44.13368l34.73394,-29.11148l28.19057,-34.7777l44.8113,2.70248l44.88014,10.42284l21.88427,40.61876" fill="#8cc560"></path><path d="M238,150l-12.06651,40.37455l-32.87564,23.46134l-35.42728,8.76421l-41.71978,11.77363l-21.066,-38.09302l-23.09661,-29.64777l-7.30048,-41.16466l25.12775,-33.81958l32.61301,-27.24378l40.66149,12.71931l39.48126,5.89486l31.71496,29.56114" fill="#59d460"></path><path d="M222,150l3.93349,40.37455l-33.99403,21.80326l-35.04059,3.46063l-34.24516,2.04598l-25.51079,-23.33208l-19.52586,-28.96688l1.24956,-35.78263l15.7442,-33.09153l30.35879,-23.54688l39.61682,-5.68827l27.89419,28.35111l18.7269,27.12139" fill="#f3307d"></path><path d="M210,150l-4.3743,29.57671l-17.60058,26.79785l-31.02171,10.25841l-30.60362,-8.22038l-23.1285,-19.20254l-18.80718,-25.27996l-1.75243,-33.2247l14.05717,-32.1101l32.21799,-13.26712l31.60569,4.59857l30.65678,7.27655l14.47695,27.98579" fill="#b8bdae"></path><path d="M209,150l-7.78904,27.22935l-10.94907,32.46135l-33.6766,2.96417l-31.30933,-1.46075l-22.00468,-21.98409l-20.76347,-24.86414l6.9327,-31.71106l10.2057,-31.26093l27.48653,-21.7521l32.41791,16.21376l30.46735,2.94373l15.70828,26.40976" fill="#e4cd98"></path><path d="M217,150l-8.72546,30.98512l-20.24942,25.38943l-31.85794,2.30224l-27.89436,-4.90013l-28.83175,-11.35268l0.67341,-31.82049l-13.55774,-28.79556l23.16024,-20.7088l19.57889,-24.81992l32.16492,-1.27653l29.78854,12.20059l20.87177,25.13863" fill="#ba166b"></path><path d="M199,150l-11.9162,19.71781l-9.12415,21.73407l-23.46492,1.31256l-26.22191,11.01222l-24.23548,-15.20941l-14.68248,-25.67673l5.85323,-28.60185l14.50889,-23.18954l21.74201,-18.16252l26.87613,9.79262l23.06362,7.08222l15.19208,19.44498" fill="#2123bd"></path></g></svg>