<svg x="0" y="0" width="300" height="300" version="1.1" xmlns="http://www.w3.org/2000/svg" xmlns:xlink="http://www.w3.org/1999/xlink"><g fill="none" stroke="none" stroke-width="1" stroke-linecap="butt" stroke-linejoin="miter" stroke-miterlimit="10" stroke-dasharray="" stroke-dashoffset="0" font-family="sans-serif" font-weight="normal" font-size="12" text-anchor="start" mix-blend-mode="normal"><path d="M0,300l0,-300l300,0l0,300z" fill="#d81fec"></path><path d="M248,150l-33.65328,64.34672l-64.34672,36.65328l-63.63961,-37.36039l-39.36039,-63.63961l36.53196,-66.46804l66.46804,-40.53196l68.58936,38.41064" fill="#d75d48"></path><path d="M240,150l-17.168,72.832l-72.832,30.168l-71.41778,-31.58222l-22.58222,-71.41778l33.18882,-60.81118l60.81118,-32.18882l73.53911,19.46089" fill="#dd2c6a"></path><path d="M250,150l-35.65328,64.34672l-64.34672,25.65328l-70.00357,-19.99643l-13.99643,-70.00357l17.53196,-66.46804l66.46804,-25.53196l65.05382,26.94618" fill="#7d8722"></path><path d="M240,150l-29.89592,60.10408l-60.10408,17.89592l-56.56854,-21.43146l-37.43146,-56.56854l34.60303,-59.39697l59.39697,-33.60303l57.27565,35.72435" fill="#602e10"></path><path d="M230,150l-22.01724,57.98276l-57.98276,25.01724l-57.27565,-25.72435l-30.72435,-57.27565l34.96699,-53.03301l53.03301,-18.96699l50.20458,21.79542" fill="#32dc0b"></path><path d="M226,150l-15.89592,60.10408l-60.10408,19.89592l-45.96194,-34.03806l-32.03806,-45.96194l27.79542,-50.20458l50.20458,-18.79542l54.44722,14.55278" fill="#fa895d"></path><path d="M218,150l-12.84567,55.15433l-55.15433,21.84567l-53.74012,-23.25988l-25.25988,-53.74012l32.33095,-46.66905l46.66905,-22.33095l45.25483,23.74517" fill="#5f82af"></path><path d="M205,150l-4.79542,50.20458l-50.20458,11.79542l-45.96194,-16.03806l-25.03806,-45.96194l29.98781,-41.01219l41.01219,-30.98781l41.7193,30.2807" fill="#df4bcb"></path><path d="M219,150l-32.93755,36.06245l-36.06245,17.93755l-41.01219,-12.98781l-14.98781,-41.01219l17.10913,-38.89087l38.89087,-14.10913l38.18377,14.81623" fill="#68788a"></path><path d="M215,150l-29.64466,35.35534l-35.35534,12.64466l-31.81981,-16.18019l-17.18019,-31.81981l8.69491,-40.30509l40.30509,-24.69491l45.25483,19.74517" fill="#dcb7de"></path></g></svg>