<svg x="0" y="0" width="300" height="300" version="1.1" xmlns="http://www.w3.org/2000/svg" xmlns:xlink="http://www.w3.org/1999/xlink"><g fill="none" stroke="none" stroke-width="1" stroke-linecap="butt" stroke-linejoin="miter" stroke-miterlimit="10" stroke-dasharray="" stroke-dashoffset="0" font-family="sans-serif" font-weight="normal" font-size="12" text-anchor="start" mix-blend-mode="normal"><path d="M0,300l0,-300l300,0l0,300z" fill="#2d4bcd"></path><path d="M258,150l-22.46337,43.58309l-22.6436,42.98173l-47.40601,11.21633l-48.24281,3.03085l-43.61173,-24.44446l-9.22755,-48.556l-6.25993,-42.35993l8.52627,-45.99348l41.56162,-21.43072l41.76713,-14.0274l42.22112,13.13639l46.77075,18.20723l14.71541,48.23076" fill="#e33f18"></path><path d="M254,150l-26.48243,39.49717l-27.55582,29.26927l-35.10047,25.06395l-46.38101,3.17737l-41.31227,-24.17577l-22.27365,-41.9303l6.2137,-44.9808l15.2714,-39.40936l30.03746,-32.04817l43.58309,0.53663l47.669,-8.55569l24.33351,41.2428l14.91406,38.54665" fill="#669579"></path><path d="M250,150l-23.37344,39.04318l-28.42817,27.29621l-33.96285,23.54025l-42.04707,-4.28455l-30.17123,-27.61233l-23.8081,-31.40729l-14.01491,-41.7496l23.80326,-37.13874l31.59736,-26.98669l40.40515,-20.70042l41.76713,18.0274l27.80834,31.42307l18.3288,36.62686" fill="#677c01"></path><path d="M239,150l-22.17451,34.04929l-16.86374,34.71716l-37.91629,7.28556l-37.38485,1.93463l-35.47179,-17.17545l-28.58813,-31.76359l8.40887,-41.87522l14.65105,-35.37076l23.66429,-35.55622l42.67511,7.75461l38.1352,1.15545l37.9124,19.59273l5.93053,42.26775" fill="#070bcc"></path><path d="M232,150l-7.15545,38.1352l-33.69958,18.49599l-27.53517,29.2977l-37.09509,-13.64859l-30.25482,-18.54018l-20.44229,-29.63679l3.06885,-35.36661l-0.07993,-40.46182l35.78224,-17.77341l35.41126,-2.50149l34.50328,4.2835l29.40906,21.28146l19.05348,33.29454" fill="#40351e"></path><path d="M232,150l-19.62954,31.77933l-22.40106,23.23382l-29.80116,9.18659l-36.12567,15.68901l-32.02533,-21.90599l-3.83592,-37.89665l-17.19639,-32.60086l15.91174,-33.33249l29.05404,-20.97824l34.04929,-11.17451l34.95727,9.3925l23.29196,26.28696l16.81509,30.43152" fill="#1570bb"></path><path d="M222,150l-10.52055,31.32534l-15.04442,32.587l-34.07671,14.11504l-32.44443,-16.20871l-34.36112,-7.37145l-19.73519,-30.3439l-0.88191,-35.99234l11.96099,-33.95823l29.96202,-19.19623l33.14131,-14.95652l27.23943,26.53961l26.96471,14.07878l16.90942,28.11833" fill="#6daf4b"></path><path d="M214,150l-8.7576,28.14741l-22.91422,16.34852l-23.72429,9.82692l-27.14492,2.74053l-20.34985,-18.17252l-21.97674,-19.11379l-11.23363,-31.1968l27.60531,-20.90847l14.07857,-27.36925l30.41736,-5.30256l30.41736,5.30256l27.02284,17.96468l-3.11735,33.12886" fill="#4faff3"></path><path d="M216,150l-11.6486,27.69342l-16.73314,24.08367l-26.82428,16.37341l-28.40795,-13.94027l-31.88351,-4.71275l0.99359,-33.73761l-7.79435,-24.67663l-0.33295,-32.2282l33.02368,-5.18737l23.60751,-10.66766l23.60751,10.66766l22.50646,12.82858l13.14733,24.11769" fill="#07e67d"></path><path d="M197,150l8.2424,28.14741l-27.6165,9.87639l-19.49131,13.33599l-22.65839,-6.66014l-27.90261,-2.27325l-19.39227,-22.3403l8.4835,-28.53357l6.41218,-25.64408l21.49952,-15.80482l25.42347,-11.10363l22.69952,16.44967l16.13329,16.33663l20.42848,18.82762" fill="#fe74ae"></path></g></svg>