<svg x="0" y="0" width="300" height="300" version="1.1" xmlns="http://www.w3.org/2000/svg" xmlns:xlink="http://www.w3.org/1999/xlink"><g fill="none" stroke="none" stroke-width="1" stroke-linecap="butt" stroke-linejoin="miter" stroke-miterlimit="10" stroke-dasharray="" stroke-dashoffset="0" font-family="sans-serif" font-weight="normal" font-size="12" text-anchor="start" mix-blend-mode="normal"><path d="M0,300l0,-300l300,0l0,300z" fill="#3d97cf"></path><path d="M253,150l-29.94828,59.15612l-51.01308,44.52753l-68.79966,-11.90997l-38.19871,-53.94716l-14.53063,-64.48487l44.82633,-48.58022l60.0023,-26.62163l58.89827,30.51831l36.50767,55.38559" fill="#69c953"></path><path d="M244,150l-16.2854,62.93204l-55.88387,39.77346l-64.50583,-18.95088l-52.33362,-41.454l-5.44756,-69.21779l42.85333,-52.36648l62.99356,-23.57518l62.19159,27.80121l34.14971,58.94488" fill="#5b7265"></path><path d="M247,150l-26.27972,57.26816l-52.00823,30.76513l-57.75524,-11.40672l-47.74364,-37.98658l4.68312,-60.6396l30.96638,-48.38486l56.26624,-27.48122l60.44588,25.0375l32.20635,57.34118" fill="#6ab85c"></path><path d="M246,150l-29.16545,54.12155l-47.91459,34.88988l-58.41714,-11.49386l-31.75937,-45.79211l-14.71085,-54.76035l35.41787,-46.54057l54.63174,-8.31764l59.4852,7.29435l25.32454,56.51966" fill="#38f17c"></path><path d="M235,150l-22.05118,50.97495l-46.31589,27.27686l-54.76814,-3.40726l-29.46716,-44.74604l-9.6717,-50.80404l32.60239,-40.77977l49.59126,-32.38588l54.63304,27.73129l18.47475,53.78157" fill="#0ebb89"></path><path d="M238,150l-31.26834,45.94039l-41.5541,25.46439l-50.13482,-2.79727l-45.43473,-32.81468l7.94756,-55.20425l30.71168,-38.02878l45.76262,-19.45427l52.84623,13.72716l25.10203,50.18325" fill="#6f1d39"></path><path d="M230,150l-22.4912,46.56971l-40.25213,34.61654l-51.30596,-14.36076l-28.98535,-38.76066l-14.23943,-48.77035l32.0146,-41.58878l49.02765,-9.60702l48.424,13.93603l27.81057,45.2941" fill="#cc53b5"></path><path d="M225,150l-19.04549,45.31107l-40.56904,27.07185l-49.43475,-5.55743l-26.24471,-39.98087l-4.42303,-44.18549l25.33542,-36.86326l43.1498,-17.69719l41.73269,21.36748l31.53881,38.33196" fill="#71a998"></path><path d="M209,150l-9.26266,40.27651l-37.26264,18.41235l-38.80615,-7.01048l-38.53028,-22.80008l-8.54864,-48.54855l33.44097,-35.34291l44.0516,-22.87995l39.41128,29.58869l24.65701,37.51044" fill="#f87d6e"></path><path d="M218,150l-19.0398,39.64718l-35.65385,22.95426l-46.44765,2.44203l-33.54751,-35.3517l5.83549,-45.99737l19.12057,-41.13461l44.7159,0.51832l46.53252,1.92917l13.69639,44.98091" fill="#ff780a"></path><path d="M211,150l-22.1427,31.46602l-28.46171,17.44136l-39.90497,9.00804l-21.64916,-35.13817l-0.03552,-36.49466l14.75138,-36.44164l39.89686,-15.7505l36.02453,22.064l14.84415,35.24165" fill="#a2aa22"></path><path d="M205,150l-7.5941,38.38854l-34.09956,24.2129l-35.55188,-18.94213l-27.08592,-21.69554l3.93294,-34.12827l7.78026,-39.61259l40.18272,2.84424l41.59816,-0.11471l11.14793,40.28723" fill="#f1fbcc"></path><path d="M193,150l-9.58272,27.06078l-24.06125,16.95587l-32.50954,1.42469l-17.04248,-27.54492l-0.37288,-28.76681l15.8819,-23.10831l27.82714,-25.93906l26.97072,26.47625l13.34741,26.5584" fill="#6b0817"></path></g></svg>