<svg x="0" y="0" width="300" height="300" version="1.1" xmlns="http://www.w3.org/2000/svg" xmlns:xlink="http://www.w3.org/1999/xlink"><g fill="none" stroke="none" stroke-width="1" stroke-linecap="butt" stroke-linejoin="miter" stroke-miterlimit="10" stroke-dasharray="" stroke-dashoffset="0" font-family="sans-serif" font-weight="normal" font-size="12" text-anchor="start" mix-blend-mode="normal"><path d="M0,300l0,-300l300,0l0,300z" fill="#c13e86"></path><path d="M256,150l-5.55329,10.55737l-4.58825,9.81797l5.90458,12.68947l-14.06268,5.9819l-7.16,7.45328l3.5974,14.62967l-15.76844,0.43035l-6.80931,6.80931l-2.19371,13.34139l-9.36631,4.89182l-10.54655,2.01137l-6.07962,14.10019l-11.95893,-1.9649l-11.58923,-7.26414l-9.82568,6.51494l-10.13926,-3.53138l-11.27564,4.28058l-10.72286,-1.83933l-4.87527,-15.77724l-12.98697,3.4699l-3.48846,-12.98199l-10.74808,-2.27864l-3.38964,-10.45102l-6.80338,-6.81464l-18.23515,-0.57624l-0.51692,-12.01286l1.88021,-11.82151l-1.6226,-9.91402l-16.47339,-8.25348l18.39741,-11.49813l-10.44123,-10.6619l9.49536,-8.8818l0.64445,-10.12193l-6.44794,-13.85519l4.21862,-10.47918l6.15691,-9.48081l7.85734,-8.11617l11.26517,-4.2038l11.23615,-2.67388l8.51517,-5.52982l10.67349,-0.95526l4.76169,-16.80332l13.52112,9.81717l8.1501,-16.45701l11.3936,4.40289l10.97549,-0.4248l9.81568,6.61004l7.32938,11.26862l16.21375,-13.03031l1.66571,19.90212l9.8396,2.81772l12.41172,1.05584l0.86115,13.57163l4.50808,8.74069l10.38392,4.98846l0.95526,10.67349l8.24381,7.54284l-4.19211,11.3637l20.38598,7.42183" fill="#718f3b"></path><path d="M238,150l-0.48207,9.1985l-2.41909,8.88981l6.20258,11.57731l-9.99588,6.53393l1.83289,11.80044l-4.66379,9.01517l-5.64646,8.55963l-15.95209,-2.40749l-5.151,8.02619l-1.2251,16.27507l-10.63981,2.05889l-8.03144,8.43137l-14.15626,-14.81628l-6.90606,19.29321l-10.76643,-1.43576l-9.61662,-9.50399l-9.71917,-0.52829l-8.47574,-5.37264l-9.20151,-2.46245l-5.48697,-9.52048l-7.46175,-4.84571l-14.94392,3.3186l0.25207,-13.87069l-16.2481,0.56416l-9.16494,-6.77853l4.19337,-13.76676l2.1803,-11.03975l-5.31846,-8.27353l1.4935,-9.72146l-8.48207,-9.1985l6.49303,-9.40756l4.40813,-8.68076l-9.05575,-12.50437l10.10841,-6.82709l1.77377,-10.08023l7.84285,-6.57624l0.85823,-12.16769l4.65089,-10.29999l13.08085,-0.3127l3.3396,-14.07605l10.19939,-4.07606l12.01695,1.80519l12.19535,8.1047l8.36717,-7.3917l9.72115,-8.50946l10.34832,2.54233l8.98747,7.48994l8.16673,6.3237l7.88358,5.16558l16.61391,-10.58819l2.66403,14.82806l10.91077,2.41039l3.53767,10.59905l10.98021,4.03841l-3.01642,13.69074l10.6241,5.45328l4.55212,9.07207l-3.24105,11.05468l3.4791,9.19882" fill="#629a92"></path><path d="M249,150l-14.46564,8.88492l11.3241,11.49043l-14.0676,6.20012l-5.05304,7.59042l8.9987,15.33412l-17.77909,-0.12604l-3.30383,8.8404l-2.42445,10.89811l-4.03841,10.98021l-9.19074,4.77781l-9.54655,3.74342l-11.95094,-3.96988l-7.33508,10.23629l-10.55082,-3.3843l-9.61662,0.50399l-8.36228,-12.43825l-10.34978,8.47153l-10.33555,1.36603l-5.52502,-11.74795l-10.92739,1.15695l-2.69839,-12.46892l-5.33206,-6.88781l-19.29774,6.12321l8.10683,-18.55198l-4.56067,-7.02282l-12.02351,-3.80044l4.26997,-11.16918l-9.04141,-6.73415l5.52072,-9.82942l-19.44373,-8.46681l2.53685,-10.24379l1.60468,-10.13156l7.41021,-8.36323l14.45107,-4.20709l-11.73933,-16.55433l14.54302,-2.2251l10.99876,-2.47448l1.31124,-11.19717l9.50953,-2.56068l2.87396,-12.58294l5.82634,-10.81418l15.02525,12.41685l8.59965,-1.27041l6.80497,-17.25504l10.24379,6.46315l9.82568,-2.48506l9.71802,1.53918l7.34078,9.20396l10.12856,-0.39072l10.48697,0.86022l0.11061,16.74204l9.2655,2.36307l17.43838,-3.74575l-7.16607,18.12688l10.79388,3.78618l-2.11801,11.24086l5.96659,7.18368l-1.58276,9.5267l11.28791,7.43214" fill="#2f5fa4"></path><path d="M241,150l2.48506,9.82568l-4.47363,9.09429l-6.26951,7.96451l-10.57183,5.24772l-0.28998,9.36781l4.16749,13.75181l-8.42142,5.63907l-6.73529,6.73529l-5.63907,8.42142l-16.75181,-9.36364l-3.11391,12.7945l-10.04669,-1.49182l-7.87481,4.17776l-8.78872,0.38092l-8.67586,10.45468l-7.83963,-18.41086l-7.75374,-1.22807l-7.89191,-1.08077l-9.86711,2.63043l-13.6476,6.49566l-7.07624,-6.97682l-8.1529,-5.31709l2.03442,-14.91289l-5.33565,-6.58897l-14.14396,-1.61061l-5.28539,-8.17349l1.26675,-10.63301l1.52857,-9.72891l6.58073,-9.52042l-11.41634,-7.94416l4.45468,-8.67586l3.31536,-8.16498l-11.12041,-12.51577l20.00737,-1.96211l-4.13518,-11.68128l-1.56941,-12.25181l20.31174,5.06702l0.86715,-10.75308l3.14361,-10.25562l13.7251,5.37556l7.08802,-3.61152l6.49964,-5.70401l7.98732,-2.1402l7.22652,-10.24427l9.1985,8.51793l8.04869,2.42181l9.41589,-5.58621l6.94776,7.03093l8.94006,0.22274l4.1476,9.95882l10.69839,-1.38749l5.33206,6.88781l16.32517,-3.44669l4.57395,8.82203l-9.47766,16.57624l6.30464,5.77454l1.02375,8.24017l16.73114,4.56533l-13.42777,10.9758" fill="#d54640"></path><path d="M235,150l-7.42729,8.15322l-4.21164,7.44016l-0.12972,8.20093l6.2471,11.59178l-17.12463,0.61391l0.7495,9.84725l-9.5969,2.33015l2.03141,13.50362l-5.57609,7.08542l-9.96175,0.51559l-6.6476,5.6287l-11.4122,-7.38571l-4.68354,13.66124l-9.31251,-5.60259l-7.94416,2.41634l-7.42152,-7.38895l-9.41933,8.6189l-10.04363,3.51196l-5.24772,-10.57183l-8.86781,-1.15601l-11.31289,0.98843l-2.55582,-11.06464l-6.81231,-5.40004l2.62278,-12.62952l-11.95584,-1.90832l-2.9831,-8.05433l-7.79368,-6.37021l3.53905,-9.94253l-10.26064,-7.3299l11.51245,-9.30303l-8.52888,-8.98945l16.0804,-5.77228l-4.73393,-9.3416l-2.55541,-10.06255l1.39361,-9.33412l9.00482,-4.69839l13.57611,0.69012l-0.76717,-11.94331l2.39313,-10.93289l7.13732,-5.82576l12.68128,5.86724l4.12523,-13.34997l9.10518,-1.40587l9.41245,2.55352l8.67586,-2.45468l7.83963,10.41086l6.71418,6.11881l12.94869,-16.1737l9.10379,2.42494l4.8937,10.33898l4.34725,8.77678l1.66102,10.34004l9.71388,1.24023l10.73528,2.1491l-3.87155,12.37396l8.08421,4.86781l7.71866,6.17477l-11.41842,11.40361l11.09142,6.19154" fill="#6bb8e8"></path><path d="M227,150l7.53436,8.88492l-18.99847,5.04516l14.35286,12.02734l-4.97802,7.39498l-8.22677,5.1476l-3.58063,7.34725l-6.62432,5.00668l0.39709,12.31338l-15.14335,-5.7271l-2.73275,10.10977l-8.49475,0.96593l-4.54782,11.37284l-12.44317,-16.30915l-5.15198,15.98216l-8.36228,-7.56175l-8.78039,11.53984l-4.73387,-19.96025l-9.66201,7.74964l-11.39634,6.32213l-1.92739,-14.43151l-5.82054,-4.97063l-9.20252,-1.02707l1.73235,-12.3904l-10.88557,-0.74786l0.0545,-9.08389l-2.41286,-6.93517l-14.00094,-3.03445l-2.19438,-8.18953l7.62438,-9.3148l1.60558,-7.52605l-2.6001,-7.63058l7.06421,-6.29951l-8.64652,-10.17324l14.80195,-2.33456l-1.24132,-8.56212l4.79961,-5.55718l6.03147,-4.27457l-0.39409,-10.90411l8.45204,-1.70434l5.23275,-5.77965l8.43517,0.18522l7.97872,1.21596l4.0769,-13.49869l8.27409,1.72274l7.73511,1.59462l7.10794,4.37251l8.69335,-6.71173l6.44794,5.86315l7.84929,0.87371l7.40149,2.65046l4.23275,7.5117l9.7903,0.21806l4.21281,7.03736l4.1314,6.68869l-0.97753,9.49611l15.10745,1.05433l4.94051,7.29726l-5.57662,10.05503l-6.7281,8.58997" fill="#4ac014"></path><path d="M226,150l-3.3999,7.63058l-4.12977,6.92324l0.95679,8.00442l-3.65185,6.7268l-6.88555,4.71496l0.16851,8.90832l-1.09294,9.28386l-5.77311,5.77311l-10.45943,-0.52509l-11.23275,-4.61266l-1.6217,12.03418l-4.15694,11.22279l-10.58336,-9.57048l-6.29836,8.07511l-7.83963,-13.58914l-6.27171,-1.32869l-6.20299,-0.98246l-9.77452,9.78721l-4.18866,-9.09561l-4.06212,-6.55291l-6.53047,-1.85948l-15.83085,7.74037l-2.87454,-8.52365l-0.08631,-9.62761l-11.72781,-1.55718l10.91016,-13.78233l-13.73836,-2.35041l2.886,-8.52135l2.84826,-7.55156l-12.35608,-6.79435l14.34512,-6.58529l-5.81545,-7.96853l9.50483,-4.60524l-1.3285,-7.68556l-4.65791,-10.65538l4.27563,-6.58389l14.6013,2.5978l5.92714,-3.10259l1.35401,-8.80643l3.79383,-7.22666l9.78233,3.98196l4.20452,-8.03202l5.41978,-8.68923l8.58997,6.7281l7.00341,-2.36703l7.83963,-5.58914l5.05089,13.94399l9.97673,-9.73303l6.01104,5.51645l9.1217,-0.9562l1.38161,11.61379l1.43536,8.8723l17.89147,-7.52948l2.77685,8.18964l-2.59556,10.67168l6.88555,4.71496l3.65185,6.7268l-10.73827,10.08354l17.88933,4.42601" fill="#8ae0ef"></path><path d="M219,150l-11.31773,6.06265l-1.92786,5.78832l-2.49525,5.45399l-3.01416,5.06556l0.8505,7.12948l9.58078,14.58389l-11.62872,0.07873l-10.90711,-1.80336l-4.63669,3.75471l-0.50376,11.04371l-4.93517,5.87696l-4.88855,8.2946l-9.86993,-8.72779l-7.45275,-6.90822l-5.85359,17.30677l-7.10794,-5.37251l-4.74303,-11.87308l-7.30809,3.21109l-8.49904,3.15559l-7.34191,-1.49931l-7.90832,-1.56354l1.42223,-12.98326l-9.7909,0.09503l-9.39928,-2.08612l3.5186,-11.08389l0.51786,-7.78233l-9.93414,-3.58648l8.86325,-9.3644l-11.90582,-4.9498l-5.38347,-7.31699l7.37251,-7.10794l2.0916,-6.82215l1.8151,-6.77406l7.08097,-4.51353l-3.11593,-9.28233l15.25982,2.17181l1.39353,-6.48139l6.30022,-2.06339l0.94728,-8.47707l0.3549,-12.13777l10.28233,4.84799l6.05862,-2.32569l3.77359,-13.41742l8.9047,10.72256l6.48076,-12.33964l7.00341,7.36703l6.30294,4.03152l3.9986,9.34228l5.4723,2.10062l6.22275,0.92907l3.91597,4.92452l15.93056,-8.94462l1.68731,8.74869l-5.2289,12.58491l3.19247,4.91597l12.71012,0.74864l-0.33993,7.47427l-3.15691,7.5103l-2.01748,6.4132" fill="#bb136e"></path><path d="M215,150l2.62749,7.10794l-13.82937,4.32721l4.21633,7.41489l-5.02881,4.74069l-9.68437,1.40927l7.6668,12.03047l0.30892,9.13954l-9.7909,-0.09503l-9.15791,-1.57904l2.67181,16.12584l-9.78233,-3.98196l-9.76682,-9.08699l-2.1445,15.04862l-6.40747,3.037l-6.89888,-5.63845l-7.21246,8.62201l-4.22268,-14.82389l-8.03293,6.11844l-4.12265,-6.93092l-9.40927,4.17204l-4.03047,-6.18961l-7.13215,-1.92051l-4.88494,-4.88494l6.16966,-13.01l-6.48555,-2.65262l-3.62219,-4.90927l-10.73515,-2.88659l2.09749,-7.6057l10.90268,-7.76748l-11.27938,-5.33095l2.32869,-6.27171l-7.82087,-8.0742l2.82034,-6.66725l2.55075,-6.64494l14.48969,0.15809l-8.19078,-13.05718l4.54518,-5.61283l5.77611,-4.36384l11.40934,3.61086l7.09154,0.15761l0.15538,-13.52863l5.52245,-5.3289l8.84747,6.93404l5.57582,-6.94959l6.89888,-2.36155l6.06265,10.31773l5.16458,4.8623l6.38674,-1.39025l6.79023,-0.60251l7.5958,-0.6129l5.61826,3.64854l5.2061,4.21582l3.99377,5.40604l-0.70416,8.65147l3.24948,5.00376l-2.77263,7.75643l19.98314,-0.88762l-4.95066,8.53275l-10.90268,7.76748" fill="#3fb38b"></path><path d="M207,150l2.67131,6.27171l-3.9169,5.57926l0.35792,6.38104l-13.1757,0.88462l13.35501,13.38338l-13.41375,-1.34738l-7.95009,0.29652l1.20525,8.68068l-2.04151,6.79317l-3.09154,6.77059l-5.37559,3.85979l-11.40963,-13.80476l-4.85876,0.26804l-3.08432,15.65467l-6.27171,-6.67131l-4.91284,-6.25747l-5.27484,1.1867l-6.49924,3.42782l-9.34423,7.10986l-4.46885,-5.63936l-0.65262,-9.94965l-1.63478,-6.4638l-10.315,2.39548l5.0786,-11.18367l-16.5358,3.87409l-2.08022,-6.28233l10.03805,-10.07584l0.62883,-5.36998l-5.7422,-4.33637l-13.28486,-5.43548l10.3013,-5.74907l-1.05571,-6.1019l10.1037,-2.98185l-12.8162,-11.19833l17.76372,2.53115l-3.79274,-8.82819l-1.57904,-9.15791l10.61106,2.09942l5.48687,-1.87319l4.97705,-2.0414l5.88338,0.36463l2.4297,-8.42042l4.83595,-4.39736l5.57926,-3.9169l6.27171,1.67131l5.01737,10.26295l7.45734,-10.95181l6.99337,-1.2277l2.90244,9.67156l10.12948,-6.04665l0.41597,10.9867l-0.12857,8.89086l12.54443,-4.40287l-8.92607,14.36663l11.22563,-1.04966l3.52715,4.72275l4.00273,4.85427l-3.31946,6.90367l5.84045,4.95667" fill="#3658ec"></path></g></svg>