<svg x="0" y="0" width="300" height="300" version="1.1" xmlns="http://www.w3.org/2000/svg" xmlns:xlink="http://www.w3.org/1999/xlink"><g fill="none" stroke="none" stroke-width="1" stroke-linecap="butt" stroke-linejoin="miter" stroke-miterlimit="10" stroke-dasharray="" stroke-dashoffset="0" font-family="sans-serif" font-weight="normal" font-size="12" text-anchor="start" mix-blend-mode="normal"><path d="M0,300l0,-300l300,0l0,300z" fill="#a60ea9"></path><path d="M240,150l1.58919,57.23128l-51.69742,24.55898l-50.65821,20.6455l-45.87442,-29.93877l-39.20779,-37.61093l-0.00982,-55.2614l30.39854,-42.83857l40.78389,-35.75625l54.03265,8.6198l51.8441,22.21488l17.8261,54.21818" fill="#c2535d"></path><path d="M233,150l-3.28348,49.81241l-40.26312,31.07905l-48.02474,0.65933l-51.14783,-5.11375l-26.73256,-44.97119l4.28732,-48.93044l18.8625,-43.66535l43.94815,-16.49372l45.00216,-1.31403l41.7635,22.37238l14.78034,45.01394" fill="#e1c935"></path><path d="M236,150l-16.46006,43.45338l-37.10048,23.05738l-41.0108,15.04004l-35.14063,-25.60203l-23.00621,-31.66533l-14.46807,-41.5401l25.07775,-36.92668l35.0613,-30.23238l47.93168,1.67381l26.73863,37.74678l16.68592,35.11384" fill="#73cdf3"></path><path d="M216,150l-8.33273,36.03451l-28.73477,23.2859l-36.35402,11.29065l-38.75309,-11.51025l-24.30234,-33.4493l3.96291,-39.78951l8.96685,-41.43467l41.58034,-8.46685l36.67098,0.31873l30.62084,20.65402l16.01325,33.603" fill="#d1eafe"></path><path d="M204,150l1.12313,34.44475l-24.87552,27.57204l-35.68309,-10.30165l-30.88855,-5.2225l-17.23845,-26.99749l-14.90785,-34.04897l25.30994,-27.12568l28.887,-15.56795l35.90458,-9.32651l22.03334,29.93506l16.74182,28.14933" fill="#bc7372"></path></g></svg>