<svg x="0" y="0" width="300" height="300" version="1.1" xmlns="http://www.w3.org/2000/svg" xmlns:xlink="http://www.w3.org/1999/xlink"><g fill="none" stroke="none" stroke-width="1" stroke-linecap="butt" stroke-linejoin="miter" stroke-miterlimit="10" stroke-dasharray="" stroke-dashoffset="0" font-family="sans-serif" font-weight="normal" font-size="12" text-anchor="start" mix-blend-mode="normal"><path d="M0,300l0,-300l300,0l0,300z" fill="#dca422"></path><path d="M247,150l-7.78879,49.45058l-38.33896,31.96204l-45.48165,21.44622l-45.28238,-21.06858l-45.30004,-22.13831l-20.22751,-48.57193l17.05085,-48.59021l20.6457,-49.17099l51.14071,-18.01378l50.78407,10.7257l46.55191,23.77095l12.1701,50.44671" fill="#01ca6b"></path><path d="M249,150l-23.78271,41.69363l-28.05448,33.78265l-42.71426,9.40723l-48.28567,4.99589l-26.60996,-40.55183l-10.1092,-40.86077l-1.36866,-43.24188l29.59371,-32.20584l37.46995,-26.84948l48.03723,2.68021l30.97436,35.38517l18.01408,38.30044" fill="#da03fe"></path><path d="M220,150l6.09191,42.17844l-37.93773,18.88103l-33.44395,28.8172l-43.2869,-10.78278l-31.05126,-30.33988l-2.97217,-41.12342l-3.8018,-40.06126l28.38031,-29.03416l34.4118,-24.46405l38.57727,17.33132l36.91872,14.80072l7.56229,39.03511" fill="#2da63e"></path><path d="M228,150l-8.90504,38.29996l-28.82109,26.1517l-36.45334,8.4483l-34.94488,-9.08558l-29.4929,-21.36972l-9.9938,-35.02314l15.38076,-30.86539l5.97737,-39.59699l37.3639,-12.02345l38.90861,0.8286l22.79124,30.93582l14.74691,29.57772" fill="#b2f61c"></path><path d="M218,150l-9.40048,32.48224l-25.21461,20.94479l-30.71578,-2.49692l-30.72489,6.59271l-16.99761,-25.97611l-12.62891,-25.48405l2.45198,-29.50652l13.98097,-29.35285l33.11473,1.43693l29.68186,-7.84084l28.26356,15.90074l4.96543,31.65684" fill="#a63beb"></path></g></svg>