<svg x="0" y="0" width="300" height="300" version="1.1" xmlns="http://www.w3.org/2000/svg" xmlns:xlink="http://www.w3.org/1999/xlink"><g fill="none" stroke="none" stroke-width="1" stroke-linecap="butt" stroke-linejoin="miter" stroke-miterlimit="10" stroke-dasharray="" stroke-dashoffset="0" font-family="sans-serif" font-weight="normal" font-size="12" text-anchor="start" mix-blend-mode="normal"><path d="M0,300l0,-300l300,0l0,300z" fill="#a6b3e4"></path><path d="M249,150l-23.92826,56.57061l-45.02727,48.20691l-63.73106,-17.02096l-51.11822,-34.76463l-6.8451,-61.01025l18.07857,-58.2256l54.10882,-33.88204l62.42289,12.04416l43.46726,44.04474" fill="#40027e"></path><path d="M251,150l-28.32417,54.76517l-47.31719,33.67091l-60.83706,3.98839l-45.93419,-41.55221l-6.25252,-58.54195l11.12122,-61.25075l57.84464,-27.27901l63.85151,3.62368l41.2754,48.53871" fill="#d07024"></path><path d="M243,150l-16.33099,57.77424l-50.7591,32.58436l-56.72956,-10.07068l-46.35273,-32.06526l1.46158,-54.84649l18.48865,-44.89922l42.33905,-25.04386l56.08999,-7.91972l33.63766,46.35144" fill="#bb91bd"></path><path d="M230,150l-23.29688,42.72887l-34.10086,36.09459l-50.1966,-6.93777l-38.55342,-30.55199l-13.54782,-48.30616l21.73028,-45.21973l43.84543,-20.44822l53.1349,-7.35226l28.70146,45.48939" fill="#1e59ae"></path><path d="M213,150l-2.3037,45.73794l-40.85041,23.4729l-46.36512,-0.12589l-30.29999,-33.58036l-23.87255,-42.56421l21.98333,-45.8017l44.58858,-19.77909l49.18956,0.73689l26.40976,40.57818" fill="#e3ece9"></path><path d="M210,150l-0.10234,45.13613l-39.5005,25.99724l-44.04945,-9.51706l-31.47084,-27.17156l-9.62953,-40.10988l22.3934,-32.47532l31.29233,-18.79393l41.7529,-5.98121l34.3575,29.77428" fill="#6f29ec"></path><path d="M207,150l-2.69279,40.92342l-36.11515,22.51985l-35.39373,-18.63141l-24.3527,-18.84582l-6.26299,-30.14952l0.25608,-38.64088l35.5403,-19.01815l38.32324,7.91487l19.13906,30.77413" fill="#7daeb6"></path><path d="M201,150l-9.47095,31.29438l-29.95228,9.07861l-32.72048,14.70825l-26.34698,-25.40577l-10.2886,-34.73051l14.67689,-33.75454l33.94357,-8.30853l35.89947,-7.70833l16.91868,32.5809" fill="#faff5d"></path></g></svg>