<svg x="0" y="0" width="300" height="300" version="1.1" xmlns="http://www.w3.org/2000/svg" xmlns:xlink="http://www.w3.org/1999/xlink"><g fill="none" stroke="none" stroke-width="1" stroke-linecap="butt" stroke-linejoin="miter" stroke-miterlimit="10" stroke-dasharray="" stroke-dashoffset="0" font-family="sans-serif" font-weight="normal" font-size="12" text-anchor="start" mix-blend-mode="normal"><path d="M0,300l0,-300l300,0l0,300z" fill="#4c8bb6"></path><path d="M241,150l17.18753,13.28376l-16.00944,9.69882l2.11353,13.21258l-7.76276,9.81305l1.1204,15.36447l-17.79366,1.5256l-10.8103,5.02559l-1.44844,17.46701l-9.47388,9.05582l-11.18482,7.04011l-12.19356,5.6939l-13.56007,-0.76686l-12.82507,-12.42816l-11.1634,-2.88102l-15.14853,13.21533l-9.88281,-10.67442l-9.67608,-7.93284l-8.91604,-8.0471l-8.36246,-8.18703l-7.21833,-9.05657l-3.47217,-11.40452l-8.1075,-8.249l-18.52816,-5.60716l10.17013,-15.61766l-9.66598,-10.65381l11.66668,-12.03084l-13.7621,-13.28466l6.61984,-11.41375l14.24199,-7.32643l-12.41736,-19.8342l13.80197,-6.38513l10.24618,-7.38605l14.57581,-1.17196l4.70675,-13.16558l7.97979,-11.1473l13.35962,0.10141l9.60369,-13.8244l13.31578,-1.75306l12.80214,11.86635l12.23589,-0.61508l9.24101,11.45704l17.32173,-11.63918l10.15144,8.66034l8.71847,9.62547l2.96346,14.61617l15.40418,2.3478l7.98029,9.84917l4.94978,11.67009l4.40421,11.77959l-3.95785,13.44406l-2.66763,11.85532" fill="#d04ea4"></path><path d="M256,150l-5.75284,12.3088l-10.00966,10.18993l6.85486,14.77153l-11.44645,8.26847l-15.19884,3.78883l-0.59146,13.5707l-0.96942,16.34623l-15.20368,0.3431l-8.28347,9.51305l-13.59118,-1.70924l-9.08782,11.01996l-13.20797,-7.90988l-11.11771,1.4845l-10.36327,-6.82293l-11.06601,0.80434l-15.92419,10.45972l-3.70416,-19.46059l-16.11528,3.93517l-0.55533,-17.27393l-21.10081,3.86493l3.27697,-17.38591l-1.03739,-11.9685l-19.19333,-4.60477l4.46439,-13.78191l-8.68784,-10.86172l-4.32357,-12.58923l14.08041,-10.84906l-6.19368,-13.56661l11.52124,-8.61372l-0.94111,-13.77127l2.8132,-13.29239l14.8794,-3.58947l12.50781,-3.33842l7.98566,-8.14819l6.59805,-12.66861l13.94586,3.08883l8.51283,-15.60423l13.59889,9.2839l11.80812,-4.09574l10.62072,9.24682l13.72756,-6.96927l7.48349,13.45414l10.88551,3.41608l14.28327,0.12747l-0.66352,18.0708l8.61467,6.72442l16.44094,2.77503l-1.61417,14.19234l13.53966,7.71222l-6.91227,13.96501l-2.70909,11.49138" fill="#77f7a8"></path><path d="M243,150l-10.61867,10.11516l7.85617,12.38358l-9.94959,8.32091l-5.23737,9.08544l8.50296,18.59971l-18.89991,-0.29043l-7.57646,7.44537l-1.15785,17.24402l-12.3362,2.63287l-12.11723,0.91509l-13.01987,-6.55338l-8.72484,12.59219l-11.41403,4.49469l-9.85848,-14.79298l-11.74235,4.74107l-7.79863,-9.97706l-17.38861,10.50571l-9.70978,-7.36929l-2.50711,-15.0022l-5.18197,-9.81075l-15.47122,-2.44975l6.75114,-16.44518l-19.00643,-4.15356l-5.18657,-11.23217l5.15061,-12.80644l7.69469,-11.194l-1.95665,-10.92131l-6.29938,-13.08979l3.07367,-11.66992l15.78577,-4.81762l-2.92207,-15.47787l14.96438,-2.15206l4.14579,-11.92178l14.11298,0.96763l8.27535,-6.76469l9.26528,-5.79525l9.75728,-6.6473l10.97886,-5.47238l11.8953,-1.10198l9.80482,13.17223l12.5492,-5.19918l12.78399,-0.54835l4.54138,15.86745l13.06387,0.50054l9.30297,6.89787l12.41394,4.99334l-0.72969,14.79831l2.44615,11.18394l5.71819,9.59374l1.60896,10.97749l-2.75056,11.12744" fill="#c8b3c6"></path><path d="M239,150l5.29188,11.57759l-12.78704,8.74385l5.31814,13.00678l-7.3577,8.92422l-7.3799,8.22229l-13.37694,2.38659l3.61717,18.83609l-11.43905,3.74501l-11.38938,2.07515l-11.45152,-0.46277l-7.35015,12.58725l-10.97435,2.84849l-11.36167,1.49515l-11.72009,1.08005l-7.86254,-15.85982l-12.49143,4.24063l-8.46384,-7.35463l-7.78331,-7.32547l-5.96212,-8.79544l-13.02013,-2.12012l-4.85901,-9.92265l-3.49328,-10.22832l-2.12727,-10.35219l3.12805,-11.13061l-6.38865,-8.98319l-7.26101,-10.37488l2.04091,-10.78171l0.42945,-11.16033l10.15241,-7.73842l8.04038,-7.17859l-2.59516,-14.16335l7.85595,-7.66124l4.86513,-11.22713l14.11298,0.96763l3.62655,-16.73407l16.69523,12.73364l6.78531,-16.18843l11.16967,-4.49076l11.11026,13.87746l12.32634,-11.65529l7.01188,17.08086l15.36461,-10.23968l1.64129,19.98415l7.33359,6.25138l19.15355,-5.71031l7.68588,8.6873l-1.14463,14.19457l14.89752,4.83982l5.10396,10.80103l-14.93325,14.76057l9.09478,9.28629" fill="#55a0a0"></path><path d="M239,150l-12.57395,9.38394l4.10849,10.69558l-0.24663,10.74013l-4.35442,9.55491l-12.85879,3.79083l-8.08199,5.35028l-5.78829,7.08755l-4.46899,9.71979l-3.87629,13.86758l-11.44541,0.62298l-12.31745,-6.76144l-7.37513,18.43841l-11.25696,-4.50394l-9.18052,-11.73596l-9.73038,0.0575l-8.398,-4.91498l-12.36411,2.94952l-6.40179,-8.8123l-11.72325,-1.9026l-7.31201,-7.70525l0.39089,-12.89604l-18.23167,-1.8196l3.17204,-13.20803l-6.71869,-9.28681l1.36435,-11.1295l-1.27745,-10.65371l-3.90862,-11.47725l1.49642,-11.36151l10.27468,-8.0837l4.73971,-9.50639l11.45337,-4.6452l7.78234,-6.03815l2.61627,-11.87405l5.7995,-10.26692l12.1928,0.19447l11.08759,0.99639l10.10167,1.51143l8.73016,-6.18309l9.50571,4.90791l10.4876,-6.84183l10.4388,0.45314l13.38165,-4.58737l6.06003,12.15689l9.88494,4.37144l6.63297,8.53376l6.95774,7.8643l-0.90988,12.77392l10.79231,5.60036l10.32867,7.67442l-14.11946,13.87458l15.01745,8.36571" fill="#f673f4"></path><path d="M233,150l-11.53668,8.77459l7.13063,10.82108l-2.97394,9.43213l-8.516,6.65203l-9.76337,4.47051l2.85409,14.04923l-5.08577,9.19603l-15.40626,-4.53394l-4.74543,9.74583l-9.9898,-0.00994l-6.52148,11.30078l-9.03842,9.60863l-10.64668,-18.51778l-8.503,-1.67042l-10.96341,7.9553l-8.13918,-5.88091l-5.09197,-10.16978l-12.49836,2.68896l-7.44284,-6.1354l-13.53404,-1.21163l1.15694,-13.53883l-2.05337,-9.71028l-12.06073,-5.64291l7.00801,-12.07992l-1.35353,-9.0567l0.75968,-9.11924l-12.96165,-11.18367l11.93816,-7.73348l-6.94652,-13.27536l9.1788,-7.22493l4.86212,-9.15428l6.0208,-8.58634l12.77623,-0.87677l2.98401,-13.1628l10.60304,-2.34967l13.25071,7.65378l7.17531,-9.07248l9.35388,-4.2517l9.80224,3.90715l10.33059,-3.84594l10.73117,-0.50317l10.24212,2.76375l8.39215,6.61923l-0.68193,17.69847l7.10828,4.95617l8.10821,4.64563l3.40325,8.47621l12.28114,4.13707l2.5072,9.55593l8.18909,8.45599l-11.79351,11.11322" fill="#d34f1a"></path><path d="M217,150l-1.49195,8.04338l14.0562,11.79422l-3.01065,9.54858l-16.51316,2.53789l7.13003,15.1092l-11.43461,3.15153l-11.12385,1.13546l-6.0277,5.88334l-2.71906,13.18592l-9.18768,2.90651l-7.55673,9.52543l-11.59479,-11.21588l-8.76517,-0.61639l-8.36382,-2.66069l-10.84376,7.97964l-5.77576,-11.40527l-10.13826,0.69361l-3.60868,-10.58332l-9.81648,-1.62434l-9.96559,-3.25139l-3.9875,-8.74487l-4.56938,-8.07636l4.01308,-11.17757l-5.15322,-7.3769l-13.23568,-7.5278l1.7335,-10.06079l10.82478,-8.27999l-12.54263,-12.59797l9.94862,-7.16295l3.43785,-9.13224l6.98846,-6.94157l10.5011,-3.07383l9.628,-2.05338l-0.22907,-15.77507l13.6555,6.21492l4.3257,-13.50454l8.38439,-7.32322l11.42403,16.61746l8.31978,-5.06347l8.78682,-0.00346l11.47181,-7.51083l10.1914,1.67917l3.94694,13.30744l6.21481,6.69361l5.87696,6.53219l2.59214,8.95526l9.77649,3.65154l5.9427,7.09253l-5.3998,11.20872l20.59255,4.53644l-2.81967,10.52088" fill="#04fe77"></path><path d="M230,150l-6.55158,9.01833l1.26436,9.60965l-4.69424,8.24961l0.61728,10.68013l-12.47601,3.1662l-4.65337,7.45348l-10.20653,1.63343l-1.36043,12.36699l-12.43009,-4.26239l-7.96211,1.28521l-7.37535,2.18468l-7.16851,5.24765l-8.32979,9.35546l-9.38995,0.26222l-7.14219,-9.60176l-10.98619,4.74427l-1.6983,-16.29212l-10.01418,0.72113l-4.45471,-7.55283l-10.90935,-1.34585l3.92367,-13.15588l-14.51318,-1.32816l-0.62106,-9.32413l2.57408,-9.39317l-3.1835,-7.79558l-9.21185,-8.61385l3.86416,-8.88889l11.56819,-6.06464l4.44945,-6.58454l-9.61266,-14.27467l9.1822,-4.83068l10.74467,-1.82211l5.85126,-5.36169l-0.9578,-16.48131l7.20892,-7.32144l10.55137,0.13483l9.02941,-3.36614l9.77242,1.73368l9.5407,-5.07412l7.74251,12.93726l11.70038,-9.50895l7.63661,7.11768l5.76402,8.62695l13.4015,-2.90084l-2.40098,16.53362l0.77341,9.91225l15.43088,-0.45684l7.88254,6.49566l-1.40354,10.49669l-5.76924,10.17473l16.89031,7.16923" fill="#a04b69"></path><path d="M211,150l16.4186,9.50581l-7.55731,7.91257l-15.71363,3.36696l8.54161,12.54714l0.38543,10.8329l-8.82514,4.68115l-3.07697,10.02081l-17.06184,-8.29606l-1.42345,13.58118l-12.85015,-9.6503l-3.41574,16.62684l-8.99991,-0.51796l-8.55593,-5.62095l-8.05102,0.36759l-9.44955,4.18897l-6.46367,-7.42534l-6.89879,-4.39642l-3.85747,-8.37486l-10.52099,0.38202l-4.94909,-6.66528l-1.51127,-8.75451l-8.28175,-4.50302l-1.28623,-8.32174l-7.04425,-6.72577l4.69582,-9.09661l-3.20592,-8.03829l6.7219,-7.32577l-8.93543,-10.42259l-1.62727,-10.3555l18.1058,-0.52297l-7.80136,-15.33976l8.98313,-4.3703l12.2353,0.97272l5.83175,-5.38578l1.48053,-15.56888l13.80517,11.7265l6.94728,-3.85864l6.98004,-11.99316l9.05226,1.91735l9.55038,-2.93024l6.21799,11.75778l8.88266,0.12424l7.06606,4.80364l1.40206,11.8639l6.19383,4.14713l8.08719,3.11552l14.78118,0.36006l-4.79434,12.40658l3.82118,7.37008l-7.90987,9.80968l18.77699,6.09406" fill="#fa8d67"></path><path d="M208,150l7.50805,8.04338l4.35325,9.375l-1.70992,8.74248l-14.29157,2.47691l1.02338,9.79186l-2.1199,9.07865l-5.52703,6.83082l-9.77033,1.20643l-4.77861,8.60695l-10.11399,-2.13276l-6.82676,6.18619l-9.78845,-11.51816l-7.00527,3.30311l-8.97332,11.30844l-7.57923,-5.61634l-9.74659,2.00147l-3.19672,-12.58338l-4.13632,-7.36904l-13.74255,4.19411l-3.66914,-8.21656l0.93212,-10.48658l-5.46512,-5.6056l2.72947,-9.06l-9.68504,-5.04312l7.79269,-8.63354l0.82041,-6.80019l-12.19631,-8.71807l-2.04803,-9.20835l6.61651,-6.72383l8.03473,-4.93028l5.84283,-5.21072l9.15308,-1.49549l5.58039,-3.75967l-2.58113,-16.54944l6.55853,-5.83253l10.53783,4.43129l8.97358,5.92707l5.61154,-15.83999l8.28479,4.91856l9.10083,-5.99524l6.20912,9.70265l4.4722,9.13141l8.74837,-1.07228l6.85431,3.4997l-0.60291,11.46091l10.6729,0.01275l13.71655,0.57323l-3.19276,11.1599l3.73566,7.14135l-6.98207,9.39859l1.78647,6.86246" fill="#fd0622"></path><path d="M219,150l-5.47705,7.79964l1.48686,8.40913l-16.46363,2.42637l9.72836,12.34999l-9.94457,2.85589l-0.02556,9.65248l-8.28481,2.54379l-2.55368,9.50823l-12.04246,-5.64915l-7.63842,-1.03235l-3.16323,14.47004l-8.35011,-3.66274l-7.28395,-1.68015l-6.78145,-2.53615l-5.92372,-4.26094l-10.63202,9.07288l0.10895,-16.53597l-8.67549,1.57397l-12.77792,3.69575l3.56145,-13.64738l-10.7038,-1.04106l-5.58537,-5.81813l6.41809,-10.58788l-3.75089,-6.05528l2.95609,-7.23171l-17.15904,-7.06222l15.6345,-6.16093l-4.3141,-8.20998l4.32718,-6.23926l-5.44597,-11.44686l17.42807,2.6038l-8.0261,-16.72989l18.88777,9.76879l-0.85906,-12.87364l9.50369,2.79031l4.28037,-8.12277l6.52005,-4.77912l8.39363,9.96918l6.24413,1.94185l8.67033,-14.08103l9.17889,-2.92883l1.49776,17.60988l9.45354,-2.95575l-0.63425,12.88667l11.64333,-3.02587l5.64225,4.87106l5.07572,5.62299l-1.07228,8.74837l6.2625,5.34931l6.66272,6.37389l-3.08228,8.21595" fill="#11cb31"></path><path d="M209,150l2.53786,7.5559l-0.40923,7.68518l-18.18393,1.24385l2.96858,7.9276l-2.49822,5.98703l-2.54209,6.40263l-8.72607,0.17859l3.08226,15.2486l-5.71977,5.68606l-13.43444,-13.74987l-4.82739,4.55295l-6.02113,1.00759l-6.29102,11.26461l-8.12083,4.36698l-7.12018,-4.50437l-7.29462,-2.44074l-5.48836,-5.9354l-2.65183,-8.79026l-13.27149,4.58243l-0.18473,-10.34488l-7.63962,-3.61221l10.59293,-13.70882l-4.08709,-4.6506l-17.24918,-2.43858l9.78508,-8.80785l-8.16772,-6.87018l3.68862,-7.06586l14.05557,-3.44968l-4.56872,-8.02943l4.61946,-4.79125l0.24234,-7.59983l5.0806,-4.41173l-2.06148,-13.00294l9.11067,-0.3684l7.70591,-0.77666l8.63839,4.10672l4.95635,-6.43667l6.23935,-6.86191l6.6626,14.91445l6.7959,-6.25785l8.92369,-7.09608l7.49736,1.73753l2.70269,10.40916l1.22466,9.31969l12.16755,-3.89478l7.92538,2.93263l-8.50065,14.06485l8.18742,2.75805l9.00314,4.1291l3.7083,6.89484l-11.11278,8.2707" fill="#84ddbb"></path><path d="M212,150l-9.39505,6.45908l2.70191,7.33047l-14.22932,1.97864l10.13342,11.46116l-9.43421,2.02305l-1.64693,6.88065l-11.91928,-3.68054l-0.25089,8.99937l-0.26622,12.89952l-6.48817,3.90954l-10.4076,-11.49118l-5.25764,5.9399l-6.60461,8.28105l-6.58992,-6.52597l-6.58053,-1.33882l-4.49528,-6.76673l-5.51015,-2.62821l-3.38543,-5.70719l-8.52001,0.73795l-5.98653,-3.40843l-2.3171,-6.48745l2.20622,-8.26242l-10.70572,-2.37163l11.86684,-9.49953l-2.75037,-4.89744l-8.13576,-5.64963l-3.34222,-6.94556l8.20872,-4.7459l5.6791,-4.07667l-1.01253,-6.9171l-6.28152,-12.21072l13.46912,2.67246l-3.14089,-13.36764l10.30282,2.45935l6.10957,-2.18146l3.43513,-9.93539l8.42814,5.03715l6.76457,4.14317l5.65109,3.94337l7.59516,-12.19434l2.96641,14.05663l10.31963,-9.99468l4.11303,6.64222l4.71738,4.45331l9.7049,-0.74274l-5.47081,13.39887l16.03871,-3.09689l-7.52348,11.48723l-0.77371,6.481l11.15922,3.7248l-7.21502,7.21217" fill="#59a32b"></path></g></svg>