<svg x="0" y="0" width="300" height="300" version="1.1" xmlns="http://www.w3.org/2000/svg" xmlns:xlink="http://www.w3.org/1999/xlink"><g fill="none" stroke="none" stroke-width="1" stroke-linecap="butt" stroke-linejoin="miter" stroke-miterlimit="10" stroke-dasharray="" stroke-dashoffset="0" font-family="sans-serif" font-weight="normal" font-size="12" text-anchor="start" mix-blend-mode="normal"><path d="M0,300l0,-300l300,0l0,300z" fill="#9d1ae7"></path><path d="M244,150l-14.28344,47.89854l-30.42204,44.81096l-54.9468,15.14249l-51.94459,-22.46112l-37.56545,-41.01595l-7.27344,-55.14135l23.37084,-48.81326l44.97572,-24.79404l48.48117,-6.4936l44.74449,20.39124l31.63332,39.22155" fill="#12933d"></path><path d="M246,150l-23.14078,43.77824l-28.72889,39.21884l-48.73589,4.88233l-44.04422,-15.75313l-32.01161,-34.51324l-18.7908,-48.06587l23.58182,-46.71958l40.65735,-29.98286l51.16934,-13.58893l38.68063,35.63043l38.96939,32.88253" fill="#3a21ee"></path><path d="M226,150l-0.56928,45.32335l-40.68983,20.01477l-39.45113,24.53854l-41.70277,-21.06654l-22.46638,-36.69113l-9.68784,-40.37674l10.68321,-42.89653l36.41706,-26.72917l45.54606,-11.00851l37.98669,26.84235l22.63017,36.32972" fill="#4ccc36"></path><path d="M227,150l-10.14095,40.17297l-31.17921,26.93105l-39.70971,9.79046l-39.02798,-13.05858l-18.57108,-35.09785l-15.94378,-36.89126l20.86959,-34.57565l25.23617,-35.15458l44.29458,-3.107l40.52375,17.40876l11.88941,41.11749" fill="#6975e9"></path><path d="M212,150l1.43038,38.11282l-29.62843,25.45941l-37.72715,11.32499l-39.13266,-11.06132l-18.57108,-35.09785l-12.96021,-36.57768l24.27511,-30.07471l26.71382,-20.49824l35.64567,-17.63942l36.16362,18.59867l19.86827,34.01243" fill="#c624d2"></path><path d="M210,150l-7.71279,31.41732l-27.87468,14.49595l-27.65735,16.00176l-30.86594,-11.34374l-11.20462,-29.44038l-4.41071,-26.35734l-1.38658,-33.28974l27.88706,-18.96924l31.98594,2.17485l34.94923,3.21952l10.185,33.53364" fill="#d7badf"></path><path d="M205,150l-3.56996,30.90228l-26.07857,16.77689l-28.17761,6.24682l-20.65996,-19.10642l-21.82929,-13.68866l-13.3614,-27.29809l11.5573,-29.33991l28.38917,-10.85211l25.30058,4.87628l22.99798,6.24487l12.03459,20.91305" fill="#2526c1"></path></g></svg>