<svg x="0" y="0" width="300" height="300" version="1.1" xmlns="http://www.w3.org/2000/svg" xmlns:xlink="http://www.w3.org/1999/xlink"><g fill="none" stroke="none" stroke-width="1" stroke-linecap="butt" stroke-linejoin="miter" stroke-miterlimit="10" stroke-dasharray="" stroke-dashoffset="0" font-family="sans-serif" font-weight="normal" font-size="12" text-anchor="start" mix-blend-mode="normal"><path d="M0,300l0,-300l300,0l0,300z" fill="#4a27fd"></path><path d="M253,150l-30.50301,56.64086l-47.82096,42.32931l-65.3497,-7.61562l-44.97225,-45.8158l-5.9412,-61.68802l30.69624,-51.4769l53.42694,-39.11317l68.97516,15.54522l28.83915,61.83752" fill="#cd5f56"></path><path d="M254,150l-33.86704,54.79387l-46.90846,38.35452l-59.8308,-10.9293l-47.27372,-37.61929l-11.64633,-61.44367l35.3046,-50.03916l54.29245,-17.90991l59.05263,6.03437l26.76542,52.80114" fill="#e642ad"></path><path d="M235,150l-11.715,57.25652l-51.27011,31.04039l-55.77403,-12.47264l-45.70614,-33.57183l-8.18261,-57.70713l31.44092,-46.96948l50.76597,-15.38583l56.32756,2.36758l40.41487,45.77679" fill="#070694"></path><path d="M226,150l-5.86704,54.79387l-51.98881,17.97831l-51.08981,1.225l-42.10488,-34.0921l0.20516,-53.10234l25.32972,-41.79546l43.65612,-28.80266l51.71336,15.8143l22.62225,45.73186" fill="#ba7d8a"></path><path d="M220,150l-11.6872,45.55895l-39.44289,30.12412l-51.0021,-3.51298l-33.20593,-37.4292l-4.58323,-47.06992l13.71438,-50.09514l50.20791,-23.36634l44.02417,29.41595l24.74461,35.97943" fill="#9f79ee"></path><path d="M221,150l-22.14333,38.17101l-30.4706,35.57146l-46.04416,-11.62138l-28.85055,-32.07491l-4.54943,-40.81237l14.88807,-40.51081l40.93828,-23.54031l43.81605,17.61371l37.50021,32.48223" fill="#9c78d9"></path><path d="M212,150l-17.08339,35.0927l-30.64322,22.15474l-43.96517,9.44137l-35.64635,-31.94792l8.21927,-44.81249l8.94145,-43.43483l43.71299,-10.33767l35.22002,18.24703l32.01412,25.20194" fill="#2368df"></path><path d="M210,150l-6.41527,41.86498l-38.8275,17.32306l-36.72101,-9.85658l-29.24718,-22.1021l-12.80154,-38.51648l18.51162,-39.24672l41.87354,-1.33948l37.17891,2.13108l22.56076,31.51025" fill="#35d8a1"></path><path d="M200,150l-13.75151,28.32043l-22.70087,26.01613l-36.73161,-2.26447l-27.14402,-25.31221l-5.80603,-36.65783l19.33186,-30.97502l33.87241,-1.02472l37.04054,-8.6736l9.63783,36.35651" fill="#0b533b"></path></g></svg>