<svg x="0" y="0" width="300" height="300" version="1.1" xmlns="http://www.w3.org/2000/svg" xmlns:xlink="http://www.w3.org/1999/xlink"><g fill="none" stroke="none" stroke-width="1" stroke-linecap="butt" stroke-linejoin="miter" stroke-miterlimit="10" stroke-dasharray="" stroke-dashoffset="0" font-family="sans-serif" font-weight="normal" font-size="12" text-anchor="start" mix-blend-mode="normal"><path d="M0,300l0,-300l300,0l0,300z" fill="#0b5096"></path><path d="M256,150l-24.53918,61.38513l-51.41635,43.39239l-65.16453,-13.28664l-57.31718,-33.72968l0.78733,-65.77953l22.53744,-54.21082l48.12348,-45.74984l67.01796,13.60562l43.07168,48.97432" fill="#10c4e5"></path><path d="M246,150l-20.92826,56.57061l-45.57854,46.28439l-64.25489,-12.2977l-39.86654,-43.92441l-22.99885,-55.17416l24.05574,-57.70267l56.39853,-22.10252l63.64015,-6.92572l47.97935,47.14918" fill="#578875"></path><path d="M252,150l-28.52553,55.36698l-45.63509,41.72045l-65.46801,0.93851l-36.9996,-51.39305l-29.97221,-55.78425l32.5154,-55.75432l55.48467,-20.4959l60.4375,-4.47784l34.57146,49.92824" fill="#e613c0"></path><path d="M254,150l-30.52553,55.36698l-50.04529,26.34026l-56.04066,3.24857l-44.56089,-36.73317l-11.48895,-55.97951l26.23716,-48.45011l46.39621,-26.24971l54.60462,3.36281l43.39594,37.32675" fill="#d26020"></path><path d="M250,150l-33.71325,49.95065l-40.92811,38.48543l-58.68686,-1.6131l-51.47659,-33.83105l-8.83749,-61.18457l19.32782,-58.72042l57.7141,-18.4885l55.17704,6.30769l35.37688,41.41266" fill="#cd63d8"></path><path d="M233,150l-14.31735,51.75609l-45.52912,28.98989l-51.82297,-6.05955l-53.59123,-23.28427l-12.37783,-59.68196l35.18691,-45.25065l40.7523,-42.66902l60.78291,9.91524l29.19689,49.96499" fill="#737c84"></path><path d="M230,150l-16.10916,48.1452l-37.98093,42.2134l-57.80466,-7.26994l-38.49324,-39.10536l-18.27334,-51.74016l22.52144,-51.79576l48.77627,-29.77545l54.18679,13.82937l41.5854,35.54754" fill="#ca365e"></path><path d="M237,150l-19.91462,50.55246l-46.13694,22.50343l-51.76808,7.23203l-40.4164,-35.7747l-10.45193,-51.65999l10.34606,-57.08977l55.12314,-19.20177l56.11054,1.64805l41.18982,40.47712" fill="#f69736"></path><path d="M226,150l-6.51871,52.35791l-49.08413,18.77546l-53.72538,15.68961l-35.36368,-43.89952l-23.95421,-51.02894l28.73565,-49.43975l46.92845,-29.81959l53.36681,12.76491l31.33169,40.09663" fill="#e74eee"></path><path d="M241,150l-19.92144,53.56154l-49.30321,22.37814l-54.02847,8.08256l-38.13488,-40.03894l-3.33042,-50.43282l12.78053,-48.41918l43.76507,-33.47774l53.99599,12.84775l33.56634,39.63345" fill="#be7c97"></path><path d="M232,150l-18.90779,47.54339l-41.59249,27.43503l-47.66057,-6.82704l-41.68299,-25.75783l-15.83651,-49.71462l16.79732,-52.90067l50.09184,-26.16144l47.91554,22.56881l34.81013,30.21908" fill="#b50a3d"></path><path d="M238,150l-32.09551,42.12705l-36.60987,25.16127l-46.88895,4.59737l-35.16123,-32.67167l-5.98188,-45.22777l15.23101,-42.16366l38.24171,-30.35277l48.58093,10.22183l41.52834,30.17315" fill="#b98f95"></path><path d="M236,150l-18.11598,51.15428l-47.21122,20.94035l-51.13408,7.25971l-40.77476,-34.84112l-6.46715,-51.31137l21.96732,-43.38665l42.95166,-15.58423l42.59344,4.65103l42.36229,24.34476" fill="#7524b6"></path><path d="M228,150l-16.50507,46.33976l-43.02723,18.06478l-41.76162,-3.72181l-42.85383,-19.34903l0.3989,-47.08598l13.72871,-41.08686l38.09108,-24.81964l50.31386,-2.94112l25.09464,43.27456" fill="#756adc"></path><path d="M224,150l-22.88733,38.51616l-30.71551,32.6172l-46.19966,-3.91557l-31.01673,-31.7132l-10.92202,-41.43118l14.97796,-41.58168l37.11694,-32.98516l48.96254,12.18508l21.9262,40.16094" fill="#06e0e1"></path><path d="M229,150l-28.68596,37.91435l-29.08996,36.1028l-48.46004,-3.06504l-37.21569,-30.67825l-3.28958,-46.20045l8.28965,-47.60386l47.43062,-8.31206l43.14532,-1.97186l37.48315,28.85711" fill="#fdc9a8"></path><path d="M226,150l-25.68596,37.91435l-34.05143,18.80009l-43.49857,14.23767l-30.43131,-34.9176l-4.0968,-41.43817l4.54192,-46.1194l44.43795,-14.24596l39.52484,10.94258l40.08485,20.77715" fill="#1143c6"></path><path d="M225,150l-14.3037,45.73794l-41.12605,22.51164l-46.44785,1.76895l-27.39748,-36.1037l-15.45855,-40.01573l17.71349,-40.73824l37.70946,-26.7829l41.05131,18.7956l24.93774,28.49499" fill="#a5e60b"></path><path d="M218,150l-23.27641,33.70164l-26.80716,28.78037l-41.92708,0.06788l-35.35271,-25.45554l0.58788,-42.23654l5.26906,-43.03521l39.38656,-24.46301l38.23028,23.20674l38.26004,17.65434" fill="#1dc3a8"></path><path d="M221,150l-17.49142,40.32161l-39.17544,9.664l-35.11848,4.16206l-29.2495,-22.88243l-21.69118,-37.54045l23.4216,-37.21828l36.85587,-15.40414l35.12058,10.36275l28.89734,21.74944" fill="#70428b"></path><path d="M215,150l-17.08187,36.1089l-29.17479,29.25689l-43.11236,-1.88233l-20.57753,-35.39775l-10.84035,-32.96644l11.94136,-34.59798l31.06134,-26.29032l34.70276,20.82932l32.43284,17.24628" fill="#6b5f42"></path><path d="M203,150l-2.68596,37.91435l-35.15398,14.95505l-33.79519,-4.32321l-33.94385,-15.69119l4.76164,-37.03847l12.14639,-27.93479l25.55807,-19.90797l32.46981,6.18774l26.64843,20.86902" fill="#7d2537"></path><path d="M216,150l-25.26959,30.69257l-23.64089,28.90566l-38.23323,-4.51698l-26.34698,-25.40577l-11.28479,-34.81767l22.36139,-27.64521l25.53798,-23.16535l33.67141,9.21546l27.10107,21.31382" fill="#196aa3"></path><path d="M194,150l-4.06822,30.09075l-27.52809,13.16603l-33.90576,12.75805l-29.38081,-24.21967l-7.8926,-36.93734l12.70051,-36.34391l33.8632,-21.33804l31.50011,23.2772l21.69797,18.66338" fill="#e26644"></path><path d="M207,150l-17.86686,29.48894l-26.45382,14.7291l-34.53976,12.73037l-19.69391,-30.98236l-13.23635,-30.75961l11.68831,-34.01601l32.03548,-18.1248l32.54711,12.89347l15.94209,24.97331" fill="#c4cfdf"></path></g></svg>