<svg x="0" y="0" width="300" height="300" version="1.1" xmlns="http://www.w3.org/2000/svg" xmlns:xlink="http://www.w3.org/1999/xlink"><g fill="none" stroke="none" stroke-width="1" stroke-linecap="butt" stroke-linejoin="miter" stroke-miterlimit="10" stroke-dasharray="" stroke-dashoffset="0" font-family="sans-serif" font-weight="normal" font-size="12" text-anchor="start" mix-blend-mode="normal"><path d="M0,300l0,-300l300,0l0,300z" fill="#98519d"></path><path d="M249,150l-5.70066,11.45572l8.58171,13.94608l-16.92523,7.20968l2.45599,13.8662l-1.40085,13.74784l-14.66906,4.01101l-12.29659,3.68732l-0.33006,19.12508l-11.04625,6.50674l-12.44093,3.23265l-13.40782,-2.27444l-11.47193,3.94377l-12.26808,11.52558l-12.97176,-4.02456l-9.95511,-13.2298l-9.99178,-6.50078l-15.09698,3.85773l-5.31642,-14.03823l-19.76801,4.40131l3.01164,-20.02687l-12.69755,-5.41349l-6.97127,-10.29469l-5.71142,-11.18034l-10.20782,-10.66323l2.99579,-13.71893l2.66258,-12.7111l1.19365,-12.39657l13.2694,-9.12668l0.02685,-12.03646l6.04157,-9.88054l1.54284,-13.1815l2.89419,-14.14694l18.44256,2.05387l1.29552,-19.31462l12.01113,-5.38574l13.70042,-0.03283l13.39288,3.75318l10.59316,-14.48234l12.40094,14.86437l13.36581,-10.53227l12.75834,2.03651l10.49574,8.18667l11.56178,4.8934l7.2859,11.06318l11.08296,5.80727l14.47539,4.31068l-7.03378,19.7236l20.71706,3.04921l-13.50903,18.02084l19.307,7.7331l4.47482,12.8234" fill="#20fa15"></path><path d="M247,150l-1.71557,11.69946l-6.01722,10.55736l-7.11213,9.27957l9.67147,17.28866l-18.10287,2.79684l-1.63864,13.28379l-13.03974,3.01819l-4.8036,12.49278l-11.11261,4.22898l-6.87496,14.9618l-15.10874,-8.01663l-10.06538,13.82853l-12.86016,-3.43486l-10.74543,-12.86034l-12.57987,4.57068l-10.10757,-6.53952l-8.90466,-7.56489l-7.60743,-8.3969l-12.38274,-2.44625l-2.53802,-12.82473l-11.3505,-5.27109l-1.09751,-12.07477l-17.34902,-5.36871l-6.2626,-11.37722l2.08983,-13.028l3.67475,-12.18798l0.14745,-11.94533l-6.06154,-14.16262l13.56603,-8.40772l1.82041,-12.59908l2.01457,-13.89421l9.92332,-8.54492l11.96932,-5.55261l9.50959,-8.00916l11.78994,-4.12987l10.12406,-8.2791l14.39253,7.61855l10.35105,-14.45046l12.99413,-1.11157l12.98041,1.47893l12.41105,4.00613l7.24184,15.49503l8.12018,8.72822l19.52235,-7.17209l2.71358,15.72779l10.21172,7.02321l7.77282,9.5473l5.69419,10.93844l-8.11327,15.35169l21.21961,7.14836l-4.51285,13.29442" fill="#f4b015"></path><path d="M237,150l8.28443,11.69946l-6.01722,10.55736l0.35651,12.14651l-0.44601,13.0133l-20.36894,0.76379l0.3037,14.04873l-8.75504,7.20413l-2.20137,16.78663l-11.39504,5.55376l-11.53295,5.01467l-15.65733,-12.01814l-10.05865,5.7313l-11.06535,-1.51505l-10.13728,-5.80393l-10.82672,0.85303l-8.9497,-6.1521l-10.71148,-1.79153l-15.42452,3.19175l-11.27888,-5.41694l-0.82821,-15.37305l-9.96366,-6.75296l-12.00329,-7.02685l-2.87486,-12.15704l-3.2629,-11.76565l8.15724,-12.94715l5.70869,-10.77557l-8.89387,-11.77328l7.29041,-9.82688l5.46837,-9.46188l-5.65259,-15.50639l4.27569,-11.88513l21.03628,3.03383l-2.5075,-19.36329l7.82044,-10.48241l13.2724,-1.52747l13.10063,1.27621l9.08525,-12.65934l12.60792,0.35363l12.06966,4.88553l12.16692,-1.62753l12.046,1.86549l9.40281,8.84366l4.62322,14.78477l20.7656,-9.95107l-3.21761,21.14194l20.35392,-2.60195l-6.59155,18.60482l11.29972,6.57507l3.06307,11.04268l8.55963,9.9994l3.36562,11.90524" fill="#bdb463"></path><path d="M232,150l6.33661,10.84637l8.69297,13.34582l-13.00733,8.06093l-4.55696,9.99933l-6.56075,8.79586l2.1531,16.53389l-15.35626,1.09638l-13.84755,-0.69749l-0.45477,21.11957l-13.9332,-2.64893l-8.97075,10.98529l-12.66943,-3.95195l-11.25677,-11.49755l-11.92952,13.07822l-11.48601,-2.33686l-12.98864,0.91669l-1.43431,-22.80137l-17.74559,7.63045l-0.95469,-16.30958l-16.33645,0.18533l0.5033,-14.42216l-11.58242,-6.28298l0.28876,-12.34413l-0.00217,-11.21282l-5.55488,-10.15714l-0.29085,-11.10703l3.0403,-10.74681l-1.49308,-11.71161l1.02887,-11.87591l5.23003,-10.48981l5.67079,-10.37606l16.32376,-0.6699l1.35845,-14.7829l11.56278,-3.34351l8.49654,-8.02056l12.84164,2.45102l9.13924,-8.54941l12.09496,10.48864l9.94182,-1.08493l11.16314,-5.76027l8.81216,8.2746l15.1866,-9.24061l9.47516,7.18302l5.86525,11.29794l16.62391,-1.28483l2.65523,13.54561l3.07205,11.51875l4.16049,10.15387l2.84927,10.47085l1.52346,10.62132l3.19975,10.44949" fill="#80a721"></path><path d="M231,150l11.30679,11.33385l-1.09899,11.40681l-18.38853,5.21204l0.46538,11.01344l2.89649,14.37647l-9.29811,6.87915l-12.43013,2.41914l-8.59908,5.34019l-9.08059,4.19045l-6.67546,10.52142l-10.97693,0.1285l-10.13139,2.70743l-10.45545,-1.54168l-12.17296,13.05906l-6.54892,-21.70406l-11.27907,2.54123l-7.31782,-7.91387l-18.2304,8.50507l-7.09268,-9.7274l2.05825,-16.68145l-10.91474,-4.6822l1.06082,-12.3139l-3.73796,-9.02424l-20.21698,-5.67011l17.15908,-13.49004l-2.25128,-9.71216l1.93559,-9.6879l3.07539,-9.26059l-13.3493,-16.12557l6.15053,-10.09908l13.65715,-4.35791l2.58269,-12.24532l17.81161,3.98584l-1.78526,-20.79523l11.56875,-2.87401l12.41902,1.54471l9.13924,-8.54941l10.9091,-6.46995l11.23235,13.8764l9.49563,5.10026l11.54448,-4.41389l11.16996,0.97942l12.83736,-0.06897l1.04059,17.67118l16.6909,-2.55826l9.2619,7.45598l-7.86366,18.51612l14.55925,4.19001l8.67262,8.94535l-10.06621,13.65488l7.13899,9.7549" fill="#caad36"></path><path d="M239,150l-6.61867,10.11516l-8.63886,8.27091l4.67828,11.71684l-4.25316,9.3327l-1.26307,11.61269l-12.7098,3.15128l-8.36607,5.42248l-4.85646,10.0171l-8.38301,6.0964l-10.54354,1.31924l-9.37471,3.81792l-9.05432,10.6233l-10.943,-15.50759l-9.94664,4.22329l-12.79715,9.61939l-11.51746,-1.74864l-3.68195,-17.23827l-15.39445,4.39438l-6.03383,-10.1481l-9.01219,-6.59681l-0.73828,-12.74399l-0.5564,-11.11836l-2.74572,-9.237l-2.54506,-9.1772l-15.3544,-8.19878l12.69804,-10.77539l-10.92776,-11.47848l10.09492,-8.64236l7.98534,-7.59913l-6.14291,-14.52297l6.06509,-9.16335l4.25925,-11.13453l16.01367,1.57192l3.38162,-13.44641l9.34177,-6.20794l10.45132,-4.11688l12.01999,3.07726l9.85247,-9.35108l10.79632,12.88203l9.65264,2.10437l10.66737,-1.54498l13.26728,-4.63013l1.83142,18.95785l18.82991,-8.85914l6.56598,9.8072l9.8072,6.56598l-0.28747,13.67953l-1.48992,12.26938l15.85271,5.34836l-8.18211,12.95142l-2.86113,10.15695" fill="#170dbd"></path><path d="M232,150l-1.60376,9.87142l-5.68347,8.75657l-1.8935,9.32471l-8.3641,6.31872l4.3536,13.909l-4.89832,9.36481l-14.04997,-0.1873l-4.56586,9.79412l-4.88947,12.14754l-12.01748,-1.30509l-11.74129,-5.8911l-8.91127,1.49124l-9.23601,12.39228l-10.05046,-3.79465l-8.63652,-6.85004l-12.02828,4.3956l-3.17494,-15.89057l-16.334,7.34626l-8.97275,-6.10302l-1.35175,-13.02468l-4.20537,-9.03931l0.64301,-11.02539l-3.41089,-8.23462l-5.31636,-7.96519l-12.32972,-8.21874l4.71889,-10.44431l-2.00346,-10.43517l11.85888,-7.37587l-1.54576,-10.58569l9.55451,-5.74151l-1.40223,-12.34883l1.46687,-12.47576l14.93425,1.20721l3.51393,-12.31475l13.45407,4.05274l5.85254,-11.96041l11.95577,7.21777l8.10235,-15.16116l9.97652,16.88187l10.12367,-6.88329l10.08263,0.36763l8.97119,4.41981l4.13707,12.28114l12.78584,-2.11283l14.47814,-0.51785l4.21022,10.78417l0.01645,12.3595l15.4728,3.78327l-0.84767,11.98343l6.41899,9.63435l-16.71755,11.98146" fill="#3dd93b"></path><path d="M229,150l-6.54413,8.89646l5.16779,10.45729l-9.47229,6.80711l3.36738,11.86634l-4.34829,9.00607l-9.94832,4.48979l-5.39349,8.099l-2.61969,13.33325l-9.25781,5.45327l-14.29965,-7.93163l-7.88038,6.49829l-8.67716,9.54817l-10.54253,-3.53605l-8.85026,-9.70752l-8.33616,-3.73318l-14.33041,12.04552l-9.21306,-5.50026l-3.08103,-13.79761l-14.75639,2.06482l-4.33188,-10.36497l-0.2299,-12.05695l-10.02227,-5.5524l9.35912,-13.9206l-17.90176,-4.79171l11.41653,-11.39728l-11.22342,-9.17187l-1.99176,-10.55671l2.27269,-10.25145l14.55115,-5.20929l4.8975,-7.5859l4.12083,-8.03431l-1.32552,-13.81699l17.00144,4.72823l6.32876,-5.7403l1.1718,-17.6728l12.74628,5.70692l8.29317,-5.23768l9.4421,-1.24308l9.47087,0.91552l8.1255,7.95793l10.94199,-6.61153l8.22136,5.20508l9.36929,2.62678l6.71793,7.03939l7.7484,5.5225l-0.78159,12.67369l9.05764,4.36782l8.73971,5.98062l0.50907,9.91195l12.99911,7.11286l-10.78106,11.18219" fill="#9abc6c"></path><path d="M234,150l-16.50686,8.28712l5.27904,9.85703l-6.48797,7.29998l-0.06314,9.76624l3.40685,13.54363l-11.66263,3.43819l-2.85634,11.20342l-18.20223,-8.67912l-0.58749,16.56404l-11.00975,-1.74327l-7.98826,5.48924l-8.64537,7.51882l-10.17677,3.44158l-9.63294,-6.76546l-10.60695,1.91632l-9.35155,-4.18151l-1.87471,-17.48212l-12.8802,3.62919l-0.52864,-13.37127l-15.67371,2.33374l-8.39873,-6.31612l1.24119,-11.9951l-1.70675,-9.33697l-5.38162,-8.2005l-9.37723,-8.72172l8.71965,-10.18266l9.79029,-7.95028l3.71954,-7.55452l-12.95863,-14.23862l6.25385,-8.06932l10.25039,-4.63613l9.54388,-3.48996l5.04272,-7.32842l10.3364,-0.01667l4.96877,-8.37668l5.28454,-11.73667l10.02907,0.49923l9.04202,-5.21739l10.09883,-4.08082l9.26965,7.0837l7.62493,7.98957l8.75538,2.20788l14.19476,-6.11402l0.03435,16.97961l16.48356,-4.07441l-8.80247,20.17753l16.56467,-0.56939l-4.6252,12.73148l9.68728,5.95894l-8.63815,11.05184l14.89305,7.2739" fill="#aef14b"></path><path d="M231,150l-1.59631,9.74955l-11.48299,7.18499l4.89857,11.01817l-13.66178,3.50189l6.37467,14.43152l-14.99832,-0.38523l3.26299,16.3853l-18.56769,-9.65682l-5.71977,5.68606l-7.62009,2.2249l-5.01796,12.93743l-9.34528,-1.47218l-8.71281,-3.61593l-8.41618,0.33885l-11.87904,11.84335l-5.11509,-14.34179l-10.24846,0.64104l-10.17729,-1.74974l-0.03507,-14.25795l-12.69358,-0.32597l1.8832,-12.55734l-15.83284,-1.63366l4.67826,-12.17996l3.48697,-9.83639l-6.19013,-7.65487l-3.22829,-8.89268l9.76688,-7.70721l-6.9072,-10.34813l11.34131,-5.11545l-5.06461,-12.21175l2.72573,-9.54339l11.29974,-2.47202l3.3348,-9.82484l8.71373,-3.76337l11.0059,1.97468l8.34292,-1.1408l7.99254,-1.03604l7.65914,-4.02859l8.45929,-3.06834l9.30776,-2.95788l8.90426,2.13772l6.95042,6.86113l9.23452,1.43135l3.75216,9.84565l9.75381,1.96594l9.05803,4.21286l1.89638,9.80815l1.37497,9.12621l0.12424,8.88266l13.72739,5.8707l-3.90123,9.84535" fill="#26a403"></path><path d="M230,150l-7.54413,8.89646l-13.26783,5.86077l10.83049,12.12036l-17.04168,1.2907l1.90633,10.26133l2.33896,13.09344l-17.20255,-5.48577l-3.11287,8.6792l-6.03538,5.87196l-9.66611,-2.3275l-7.25828,2.15l-5.79375,17.16176l-9.4447,-3.58398l-7.05891,-14.57265l-7.95521,1.43724l-11.04068,6.83109l-11.43849,2.28516l-6.47469,-7.67527l-3.16242,-10.3682l-4.43518,-7.57377l-7.52721,-5.13833l5.55784,-12.47337l-17.97849,-1.67189l0.42201,-9.68328l0.6569,-9.11025l11.76257,-8.36918l-15.10086,-9.79505l12.5823,-6.02741l-1.03282,-9.04402l4.62511,-7.03955l4.58251,-6.92342l3.23409,-8.39732l8.90866,-2.74804l9.30947,-0.5102l3.69433,-9.95626l8.76554,-0.23449l6.08445,-10.85231l9.42772,3.79256l8.86049,-6.06636l7.6569,9.91373l10.00108,-4.78443l5.61585,9.55901l10.34642,-1.36567l1.80455,12.14052l7.97382,3.05653l7.7846,4.27985l13.41263,1.89326l-2.79811,11.91801l8.8165,6.48005l-11.56407,11.69151l8.87363,7.34529" fill="#80d2d2"></path><path d="M207,150l18.43351,9.26207l-1.69103,9.12399l-4.65752,8.13316l-14.3422,2.58801l-2.31702,7.60166l-1.89188,8.79199l-7.89001,3.55524l-2.38195,10.63458l-13.93044,-8.01233l-6.8363,1.8841l-5.09828,8.7972l-7.39346,4.27328l-8.34724,10.35531l-7.14572,-16.58192l-10.92187,12.03808l-5.68721,-10.32312l-10.29246,1.72592l-3.99051,-9.6431l-2.90229,-8.86021l-15.16943,2.86514l8.81044,-16.62001l-18.76666,1.28877l6.89636,-12.04147l-8.93529,-6.07463l12.66538,-9.79385l-15.17304,-7.48064l-4.09586,-9.53269l9.72495,-6.97352l7.41475,-5.98781l9.54886,-3.49321l-0.15195,-8.81253l-1.55772,-12.00821l8.90866,-2.74804l7.18979,-3.90239l3.70092,-11.0956l10.2606,2.39493l9.37381,4.79258l7.59347,2.02054l7.08136,-0.0618l8.42529,-7.0768l7.83575,1.8812l6.32788,5.56275l7.85307,1.83749l9.00317,1.34313l1.35998,10.53212l3.44002,6.90093l12.72107,0.88702l10.34129,4.73394l-11.05211,13.19168l4.72161,6.83991l8.88745,7.46661" fill="#496f54"></path><path d="M213,150l-9.40251,6.58094l-0.23123,6.72476l3.58214,8.55474l-6.62039,4.89943l10.28924,15.68478l-19.74429,-5.64247l0.45875,10.74452l-8.33934,1.36651l-1.21305,13.45724l-8.52197,1.52864l-11.11001,-11.28311l-6.39829,2.08272l-6.79621,5.29216l-6.60738,-5.52612l-11.49809,17.01377l-5.19682,-11.21156l-1.83029,-13.03749l-6.14847,-2.73353l-9.95571,0.84799l-2.91272,-7.41946l-9.31696,-2.52293l0.58594,-9.09927l-1.85795,-7.09375l-14.64103,-4.23888l14.63972,-10.08892l-8.17411,-7.11429l2.72434,-7.46537l-7.0129,-9.87132l1.05273,-8.95312l19.56546,1.02337l3.70644,-5.59983l3.64192,-5.80104l1.89448,-8.50503l2.35403,-10.26137l11.10003,4.19511l7.32051,-0.73806l4.82977,-11.5588l8.66857,6.91274l7.04645,2.93303l6.61984,1.75883l8.5764,-5.12647l9.53105,-2.8302l6.33442,5.54805l1.10019,11.65643l8.04081,1.7831l11.23923,0.65287l6.48614,5.91294l-0.56488,9.72308l-1.95941,9.00994l12.57157,5.33201l-2.99935,8.94382" fill="#b69b27"></path><path d="M216,150l-10.41742,6.82468l6.51634,8.65832l2.31812,9.24439l-12.32314,2.97143l-0.48733,8.43649l-12.96305,-1.34052l5.31242,15.77075l-14.31873,-6.62655l-6.48371,1.50234l-3.65837,8.12115l-3.74857,14.64343l-10.10204,-14.50172l-6.63932,3.28714l-8.74733,12.32745l-5.26939,-13.29507l-9.71253,5.17044l-8.72783,-0.84537l-0.0519,-14.23479l-10.14414,0.69267l1.51545,-11.45332l-9.86513,-1.5857l3.4627,-10.09558l-13.86935,-2.18454l9.58426,-10.26027l-10.93649,-5.64926l-7.20029,-8.05583l9.72007,-7.22107l-2.20659,-8.49313l7.29248,-5.64253l-0.14086,-8.6654l4.38034,-6.61798l15.22498,3.6904l2.70303,-6.53831l2.71806,-8.06896l4.64029,-7.06255l8.39295,0.98506l8.11913,4.08609l5.50895,-13.81299l7.74408,5.92146l5.88955,8.70777l10.85157,-13.81872l5.3364,8.38891l6.71469,3.49545l3.776,7.43975l3.88961,6.10664l7.68267,2.65829l7.57806,3.97725l7.26238,5.30435l3.86394,7.48444l3.93632,7.84463l-14.99673,9.45054" fill="#288f07"></path><path d="M202,150l8.54532,7.43403l4.4645,8.77474l-1.52634,8.16025l-17.57019,0.0435l4.055,10.57564l-3.8933,6.49793l-13.27203,-3.75062l1.30782,12.83581l-6.41735,3.78011l-6.83019,2.96985l-9.84063,-9.57712l-3.91467,19.88336l-8.01546,-15.63541l-5.77278,-4.45921l-10.40175,16.21824l-5.01973,-9.04726l-1.65388,-11.84748l-11.51144,5.68465l0.4852,-11.24198l-14.24493,3.83937l-7.16408,-4.64759l7.65605,-12.81877l-12.92383,-2.51011l14.50762,-11.18217l-17.80157,-4.31464l4.78921,-7.75909l-5.22398,-8.2307l4.62794,-7.04048l16.37525,-1.38994l0.88296,-6.24491l0.97359,-6.8962l1.32531,-7.69933l5.76043,-3.92465l8.21606,0.26972l0.40093,-13.84694l8.39295,0.98506l7.35589,0.15959l6.96975,0.08916l6.62783,3.93485l6.65553,-1.25088l8.1653,-4.19867l4.42148,8.04683l12.02873,-7.24159l-1.97812,15.59648l4.04805,4.91411l15.15825,-3.95555l3.63801,7.05556l-11.00853,13.43908l11.61549,2.5658l2.63798,6.71232l-7.17355,7.57611" fill="#8345eb"></path><path d="M215,150l-19.34288,5.60599l12.56062,8.90932l-5.00366,5.91166l-3.76902,5.86343l-10.94492,0.66768l0.88653,8.50583l-1.99131,7.55452l-1.04783,10.869l-12.28604,-6.6641l-2.85625,11.0376l-9.73275,-8.56807l-6.24608,0.03322l-6.1165,1.26614l-7.59949,9.41412l-4.19257,-13.07599l-8.29584,4.59193l-6.65618,-2.06897l-5.28183,-4.54837l-5.27593,-4.34914l1.42177,-10.102l-0.97004,-6.34505l-6.30073,-3.02857l-13.63572,-1.62053l1.92222,-8.00869l0.9637,-7.0574l-0.17579,-6.71304l6.56977,-5.74582l-14.08528,-10.25114l10.93374,-3.96452l12.57713,-0.61906l-5.75245,-11.20164l3.72122,-5.89389l10.16567,1.51538l2.22106,-7.71445l1.14545,-13.11541l12.94639,14.21035l2.31202,-18.12448l7.95663,1.97273l7.34297,1.93226l6.63648,3.76991l5.7714,4.46508l10.53544,-7.78276l7.44633,2.75103l-5.77271,20.25539l14.72164,-6.96592l-0.66184,9.79635l1.95096,6.36312l14.75138,0.2358l1.78029,7.61173l-9.0372,9.38971l12.70229,5.6802" fill="#a795a9"></path><path d="M209,150l-11.35778,5.84973l-5.9195,4.55291l10.55779,9.66596l-1.06954,7.16075l-11.07251,0.87589l3.70709,11.37346l-9.73048,-0.23381l-5.03704,3.86506l-2.29259,9.45943l-7.29029,0.99309l-6.44799,2.95098l-7.82074,-6.78737l-6.02923,-3.7331l-5.18163,-3.41147l-8.76824,12.47625l-2.10461,-13.3345l-12.23128,10.75391l-2.06404,-9.59928l1.14469,-10.69834l-12.89056,3.81654l0.96496,-8.76415l2.38659,-7.94362l-15.29314,-0.40538l0.06381,-7.2399l-4.99542,-6.41371l0.80762,-7.28841l9.57964,-5.76265l0.36007,-6.23578l2.9991,-5.47905l7.92012,-2.46344l4.56243,-3.27623l1.89174,-5.28874l3.96085,-3.62945l4.37365,-3.11969l-0.77279,-14.34543l4.93019,-7.30596l8.28294,3.01275l7.38829,6.07455l6.05229,0.94536l6.81254,-4.24677l8.45767,-5.15497l4.53584,8.08959l2.35131,9.10097l7.90823,-0.62054l-0.81025,9.94476l9.15675,-0.19459l-4.97553,10.3828l13.33043,-0.33218l4.22161,5.59096l2.58098,6.47487l-7.20119,7.33348" fill="#101611"></path></g></svg>